<svg width="600" height="400" viewBox="0 0 600 400" xmlns="http://www.w3.org/2000/svg">
<rect x="0" y="0" width="600" height="400" fill="#FFFFFF"/>
<g>
<line stroke-width="2" x1="213.5" y1="15" x2="238.5" y2="15" stroke="#5470C6"/>
<circle cx="226" cy="15" r="5.5" stroke-width="2" stroke="#5470C6" fill="#FFFFFF"/>
<text font-size="14" x="241.5" y="19" font-family="Roboto" fill="#464646">
Series A
</text>
</g>
<g>
<line stroke-width="2" x1="301.5" y1="15" x2="326.5" y2="15" stroke="#91CC75"/>
<circle cx="314" cy="15" r="5.5" stroke-width="2" stroke="#91CC75" fill="#FFFFFF"/>
<text font-size="14" x="329.5" y="19" font-family="Roboto" fill="#464646">
Series B
</text>
</g>
<g stroke="#E0E6F2">
<line stroke-width="1" x1="26" y1="27" x2="595" y2="27"/><line stroke-width="1" x1="26" y1="83.3" x2="595" y2="83.3"/><line stroke-width="1" x1="26" y1="139.7" x2="595" y2="139.7"/><line stroke-width="1" x1="26" y1="196" x2="595" y2="196"/><line stroke-width="1" x1="26" y1="252.3" x2="595" y2="252.3"/><line stroke-width="1" x1="26" y1="308.7" x2="595" y2="308.7"/>
</g>
<g>
<g stroke="#6E7079">
<line stroke-width="1" x1="26" y1="27" x2="26" y2="365"/>
<line stroke-width="1" x1="26" y1="27" x2="21" y2="27"/>
<line stroke-width="1" x1="26" y1="83.3" x2="21" y2="83.3"/>
<line stroke-width="1" x1="26" y1="139.7" x2="21" y2="139.7"/>
<line stroke-width="1" x1="26" y1="196" x2="21" y2="196"/>
<line stroke-width="1" x1="26" y1="252.3" x2="21" y2="252.3"/>
<line stroke-width="1" x1="26" y1="308.7" x2="21" y2="308.7"/>
<line stroke-width="1" x1="26" y1="365" x2="21" y2="365"/>
</g>
<text font-size="14" x="2" y="32" font-family="Roboto" fill="#6E7079">
48
</text>
<text font-size="14" x="2" y="88.3" font-family="Roboto" fill="#6E7079">
40
</text>
<text font-size="14" x="2" y="144.7" font-family="Roboto" fill="#6E7079">
32
</text>
<text font-size="14" x="2" y="201" font-family="Roboto" fill="#6E7079">
24
</text>
<text font-size="14" x="2" y="257.3" font-family="Roboto" fill="#6E7079">
16
</text>
<text font-size="14" x="10" y="313.7" font-family="Roboto" fill="#6E7079">
8
</text>
<text font-size="14" x="10" y="370" font-family="Roboto" fill="#6E7079">
0
</text>
</g>
<g>
<g stroke="#6E7079">
<line stroke-width="1" x1="26" y1="365" x2="595" y2="365"/>
<line stroke-width="1" x1="26" y1="365" x2="26" y2="370"/>
<line stroke-width="1" x1="168.2" y1="365" x2="168.2" y2="370"/>
<line stroke-width="1" x1="310.5" y1="365" x2="310.5" y2="370"/>
<line stroke-width="1" x1="452.8" y1="365" x2="452.8" y2="370"/>
<line stroke-width="1" x1="595" y1="365" x2="595" y2="370"/>
</g>
<text font-size="14" x="61.1" y="384" font-family="Roboto" fill="#6E7079">
Category A
</text>
<text font-size="14" x="203.9" y="384" font-family="Roboto" fill="#6E7079">
Category B
</text>
<text font-size="14" x="345.6" y="384" font-family="Roboto" fill="#6E7079">
Category C
</text>
<text font-size="14" x="487.9" y="384" font-family="Roboto" fill="#6E7079">
Category D
</text>
</g>
<rect x="58.7" y="167.8" width="34.1" height="126.8" stroke="#5470C6" fill="#5470C6" fill-opacity="0.3"/>
<line stroke-width="3" x1="58.7" y1="238.2" x2="92.9" y2="238.2" stroke="#5470C6"/>
<line stroke-width="2" x1="75.8" y1="83.3" x2="75.8" y2="167.8" stroke="#5470C6"/>
<line stroke-width="2" x1="75.8" y1="294.6" x2="75.8" y2="343.9" stroke="#5470C6"/>
<line stroke-width="2" x1="65.5" y1="83.3" x2="86" y2="83.3" stroke="#5470C6"/>
<line stroke-width="2" x1="65.5" y1="343.9" x2="86" y2="343.9" stroke="#5470C6"/>
<rect x="201" y="139.7" width="34.1" height="126.8" stroke="#5470C6" fill="#5470C6" fill-opacity="0.3"/>
<line stroke-width="3" x1="201" y1="210.1" x2="235.1" y2="210.1" stroke="#5470C6"/>
<line stroke-width="2" x1="218" y1="48.1" x2="218" y2="139.7" stroke="#5470C6"/>
<line stroke-width="2" x1="218" y1="266.4" x2="218" y2="329.8" stroke="#5470C6"/>
<line stroke-width="2" x1="207.8" y1="48.1" x2="228.3" y2="48.1" stroke="#5470C6"/>
<line stroke-width="2" x1="207.8" y1="329.8" x2="228.3" y2="329.8" stroke="#5470C6"/>
<rect x="343.2" y="196" width="34.1" height="112.7" stroke="#5470C6" fill="#5470C6" fill-opacity="0.3"/>
<line stroke-width="3" x1="343.2" y1="259.4" x2="377.4" y2="259.4" stroke="#5470C6"/>
<line stroke-width="2" x1="360.3" y1="118.5" x2="360.3" y2="196" stroke="#5470C6"/>
<line stroke-width="2" x1="360.3" y1="308.7" x2="360.3" y2="358" stroke="#5470C6"/>
<line stroke-width="2" x1="350" y1="118.5" x2="370.5" y2="118.5" stroke="#5470C6"/>
<line stroke-width="2" x1="350" y1="358" x2="370.5" y2="358" stroke="#5470C6"/>
<rect x="485.5" y="153.8" width="34.1" height="126.8" stroke="#5470C6" fill="#5470C6" fill-opacity="0.3"/>
<line stroke-width="3" x1="485.5" y1="224.2" x2="519.6" y2="224.2" stroke="#5470C6"/>
<line stroke-width="2" x1="502.5" y1="69.2" x2="502.5" y2="153.8" stroke="#5470C6"/>
<line stroke-width="2" x1="502.5" y1="280.5" x2="502.5" y2="322.8" stroke="#5470C6"/>
<line stroke-width="2" x1="492.3" y1="69.2" x2="512.8" y2="69.2" stroke="#5470C6"/>
<line stroke-width="2" x1="492.3" y1="322.8" x2="512.8" y2="322.8" stroke="#5470C6"/>
<rect x="101.4" y="146.7" width="34.1" height="126.7" stroke="#91CC75" fill="#91CC75" fill-opacity="0.3"/>
<line stroke-width="3" x1="101.4" y1="217.1" x2="135.5" y2="217.1" stroke="#91CC75"/>
<line stroke-width="2" x1="118.5" y1="62.2" x2="118.5" y2="146.7" stroke="#91CC75"/>
<line stroke-width="2" x1="118.5" y1="273.5" x2="118.5" y2="329.8" stroke="#91CC75"/>
<line stroke-width="2" x1="108.2" y1="62.2" x2="128.7" y2="62.2" stroke="#91CC75"/>
<line stroke-width="2" x1="108.2" y1="329.8" x2="128.7" y2="329.8" stroke="#91CC75"/>
<rect x="243.6" y="181.9" width="34.1" height="119.7" stroke="#91CC75" fill="#91CC75" fill-opacity="0.3"/>
<line stroke-width="3" x1="243.6" y1="245.3" x2="277.8" y2="245.3" stroke="#91CC75"/>
<line stroke-width="2" x1="260.7" y1="97.4" x2="260.7" y2="181.9" stroke="#91CC75"/>
<line stroke-width="2" x1="260.7" y1="301.6" x2="260.7" y2="350.9" stroke="#91CC75"/>
<line stroke-width="2" x1="250.5" y1="97.4" x2="271" y2="97.4" stroke="#91CC75"/>
<line stroke-width="2" x1="250.5" y1="350.9" x2="271" y2="350.9" stroke="#91CC75"/>
<rect x="385.9" y="160.8" width="34.1" height="126.8" stroke="#91CC75" fill="#91CC75" fill-opacity="0.3"/>
<line stroke-width="3" x1="385.9" y1="231.2" x2="420" y2="231.2" stroke="#91CC75"/>
<line stroke-width="2" x1="403" y1="76.3" x2="403" y2="160.8" stroke="#91CC75"/>
<line stroke-width="2" x1="403" y1="287.5" x2="403" y2="336.8" stroke="#91CC75"/>
<line stroke-width="2" x1="392.7" y1="76.3" x2="413.2" y2="76.3" stroke="#91CC75"/>
<line stroke-width="2" x1="392.7" y1="336.8" x2="413.2" y2="336.8" stroke="#91CC75"/>
<rect x="528.1" y="132.6" width="34.1" height="126.8" stroke="#91CC75" fill="#91CC75" fill-opacity="0.3"/>
<line stroke-width="3" x1="528.1" y1="203" x2="562.3" y2="203" stroke="#91CC75"/>
<line stroke-width="2" x1="545.2" y1="41.1" x2="545.2" y2="132.6" stroke="#91CC75"/>
<line stroke-width="2" x1="545.2" y1="259.4" x2="545.2" y2="315.7" stroke="#91CC75"/>
<line stroke-width="2" x1="535" y1="41.1" x2="555.5" y2="41.1" stroke="#91CC75"/>
<line stroke-width="2" x1="535" y1="315.7" x2="555.5" y2="315.7" stroke="#91CC75"/>
</svg>