<svg width="600" height="400" viewBox="0 0 600 400" xmlns="http://www.w3.org/2000/svg">
<rect x="0" y="0" width="600" height="400" fill="#FFFFFF"/>
<polyline fill="none" stroke-width="2" points="47,246.8 64.9,245.7 81.1,242.8 95.9,238.2 109.2,232.2 121.5,224.8 132.8,216.5 143.4,207.2 153.4,197.4 163.1,187.1 172.5,176.6 181.9,166.1 191.6,155.9 201.6,146 212.2,136.8 223.5,128.4 235.8,121.1 249.1,115 263.9,110.4 280.1,107.5 298,106.5" stroke="#E0E6F2"/>
<polyline fill="none" stroke-width="2" points="310,106.5 327.9,105.8 344.1,103.9 358.9,100.8 372.2,96.8 384.5,91.9 395.8,86.3 406.4,80.2 416.4,73.6 426.1,66.7 435.5,59.8 444.9,52.8 454.6,45.9 464.6,39.3 475.2,33.2 486.5,27.6 498.8,22.7 512.1,18.7 526.9,15.6 543.1,13.7 561,13" stroke="#E0E6F2"/>
<polyline fill="none" stroke-width="2" points="310,106.5 327.9,107.2 344.1,109.1 358.9,112.2 372.2,116.2 384.5,121.1 395.8,126.7 406.4,132.8 416.4,139.4 426.1,146.3 435.5,153.2 444.9,160.2 454.6,167.1 464.6,173.7 475.2,179.8 486.5,185.4 498.8,190.3 512.1,194.3 526.9,197.4 543.1,199.3 561,200" stroke="#E0E6F2"/>
<polyline fill="none" stroke-width="2" points="47,246.8 64.9,247.8 81.1,250.7 95.9,255.3 109.2,261.3 121.5,268.7 132.8,277 143.4,286.3 153.4,296.1 163.1,306.4 172.5,316.9 181.9,327.4 191.6,337.6 201.6,347.5 212.2,356.7 223.5,365.1 235.8,372.4 249.1,378.5 263.9,383.1 280.1,386 298,387" stroke="#E0E6F2"/>
<circle cx="41" cy="246.8" r="6" stroke-width="1" stroke="#FFFFFF" fill="#5470C6"/>
<circle cx="304" cy="106.5" r="6" stroke-width="1" stroke="#FFFFFF" fill="#5470C6"/>
<circle cx="567" cy="13" r="6" stroke-width="1" stroke="#FFFFFF" fill="#5470C6"/>
<circle cx="567" cy="200" r="6" stroke-width="1" stroke="#FFFFFF" fill="#5470C6"/>
<circle cx="304" cy="387" r="6" stroke-width="1" stroke="#FFFFFF" fill="#5470C6"/>
<text font-size="14" x="31" y="246.8" dominant-baseline="central" text-anchor="end" font-family="Roboto" fill="#464646">
root
</text>
<text font-size="14" x="294" y="106.5" dominant-baseline="central" text-anchor="end" font-family="Roboto" fill="#464646">
A
</text>
<text font-size="14" x="577" y="13" dominant-baseline="central" text-anchor="start" font-family="Roboto" fill="#464646">
A1
</text>
<text font-size="14" x="577" y="200" dominant-baseline="central" text-anchor="start" font-family="Roboto" fill="#464646">
A2
</text>
<text font-size="14" x="314" y="387" dominant-baseline="central" text-anchor="start" font-family="Roboto" fill="#464646">
B
</text>
</svg>