<svg width="600" height="400" viewBox="0 0 600 400" xmlns="http://www.w3.org/2000/svg">
<rect x="0" y="0" width="600" height="400" fill="#FFFFFF"/>
<text font-size="18" x="5" y="5" dy="15" font-weight="bold" dominant-baseline="middle" font-family="Roboto" fill="#464646">
Score by team
</text>
<g>
<rect x="468" y="10" width="25" height="10" rx="2" ry="2" stroke="#5470C6" fill="#5470C6"/>
<text font-size="14" x="496" y="19" font-family="Roboto" fill="#464646">
2023
</text>
</g>
<g>
<rect x="532" y="10" width="25" height="10" rx="2" ry="2" stroke="#91CC75" fill="#91CC75"/>
<text font-size="14" x="560" y="19" font-family="Roboto" fill="#464646">
2024
</text>
</g>
<circle cx="300" cy="217.5" r="38.9" stroke-width="1" stroke="#E0E6F2" fill="none"/>
<circle cx="300" cy="217.5" r="155.5" stroke-width="1" stroke="#E0E6F2" fill="none"/>
<line stroke-width="1" x1="300" y1="178.6" x2="300" y2="62" stroke="#E0E6F2"/>
<line stroke-width="1" x1="327.5" y1="190" x2="410" y2="107.5" stroke="#E0E6F2"/>
<line stroke-width="1" x1="338.9" y1="217.5" x2="455.5" y2="217.5" stroke="#E0E6F2"/>
<line stroke-width="1" x1="327.5" y1="245" x2="410" y2="327.5" stroke="#E0E6F2"/>
<line stroke-width="1" x1="300" y1="256.4" x2="300" y2="373" stroke="#E0E6F2"/>
<line stroke-width="1" x1="272.5" y1="245" x2="190" y2="327.5" stroke="#E0E6F2"/>
<line stroke-width="1" x1="261.1" y1="217.5" x2="144.5" y2="217.5" stroke="#E0E6F2"/>
<path d="M300,164 A53.5 53.5 0 1 1 294.4,270.7 L295.6,259.1 A41.8 41.8 0 1 0 300,175.7 Z" fill="#5470C6" data-series="2023" data-category="Design" data-value="62"/>
<path d="M300,134.9 A82.6 82.6 0 1 1 226.4,255 L236.8,249.7 A70.9 70.9 0 1 0 300,146.6 Z" fill="#5470C6" data-series="2023" data-category="Backend" data-value="81"/>
<path d="M300,105.7 A111.8 111.8 0 1 1 225.2,300.6 L233,291.9 A100.1 100.1 0 1 0 300,117.4 Z" fill="#5470C6" data-series="2023" data-category="Frontend" data-value="74"/>
<path d="M300,76.6 A140.9 140.9 0 0 1 336.5,353.6 L333.5,342.4 A129.3 129.3 0 0 0 300,88.2 Z" fill="#5470C6" data-series="2023" data-category="QA" data-value="55"/>
<path d="M300,152.4 A65.1 65.1 0 1 1 247.3,255.8 L256.8,248.9 A53.5 53.5 0 1 0 300,164 Z" fill="#91CC75" data-series="2024" data-category="Design" data-value="78"/>
<path d="M300,123.2 A94.3 94.3 0 1 1 206.2,227.4 L217.8,226.1 A82.6 82.6 0 1 0 300,134.9 Z" fill="#91CC75" data-series="2024" data-category="Backend" data-value="88"/>
<path d="M300,94.1 A123.4 123.4 0 1 1 244,327.5 L249.3,317.1 A111.8 111.8 0 1 0 300,105.7 Z" fill="#91CC75" data-series="2024" data-category="Frontend" data-value="69"/>
<path d="M300,64.9 A152.6 152.6 0 1 1 216.9,345.5 L223.2,335.7 A140.9 140.9 0 1 0 300,76.6 Z" fill="#91CC75" data-series="2024" data-category="QA" data-value="71"/>
<rect x="274" y="69.1" width="23" height="15" rx="2" ry="2" fill="#FFFFFF" fill-opacity="0.78"/>
<text font-size="14" x="295" y="76.6" dominant-baseline="central" text-anchor="end" font-family="Roboto" fill="#6E7079">
QA
</text>
<rect x="236" y="98.7" width="61" height="14" rx="2" ry="2" fill="#FFFFFF" fill-opacity="0.78"/>
<text font-size="14" x="295" y="105.7" dominant-baseline="central" text-anchor="end" font-family="Roboto" fill="#6E7079">
Frontend
</text>
<rect x="237" y="127.9" width="60" height="14" rx="2" ry="2" fill="#FFFFFF" fill-opacity="0.78"/>
<text font-size="14" x="295" y="134.9" dominant-baseline="central" text-anchor="end" font-family="Roboto" fill="#6E7079">
Backend
</text>
<rect x="248" y="156" width="49" height="16" rx="2" ry="2" fill="#FFFFFF" fill-opacity="0.78"/>
<text font-size="14" x="295" y="164" dominant-baseline="central" text-anchor="end" font-family="Roboto" fill="#6E7079">
Design
</text>
<text font-size="14" x="300" y="49" dominant-baseline="central" text-anchor="middle" font-family="Roboto" fill="#6E7079">
0
</text>
<text font-size="14" x="414.2" y="103.3" dominant-baseline="central" text-anchor="start" font-family="Roboto" fill="#6E7079">
15
</text>
<text font-size="14" x="461.5" y="217.5" dominant-baseline="central" text-anchor="start" font-family="Roboto" fill="#6E7079">
30
</text>
<text font-size="14" x="414.2" y="331.7" dominant-baseline="central" text-anchor="start" font-family="Roboto" fill="#6E7079">
45
</text>
<text font-size="14" x="300" y="386" dominant-baseline="central" text-anchor="middle" font-family="Roboto" fill="#6E7079">
60
</text>
<text font-size="14" x="185.8" y="331.7" dominant-baseline="central" text-anchor="end" font-family="Roboto" fill="#6E7079">
75
</text>
<text font-size="14" x="138.5" y="217.5" dominant-baseline="central" text-anchor="end" font-family="Roboto" fill="#6E7079">
90
</text>
</svg>