<svg width="888" height="142" viewBox="0 0 888 142" xmlns="http://www.w3.org/2000/svg">
<rect x="0" y="0" width="888" height="142" fill="#FFFFFF"/>
<text font-size="14" x="5" y="47.5" dominant-baseline="central" font-family="Roboto" fill="#6E7079">
Mon
</text>
<text font-size="14" x="5" y="79.5" dominant-baseline="central" font-family="Roboto" fill="#6E7079">
Wed
</text>
<text font-size="14" x="5" y="111.5" dominant-baseline="central" font-family="Roboto" fill="#6E7079">
Fri
</text>
<text font-size="14" x="35" y="23" dominant-baseline="auto" font-family="Roboto" fill="#6E7079">
Jan
</text>
<text font-size="14" x="99" y="23" dominant-baseline="auto" font-family="Roboto" fill="#6E7079">
Feb
</text>
<text font-size="14" x="163" y="23" dominant-baseline="auto" font-family="Roboto" fill="#6E7079">
Mar
</text>
<text font-size="14" x="243" y="23" dominant-baseline="auto" font-family="Roboto" fill="#6E7079">
Apr
</text>
<text font-size="14" x="307" y="23" dominant-baseline="auto" font-family="Roboto" fill="#6E7079">
May
</text>
<text font-size="14" x="371" y="23" dominant-baseline="auto" font-family="Roboto" fill="#6E7079">
Jun
</text>
<text font-size="14" x="451" y="23" dominant-baseline="auto" font-family="Roboto" fill="#6E7079">
Jul
</text>
<text font-size="14" x="515" y="23" dominant-baseline="auto" font-family="Roboto" fill="#6E7079">
Aug
</text>
<text font-size="14" x="595" y="23" dominant-baseline="auto" font-family="Roboto" fill="#6E7079">
Sep
</text>
<text font-size="14" x="659" y="23" dominant-baseline="auto" font-family="Roboto" fill="#6E7079">
Oct
</text>
<text font-size="14" x="723" y="23" dominant-baseline="auto" font-family="Roboto" fill="#6E7079">
Nov
</text>
<text font-size="14" x="803" y="23" dominant-baseline="auto" font-family="Roboto" fill="#6E7079">
Dec
</text>
<rect x="35" y="41" width="13" height="13" rx="2" ry="2" stroke="#EBEDF0" stroke-opacity="0.7" fill="#EBEDF0" fill-opacity="0.7"/>
<rect x="35" y="57" width="13" height="13" rx="2" ry="2" stroke="#EBEDF0" stroke-opacity="0.7" fill="#EBEDF0" fill-opacity="0.7"/>
<rect x="35" y="73" width="13" height="13" rx="2" ry="2" stroke="#EBEDF0" stroke-opacity="0.7" fill="#EBEDF0" fill-opacity="0.7"/>
<rect x="35" y="89" width="13" height="13" rx="2" ry="2" stroke="#EBEDF0" stroke-opacity="0.7" fill="#EBEDF0" fill-opacity="0.7"/>
<rect x="35" y="105" width="13" height="13" rx="2" ry="2" stroke="#C3D4CB" fill="#C3D4CB"/>
<rect x="35" y="121" width="13" height="13" rx="2" ry="2" stroke="#EBEDF0" stroke-opacity="0.7" fill="#EBEDF0" fill-opacity="0.7"/>
<rect x="51" y="25" width="13" height="13" rx="2" ry="2" stroke="#EBEDF0" stroke-opacity="0.7" fill="#EBEDF0" fill-opacity="0.7"/>
<rect x="51" y="41" width="13" height="13" rx="2" ry="2" stroke="#EBEDF0" stroke-opacity="0.7" fill="#EBEDF0" fill-opacity="0.7"/>
<rect x="51" y="57" width="13" height="13" rx="2" ry="2" stroke="#EBEDF0" stroke-opacity="0.7" fill="#EBEDF0" fill-opacity="0.7"/>
<rect x="51" y="73" width="13" height="13" rx="2" ry="2" stroke="#86AE95" fill="#86AE95"/>
<rect x="51" y="89" width="13" height="13" rx="2" ry="2" stroke="#EBEDF0" stroke-opacity="0.7" fill="#EBEDF0" fill-opacity="0.7"/>
<rect x="51" y="105" width="13" height="13" rx="2" ry="2" stroke="#EBEDF0" stroke-opacity="0.7" fill="#EBEDF0" fill-opacity="0.7"/>
<rect x="51" y="121" width="13" height="13" rx="2" ry="2" stroke="#EBEDF0" stroke-opacity="0.7" fill="#EBEDF0" fill-opacity="0.7"/>
<rect x="67" y="25" width="13" height="13" rx="2" ry="2" stroke="#EBEDF0" stroke-opacity="0.7" fill="#EBEDF0" fill-opacity="0.7"/>
<rect x="67" y="41" width="13" height="13" rx="2" ry="2" stroke="#AEC7B9" fill="#AEC7B9"/>
<rect x="67" y="57" width="13" height="13" rx="2" ry="2" stroke="#EBEDF0" stroke-opacity="0.7" fill="#EBEDF0" fill-opacity="0.7"/>
<rect x="67" y="73" width="13" height="13" rx="2" ry="2" stroke="#EBEDF0" stroke-opacity="0.7" fill="#EBEDF0" fill-opacity="0.7"/>
<rect x="67" y="89" width="13" height="13" rx="2" ry="2" stroke="#EBEDF0" stroke-opacity="0.7" fill="#EBEDF0" fill-opacity="0.7"/>
<rect x="67" y="105" width="13" height="13" rx="2" ry="2" stroke="#EBEDF0" stroke-opacity="0.7" fill="#EBEDF0" fill-opacity="0.7"/>
<rect x="67" y="121" width="13" height="13" rx="2" ry="2" stroke="#EBEDF0" stroke-opacity="0.7" fill="#EBEDF0" fill-opacity="0.7"/>
<rect x="83" y="25" width="13" height="13" rx="2" ry="2" stroke="#EBEDF0" stroke-opacity="0.7" fill="#EBEDF0" fill-opacity="0.7"/>
<rect x="83" y="41" width="13" height="13" rx="2" ry="2" stroke="#EBEDF0" stroke-opacity="0.7" fill="#EBEDF0" fill-opacity="0.7"/>
<rect x="83" y="57" width="13" height="13" rx="2" ry="2" stroke="#EBEDF0" stroke-opacity="0.7" fill="#EBEDF0" fill-opacity="0.7"/>
<rect x="83" y="73" width="13" height="13" rx="2" ry="2" stroke="#EBEDF0" stroke-opacity="0.7" fill="#EBEDF0" fill-opacity="0.7"/>
<rect x="83" y="89" width="13" height="13" rx="2" ry="2" stroke="#EBEDF0" stroke-opacity="0.7" fill="#EBEDF0" fill-opacity="0.7"/>
<rect x="83" y="105" width="13" height="13" rx="2" ry="2" stroke="#EBEDF0" stroke-opacity="0.7" fill="#EBEDF0" fill-opacity="0.7"/>
<rect x="83" y="121" width="13" height="13" rx="2" ry="2" stroke="#EBEDF0" stroke-opacity="0.7" fill="#EBEDF0" fill-opacity="0.7"/>
<rect x="99" y="25" width="13" height="13" rx="2" ry="2" stroke="#EBEDF0" stroke-opacity="0.7" fill="#EBEDF0" fill-opacity="0.7"/>
<rect x="99" y="41" width="13" height="13" rx="2" ry="2" stroke="#EBEDF0" stroke-opacity="0.7" fill="#EBEDF0" fill-opacity="0.7"/>
<rect x="99" y="57" width="13" height="13" rx="2" ry="2" stroke="#EBEDF0" stroke-opacity="0.7" fill="#EBEDF0" fill-opacity="0.7"/>
<rect x="99" y="73" width="13" height="13" rx="2" ry="2" stroke="#EBEDF0" stroke-opacity="0.7" fill="#EBEDF0" fill-opacity="0.7"/>
<rect x="99" y="89" width="13" height="13" rx="2" ry="2" stroke="#EBEDF0" stroke-opacity="0.7" fill="#EBEDF0" fill-opacity="0.7"/>
<rect x="99" y="105" width="13" height="13" rx="2" ry="2" stroke="#EBEDF0" stroke-opacity="0.7" fill="#EBEDF0" fill-opacity="0.7"/>
<rect x="99" y="121" width="13" height="13" rx="2" ry="2" stroke="#EBEDF0" stroke-opacity="0.7" fill="#EBEDF0" fill-opacity="0.7"/>
<rect x="115" y="25" width="13" height="13" rx="2" ry="2" stroke="#EBEDF0" stroke-opacity="0.7" fill="#EBEDF0" fill-opacity="0.7"/>
<rect x="115" y="41" width="13" height="13" rx="2" ry="2" stroke="#EBEDF0" stroke-opacity="0.7" fill="#EBEDF0" fill-opacity="0.7"/>
<rect x="115" y="57" width="13" height="13" rx="2" ry="2" stroke="#EBEDF0" stroke-opacity="0.7" fill="#EBEDF0" fill-opacity="0.7"/>
<rect x="115" y="73" width="13" height="13" rx="2" ry="2" stroke="#EBEDF0" stroke-opacity="0.7" fill="#EBEDF0" fill-opacity="0.7"/>
<rect x="115" y="89" width="13" height="13" rx="2" ry="2" stroke="#EBEDF0" stroke-opacity="0.7" fill="#EBEDF0" fill-opacity="0.7"/>
<rect x="115" y="105" width="13" height="13" rx="2" ry="2" stroke="#EBEDF0" stroke-opacity="0.7" fill="#EBEDF0" fill-opacity="0.7"/>
<rect x="115" y="121" width="13" height="13" rx="2" ry="2" stroke="#EBEDF0" stroke-opacity="0.7" fill="#EBEDF0" fill-opacity="0.7"/>
<rect x="131" y="25" width="13" height="13" rx="2" ry="2" stroke="#EBEDF0" stroke-opacity="0.7" fill="#EBEDF0" fill-opacity="0.7"/>
<rect x="131" y="41" width="13" height="13" rx="2" ry="2" stroke="#EBEDF0" stroke-opacity="0.7" fill="#EBEDF0" fill-opacity="0.7"/>
<rect x="131" y="57" width="13" height="13" rx="2" ry="2" stroke="#EBEDF0" stroke-opacity="0.7" fill="#EBEDF0" fill-opacity="0.7"/>
<rect x="131" y="73" width="13" height="13" rx="2" ry="2" stroke="#49875E" fill="#49875E"/>
<rect x="131" y="89" width="13" height="13" rx="2" ry="2" stroke="#EBEDF0" stroke-opacity="0.7" fill="#EBEDF0" fill-opacity="0.7"/>
<rect x="131" y="105" width="13" height="13" rx="2" ry="2" stroke="#EBEDF0" stroke-opacity="0.7" fill="#EBEDF0" fill-opacity="0.7"/>
<rect x="131" y="121" width="13" height="13" rx="2" ry="2" stroke="#EBEDF0" stroke-opacity="0.7" fill="#EBEDF0" fill-opacity="0.7"/>
<rect x="147" y="25" width="13" height="13" rx="2" ry="2" stroke="#EBEDF0" stroke-opacity="0.7" fill="#EBEDF0" fill-opacity="0.7"/>
<rect x="147" y="41" width="13" height="13" rx="2" ry="2" stroke="#EBEDF0" stroke-opacity="0.7" fill="#EBEDF0" fill-opacity="0.7"/>
<rect x="147" y="57" width="13" height="13" rx="2" ry="2" stroke="#EBEDF0" stroke-opacity="0.7" fill="#EBEDF0" fill-opacity="0.7"/>
<rect x="147" y="73" width="13" height="13" rx="2" ry="2" stroke="#EBEDF0" stroke-opacity="0.7" fill="#EBEDF0" fill-opacity="0.7"/>
<rect x="147" y="89" width="13" height="13" rx="2" ry="2" stroke="#EBEDF0" stroke-opacity="0.7" fill="#EBEDF0" fill-opacity="0.7"/>
<rect x="147" y="105" width="13" height="13" rx="2" ry="2" stroke="#EBEDF0" stroke-opacity="0.7" fill="#EBEDF0" fill-opacity="0.7"/>
<rect x="147" y="121" width="13" height="13" rx="2" ry="2" stroke="#EBEDF0" stroke-opacity="0.7" fill="#EBEDF0" fill-opacity="0.7"/>
<rect x="163" y="25" width="13" height="13" rx="2" ry="2" stroke="#EBEDF0" stroke-opacity="0.7" fill="#EBEDF0" fill-opacity="0.7"/>
<rect x="163" y="41" width="13" height="13" rx="2" ry="2" stroke="#EBEDF0" stroke-opacity="0.7" fill="#EBEDF0" fill-opacity="0.7"/>
<rect x="163" y="57" width="13" height="13" rx="2" ry="2" stroke="#EBEDF0" stroke-opacity="0.7" fill="#EBEDF0" fill-opacity="0.7"/>
<rect x="163" y="73" width="13" height="13" rx="2" ry="2" stroke="#EBEDF0" stroke-opacity="0.7" fill="#EBEDF0" fill-opacity="0.7"/>
<rect x="163" y="89" width="13" height="13" rx="2" ry="2" stroke="#EBEDF0" stroke-opacity="0.7" fill="#EBEDF0" fill-opacity="0.7"/>
<rect x="163" y="105" width="13" height="13" rx="2" ry="2" stroke="#EBEDF0" stroke-opacity="0.7" fill="#EBEDF0" fill-opacity="0.7"/>
<rect x="163" y="121" width="13" height="13" rx="2" ry="2" stroke="#EBEDF0" stroke-opacity="0.7" fill="#EBEDF0" fill-opacity="0.7"/>
<rect x="179" y="25" width="13" height="13" rx="2" ry="2" stroke="#EBEDF0" stroke-opacity="0.7" fill="#EBEDF0" fill-opacity="0.7"/>
<rect x="179" y="41" width="13" height="13" rx="2" ry="2" stroke="#EBEDF0" stroke-opacity="0.7" fill="#EBEDF0" fill-opacity="0.7"/>
<rect x="179" y="57" width="13" height="13" rx="2" ry="2" stroke="#EBEDF0" stroke-opacity="0.7" fill="#EBEDF0" fill-opacity="0.7"/>
<rect x="179" y="73" width="13" height="13" rx="2" ry="2" stroke="#EBEDF0" stroke-opacity="0.7" fill="#EBEDF0" fill-opacity="0.7"/>
<rect x="179" y="89" width="13" height="13" rx="2" ry="2" stroke="#EBEDF0" stroke-opacity="0.7" fill="#EBEDF0" fill-opacity="0.7"/>
<rect x="179" y="105" width="13" height="13" rx="2" ry="2" stroke="#EBEDF0" stroke-opacity="0.7" fill="#EBEDF0" fill-opacity="0.7"/>
<rect x="179" y="121" width="13" height="13" rx="2" ry="2" stroke="#EBEDF0" stroke-opacity="0.7" fill="#EBEDF0" fill-opacity="0.7"/>
<rect x="195" y="25" width="13" height="13" rx="2" ry="2" stroke="#EBEDF0" stroke-opacity="0.7" fill="#EBEDF0" fill-opacity="0.7"/>
<rect x="195" y="41" width="13" height="13" rx="2" ry="2" stroke="#EBEDF0" stroke-opacity="0.7" fill="#EBEDF0" fill-opacity="0.7"/>
<rect x="195" y="57" width="13" height="13" rx="2" ry="2" stroke="#EBEDF0" stroke-opacity="0.7" fill="#EBEDF0" fill-opacity="0.7"/>
<rect x="195" y="73" width="13" height="13" rx="2" ry="2" stroke="#EBEDF0" stroke-opacity="0.7" fill="#EBEDF0" fill-opacity="0.7"/>
<rect x="195" y="89" width="13" height="13" rx="2" ry="2" stroke="#EBEDF0" stroke-opacity="0.7" fill="#EBEDF0" fill-opacity="0.7"/>
<rect x="195" y="105" width="13" height="13" rx="2" ry="2" stroke="#EBEDF0" stroke-opacity="0.7" fill="#EBEDF0" fill-opacity="0.7"/>
<rect x="195" y="121" width="13" height="13" rx="2" ry="2" stroke="#EBEDF0" stroke-opacity="0.7" fill="#EBEDF0" fill-opacity="0.7"/>
<rect x="211" y="25" width="13" height="13" rx="2" ry="2" stroke="#EBEDF0" stroke-opacity="0.7" fill="#EBEDF0" fill-opacity="0.7"/>
<rect x="211" y="41" width="13" height="13" rx="2" ry="2" stroke="#EBEDF0" stroke-opacity="0.7" fill="#EBEDF0" fill-opacity="0.7"/>
<rect x="211" y="57" width="13" height="13" rx="2" ry="2" stroke="#EBEDF0" stroke-opacity="0.7" fill="#EBEDF0" fill-opacity="0.7"/>
<rect x="211" y="73" width="13" height="13" rx="2" ry="2" stroke="#72A182" fill="#72A182"/>
<rect x="211" y="89" width="13" height="13" rx="2" ry="2" stroke="#EBEDF0" stroke-opacity="0.7" fill="#EBEDF0" fill-opacity="0.7"/>
<rect x="211" y="105" width="13" height="13" rx="2" ry="2" stroke="#EBEDF0" stroke-opacity="0.7" fill="#EBEDF0" fill-opacity="0.7"/>
<rect x="211" y="121" width="13" height="13" rx="2" ry="2" stroke="#EBEDF0" stroke-opacity="0.7" fill="#EBEDF0" fill-opacity="0.7"/>
<rect x="227" y="25" width="13" height="13" rx="2" ry="2" stroke="#EBEDF0" stroke-opacity="0.7" fill="#EBEDF0" fill-opacity="0.7"/>
<rect x="227" y="41" width="13" height="13" rx="2" ry="2" stroke="#EBEDF0" stroke-opacity="0.7" fill="#EBEDF0" fill-opacity="0.7"/>
<rect x="227" y="57" width="13" height="13" rx="2" ry="2" stroke="#EBEDF0" stroke-opacity="0.7" fill="#EBEDF0" fill-opacity="0.7"/>
<rect x="227" y="73" width="13" height="13" rx="2" ry="2" stroke="#EBEDF0" stroke-opacity="0.7" fill="#EBEDF0" fill-opacity="0.7"/>
<rect x="227" y="89" width="13" height="13" rx="2" ry="2" stroke="#EBEDF0" stroke-opacity="0.7" fill="#EBEDF0" fill-opacity="0.7"/>
<rect x="227" y="105" width="13" height="13" rx="2" ry="2" stroke="#EBEDF0" stroke-opacity="0.7" fill="#EBEDF0" fill-opacity="0.7"/>
<rect x="227" y="121" width="13" height="13" rx="2" ry="2" stroke="#EBEDF0" stroke-opacity="0.7" fill="#EBEDF0" fill-opacity="0.7"/>
<rect x="243" y="25" width="13" height="13" rx="2" ry="2" stroke="#EBEDF0" stroke-opacity="0.7" fill="#EBEDF0" fill-opacity="0.7"/>
<rect x="243" y="41" width="13" height="13" rx="2" ry="2" stroke="#D7E0DE" fill="#D7E0DE"/>
<rect x="243" y="57" width="13" height="13" rx="2" ry="2" stroke="#EBEDF0" stroke-opacity="0.7" fill="#EBEDF0" fill-opacity="0.7"/>
<rect x="243" y="73" width="13" height="13" rx="2" ry="2" stroke="#EBEDF0" stroke-opacity="0.7" fill="#EBEDF0" fill-opacity="0.7"/>
<rect x="243" y="89" width="13" height="13" rx="2" ry="2" stroke="#EBEDF0" stroke-opacity="0.7" fill="#EBEDF0" fill-opacity="0.7"/>
<rect x="243" y="105" width="13" height="13" rx="2" ry="2" stroke="#EBEDF0" stroke-opacity="0.7" fill="#EBEDF0" fill-opacity="0.7"/>
<rect x="243" y="121" width="13" height="13" rx="2" ry="2" stroke="#EBEDF0" stroke-opacity="0.7" fill="#EBEDF0" fill-opacity="0.7"/>
<rect x="259" y="25" width="13" height="13" rx="2" ry="2" stroke="#EBEDF0" stroke-opacity="0.7" fill="#EBEDF0" fill-opacity="0.7"/>
<rect x="259" y="41" width="13" height="13" rx="2" ry="2" stroke="#EBEDF0" stroke-opacity="0.7" fill="#EBEDF0" fill-opacity="0.7"/>
<rect x="259" y="57" width="13" height="13" rx="2" ry="2" stroke="#EBEDF0" stroke-opacity="0.7" fill="#EBEDF0" fill-opacity="0.7"/>
<rect x="259" y="73" width="13" height="13" rx="2" ry="2" stroke="#EBEDF0" stroke-opacity="0.7" fill="#EBEDF0" fill-opacity="0.7"/>
<rect x="259" y="89" width="13" height="13" rx="2" ry="2" stroke="#EBEDF0" stroke-opacity="0.7" fill="#EBEDF0" fill-opacity="0.7"/>
<rect x="259" y="105" width="13" height="13" rx="2" ry="2" stroke="#EBEDF0" stroke-opacity="0.7" fill="#EBEDF0" fill-opacity="0.7"/>
<rect x="259" y="121" width="13" height="13" rx="2" ry="2" stroke="#EBEDF0" stroke-opacity="0.7" fill="#EBEDF0" fill-opacity="0.7"/>
<rect x="275" y="25" width="13" height="13" rx="2" ry="2" stroke="#EBEDF0" stroke-opacity="0.7" fill="#EBEDF0" fill-opacity="0.7"/>
<rect x="275" y="41" width="13" height="13" rx="2" ry="2" stroke="#EBEDF0" stroke-opacity="0.7" fill="#EBEDF0" fill-opacity="0.7"/>
<rect x="275" y="57" width="13" height="13" rx="2" ry="2" stroke="#EBEDF0" stroke-opacity="0.7" fill="#EBEDF0" fill-opacity="0.7"/>
<rect x="275" y="73" width="13" height="13" rx="2" ry="2" stroke="#EBEDF0" stroke-opacity="0.7" fill="#EBEDF0" fill-opacity="0.7"/>
<rect x="275" y="89" width="13" height="13" rx="2" ry="2" stroke="#EBEDF0" stroke-opacity="0.7" fill="#EBEDF0" fill-opacity="0.7"/>
<rect x="275" y="105" width="13" height="13" rx="2" ry="2" stroke="#EBEDF0" stroke-opacity="0.7" fill="#EBEDF0" fill-opacity="0.7"/>
<rect x="275" y="121" width="13" height="13" rx="2" ry="2" stroke="#EBEDF0" stroke-opacity="0.7" fill="#EBEDF0" fill-opacity="0.7"/>
<rect x="291" y="25" width="13" height="13" rx="2" ry="2" stroke="#EBEDF0" stroke-opacity="0.7" fill="#EBEDF0" fill-opacity="0.7"/>
<rect x="291" y="41" width="13" height="13" rx="2" ry="2" stroke="#EBEDF0" stroke-opacity="0.7" fill="#EBEDF0" fill-opacity="0.7"/>
<rect x="291" y="57" width="13" height="13" rx="2" ry="2" stroke="#EBEDF0" stroke-opacity="0.7" fill="#EBEDF0" fill-opacity="0.7"/>
<rect x="291" y="73" width="13" height="13" rx="2" ry="2" stroke="#EBEDF0" stroke-opacity="0.7" fill="#EBEDF0" fill-opacity="0.7"/>
<rect x="291" y="89" width="13" height="13" rx="2" ry="2" stroke="#EBEDF0" stroke-opacity="0.7" fill="#EBEDF0" fill-opacity="0.7"/>
<rect x="291" y="105" width="13" height="13" rx="2" ry="2" stroke="#EBEDF0" stroke-opacity="0.7" fill="#EBEDF0" fill-opacity="0.7"/>
<rect x="291" y="121" width="13" height="13" rx="2" ry="2" stroke="#EBEDF0" stroke-opacity="0.7" fill="#EBEDF0" fill-opacity="0.7"/>
<rect x="307" y="25" width="13" height="13" rx="2" ry="2" stroke="#EBEDF0" stroke-opacity="0.7" fill="#EBEDF0" fill-opacity="0.7"/>
<rect x="307" y="41" width="13" height="13" rx="2" ry="2" stroke="#EBEDF0" stroke-opacity="0.7" fill="#EBEDF0" fill-opacity="0.7"/>
<rect x="307" y="57" width="13" height="13" rx="2" ry="2" stroke="#EBEDF0" stroke-opacity="0.7" fill="#EBEDF0" fill-opacity="0.7"/>
<rect x="307" y="73" width="13" height="13" rx="2" ry="2" stroke="#EBEDF0" stroke-opacity="0.7" fill="#EBEDF0" fill-opacity="0.7"/>
<rect x="307" y="89" width="13" height="13" rx="2" ry="2" stroke="#EBEDF0" stroke-opacity="0.7" fill="#EBEDF0" fill-opacity="0.7"/>
<rect x="307" y="105" width="13" height="13" rx="2" ry="2" stroke="#EBEDF0" stroke-opacity="0.7" fill="#EBEDF0" fill-opacity="0.7"/>
<rect x="307" y="121" width="13" height="13" rx="2" ry="2" stroke="#EBEDF0" stroke-opacity="0.7" fill="#EBEDF0" fill-opacity="0.7"/>
<rect x="323" y="25" width="13" height="13" rx="2" ry="2" stroke="#EBEDF0" stroke-opacity="0.7" fill="#EBEDF0" fill-opacity="0.7"/>
<rect x="323" y="41" width="13" height="13" rx="2" ry="2" stroke="#EBEDF0" stroke-opacity="0.7" fill="#EBEDF0" fill-opacity="0.7"/>
<rect x="323" y="57" width="13" height="13" rx="2" ry="2" stroke="#EBEDF0" stroke-opacity="0.7" fill="#EBEDF0" fill-opacity="0.7"/>
<rect x="323" y="73" width="13" height="13" rx="2" ry="2" stroke="#EBEDF0" stroke-opacity="0.7" fill="#EBEDF0" fill-opacity="0.7"/>
<rect x="323" y="89" width="13" height="13" rx="2" ry="2" stroke="#EBEDF0" stroke-opacity="0.7" fill="#EBEDF0" fill-opacity="0.7"/>
<rect x="323" y="105" width="13" height="13" rx="2" ry="2" stroke="#EBEDF0" stroke-opacity="0.7" fill="#EBEDF0" fill-opacity="0.7"/>
<rect x="323" y="121" width="13" height="13" rx="2" ry="2" stroke="#EBEDF0" stroke-opacity="0.7" fill="#EBEDF0" fill-opacity="0.7"/>
<rect x="339" y="25" width="13" height="13" rx="2" ry="2" stroke="#EBEDF0" stroke-opacity="0.7" fill="#EBEDF0" fill-opacity="0.7"/>
<rect x="339" y="41" width="13" height="13" rx="2" ry="2" stroke="#EBEDF0" stroke-opacity="0.7" fill="#EBEDF0" fill-opacity="0.7"/>
<rect x="339" y="57" width="13" height="13" rx="2" ry="2" stroke="#EBEDF0" stroke-opacity="0.7" fill="#EBEDF0" fill-opacity="0.7"/>
<rect x="339" y="73" width="13" height="13" rx="2" ry="2" stroke="#EBEDF0" stroke-opacity="0.7" fill="#EBEDF0" fill-opacity="0.7"/>
<rect x="339" y="89" width="13" height="13" rx="2" ry="2" stroke="#EBEDF0" stroke-opacity="0.7" fill="#EBEDF0" fill-opacity="0.7"/>
<rect x="339" y="105" width="13" height="13" rx="2" ry="2" stroke="#EBEDF0" stroke-opacity="0.7" fill="#EBEDF0" fill-opacity="0.7"/>
<rect x="339" y="121" width="13" height="13" rx="2" ry="2" stroke="#EBEDF0" stroke-opacity="0.7" fill="#EBEDF0" fill-opacity="0.7"/>
<rect x="355" y="25" width="13" height="13" rx="2" ry="2" stroke="#EBEDF0" stroke-opacity="0.7" fill="#EBEDF0" fill-opacity="0.7"/>
<rect x="355" y="41" width="13" height="13" rx="2" ry="2" stroke="#EBEDF0" stroke-opacity="0.7" fill="#EBEDF0" fill-opacity="0.7"/>
<rect x="355" y="57" width="13" height="13" rx="2" ry="2" stroke="#EBEDF0" stroke-opacity="0.7" fill="#EBEDF0" fill-opacity="0.7"/>
<rect x="355" y="73" width="13" height="13" rx="2" ry="2" stroke="#EBEDF0" stroke-opacity="0.7" fill="#EBEDF0" fill-opacity="0.7"/>
<rect x="355" y="89" width="13" height="13" rx="2" ry="2" stroke="#EBEDF0" stroke-opacity="0.7" fill="#EBEDF0" fill-opacity="0.7"/>
<rect x="355" y="105" width="13" height="13" rx="2" ry="2" stroke="#EBEDF0" stroke-opacity="0.7" fill="#EBEDF0" fill-opacity="0.7"/>
<rect x="355" y="121" width="13" height="13" rx="2" ry="2" stroke="#EBEDF0" stroke-opacity="0.7" fill="#EBEDF0" fill-opacity="0.7"/>
<rect x="371" y="25" width="13" height="13" rx="2" ry="2" stroke="#EBEDF0" stroke-opacity="0.7" fill="#EBEDF0" fill-opacity="0.7"/>
<rect x="371" y="41" width="13" height="13" rx="2" ry="2" stroke="#EBEDF0" stroke-opacity="0.7" fill="#EBEDF0" fill-opacity="0.7"/>
<rect x="371" y="57" width="13" height="13" rx="2" ry="2" stroke="#EBEDF0" stroke-opacity="0.7" fill="#EBEDF0" fill-opacity="0.7"/>
<rect x="371" y="73" width="13" height="13" rx="2" ry="2" stroke="#EBEDF0" stroke-opacity="0.7" fill="#EBEDF0" fill-opacity="0.7"/>
<rect x="371" y="89" width="13" height="13" rx="2" ry="2" stroke="#EBEDF0" stroke-opacity="0.7" fill="#EBEDF0" fill-opacity="0.7"/>
<rect x="371" y="105" width="13" height="13" rx="2" ry="2" stroke="#EBEDF0" stroke-opacity="0.7" fill="#EBEDF0" fill-opacity="0.7"/>
<rect x="371" y="121" width="13" height="13" rx="2" ry="2" stroke="#EBEDF0" stroke-opacity="0.7" fill="#EBEDF0" fill-opacity="0.7"/>
<rect x="387" y="25" width="13" height="13" rx="2" ry="2" stroke="#EBEDF0" stroke-opacity="0.7" fill="#EBEDF0" fill-opacity="0.7"/>
<rect x="387" y="41" width="13" height="13" rx="2" ry="2" stroke="#EBEDF0" stroke-opacity="0.7" fill="#EBEDF0" fill-opacity="0.7"/>
<rect x="387" y="57" width="13" height="13" rx="2" ry="2" stroke="#EBEDF0" stroke-opacity="0.7" fill="#EBEDF0" fill-opacity="0.7"/>
<rect x="387" y="73" width="13" height="13" rx="2" ry="2" stroke="#EBEDF0" stroke-opacity="0.7" fill="#EBEDF0" fill-opacity="0.7"/>
<rect x="387" y="89" width="13" height="13" rx="2" ry="2" stroke="#EBEDF0" stroke-opacity="0.7" fill="#EBEDF0" fill-opacity="0.7"/>
<rect x="387" y="105" width="13" height="13" rx="2" ry="2" stroke="#EBEDF0" stroke-opacity="0.7" fill="#EBEDF0" fill-opacity="0.7"/>
<rect x="387" y="121" width="13" height="13" rx="2" ry="2" stroke="#EBEDF0" stroke-opacity="0.7" fill="#EBEDF0" fill-opacity="0.7"/>
<rect x="403" y="25" width="13" height="13" rx="2" ry="2" stroke="#EBEDF0" stroke-opacity="0.7" fill="#EBEDF0" fill-opacity="0.7"/>
<rect x="403" y="41" width="13" height="13" rx="2" ry="2" stroke="#EBEDF0" stroke-opacity="0.7" fill="#EBEDF0" fill-opacity="0.7"/>
<rect x="403" y="57" width="13" height="13" rx="2" ry="2" stroke="#EBEDF0" stroke-opacity="0.7" fill="#EBEDF0" fill-opacity="0.7"/>
<rect x="403" y="73" width="13" height="13" rx="2" ry="2" stroke="#EBEDF0" stroke-opacity="0.7" fill="#EBEDF0" fill-opacity="0.7"/>
<rect x="403" y="89" width="13" height="13" rx="2" ry="2" stroke="#EBEDF0" stroke-opacity="0.7" fill="#EBEDF0" fill-opacity="0.7"/>
<rect x="403" y="105" width="13" height="13" rx="2" ry="2" stroke="#EBEDF0" stroke-opacity="0.7" fill="#EBEDF0" fill-opacity="0.7"/>
<rect x="403" y="121" width="13" height="13" rx="2" ry="2" stroke="#357B4B" fill="#357B4B"/>
<rect x="419" y="25" width="13" height="13" rx="2" ry="2" stroke="#EBEDF0" stroke-opacity="0.7" fill="#EBEDF0" fill-opacity="0.7"/>
<rect x="419" y="41" width="13" height="13" rx="2" ry="2" stroke="#EBEDF0" stroke-opacity="0.7" fill="#EBEDF0" fill-opacity="0.7"/>
<rect x="419" y="57" width="13" height="13" rx="2" ry="2" stroke="#EBEDF0" stroke-opacity="0.7" fill="#EBEDF0" fill-opacity="0.7"/>
<rect x="419" y="73" width="13" height="13" rx="2" ry="2" stroke="#EBEDF0" stroke-opacity="0.7" fill="#EBEDF0" fill-opacity="0.7"/>
<rect x="419" y="89" width="13" height="13" rx="2" ry="2" stroke="#EBEDF0" stroke-opacity="0.7" fill="#EBEDF0" fill-opacity="0.7"/>
<rect x="419" y="105" width="13" height="13" rx="2" ry="2" stroke="#EBEDF0" stroke-opacity="0.7" fill="#EBEDF0" fill-opacity="0.7"/>
<rect x="419" y="121" width="13" height="13" rx="2" ry="2" stroke="#EBEDF0" stroke-opacity="0.7" fill="#EBEDF0" fill-opacity="0.7"/>
<rect x="435" y="25" width="13" height="13" rx="2" ry="2" stroke="#EBEDF0" stroke-opacity="0.7" fill="#EBEDF0" fill-opacity="0.7"/>
<rect x="435" y="41" width="13" height="13" rx="2" ry="2" stroke="#EBEDF0" stroke-opacity="0.7" fill="#EBEDF0" fill-opacity="0.7"/>
<rect x="435" y="57" width="13" height="13" rx="2" ry="2" stroke="#EBEDF0" stroke-opacity="0.7" fill="#EBEDF0" fill-opacity="0.7"/>
<rect x="435" y="73" width="13" height="13" rx="2" ry="2" stroke="#EBEDF0" stroke-opacity="0.7" fill="#EBEDF0" fill-opacity="0.7"/>
<rect x="435" y="89" width="13" height="13" rx="2" ry="2" stroke="#EBEDF0" stroke-opacity="0.7" fill="#EBEDF0" fill-opacity="0.7"/>
<rect x="435" y="105" width="13" height="13" rx="2" ry="2" stroke="#EBEDF0" stroke-opacity="0.7" fill="#EBEDF0" fill-opacity="0.7"/>
<rect x="435" y="121" width="13" height="13" rx="2" ry="2" stroke="#EBEDF0" stroke-opacity="0.7" fill="#EBEDF0" fill-opacity="0.7"/>
<rect x="451" y="25" width="13" height="13" rx="2" ry="2" stroke="#EBEDF0" stroke-opacity="0.7" fill="#EBEDF0" fill-opacity="0.7"/>
<rect x="451" y="41" width="13" height="13" rx="2" ry="2" stroke="#EBEDF0" stroke-opacity="0.7" fill="#EBEDF0" fill-opacity="0.7"/>
<rect x="451" y="57" width="13" height="13" rx="2" ry="2" stroke="#EBEDF0" stroke-opacity="0.7" fill="#EBEDF0" fill-opacity="0.7"/>
<rect x="451" y="73" width="13" height="13" rx="2" ry="2" stroke="#EBEDF0" stroke-opacity="0.7" fill="#EBEDF0" fill-opacity="0.7"/>
<rect x="451" y="89" width="13" height="13" rx="2" ry="2" stroke="#EBEDF0" stroke-opacity="0.7" fill="#EBEDF0" fill-opacity="0.7"/>
<rect x="451" y="105" width="13" height="13" rx="2" ry="2" stroke="#EBEDF0" stroke-opacity="0.7" fill="#EBEDF0" fill-opacity="0.7"/>
<rect x="451" y="121" width="13" height="13" rx="2" ry="2" stroke="#EBEDF0" stroke-opacity="0.7" fill="#EBEDF0" fill-opacity="0.7"/>
<rect x="467" y="25" width="13" height="13" rx="2" ry="2" stroke="#EBEDF0" stroke-opacity="0.7" fill="#EBEDF0" fill-opacity="0.7"/>
<rect x="467" y="41" width="13" height="13" rx="2" ry="2" stroke="#EBEDF0" stroke-opacity="0.7" fill="#EBEDF0" fill-opacity="0.7"/>
<rect x="467" y="57" width="13" height="13" rx="2" ry="2" stroke="#EBEDF0" stroke-opacity="0.7" fill="#EBEDF0" fill-opacity="0.7"/>
<rect x="467" y="73" width="13" height="13" rx="2" ry="2" stroke="#EBEDF0" stroke-opacity="0.7" fill="#EBEDF0" fill-opacity="0.7"/>
<rect x="467" y="89" width="13" height="13" rx="2" ry="2" stroke="#EBEDF0" stroke-opacity="0.7" fill="#EBEDF0" fill-opacity="0.7"/>
<rect x="467" y="105" width="13" height="13" rx="2" ry="2" stroke="#EBEDF0" stroke-opacity="0.7" fill="#EBEDF0" fill-opacity="0.7"/>
<rect x="467" y="121" width="13" height="13" rx="2" ry="2" stroke="#EBEDF0" stroke-opacity="0.7" fill="#EBEDF0" fill-opacity="0.7"/>
<rect x="483" y="25" width="13" height="13" rx="2" ry="2" stroke="#EBEDF0" stroke-opacity="0.7" fill="#EBEDF0" fill-opacity="0.7"/>
<rect x="483" y="41" width="13" height="13" rx="2" ry="2" stroke="#EBEDF0" stroke-opacity="0.7" fill="#EBEDF0" fill-opacity="0.7"/>
<rect x="483" y="57" width="13" height="13" rx="2" ry="2" stroke="#EBEDF0" stroke-opacity="0.7" fill="#EBEDF0" fill-opacity="0.7"/>
<rect x="483" y="73" width="13" height="13" rx="2" ry="2" stroke="#EBEDF0" stroke-opacity="0.7" fill="#EBEDF0" fill-opacity="0.7"/>
<rect x="483" y="89" width="13" height="13" rx="2" ry="2" stroke="#EBEDF0" stroke-opacity="0.7" fill="#EBEDF0" fill-opacity="0.7"/>
<rect x="483" y="105" width="13" height="13" rx="2" ry="2" stroke="#EBEDF0" stroke-opacity="0.7" fill="#EBEDF0" fill-opacity="0.7"/>
<rect x="483" y="121" width="13" height="13" rx="2" ry="2" stroke="#EBEDF0" stroke-opacity="0.7" fill="#EBEDF0" fill-opacity="0.7"/>
<rect x="499" y="25" width="13" height="13" rx="2" ry="2" stroke="#EBEDF0" stroke-opacity="0.7" fill="#EBEDF0" fill-opacity="0.7"/>
<rect x="499" y="41" width="13" height="13" rx="2" ry="2" stroke="#EBEDF0" stroke-opacity="0.7" fill="#EBEDF0" fill-opacity="0.7"/>
<rect x="499" y="57" width="13" height="13" rx="2" ry="2" stroke="#EBEDF0" stroke-opacity="0.7" fill="#EBEDF0" fill-opacity="0.7"/>
<rect x="499" y="73" width="13" height="13" rx="2" ry="2" stroke="#EBEDF0" stroke-opacity="0.7" fill="#EBEDF0" fill-opacity="0.7"/>
<rect x="499" y="89" width="13" height="13" rx="2" ry="2" stroke="#EBEDF0" stroke-opacity="0.7" fill="#EBEDF0" fill-opacity="0.7"/>
<rect x="499" y="105" width="13" height="13" rx="2" ry="2" stroke="#EBEDF0" stroke-opacity="0.7" fill="#EBEDF0" fill-opacity="0.7"/>
<rect x="499" y="121" width="13" height="13" rx="2" ry="2" stroke="#EBEDF0" stroke-opacity="0.7" fill="#EBEDF0" fill-opacity="0.7"/>
<rect x="515" y="25" width="13" height="13" rx="2" ry="2" stroke="#EBEDF0" stroke-opacity="0.7" fill="#EBEDF0" fill-opacity="0.7"/>
<rect x="515" y="41" width="13" height="13" rx="2" ry="2" stroke="#EBEDF0" stroke-opacity="0.7" fill="#EBEDF0" fill-opacity="0.7"/>
<rect x="515" y="57" width="13" height="13" rx="2" ry="2" stroke="#EBEDF0" stroke-opacity="0.7" fill="#EBEDF0" fill-opacity="0.7"/>
<rect x="515" y="73" width="13" height="13" rx="2" ry="2" stroke="#EBEDF0" stroke-opacity="0.7" fill="#EBEDF0" fill-opacity="0.7"/>
<rect x="515" y="89" width="13" height="13" rx="2" ry="2" stroke="#EBEDF0" stroke-opacity="0.7" fill="#EBEDF0" fill-opacity="0.7"/>
<rect x="515" y="105" width="13" height="13" rx="2" ry="2" stroke="#EBEDF0" stroke-opacity="0.7" fill="#EBEDF0" fill-opacity="0.7"/>
<rect x="515" y="121" width="13" height="13" rx="2" ry="2" stroke="#EBEDF0" stroke-opacity="0.7" fill="#EBEDF0" fill-opacity="0.7"/>
<rect x="531" y="25" width="13" height="13" rx="2" ry="2" stroke="#EBEDF0" stroke-opacity="0.7" fill="#EBEDF0" fill-opacity="0.7"/>
<rect x="531" y="41" width="13" height="13" rx="2" ry="2" stroke="#EBEDF0" stroke-opacity="0.7" fill="#EBEDF0" fill-opacity="0.7"/>
<rect x="531" y="57" width="13" height="13" rx="2" ry="2" stroke="#EBEDF0" stroke-opacity="0.7" fill="#EBEDF0" fill-opacity="0.7"/>
<rect x="531" y="73" width="13" height="13" rx="2" ry="2" stroke="#EBEDF0" stroke-opacity="0.7" fill="#EBEDF0" fill-opacity="0.7"/>
<rect x="531" y="89" width="13" height="13" rx="2" ry="2" stroke="#EBEDF0" stroke-opacity="0.7" fill="#EBEDF0" fill-opacity="0.7"/>
<rect x="531" y="105" width="13" height="13" rx="2" ry="2" stroke="#EBEDF0" stroke-opacity="0.7" fill="#EBEDF0" fill-opacity="0.7"/>
<rect x="531" y="121" width="13" height="13" rx="2" ry="2" stroke="#EBEDF0" stroke-opacity="0.7" fill="#EBEDF0" fill-opacity="0.7"/>
<rect x="547" y="25" width="13" height="13" rx="2" ry="2" stroke="#EBEDF0" stroke-opacity="0.7" fill="#EBEDF0" fill-opacity="0.7"/>
<rect x="547" y="41" width="13" height="13" rx="2" ry="2" stroke="#EBEDF0" stroke-opacity="0.7" fill="#EBEDF0" fill-opacity="0.7"/>
<rect x="547" y="57" width="13" height="13" rx="2" ry="2" stroke="#EBEDF0" stroke-opacity="0.7" fill="#EBEDF0" fill-opacity="0.7"/>
<rect x="547" y="73" width="13" height="13" rx="2" ry="2" stroke="#EBEDF0" stroke-opacity="0.7" fill="#EBEDF0" fill-opacity="0.7"/>
<rect x="547" y="89" width="13" height="13" rx="2" ry="2" stroke="#EBEDF0" stroke-opacity="0.7" fill="#EBEDF0" fill-opacity="0.7"/>
<rect x="547" y="105" width="13" height="13" rx="2" ry="2" stroke="#EBEDF0" stroke-opacity="0.7" fill="#EBEDF0" fill-opacity="0.7"/>
<rect x="547" y="121" width="13" height="13" rx="2" ry="2" stroke="#EBEDF0" stroke-opacity="0.7" fill="#EBEDF0" fill-opacity="0.7"/>
<rect x="563" y="25" width="13" height="13" rx="2" ry="2" stroke="#EBEDF0" stroke-opacity="0.7" fill="#EBEDF0" fill-opacity="0.7"/>
<rect x="563" y="41" width="13" height="13" rx="2" ry="2" stroke="#EBEDF0" stroke-opacity="0.7" fill="#EBEDF0" fill-opacity="0.7"/>
<rect x="563" y="57" width="13" height="13" rx="2" ry="2" stroke="#EBEDF0" stroke-opacity="0.7" fill="#EBEDF0" fill-opacity="0.7"/>
<rect x="563" y="73" width="13" height="13" rx="2" ry="2" stroke="#EBEDF0" stroke-opacity="0.7" fill="#EBEDF0" fill-opacity="0.7"/>
<rect x="563" y="89" width="13" height="13" rx="2" ry="2" stroke="#EBEDF0" stroke-opacity="0.7" fill="#EBEDF0" fill-opacity="0.7"/>
<rect x="563" y="105" width="13" height="13" rx="2" ry="2" stroke="#EBEDF0" stroke-opacity="0.7" fill="#EBEDF0" fill-opacity="0.7"/>
<rect x="563" y="121" width="13" height="13" rx="2" ry="2" stroke="#EBEDF0" stroke-opacity="0.7" fill="#EBEDF0" fill-opacity="0.7"/>
<rect x="579" y="25" width="13" height="13" rx="2" ry="2" stroke="#EBEDF0" stroke-opacity="0.7" fill="#EBEDF0" fill-opacity="0.7"/>
<rect x="579" y="41" width="13" height="13" rx="2" ry="2" stroke="#EBEDF0" stroke-opacity="0.7" fill="#EBEDF0" fill-opacity="0.7"/>
<rect x="579" y="57" width="13" height="13" rx="2" ry="2" stroke="#EBEDF0" stroke-opacity="0.7" fill="#EBEDF0" fill-opacity="0.7"/>
<rect x="579" y="73" width="13" height="13" rx="2" ry="2" stroke="#EBEDF0" stroke-opacity="0.7" fill="#EBEDF0" fill-opacity="0.7"/>
<rect x="579" y="89" width="13" height="13" rx="2" ry="2" stroke="#EBEDF0" stroke-opacity="0.7" fill="#EBEDF0" fill-opacity="0.7"/>
<rect x="579" y="105" width="13" height="13" rx="2" ry="2" stroke="#EBEDF0" stroke-opacity="0.7" fill="#EBEDF0" fill-opacity="0.7"/>
<rect x="579" y="121" width="13" height="13" rx="2" ry="2" stroke="#EBEDF0" stroke-opacity="0.7" fill="#EBEDF0" fill-opacity="0.7"/>
<rect x="595" y="25" width="13" height="13" rx="2" ry="2" stroke="#9ABAA7" fill="#9ABAA7"/>
<rect x="595" y="41" width="13" height="13" rx="2" ry="2" stroke="#EBEDF0" stroke-opacity="0.7" fill="#EBEDF0" fill-opacity="0.7"/>
<rect x="595" y="57" width="13" height="13" rx="2" ry="2" stroke="#EBEDF0" stroke-opacity="0.7" fill="#EBEDF0" fill-opacity="0.7"/>
<rect x="595" y="73" width="13" height="13" rx="2" ry="2" stroke="#EBEDF0" stroke-opacity="0.7" fill="#EBEDF0" fill-opacity="0.7"/>
<rect x="595" y="89" width="13" height="13" rx="2" ry="2" stroke="#EBEDF0" stroke-opacity="0.7" fill="#EBEDF0" fill-opacity="0.7"/>
<rect x="595" y="105" width="13" height="13" rx="2" ry="2" stroke="#EBEDF0" stroke-opacity="0.7" fill="#EBEDF0" fill-opacity="0.7"/>
<rect x="595" y="121" width="13" height="13" rx="2" ry="2" stroke="#EBEDF0" stroke-opacity="0.7" fill="#EBEDF0" fill-opacity="0.7"/>
<rect x="611" y="25" width="13" height="13" rx="2" ry="2" stroke="#EBEDF0" stroke-opacity="0.7" fill="#EBEDF0" fill-opacity="0.7"/>
<rect x="611" y="41" width="13" height="13" rx="2" ry="2" stroke="#EBEDF0" stroke-opacity="0.7" fill="#EBEDF0" fill-opacity="0.7"/>
<rect x="611" y="57" width="13" height="13" rx="2" ry="2" stroke="#EBEDF0" stroke-opacity="0.7" fill="#EBEDF0" fill-opacity="0.7"/>
<rect x="611" y="73" width="13" height="13" rx="2" ry="2" stroke="#EBEDF0" stroke-opacity="0.7" fill="#EBEDF0" fill-opacity="0.7"/>
<rect x="611" y="89" width="13" height="13" rx="2" ry="2" stroke="#EBEDF0" stroke-opacity="0.7" fill="#EBEDF0" fill-opacity="0.7"/>
<rect x="611" y="105" width="13" height="13" rx="2" ry="2" stroke="#EBEDF0" stroke-opacity="0.7" fill="#EBEDF0" fill-opacity="0.7"/>
<rect x="611" y="121" width="13" height="13" rx="2" ry="2" stroke="#EBEDF0" stroke-opacity="0.7" fill="#EBEDF0" fill-opacity="0.7"/>
<rect x="627" y="25" width="13" height="13" rx="2" ry="2" stroke="#EBEDF0" stroke-opacity="0.7" fill="#EBEDF0" fill-opacity="0.7"/>
<rect x="627" y="41" width="13" height="13" rx="2" ry="2" stroke="#EBEDF0" stroke-opacity="0.7" fill="#EBEDF0" fill-opacity="0.7"/>
<rect x="627" y="57" width="13" height="13" rx="2" ry="2" stroke="#EBEDF0" stroke-opacity="0.7" fill="#EBEDF0" fill-opacity="0.7"/>
<rect x="627" y="73" width="13" height="13" rx="2" ry="2" stroke="#EBEDF0" stroke-opacity="0.7" fill="#EBEDF0" fill-opacity="0.7"/>
<rect x="627" y="89" width="13" height="13" rx="2" ry="2" stroke="#EBEDF0" stroke-opacity="0.7" fill="#EBEDF0" fill-opacity="0.7"/>
<rect x="627" y="105" width="13" height="13" rx="2" ry="2" stroke="#EBEDF0" stroke-opacity="0.7" fill="#EBEDF0" fill-opacity="0.7"/>
<rect x="627" y="121" width="13" height="13" rx="2" ry="2" stroke="#EBEDF0" stroke-opacity="0.7" fill="#EBEDF0" fill-opacity="0.7"/>
<rect x="643" y="25" width="13" height="13" rx="2" ry="2" stroke="#EBEDF0" stroke-opacity="0.7" fill="#EBEDF0" fill-opacity="0.7"/>
<rect x="643" y="41" width="13" height="13" rx="2" ry="2" stroke="#EBEDF0" stroke-opacity="0.7" fill="#EBEDF0" fill-opacity="0.7"/>
<rect x="643" y="57" width="13" height="13" rx="2" ry="2" stroke="#EBEDF0" stroke-opacity="0.7" fill="#EBEDF0" fill-opacity="0.7"/>
<rect x="643" y="73" width="13" height="13" rx="2" ry="2" stroke="#EBEDF0" stroke-opacity="0.7" fill="#EBEDF0" fill-opacity="0.7"/>
<rect x="643" y="89" width="13" height="13" rx="2" ry="2" stroke="#EBEDF0" stroke-opacity="0.7" fill="#EBEDF0" fill-opacity="0.7"/>
<rect x="643" y="105" width="13" height="13" rx="2" ry="2" stroke="#EBEDF0" stroke-opacity="0.7" fill="#EBEDF0" fill-opacity="0.7"/>
<rect x="643" y="121" width="13" height="13" rx="2" ry="2" stroke="#EBEDF0" stroke-opacity="0.7" fill="#EBEDF0" fill-opacity="0.7"/>
<rect x="659" y="25" width="13" height="13" rx="2" ry="2" stroke="#EBEDF0" stroke-opacity="0.7" fill="#EBEDF0" fill-opacity="0.7"/>
<rect x="659" y="41" width="13" height="13" rx="2" ry="2" stroke="#EBEDF0" stroke-opacity="0.7" fill="#EBEDF0" fill-opacity="0.7"/>
<rect x="659" y="57" width="13" height="13" rx="2" ry="2" stroke="#EBEDF0" stroke-opacity="0.7" fill="#EBEDF0" fill-opacity="0.7"/>
<rect x="659" y="73" width="13" height="13" rx="2" ry="2" stroke="#EBEDF0" stroke-opacity="0.7" fill="#EBEDF0" fill-opacity="0.7"/>
<rect x="659" y="89" width="13" height="13" rx="2" ry="2" stroke="#EBEDF0" stroke-opacity="0.7" fill="#EBEDF0" fill-opacity="0.7"/>
<rect x="659" y="105" width="13" height="13" rx="2" ry="2" stroke="#EBEDF0" stroke-opacity="0.7" fill="#EBEDF0" fill-opacity="0.7"/>
<rect x="659" y="121" width="13" height="13" rx="2" ry="2" stroke="#EBEDF0" stroke-opacity="0.7" fill="#EBEDF0" fill-opacity="0.7"/>
<rect x="675" y="25" width="13" height="13" rx="2" ry="2" stroke="#EBEDF0" stroke-opacity="0.7" fill="#EBEDF0" fill-opacity="0.7"/>
<rect x="675" y="41" width="13" height="13" rx="2" ry="2" stroke="#EBEDF0" stroke-opacity="0.7" fill="#EBEDF0" fill-opacity="0.7"/>
<rect x="675" y="57" width="13" height="13" rx="2" ry="2" stroke="#EBEDF0" stroke-opacity="0.7" fill="#EBEDF0" fill-opacity="0.7"/>
<rect x="675" y="73" width="13" height="13" rx="2" ry="2" stroke="#EBEDF0" stroke-opacity="0.7" fill="#EBEDF0" fill-opacity="0.7"/>
<rect x="675" y="89" width="13" height="13" rx="2" ry="2" stroke="#EBEDF0" stroke-opacity="0.7" fill="#EBEDF0" fill-opacity="0.7"/>
<rect x="675" y="105" width="13" height="13" rx="2" ry="2" stroke="#EBEDF0" stroke-opacity="0.7" fill="#EBEDF0" fill-opacity="0.7"/>
<rect x="675" y="121" width="13" height="13" rx="2" ry="2" stroke="#EBEDF0" stroke-opacity="0.7" fill="#EBEDF0" fill-opacity="0.7"/>
<rect x="691" y="25" width="13" height="13" rx="2" ry="2" stroke="#EBEDF0" stroke-opacity="0.7" fill="#EBEDF0" fill-opacity="0.7"/>
<rect x="691" y="41" width="13" height="13" rx="2" ry="2" stroke="#EBEDF0" stroke-opacity="0.7" fill="#EBEDF0" fill-opacity="0.7"/>
<rect x="691" y="57" width="13" height="13" rx="2" ry="2" stroke="#EBEDF0" stroke-opacity="0.7" fill="#EBEDF0" fill-opacity="0.7"/>
<rect x="691" y="73" width="13" height="13" rx="2" ry="2" stroke="#EBEDF0" stroke-opacity="0.7" fill="#EBEDF0" fill-opacity="0.7"/>
<rect x="691" y="89" width="13" height="13" rx="2" ry="2" stroke="#EBEDF0" stroke-opacity="0.7" fill="#EBEDF0" fill-opacity="0.7"/>
<rect x="691" y="105" width="13" height="13" rx="2" ry="2" stroke="#EBEDF0" stroke-opacity="0.7" fill="#EBEDF0" fill-opacity="0.7"/>
<rect x="691" y="121" width="13" height="13" rx="2" ry="2" stroke="#EBEDF0" stroke-opacity="0.7" fill="#EBEDF0" fill-opacity="0.7"/>
<rect x="707" y="25" width="13" height="13" rx="2" ry="2" stroke="#EBEDF0" stroke-opacity="0.7" fill="#EBEDF0" fill-opacity="0.7"/>
<rect x="707" y="41" width="13" height="13" rx="2" ry="2" stroke="#EBEDF0" stroke-opacity="0.7" fill="#EBEDF0" fill-opacity="0.7"/>
<rect x="707" y="57" width="13" height="13" rx="2" ry="2" stroke="#EBEDF0" stroke-opacity="0.7" fill="#EBEDF0" fill-opacity="0.7"/>
<rect x="707" y="73" width="13" height="13" rx="2" ry="2" stroke="#EBEDF0" stroke-opacity="0.7" fill="#EBEDF0" fill-opacity="0.7"/>
<rect x="707" y="89" width="13" height="13" rx="2" ry="2" stroke="#EBEDF0" stroke-opacity="0.7" fill="#EBEDF0" fill-opacity="0.7"/>
<rect x="707" y="105" width="13" height="13" rx="2" ry="2" stroke="#EBEDF0" stroke-opacity="0.7" fill="#EBEDF0" fill-opacity="0.7"/>
<rect x="707" y="121" width="13" height="13" rx="2" ry="2" stroke="#EBEDF0" stroke-opacity="0.7" fill="#EBEDF0" fill-opacity="0.7"/>
<rect x="723" y="25" width="13" height="13" rx="2" ry="2" stroke="#EBEDF0" stroke-opacity="0.7" fill="#EBEDF0" fill-opacity="0.7"/>
<rect x="723" y="41" width="13" height="13" rx="2" ry="2" stroke="#EBEDF0" stroke-opacity="0.7" fill="#EBEDF0" fill-opacity="0.7"/>
<rect x="723" y="57" width="13" height="13" rx="2" ry="2" stroke="#EBEDF0" stroke-opacity="0.7" fill="#EBEDF0" fill-opacity="0.7"/>
<rect x="723" y="73" width="13" height="13" rx="2" ry="2" stroke="#EBEDF0" stroke-opacity="0.7" fill="#EBEDF0" fill-opacity="0.7"/>
<rect x="723" y="89" width="13" height="13" rx="2" ry="2" stroke="#EBEDF0" stroke-opacity="0.7" fill="#EBEDF0" fill-opacity="0.7"/>
<rect x="723" y="105" width="13" height="13" rx="2" ry="2" stroke="#EBEDF0" stroke-opacity="0.7" fill="#EBEDF0" fill-opacity="0.7"/>
<rect x="723" y="121" width="13" height="13" rx="2" ry="2" stroke="#EBEDF0" stroke-opacity="0.7" fill="#EBEDF0" fill-opacity="0.7"/>
<rect x="739" y="25" width="13" height="13" rx="2" ry="2" stroke="#EBEDF0" stroke-opacity="0.7" fill="#EBEDF0" fill-opacity="0.7"/>
<rect x="739" y="41" width="13" height="13" rx="2" ry="2" stroke="#EBEDF0" stroke-opacity="0.7" fill="#EBEDF0" fill-opacity="0.7"/>
<rect x="739" y="57" width="13" height="13" rx="2" ry="2" stroke="#EBEDF0" stroke-opacity="0.7" fill="#EBEDF0" fill-opacity="0.7"/>
<rect x="739" y="73" width="13" height="13" rx="2" ry="2" stroke="#EBEDF0" stroke-opacity="0.7" fill="#EBEDF0" fill-opacity="0.7"/>
<rect x="739" y="89" width="13" height="13" rx="2" ry="2" stroke="#EBEDF0" stroke-opacity="0.7" fill="#EBEDF0" fill-opacity="0.7"/>
<rect x="739" y="105" width="13" height="13" rx="2" ry="2" stroke="#EBEDF0" stroke-opacity="0.7" fill="#EBEDF0" fill-opacity="0.7"/>
<rect x="739" y="121" width="13" height="13" rx="2" ry="2" stroke="#EBEDF0" stroke-opacity="0.7" fill="#EBEDF0" fill-opacity="0.7"/>
<rect x="755" y="25" width="13" height="13" rx="2" ry="2" stroke="#EBEDF0" stroke-opacity="0.7" fill="#EBEDF0" fill-opacity="0.7"/>
<rect x="755" y="41" width="13" height="13" rx="2" ry="2" stroke="#EBEDF0" stroke-opacity="0.7" fill="#EBEDF0" fill-opacity="0.7"/>
<rect x="755" y="57" width="13" height="13" rx="2" ry="2" stroke="#EBEDF0" stroke-opacity="0.7" fill="#EBEDF0" fill-opacity="0.7"/>
<rect x="755" y="73" width="13" height="13" rx="2" ry="2" stroke="#EBEDF0" stroke-opacity="0.7" fill="#EBEDF0" fill-opacity="0.7"/>
<rect x="755" y="89" width="13" height="13" rx="2" ry="2" stroke="#EBEDF0" stroke-opacity="0.7" fill="#EBEDF0" fill-opacity="0.7"/>
<rect x="755" y="105" width="13" height="13" rx="2" ry="2" stroke="#EBEDF0" stroke-opacity="0.7" fill="#EBEDF0" fill-opacity="0.7"/>
<rect x="755" y="121" width="13" height="13" rx="2" ry="2" stroke="#EBEDF0" stroke-opacity="0.7" fill="#EBEDF0" fill-opacity="0.7"/>
<rect x="771" y="25" width="13" height="13" rx="2" ry="2" stroke="#EBEDF0" stroke-opacity="0.7" fill="#EBEDF0" fill-opacity="0.7"/>
<rect x="771" y="41" width="13" height="13" rx="2" ry="2" stroke="#EBEDF0" stroke-opacity="0.7" fill="#EBEDF0" fill-opacity="0.7"/>
<rect x="771" y="57" width="13" height="13" rx="2" ry="2" stroke="#EBEDF0" stroke-opacity="0.7" fill="#EBEDF0" fill-opacity="0.7"/>
<rect x="771" y="73" width="13" height="13" rx="2" ry="2" stroke="#EBEDF0" stroke-opacity="0.7" fill="#EBEDF0" fill-opacity="0.7"/>
<rect x="771" y="89" width="13" height="13" rx="2" ry="2" stroke="#EBEDF0" stroke-opacity="0.7" fill="#EBEDF0" fill-opacity="0.7"/>
<rect x="771" y="105" width="13" height="13" rx="2" ry="2" stroke="#EBEDF0" stroke-opacity="0.7" fill="#EBEDF0" fill-opacity="0.7"/>
<rect x="771" y="121" width="13" height="13" rx="2" ry="2" stroke="#EBEDF0" stroke-opacity="0.7" fill="#EBEDF0" fill-opacity="0.7"/>
<rect x="787" y="25" width="13" height="13" rx="2" ry="2" stroke="#EBEDF0" stroke-opacity="0.7" fill="#EBEDF0" fill-opacity="0.7"/>
<rect x="787" y="41" width="13" height="13" rx="2" ry="2" stroke="#EBEDF0" stroke-opacity="0.7" fill="#EBEDF0" fill-opacity="0.7"/>
<rect x="787" y="57" width="13" height="13" rx="2" ry="2" stroke="#EBEDF0" stroke-opacity="0.7" fill="#EBEDF0" fill-opacity="0.7"/>
<rect x="787" y="73" width="13" height="13" rx="2" ry="2" stroke="#EBEDF0" stroke-opacity="0.7" fill="#EBEDF0" fill-opacity="0.7"/>
<rect x="787" y="89" width="13" height="13" rx="2" ry="2" stroke="#EBEDF0" stroke-opacity="0.7" fill="#EBEDF0" fill-opacity="0.7"/>
<rect x="787" y="105" width="13" height="13" rx="2" ry="2" stroke="#EBEDF0" stroke-opacity="0.7" fill="#EBEDF0" fill-opacity="0.7"/>
<rect x="787" y="121" width="13" height="13" rx="2" ry="2" stroke="#EBEDF0" stroke-opacity="0.7" fill="#EBEDF0" fill-opacity="0.7"/>
<rect x="803" y="25" width="13" height="13" rx="2" ry="2" stroke="#EBEDF0" stroke-opacity="0.7" fill="#EBEDF0" fill-opacity="0.7"/>
<rect x="803" y="41" width="13" height="13" rx="2" ry="2" stroke="#EBEDF0" stroke-opacity="0.7" fill="#EBEDF0" fill-opacity="0.7"/>
<rect x="803" y="57" width="13" height="13" rx="2" ry="2" stroke="#EBEDF0" stroke-opacity="0.7" fill="#EBEDF0" fill-opacity="0.7"/>
<rect x="803" y="73" width="13" height="13" rx="2" ry="2" stroke="#EBEDF0" stroke-opacity="0.7" fill="#EBEDF0" fill-opacity="0.7"/>
<rect x="803" y="89" width="13" height="13" rx="2" ry="2" stroke="#EBEDF0" stroke-opacity="0.7" fill="#EBEDF0" fill-opacity="0.7"/>
<rect x="803" y="105" width="13" height="13" rx="2" ry="2" stroke="#EBEDF0" stroke-opacity="0.7" fill="#EBEDF0" fill-opacity="0.7"/>
<rect x="803" y="121" width="13" height="13" rx="2" ry="2" stroke="#EBEDF0" stroke-opacity="0.7" fill="#EBEDF0" fill-opacity="0.7"/>
<rect x="819" y="25" width="13" height="13" rx="2" ry="2" stroke="#EBEDF0" stroke-opacity="0.7" fill="#EBEDF0" fill-opacity="0.7"/>
<rect x="819" y="41" width="13" height="13" rx="2" ry="2" stroke="#EBEDF0" stroke-opacity="0.7" fill="#EBEDF0" fill-opacity="0.7"/>
<rect x="819" y="57" width="13" height="13" rx="2" ry="2" stroke="#EBEDF0" stroke-opacity="0.7" fill="#EBEDF0" fill-opacity="0.7"/>
<rect x="819" y="73" width="13" height="13" rx="2" ry="2" stroke="#EBEDF0" stroke-opacity="0.7" fill="#EBEDF0" fill-opacity="0.7"/>
<rect x="819" y="89" width="13" height="13" rx="2" ry="2" stroke="#EBEDF0" stroke-opacity="0.7" fill="#EBEDF0" fill-opacity="0.7"/>
<rect x="819" y="105" width="13" height="13" rx="2" ry="2" stroke="#EBEDF0" stroke-opacity="0.7" fill="#EBEDF0" fill-opacity="0.7"/>
<rect x="819" y="121" width="13" height="13" rx="2" ry="2" stroke="#EBEDF0" stroke-opacity="0.7" fill="#EBEDF0" fill-opacity="0.7"/>
<rect x="835" y="25" width="13" height="13" rx="2" ry="2" stroke="#EBEDF0" stroke-opacity="0.7" fill="#EBEDF0" fill-opacity="0.7"/>
<rect x="835" y="41" width="13" height="13" rx="2" ry="2" stroke="#EBEDF0" stroke-opacity="0.7" fill="#EBEDF0" fill-opacity="0.7"/>
<rect x="835" y="57" width="13" height="13" rx="2" ry="2" stroke="#EBEDF0" stroke-opacity="0.7" fill="#EBEDF0" fill-opacity="0.7"/>
<rect x="835" y="73" width="13" height="13" rx="2" ry="2" stroke="#EBEDF0" stroke-opacity="0.7" fill="#EBEDF0" fill-opacity="0.7"/>
<rect x="835" y="89" width="13" height="13" rx="2" ry="2" stroke="#EBEDF0" stroke-opacity="0.7" fill="#EBEDF0" fill-opacity="0.7"/>
<rect x="835" y="105" width="13" height="13" rx="2" ry="2" stroke="#EBEDF0" stroke-opacity="0.7" fill="#EBEDF0" fill-opacity="0.7"/>
<rect x="835" y="121" width="13" height="13" rx="2" ry="2" stroke="#EBEDF0" stroke-opacity="0.7" fill="#EBEDF0" fill-opacity="0.7"/>
<rect x="851" y="25" width="13" height="13" rx="2" ry="2" stroke="#EBEDF0" stroke-opacity="0.7" fill="#EBEDF0" fill-opacity="0.7"/>
<rect x="851" y="41" width="13" height="13" rx="2" ry="2" stroke="#EBEDF0" stroke-opacity="0.7" fill="#EBEDF0" fill-opacity="0.7"/>
<rect x="851" y="57" width="13" height="13" rx="2" ry="2" stroke="#EBEDF0" stroke-opacity="0.7" fill="#EBEDF0" fill-opacity="0.7"/>
<rect x="851" y="73" width="13" height="13" rx="2" ry="2" stroke="#216E39" fill="#216E39"/>
<rect x="851" y="89" width="13" height="13" rx="2" ry="2" stroke="#EBEDF0" stroke-opacity="0.7" fill="#EBEDF0" fill-opacity="0.7"/>
<rect x="851" y="105" width="13" height="13" rx="2" ry="2" stroke="#EBEDF0" stroke-opacity="0.7" fill="#EBEDF0" fill-opacity="0.7"/>
<rect x="851" y="121" width="13" height="13" rx="2" ry="2" stroke="#EBEDF0" stroke-opacity="0.7" fill="#EBEDF0" fill-opacity="0.7"/>
<rect x="867" y="25" width="13" height="13" rx="2" ry="2" stroke="#EBEDF0" stroke-opacity="0.7" fill="#EBEDF0" fill-opacity="0.7"/>
<rect x="867" y="41" width="13" height="13" rx="2" ry="2" stroke="#EBEDF0" stroke-opacity="0.7" fill="#EBEDF0" fill-opacity="0.7"/>
<rect x="867" y="57" width="13" height="13" rx="2" ry="2" stroke="#EBEDF0" stroke-opacity="0.7" fill="#EBEDF0" fill-opacity="0.7"/>
</svg>