<svg width="600" height="400" viewBox="0 0 600 400" xmlns="http://www.w3.org/2000/svg">
<rect x="0" y="0" width="600" height="400" fill="#FFFFFF"/>
<path d="M300,200 L300,138.2 A0 0 0 0 1 302.2,138.3 A61.8 61.8 0 0 1 302.2,261.7 A61.8 61.8 0 0 1 243.1,223.9 A0 0 0 0 1 242.3,221.9 L300,200 Z" fill="#5470C6" stroke="#FFFFFF"/>
<text font-size="14" x="325.4" y="217.5" transform="rotate(-55.4 325.4 217.5)" dominant-baseline="central" text-anchor="middle" font-family="Roboto" fill="#FFFFFF" fill-opacity="0.9">
Grandpa
</text>
<path d="M300,138.2 L300,76.5 A0 0 0 0 1 304.3,76.6 A123.5 123.5 0 0 1 422,180.8 A0 0 0 0 1 422.6,185.1 L361.3,192.6 A0 0 0 0 1 361,190.4 A61.8 61.8 0 0 0 302.2,138.3 A0 0 0 0 1 300,138.2 Z" fill="#6F86CF" stroke="#FFFFFF"/>
<text font-size="14" x="361.4" y="130.7" transform="rotate(41.5 361.4 130.7)" dominant-baseline="central" text-anchor="middle" font-family="Roboto" fill="#1E1E1E">
Uncle Leo
</text>
<path d="M300,76.5 L300,14.8 A0 0 0 0 1 306.5,14.9 A185.2 185.2 0 0 1 437.3,75.7 A0 0 0 0 1 441.6,80.5 L394.4,120.4 A0 0 0 0 1 391.6,117.1 A123.5 123.5 0 0 0 304.3,76.6 A0 0 0 0 1 300,76.5 Z" fill="#8A9DD8" stroke="#FFFFFF"/>
<text font-size="14" x="365.1" y="60" transform="rotate(24.9 365.1 60)" dominant-baseline="central" text-anchor="middle" font-family="Roboto" fill="#1E1E1E">
Cousin Jack
</text>
<path d="M394.4,120.4 L441.6,80.5 A0 0 0 0 1 445.7,85.6 A185.2 185.2 0 0 1 483,171.3 A0 0 0 0 1 483.9,177.7 L422.6,185.1 A0 0 0 0 1 422,180.8 A123.5 123.5 0 0 0 397.1,123.7 A0 0 0 0 1 394.4,120.4 Z" fill="#8A9DD8" stroke="#FFFFFF"/>
<text font-size="14" x="441.5" y="138.3" transform="rotate(66.5 441.5 138.3)" dominant-baseline="central" text-anchor="middle" font-family="Roboto" fill="#1E1E1E">
Cousin Mary
</text>
<path d="M361.3,192.6 L422.6,185.1 A0 0 0 0 1 423,189.4 A123.5 123.5 0 0 1 186.1,247.8 A0 0 0 0 1 184.5,243.8 L242.3,221.9 A0 0 0 0 1 243.1,223.9 A61.8 61.8 0 0 0 361.5,194.7 A0 0 0 0 1 361.3,192.6 Z" fill="#6F86CF" stroke="#FFFFFF"/>
<text font-size="14" x="322.2" y="289.9" transform="rotate(-13.8 322.2 289.9)" dominant-baseline="central" text-anchor="middle" font-family="Roboto" fill="#1E1E1E">
Father
</text>
<path d="M422.6,185.1 L483.9,177.7 A0 0 0 0 1 484.6,184.1 A185.2 185.2 0 0 1 262,381.3 A0 0 0 0 1 255.7,379.9 L270.4,319.9 A0 0 0 0 1 274.6,320.9 A123.5 123.5 0 0 0 423,189.4 A0 0 0 0 1 422.6,185.1 Z" fill="#8A9DD8" stroke="#FFFFFF"/>
<text font-size="14" x="402.4" y="315.6" transform="rotate(-41.5 402.4 315.6)" dominant-baseline="central" text-anchor="middle" font-family="Roboto" fill="#1E1E1E">
Me
</text>
<path d="M270.4,319.9 L255.7,379.9 A0 0 0 0 1 249.4,378.2 A185.2 185.2 0 0 1 129.2,271.7 A0 0 0 0 1 126.8,265.7 L184.5,243.8 A0 0 0 0 1 186.1,247.8 A123.5 123.5 0 0 0 266.3,318.8 A0 0 0 0 1 270.4,319.9 Z" fill="#8A9DD8" stroke="#FFFFFF"/>
<text font-size="14" x="197.6" y="315.6" transform="rotate(41.5 197.6 315.6)" dominant-baseline="central" text-anchor="middle" font-family="Roboto" fill="#1E1E1E">
Brother Peter
</text>
<path d="M300,200 L242.3,221.9 A0 0 0 0 1 241.5,219.9 A61.8 61.8 0 0 1 297.8,138.3 A0 0 0 0 1 300,138.2 L300,200 Z" fill="#91CC75" stroke="#FFFFFF"/>
<text font-size="14" x="274.6" y="182.5" transform="rotate(304.6 274.6 182.5)" dominant-baseline="central" text-anchor="middle" font-family="Roboto" fill="#1E1E1E">
Nancy
</text>
<path d="M242.3,221.9 L184.5,243.8 A0 0 0 0 1 183.1,239.7 A123.5 123.5 0 0 1 295.7,76.6 A0 0 0 0 1 300,76.5 L300,138.2 A0 0 0 0 1 297.8,138.3 A61.8 61.8 0 0 0 241.5,219.9 A0 0 0 0 1 242.3,221.9 Z" fill="#A2D48B" stroke="#FFFFFF"/>
<text font-size="14" x="223.8" y="147.4" transform="rotate(304.6 223.8 147.4)" dominant-baseline="central" text-anchor="middle" font-family="Roboto" fill="#1E1E1E">
Uncle Nike
</text>
<path d="M184.5,243.8 L126.8,265.7 A0 0 0 0 1 124.6,259.6 A185.2 185.2 0 0 1 115.4,184.1 A0 0 0 0 1 116.1,177.7 L177.4,185.1 A0 0 0 0 1 177,189.4 A123.5 123.5 0 0 0 183.1,239.7 A0 0 0 0 1 184.5,243.8 Z" fill="#B4DCA1" stroke="#FFFFFF"/>
<path d="M177.4,185.1 L116.1,177.7 A0 0 0 0 1 117,171.3 A185.2 185.2 0 0 1 293.5,14.9 A0 0 0 0 1 300,14.8 L300,76.5 A0 0 0 0 1 295.7,76.6 A123.5 123.5 0 0 0 178,180.8 A0 0 0 0 1 177.4,185.1 Z" fill="#B4DCA1" stroke="#FFFFFF"/>
<text font-size="14" x="197.6" y="84.4" transform="rotate(318.5 197.6 84.4)" dominant-baseline="central" text-anchor="middle" font-family="Roboto" fill="#1E1E1E">
Cousin Jenny
</text>
</svg>