<svg width="600" height="400" viewBox="0 0 600 400" xmlns="http://www.w3.org/2000/svg">
<rect x="0" y="0" width="600" height="400" fill="#1F1D1D"/>
<text font-size="18" x="262.5" y="5" dy="15" font-weight="bold" dominant-baseline="middle" font-family="Roboto" fill="#D8D9DA">
Sunburst
</text>
<path d="M300,197.5 L300,148 A0 0 0 0 1 302.4,148 A69.5 69.5 0 0 1 302.4,287 A69.5 69.5 0 0 1 235.9,244.4 A0 0 0 0 1 235,242.2 L281.3,224.6 A0 0 0 0 1 281.6,225.2 A20 20 0 0 0 318.7,210.4 A20 20 0 0 0 300.7,197.5 A0 0 0 0 1 300,197.5 Z" fill="#7EB26D" stroke="#1F1D1D"/>
<text font-size="14" x="336.8" y="242.9" transform="rotate(-55.4 336.8 242.9)" dominant-baseline="central" text-anchor="middle" font-family="Roboto" fill="#1E1E1E">
Grandpa
</text>
<path d="M300,148 L300,98.4 A0 0 0 0 1 304.2,98.5 A119.1 119.1 0 0 1 417.6,199 A0 0 0 0 1 418.2,203.1 L369,209.1 A0 0 0 0 1 368.7,206.7 A69.5 69.5 0 0 0 302.4,148 A0 0 0 0 1 300,148 Z" fill="#92BE84" stroke="#1F1D1D"/>
<text font-size="14" x="362.5" y="146.9" transform="rotate(41.5 362.5 146.9)" dominant-baseline="central" text-anchor="middle" font-family="Roboto" fill="#1E1E1E">
Uncle Leo
</text>
<path d="M300,98.4 L300,48.9 A0 0 0 0 1 305.9,49 A168.6 168.6 0 0 1 425,104.3 A0 0 0 0 1 428.9,108.8 L391,140.7 A0 0 0 0 1 388.3,137.6 A119.1 119.1 0 0 0 304.2,98.5 A0 0 0 0 1 300,98.4 Z" fill="#A7CA9B" stroke="#1F1D1D"/>
<text font-size="14" x="360.6" y="87" transform="rotate(24.9 360.6 87)" dominant-baseline="central" text-anchor="middle" font-family="Roboto" fill="#1E1E1E">
Cousin Jack
</text>
<path d="M391,140.7 L428.9,108.8 A0 0 0 0 1 432.6,113.3 A168.6 168.6 0 0 1 466.6,191.3 A0 0 0 0 1 467.4,197.2 L418.2,203.1 A0 0 0 0 1 417.6,199 A119.1 119.1 0 0 0 393.6,143.9 A0 0 0 0 1 391,140.7 Z" fill="#A7CA9B" stroke="#1F1D1D"/>
<path d="M369,209.1 L418.2,203.1 A0 0 0 0 1 418.6,207.3 A119.1 119.1 0 0 1 190.2,263.6 A0 0 0 0 1 188.7,259.7 L235,242.2 A0 0 0 0 1 235.9,244.4 A69.5 69.5 0 0 0 369.3,211.5 A0 0 0 0 1 369,209.1 Z" fill="#92BE84" stroke="#1F1D1D"/>
<text font-size="14" x="322.6" y="309.1" transform="rotate(-13.8 322.6 309.1)" dominant-baseline="central" text-anchor="middle" font-family="Roboto" fill="#1E1E1E">
Father
</text>
<path d="M418.2,203.1 L467.4,197.2 A0 0 0 0 1 468,203 A168.6 168.6 0 0 1 265.4,382.5 A0 0 0 0 1 259.6,381.2 L271.5,333.1 A0 0 0 0 1 275.6,334 A119.1 119.1 0 0 0 418.6,207.3 A0 0 0 0 1 418.2,203.1 Z" fill="#A7CA9B" stroke="#1F1D1D"/>
<text font-size="14" x="395.4" y="325.2" transform="rotate(-41.5 395.4 325.2)" dominant-baseline="central" text-anchor="middle" font-family="Roboto" fill="#1E1E1E">
Me
</text>
<path d="M271.5,333.1 L259.6,381.2 A0 0 0 0 1 254,379.7 A168.6 168.6 0 0 1 144.5,282.8 A0 0 0 0 1 142.3,277.3 L188.7,259.7 A0 0 0 0 1 190.2,263.6 A119.1 119.1 0 0 0 267.5,332.1 A0 0 0 0 1 271.5,333.1 Z" fill="#A7CA9B" stroke="#1F1D1D"/>
<text font-size="14" x="204.6" y="325.2" transform="rotate(41.5 204.6 325.2)" dominant-baseline="central" text-anchor="middle" font-family="Roboto" fill="#1E1E1E">
Brother Peter
</text>
<path d="M281.3,224.6 L235,242.2 A0 0 0 0 1 234.2,239.9 A69.5 69.5 0 0 1 297.6,148 A0 0 0 0 1 300,148 L300,197.5 A0 0 0 0 1 299.3,197.5 A20 20 0 0 0 281.1,223.9 A0 0 0 0 1 281.3,224.6 Z" fill="#EAB839" stroke="#1F1D1D"/>
<text font-size="14" x="263.2" y="192.1" transform="rotate(304.6 263.2 192.1)" dominant-baseline="central" text-anchor="middle" font-family="Roboto" fill="#1E1E1E">
Nancy
</text>
<path d="M235,242.2 L188.7,259.7 A0 0 0 0 1 187.2,255.8 A119.1 119.1 0 0 1 295.8,98.5 A0 0 0 0 1 300,98.4 L300,148 A0 0 0 0 1 297.6,148 A69.5 69.5 0 0 0 234.2,239.9 A0 0 0 0 1 235,242.2 Z" fill="#EDC358" stroke="#1F1D1D"/>
<text font-size="14" x="222.4" y="163.9" transform="rotate(304.6 222.4 163.9)" dominant-baseline="central" text-anchor="middle" font-family="Roboto" fill="#1E1E1E">
Uncle Nike
</text>
<path d="M188.7,259.7 L142.3,277.3 A0 0 0 0 1 140.3,271.8 A168.6 168.6 0 0 1 132,203 A0 0 0 0 1 132.6,197.2 L181.8,203.1 A0 0 0 0 1 181.4,207.3 A119.1 119.1 0 0 0 187.2,255.8 A0 0 0 0 1 188.7,259.7 Z" fill="#F0CE78" stroke="#1F1D1D"/>
<path d="M181.8,203.1 L132.6,197.2 A0 0 0 0 1 133.4,191.3 A168.6 168.6 0 0 1 294.1,49 A0 0 0 0 1 300,48.9 L300,98.4 A0 0 0 0 1 295.8,98.5 A119.1 119.1 0 0 0 182.4,199 A0 0 0 0 1 181.8,203.1 Z" fill="#F0CE78" stroke="#1F1D1D"/>
<text font-size="14" x="204.6" y="109.8" transform="rotate(318.5 204.6 109.8)" dominant-baseline="central" text-anchor="middle" font-family="Roboto" fill="#1E1E1E">
Cousin Jenny
</text>
</svg>