<svg width="600" height="400" viewBox="0 0 600 400" xmlns="http://www.w3.org/2000/svg">
<rect x="0" y="0" width="600" height="400" fill="#FFFFFF"/>
<g>
<line stroke-width="2" x1="158" y1="15" x2="183" y2="15" stroke="#5470C6"/>
<circle cx="170.5" cy="15" r="5.5" stroke-width="2" stroke="#5470C6" fill="#FFFFFF"/>
<text font-size="14" x="186" y="19" font-family="Roboto" fill="#464646">
Allocated Budget
</text>
</g>
<g>
<line stroke-width="2" x1="304" y1="15" x2="329" y2="15" stroke="#91CC75"/>
<circle cx="316.5" cy="15" r="5.5" stroke-width="2" stroke="#91CC75" fill="#FFFFFF"/>
<text font-size="14" x="332" y="19" font-family="Roboto" fill="#464646">
Actual Spending
</text>
</g>
<path d="M 300 182.2 L 324.9 196.6 L 324.9 225.4 L 300 239.8 L 275.1 225.4 L 275.1 196.6 Z" stroke-width="1" fill="none" stroke="#E0E6F2"/>
<path d="M 300 153.4 L 349.9 182.2 L 349.9 239.8 L 300 268.6 L 250.1 239.8 L 250.1 182.2 Z" stroke-width="1" fill="none" stroke="#E0E6F2"/>
<path d="M 300 124.6 L 374.8 167.8 L 374.8 254.2 L 300 297.4 L 225.2 254.2 L 225.2 167.8 Z" stroke-width="1" fill="none" stroke="#E0E6F2"/>
<path d="M 300 95.8 L 399.8 153.4 L 399.8 268.6 L 300 326.2 L 200.2 268.6 L 200.2 153.4 Z" stroke-width="1" fill="none" stroke="#E0E6F2"/>
<path d="M 300 67 L 424.7 139 L 424.7 283 L 300 355 L 175.3 283 L 175.3 139 Z" stroke-width="1" fill="none" stroke="#E0E6F2"/>
<text font-size="14" x="282" y="62" font-family="Roboto" fill="#464646">
Sales
</text>
<line stroke-width="1" x1="300" y1="67" x2="300" y2="211" stroke="#E0E6F2"/>
<text font-size="14" x="427.7" y="139" font-family="Roboto" fill="#464646">
Administration
</text>
<line stroke-width="1" x1="424.7" y1="139" x2="300" y2="211" stroke="#E0E6F2"/>
<text font-size="14" x="427.7" y="290.9" font-family="Roboto" fill="#464646">
Information Technology
</text>
<line stroke-width="1" x1="424.7" y1="283" x2="300" y2="211" stroke="#E0E6F2"/>
<text font-size="14" x="240" y="371" font-family="Roboto" fill="#464646">
Customer Support
</text>
<line stroke-width="1" x1="300" y1="355" x2="300" y2="211" stroke="#E0E6F2"/>
<text font-size="14" x="85.3" y="290.9" font-family="Roboto" fill="#464646">
Development
</text>
<line stroke-width="1" x1="175.3" y1="283" x2="300" y2="211" stroke="#E0E6F2"/>
<text font-size="14" x="106.3" y="139" font-family="Roboto" fill="#464646">
Marketing
</text>
<line stroke-width="1" x1="175.3" y1="139" x2="300" y2="211" stroke="#E0E6F2"/>
<g>
<path d="M 300 118 L 323.4 197.5 L 383.1 259 L 300 343.6 L 180.1 280.2 L 210.2 159.2 Z" stroke-width="2" fill="#5470C6" fill-opacity="0.2" stroke="#5470C6"/>
<circle cx="300" cy="118" r="2" stroke-width="2" stroke="#5470C6" fill="none"/>
<circle cx="323.4" cy="197.5" r="2" stroke-width="2" stroke="#5470C6" fill="none"/>
<circle cx="383.1" cy="259" r="2" stroke-width="2" stroke="#5470C6" fill="none"/>
<circle cx="300" cy="343.6" r="2" stroke-width="2" stroke="#5470C6" fill="none"/>
<circle cx="180.1" cy="280.2" r="2" stroke-width="2" stroke="#5470C6" fill="none"/>
<circle cx="210.2" cy="159.2" r="2" stroke-width="2" stroke="#5470C6" fill="none"/>
</g>
<g>
<path d="M 300 100.2 L 409.1 148 L 416.4 278.2 L 300 309.5 L 199.3 269.2 L 195.2 150.5 Z" stroke-width="2" fill="#91CC75" fill-opacity="0.2" stroke="#91CC75"/>
<circle cx="300" cy="100.2" r="2" stroke-width="2" stroke="#91CC75" fill="none"/>
<circle cx="409.1" cy="148" r="2" stroke-width="2" stroke="#91CC75" fill="none"/>
<circle cx="416.4" cy="278.2" r="2" stroke-width="2" stroke="#91CC75" fill="none"/>
<circle cx="300" cy="309.5" r="2" stroke-width="2" stroke="#91CC75" fill="none"/>
<circle cx="199.3" cy="269.2" r="2" stroke-width="2" stroke="#91CC75" fill="none"/>
<circle cx="195.2" cy="150.5" r="2" stroke-width="2" stroke="#91CC75" fill="none"/>
</g>
</svg>