<svg width="600" height="400" viewBox="0 0 600 400" xmlns="http://www.w3.org/2000/svg">
<rect x="0" y="0" width="600" height="400" fill="#FFFFFF"/>
<g>
<line stroke-width="2" x1="159.5" y1="15" x2="184.5" y2="15" stroke="#5470C6"/>
<circle cx="172" cy="15" r="5.5" stroke-width="2" stroke="#5470C6" fill="#FFFFFF"/>
<text font-size="14" x="187.5" y="19" font-family="Arial" fill="#464646">
Allocated Budget
</text>
</g>
<g>
<line stroke-width="2" x1="303.5" y1="15" x2="328.5" y2="15" stroke="#91CC75"/>
<circle cx="316" cy="15" r="5.5" stroke-width="2" stroke="#91CC75" fill="#FFFFFF"/>
<text font-size="14" x="331.5" y="19" font-family="Arial" fill="#464646">
Actual Spending
</text>
</g>
<path d="M 300 182.2 L 327.4 202.1 L 316.9 234.3 L 283.1 234.3 L 272.6 202.1 Z" stroke-width="1" fill="none" stroke="#E0E6F2"/>
<path d="M 300 153.4 L 354.8 193.2 L 333.9 257.6 L 266.1 257.6 L 245.2 193.2 Z" stroke-width="1" fill="none" stroke="#E0E6F2"/>
<path d="M 300 124.6 L 382.2 184.3 L 350.8 280.9 L 249.2 280.9 L 217.8 184.3 Z" stroke-width="1" fill="none" stroke="#E0E6F2"/>
<path d="M 300 95.8 L 409.6 175.4 L 367.7 304.2 L 232.3 304.2 L 190.4 175.4 Z" stroke-width="1" fill="none" stroke="#E0E6F2"/>
<path d="M 300 67 L 437 166.5 L 384.6 327.5 L 215.4 327.5 L 163 166.5 Z" stroke-width="1" fill="none" stroke="#E0E6F2"/>
<text font-size="14" x="281.5" y="62" font-family="Arial" fill="#464646">
Sales
</text>
<line stroke-width="1" x1="300" y1="67" x2="300" y2="211" stroke="#E0E6F2"/>
<text font-size="14" x="440" y="166.5" font-family="Arial" fill="#464646">
Administration
</text>
<line stroke-width="1" x1="437" y1="166.5" x2="300" y2="211" stroke="#E0E6F2"/>
<text font-size="14" x="387.6" y="335.1" font-family="Arial" fill="#464646">
Information Technology
</text>
<line stroke-width="1" x1="384.6" y1="327.5" x2="300" y2="211" stroke="#E0E6F2"/>
<text font-size="14" x="94.4" y="335.1" font-family="Arial" fill="#464646">
Customer Support
</text>
<line stroke-width="1" x1="215.4" y1="327.5" x2="300" y2="211" stroke="#E0E6F2"/>
<text font-size="14" x="74" y="166.5" font-family="Arial" fill="#464646">
Development
</text>
<line stroke-width="1" x1="163" y1="166.5" x2="300" y2="211" stroke="#E0E6F2"/>
<g>
<path d="M 300 118 L 325.7 202.7 L 356.4 288.7 L 222 318.3 L 168.3 168.2 Z" stroke-width="2" fill="#5470C6" fill-opacity="0.2" stroke="#5470C6"/>
<circle cx="300" cy="118" r="2" stroke-width="2" stroke="#5470C6" fill="none"/>
<circle cx="325.7" cy="202.7" r="2" stroke-width="2" stroke="#5470C6" fill="none"/>
<circle cx="356.4" cy="288.7" r="2" stroke-width="2" stroke="#5470C6" fill="none"/>
<circle cx="222" cy="318.3" r="2" stroke-width="2" stroke="#5470C6" fill="none"/>
<circle cx="168.3" cy="168.2" r="2" stroke-width="2" stroke="#5470C6" fill="none"/>
</g>
<g>
<path d="M 300 100.2 L 419.8 172.1 L 379 319.7 L 242.1 290.7 L 189.4 175.1 Z" stroke-width="2" fill="#91CC75" fill-opacity="0.2" stroke="#91CC75"/>
<circle cx="300" cy="100.2" r="2" stroke-width="2" stroke="#91CC75" fill="none"/>
<circle cx="419.8" cy="172.1" r="2" stroke-width="2" stroke="#91CC75" fill="none"/>
<circle cx="379" cy="319.7" r="2" stroke-width="2" stroke="#91CC75" fill="none"/>
<circle cx="242.1" cy="290.7" r="2" stroke-width="2" stroke="#91CC75" fill="none"/>
<circle cx="189.4" cy="175.1" r="2" stroke-width="2" stroke="#91CC75" fill="none"/>
</g>
</svg>