<svg width="600" height="400" viewBox="0 0 600 400" xmlns="http://www.w3.org/2000/svg">
<rect x="0" y="0" width="600" height="400" fill="#FFFFFF"/>
<g>
<line stroke-width="2" x1="158" y1="15" x2="183" y2="15" stroke="#5470C6"/>
<circle cx="170.5" cy="15" r="5.5" stroke-width="2" stroke="#5470C6" fill="#FFFFFF"/>
<text font-size="14" x="186" y="19" font-family="Roboto" fill="#464646">
Allocated Budget
</text>
</g>
<g>
<line stroke-width="2" x1="304" y1="15" x2="329" y2="15" stroke="#91CC75"/>
<circle cx="316.5" cy="15" r="5.5" stroke-width="2" stroke="#91CC75" fill="#FFFFFF"/>
<text font-size="14" x="332" y="19" font-family="Roboto" fill="#464646">
Actual Spending
</text>
</g>
<path d="M 300 196.6 L 314.4 211 L 300 225.4 L 285.6 211 Z" stroke-width="1" fill="none" stroke="#E0E6F2"/>
<path d="M 300 182.2 L 328.8 211 L 300 239.8 L 271.2 211 Z" stroke-width="1" fill="none" stroke="#E0E6F2"/>
<path d="M 300 167.8 L 343.2 211 L 300 254.2 L 256.8 211 Z" stroke-width="1" fill="none" stroke="#E0E6F2"/>
<path d="M 300 153.4 L 357.6 211 L 300 268.6 L 242.4 211 Z" stroke-width="1" fill="none" stroke="#E0E6F2"/>
<path d="M 300 139 L 372 211 L 300 283 L 228 211 Z" stroke-width="1" fill="none" stroke="#E0E6F2"/>
<path d="M 300 124.6 L 386.4 211 L 300 297.4 L 213.6 211 Z" stroke-width="1" fill="none" stroke="#E0E6F2"/>
<path d="M 300 110.2 L 400.8 211 L 300 311.8 L 199.2 211 Z" stroke-width="1" fill="none" stroke="#E0E6F2"/>
<path d="M 300 95.8 L 415.2 211 L 300 326.2 L 184.8 211 Z" stroke-width="1" fill="none" stroke="#E0E6F2"/>
<path d="M 300 81.4 L 429.6 211 L 300 340.6 L 170.4 211 Z" stroke-width="1" fill="none" stroke="#E0E6F2"/>
<path d="M 300 67 L 444 211 L 300 355 L 156 211 Z" stroke-width="1" fill="none" stroke="#E0E6F2"/>
<text font-size="14" x="282" y="62" font-family="Roboto" fill="#464646">
Sales
</text>
<line stroke-width="1" x1="300" y1="67" x2="300" y2="211" stroke="#E0E6F2"/>
<text font-size="14" x="447" y="211" font-family="Roboto" fill="#464646">
Administration
</text>
<line stroke-width="1" x1="444" y1="211" x2="300" y2="211" stroke="#E0E6F2"/>
<text font-size="14" x="222" y="371" font-family="Roboto" fill="#464646">
Information Technology
</text>
<line stroke-width="1" x1="300" y1="355" x2="300" y2="211" stroke="#E0E6F2"/>
<text font-size="14" x="33" y="211" font-family="Roboto" fill="#464646">
Customer Support
</text>
<line stroke-width="1" x1="156" y1="211" x2="300" y2="211" stroke="#E0E6F2"/>
<g>
<path d="M 300 118 L 327 211 L 300 307 L 167.4 211 Z" stroke-width="2" fill="#5470C6" fill-opacity="0.2" stroke="#5470C6"/>
<circle cx="300" cy="118" r="2" stroke-width="2" stroke="#5470C6" fill="none"/>
<circle cx="327" cy="211" r="2" stroke-width="2" stroke="#5470C6" fill="none"/>
<circle cx="300" cy="307" r="2" stroke-width="2" stroke="#5470C6" fill="none"/>
<circle cx="167.4" cy="211" r="2" stroke-width="2" stroke="#5470C6" fill="none"/>
</g>
<g>
<path d="M 300 100.2 L 426 211 L 300 345.4 L 201.5 211 Z" stroke-width="2" fill="#91CC75" fill-opacity="0.2" stroke="#91CC75"/>
<circle cx="300" cy="100.2" r="2" stroke-width="2" stroke="#91CC75" fill="none"/>
<circle cx="426" cy="211" r="2" stroke-width="2" stroke="#91CC75" fill="none"/>
<circle cx="300" cy="345.4" r="2" stroke-width="2" stroke="#91CC75" fill="none"/>
<circle cx="201.5" cy="211" r="2" stroke-width="2" stroke="#91CC75" fill="none"/>
</g>
</svg>