<svg width="600" height="400" viewBox="0 0 600 400" xmlns="http://www.w3.org/2000/svg">
<rect x="0" y="0" width="600" height="400" fill="#FFFFFF"/>
<g>
<line stroke-width="2" x1="158" y1="15" x2="183" y2="15" stroke="#5470C6"/>
<circle cx="170.5" cy="15" r="5.5" stroke-width="2" stroke="#5470C6" fill="#FFFFFF"/>
<text font-size="14" x="186" y="19" font-family="Roboto" fill="#464646">
Allocated Budget
</text>
</g>
<g>
<line stroke-width="2" x1="304" y1="15" x2="329" y2="15" stroke="#91CC75"/>
<circle cx="316.5" cy="15" r="5.5" stroke-width="2" stroke="#91CC75" fill="#FFFFFF"/>
<text font-size="14" x="332" y="19" font-family="Roboto" fill="#464646">
Actual Spending
</text>
</g>
<path d="M 300 196.6 L 311.3 202 L 314 214.2 L 306.2 224 L 293.8 224 L 286 214.2 L 288.7 202 Z" stroke-width="1" fill="none" stroke="#E0E6F2"/>
<path d="M 300 182.2 L 322.5 193 L 328.1 217.4 L 312.5 236.9 L 287.5 236.9 L 271.9 217.4 L 277.5 193 Z" stroke-width="1" fill="none" stroke="#E0E6F2"/>
<path d="M 300 167.8 L 333.8 184.1 L 342.1 220.6 L 318.7 249.9 L 281.3 249.9 L 257.9 220.6 L 266.2 184.1 Z" stroke-width="1" fill="none" stroke="#E0E6F2"/>
<path d="M 300 153.4 L 345 175.1 L 356.2 223.8 L 325 262.9 L 275 262.9 L 243.8 223.8 L 255 175.1 Z" stroke-width="1" fill="none" stroke="#E0E6F2"/>
<path d="M 300 139 L 356.3 166.1 L 370.2 227 L 331.2 275.9 L 268.8 275.9 L 229.8 227 L 243.7 166.1 Z" stroke-width="1" fill="none" stroke="#E0E6F2"/>
<path d="M 300 124.6 L 367.6 157.1 L 384.2 230.2 L 337.5 288.8 L 262.5 288.8 L 215.8 230.2 L 232.4 157.1 Z" stroke-width="1" fill="none" stroke="#E0E6F2"/>
<path d="M 300 110.2 L 378.8 148.2 L 398.3 233.4 L 343.7 301.8 L 256.3 301.8 L 201.7 233.4 L 221.2 148.2 Z" stroke-width="1" fill="none" stroke="#E0E6F2"/>
<path d="M 300 95.8 L 390.1 139.2 L 412.3 236.6 L 350 314.8 L 250 314.8 L 187.7 236.6 L 209.9 139.2 Z" stroke-width="1" fill="none" stroke="#E0E6F2"/>
<path d="M 300 81.4 L 401.3 130.2 L 426.4 239.8 L 356.2 327.8 L 243.8 327.8 L 173.6 239.8 L 198.7 130.2 Z" stroke-width="1" fill="none" stroke="#E0E6F2"/>
<path d="M 300 67 L 412.6 121.2 L 440.4 243 L 362.5 340.7 L 237.5 340.7 L 159.6 243 L 187.4 121.2 Z" stroke-width="1" fill="none" stroke="#E0E6F2"/>
<text font-size="14" x="282" y="62" font-family="Roboto" fill="#464646">
Sales
</text>
<line stroke-width="1" x1="300" y1="67" x2="300" y2="211" stroke="#E0E6F2"/>
<text font-size="14" x="415.6" y="121.2" font-family="Roboto" fill="#464646">
Administration
</text>
<line stroke-width="1" x1="412.6" y1="121.2" x2="300" y2="211" stroke="#E0E6F2"/>
<text font-size="14" x="443.4" y="251" font-family="Roboto" fill="#464646">
Information Technology
</text>
<line stroke-width="1" x1="440.4" y1="243" x2="300" y2="211" stroke="#E0E6F2"/>
<text font-size="14" x="365.5" y="348.2" font-family="Roboto" fill="#464646">
Customer Support
</text>
<line stroke-width="1" x1="362.5" y1="340.7" x2="300" y2="211" stroke="#E0E6F2"/>
<text font-size="14" x="147.5" y="348.2" font-family="Roboto" fill="#464646">
Development
</text>
<line stroke-width="1" x1="237.5" y1="340.7" x2="300" y2="211" stroke="#E0E6F2"/>
<text font-size="14" x="90.6" y="251" font-family="Roboto" fill="#464646">
Marketing
</text>
<line stroke-width="1" x1="159.6" y1="243" x2="300" y2="211" stroke="#E0E6F2"/>
<text font-size="14" x="143.4" y="121.2" font-family="Roboto" fill="#464646">
Online
</text>
<line stroke-width="1" x1="187.4" y1="121.2" x2="300" y2="211" stroke="#E0E6F2"/>
<g>
<path d="M 300 118 L 321.1 194.2 L 393.6 232.4 L 357.5 330.5 L 239.9 335.7 L 198.9 234.1 L 198.7 130.2 Z" stroke-width="2" fill="#5470C6" fill-opacity="0.2" stroke="#5470C6"/>
<circle cx="300" cy="118" r="2" stroke-width="2" stroke="#5470C6" fill="none"/>
<circle cx="321.1" cy="194.2" r="2" stroke-width="2" stroke="#5470C6" fill="none"/>
<circle cx="393.6" cy="232.4" r="2" stroke-width="2" stroke="#5470C6" fill="none"/>
<circle cx="357.5" cy="330.5" r="2" stroke-width="2" stroke="#5470C6" fill="none"/>
<circle cx="239.9" cy="335.7" r="2" stroke-width="2" stroke="#5470C6" fill="none"/>
<circle cx="198.9" cy="234.1" r="2" stroke-width="2" stroke="#5470C6" fill="none"/>
<circle cx="198.7" cy="130.2" r="2" stroke-width="2" stroke="#5470C6" fill="none"/>
</g>
<g>
<path d="M 300 100.2 L 398.5 132.4 L 431 240.9 L 342.7 299.8 L 249.5 315.8 L 182.1 237.9 L 221.2 148.2 Z" stroke-width="2" fill="#91CC75" fill-opacity="0.2" stroke="#91CC75"/>
<circle cx="300" cy="100.2" r="2" stroke-width="2" stroke="#91CC75" fill="none"/>
<circle cx="398.5" cy="132.4" r="2" stroke-width="2" stroke="#91CC75" fill="none"/>
<circle cx="431" cy="240.9" r="2" stroke-width="2" stroke="#91CC75" fill="none"/>
<circle cx="342.7" cy="299.8" r="2" stroke-width="2" stroke="#91CC75" fill="none"/>
<circle cx="249.5" cy="315.8" r="2" stroke-width="2" stroke="#91CC75" fill="none"/>
<circle cx="182.1" cy="237.9" r="2" stroke-width="2" stroke="#91CC75" fill="none"/>
<circle cx="221.2" cy="148.2" r="2" stroke-width="2" stroke="#91CC75" fill="none"/>
</g>
</svg>