<svg width="600" height="400" viewBox="0 0 600 400" xmlns="http://www.w3.org/2000/svg">
<rect x="0" y="0" width="600" height="400" fill="#FFFFFF"/>
<g>
<line stroke-width="2" x1="159.5" y1="15" x2="184.5" y2="15" stroke="#5470C6"/>
<circle cx="172" cy="15" r="5.5" stroke-width="2" stroke="#5470C6" fill="#FFFFFF"/>
<text font-size="14" x="187.5" y="19" font-family="Arial" fill="#464646">
Allocated Budget
</text>
</g>
<g>
<line stroke-width="2" x1="303.5" y1="15" x2="328.5" y2="15" stroke="#91CC75"/>
<circle cx="316" cy="15" r="5.5" stroke-width="2" stroke="#91CC75" fill="#FFFFFF"/>
<text font-size="14" x="331.5" y="19" font-family="Arial" fill="#464646">
Actual Spending
</text>
</g>
<path d="M 300 182.2 L 324.9 225.4 L 275.1 225.4 Z" stroke-width="1" fill="none" stroke="#E0E6F2"/>
<path d="M 300 153.4 L 349.9 239.8 L 250.1 239.8 Z" stroke-width="1" fill="none" stroke="#E0E6F2"/>
<path d="M 300 124.6 L 374.8 254.2 L 225.2 254.2 Z" stroke-width="1" fill="none" stroke="#E0E6F2"/>
<path d="M 300 95.8 L 399.8 268.6 L 200.2 268.6 Z" stroke-width="1" fill="none" stroke="#E0E6F2"/>
<path d="M 300 67 L 424.7 283 L 175.3 283 Z" stroke-width="1" fill="none" stroke="#E0E6F2"/>
<text font-size="14" x="281.5" y="62" font-family="Arial" fill="#464646">
Sales
</text>
<line stroke-width="1" x1="300" y1="67" x2="300" y2="211" stroke="#E0E6F2"/>
<text font-size="14" x="427.7" y="289.9" font-family="Arial" fill="#464646">
Administration
</text>
<line stroke-width="1" x1="424.7" y1="283" x2="300" y2="211" stroke="#E0E6F2"/>
<text font-size="14" x="20.3" y="290.9" font-family="Arial" fill="#464646">
Information Technology
</text>
<line stroke-width="1" x1="175.3" y1="283" x2="300" y2="211" stroke="#E0E6F2"/>
<g>
<path d="M 300 118 L 323.4 224.5 L 216.9 259 Z" stroke-width="2" fill="#5470C6" fill-opacity="0.2" stroke="#5470C6"/>
<circle cx="300" cy="118" r="2" stroke-width="2" stroke="#5470C6" fill="none"/>
<circle cx="323.4" cy="224.5" r="2" stroke-width="2" stroke="#5470C6" fill="none"/>
<circle cx="216.9" cy="259" r="2" stroke-width="2" stroke="#5470C6" fill="none"/>
</g>
<g>
<path d="M 300 100.2 L 409.1 274 L 183.6 278.2 Z" stroke-width="2" fill="#91CC75" fill-opacity="0.2" stroke="#91CC75"/>
<circle cx="300" cy="100.2" r="2" stroke-width="2" stroke="#91CC75" fill="none"/>
<circle cx="409.1" cy="274" r="2" stroke-width="2" stroke="#91CC75" fill="none"/>
<circle cx="183.6" cy="278.2" r="2" stroke-width="2" stroke="#91CC75" fill="none"/>
</g>
</svg>