<svg width="600" height="400" viewBox="0 0 600 400" xmlns="http://www.w3.org/2000/svg">
<rect x="0" y="0" width="600" height="400" fill="#FFFFFF"/>
<g>
<line stroke-width="2" x1="8" y1="15" x2="33" y2="15" stroke="#5470C6"/>
<circle cx="20.5" cy="15" r="5.5" stroke-width="2" stroke="#5470C6" fill="#FFFFFF"/>
<text font-size="14" x="36" y="19" font-family="Roboto" fill="#464646">
nodeExcel
</text>
</g>
<g>
<line stroke-width="2" x1="107" y1="15" x2="132" y2="15" stroke="#91CC75"/>
<circle cx="119.5" cy="15" r="5.5" stroke-width="2" stroke="#91CC75" fill="#FFFFFF"/>
<text font-size="14" x="135" y="19" font-family="Roboto" fill="#464646">
nodePPT
</text>
</g>
<g>
<line stroke-width="2" x1="199" y1="15" x2="224" y2="15" stroke="#FAC858"/>
<circle cx="211.5" cy="15" r="5.5" stroke-width="2" stroke="#FAC858" fill="#FFFFFF"/>
<text font-size="14" x="227" y="19" font-family="Roboto" fill="#464646">
nodeDoc
</text>
</g>
<g>
<line stroke-width="2" x1="289" y1="15" x2="314" y2="15" stroke="#EE6666"/>
<circle cx="301.5" cy="15" r="5.5" stroke-width="2" stroke="#EE6666" fill="#FFFFFF"/>
<text font-size="14" x="317" y="19" font-family="Roboto" fill="#464646">
nodeWeb
</text>
</g>
<g>
<line stroke-width="2" x1="383" y1="15" x2="408" y2="15" stroke="#73C0DE"/>
<circle cx="395.5" cy="15" r="5.5" stroke-width="2" stroke="#73C0DE" fill="#FFFFFF"/>
<text font-size="14" x="411" y="19" font-family="Roboto" fill="#464646">
nodeWord
</text>
</g>
<g>
<line stroke-width="2" x1="481" y1="15" x2="506" y2="15" stroke="#3BA272"/>
<circle cx="493.5" cy="15" r="5.5" stroke-width="2" stroke="#3BA272" fill="#FFFFFF"/>
<text font-size="14" x="509" y="19" font-family="Roboto" fill="#464646">
nodeOther
</text>
</g>
<rect x="6" y="28" width="307" height="198.7" fill="#5470C6"/>
<text font-size="14" x="159.5" y="119" dominant-baseline="central" text-anchor="middle" font-family="Roboto" fill="#FFFFFF" fill-opacity="0.9">
nodeExcel
</text>
<text font-size="11.9" x="159.5" y="137.2" dominant-baseline="central" text-anchor="middle" font-family="Roboto" fill="#FFFFFF" fill-opacity="0.7">
600
</text>
<rect x="6" y="228.7" width="307" height="165.3" fill="#91CC75"/>
<text font-size="14" x="159.5" y="303" dominant-baseline="central" text-anchor="middle" font-family="Roboto" fill="#1E1E1E">
nodePPT
</text>
<text font-size="11.9" x="159.5" y="321.2" dominant-baseline="central" text-anchor="middle" font-family="Roboto" fill="#1E1E1E" fill-opacity="0.7">
500
</text>
<rect x="315" y="28" width="279" height="145.2" fill="#FAC858"/>
<text font-size="14" x="454.5" y="92.2" dominant-baseline="central" text-anchor="middle" font-family="Roboto" fill="#1E1E1E">
nodeDoc
</text>
<text font-size="11.9" x="454.5" y="110.4" dominant-baseline="central" text-anchor="middle" font-family="Roboto" fill="#1E1E1E" fill-opacity="0.7">
400
</text>
<rect x="315" y="175.2" width="138.5" height="218.8" fill="#EE6666"/>
<text font-size="14" x="384.3" y="276.2" dominant-baseline="central" text-anchor="middle" font-family="Roboto" fill="#1E1E1E">
nodeWeb
</text>
<text font-size="11.9" x="384.3" y="294.4" dominant-baseline="central" text-anchor="middle" font-family="Roboto" fill="#1E1E1E" fill-opacity="0.7">
300
</text>
<rect x="455.5" y="175.2" width="138.5" height="145.2" fill="#73C0DE"/>
<text font-size="14" x="524.8" y="239.4" dominant-baseline="central" text-anchor="middle" font-family="Roboto" fill="#1E1E1E">
nodeWord
</text>
<text font-size="11.9" x="524.8" y="257.6" dominant-baseline="central" text-anchor="middle" font-family="Roboto" fill="#1E1E1E" fill-opacity="0.7">
200
</text>
<rect x="455.5" y="322.4" width="138.5" height="71.6" fill="#3BA272"/>
<text font-size="14" x="524.8" y="349.8" dominant-baseline="central" text-anchor="middle" font-family="Roboto" fill="#1E1E1E">
nodeOther
</text>
<text font-size="11.9" x="524.8" y="368" dominant-baseline="central" text-anchor="middle" font-family="Roboto" fill="#1E1E1E" fill-opacity="0.7">
100
</text>
</svg>