<svg width="600" height="400" viewBox="0 0 600 400" xmlns="http://www.w3.org/2000/svg">
<rect x="0" y="0" width="600" height="400" fill="#FFFFFF"/>
<text font-size="18" x="253" y="5" dy="15" font-weight="bold" dominant-baseline="middle" font-family="Roboto" fill="#464646">
Disk Usage
</text>
<g>
<line stroke-width="2" x1="8" y1="15" x2="33" y2="15" stroke="#5470C6"/>
<circle cx="20.5" cy="15" r="5.5" stroke-width="2" stroke="#5470C6" fill="#FFFFFF"/>
<text font-size="14" x="36" y="19" font-family="Roboto" fill="#464646">
nodeExcel
</text>
</g>
<g>
<line stroke-width="2" x1="107" y1="15" x2="132" y2="15" stroke="#91CC75"/>
<circle cx="119.5" cy="15" r="5.5" stroke-width="2" stroke="#91CC75" fill="#FFFFFF"/>
<text font-size="14" x="135" y="19" font-family="Roboto" fill="#464646">
nodePPT
</text>
</g>
<g>
<line stroke-width="2" x1="199" y1="15" x2="224" y2="15" stroke="#FAC858"/>
<circle cx="211.5" cy="15" r="5.5" stroke-width="2" stroke="#FAC858" fill="#FFFFFF"/>
<text font-size="14" x="227" y="19" font-family="Roboto" fill="#464646">
nodeDoc
</text>
</g>
<g>
<line stroke-width="2" x1="289" y1="15" x2="314" y2="15" stroke="#EE6666"/>
<circle cx="301.5" cy="15" r="5.5" stroke-width="2" stroke="#EE6666" fill="#FFFFFF"/>
<text font-size="14" x="317" y="19" font-family="Roboto" fill="#464646">
nodeWeb
</text>
</g>
<g>
<line stroke-width="2" x1="383" y1="15" x2="408" y2="15" stroke="#73C0DE"/>
<circle cx="395.5" cy="15" r="5.5" stroke-width="2" stroke="#73C0DE" fill="#FFFFFF"/>
<text font-size="14" x="411" y="19" font-family="Roboto" fill="#464646">
nodeWord
</text>
</g>
<g>
<line stroke-width="2" x1="481" y1="15" x2="506" y2="15" stroke="#3BA272"/>
<circle cx="493.5" cy="15" r="5.5" stroke-width="2" stroke="#3BA272" fill="#FFFFFF"/>
<text font-size="14" x="509" y="19" font-family="Roboto" fill="#464646">
nodeOther
</text>
</g>
<rect x="6.5" y="41.5" width="306" height="190.6" fill="#5470C6"/>
<text font-size="14" x="159.5" y="128.4" dominant-baseline="central" text-anchor="middle" font-family="Roboto" fill="#FFFFFF" fill-opacity="0.9">
nodeExcel
</text>
<text font-size="11.9" x="159.5" y="146.6" dominant-baseline="central" text-anchor="middle" font-family="Roboto" fill="#FFFFFF" fill-opacity="0.7">
600
</text>
<rect x="6.5" y="235.1" width="306" height="158.4" fill="#91CC75"/>
<text font-size="14" x="159.5" y="305.9" dominant-baseline="central" text-anchor="middle" font-family="Roboto" fill="#1E1E1E">
nodePPT
</text>
<text font-size="11.9" x="159.5" y="324.1" dominant-baseline="central" text-anchor="middle" font-family="Roboto" fill="#1E1E1E" fill-opacity="0.7">
500
</text>
<rect x="315.5" y="41.5" width="278" height="139" fill="#FAC858"/>
<text font-size="14" x="454.5" y="102.6" dominant-baseline="central" text-anchor="middle" font-family="Roboto" fill="#1E1E1E">
nodeDoc
</text>
<text font-size="11.9" x="454.5" y="120.8" dominant-baseline="central" text-anchor="middle" font-family="Roboto" fill="#1E1E1E" fill-opacity="0.7">
400
</text>
<rect x="315.5" y="183.5" width="137.5" height="210" fill="#EE6666"/>
<text font-size="14" x="384.3" y="280.1" dominant-baseline="central" text-anchor="middle" font-family="Roboto" fill="#1E1E1E">
nodeWeb
</text>
<text font-size="11.9" x="384.3" y="298.3" dominant-baseline="central" text-anchor="middle" font-family="Roboto" fill="#1E1E1E" fill-opacity="0.7">
300
</text>
<rect x="456" y="183.5" width="137.5" height="139" fill="#73C0DE"/>
<text font-size="14" x="524.8" y="244.6" dominant-baseline="central" text-anchor="middle" font-family="Roboto" fill="#1E1E1E">
nodeWord
</text>
<text font-size="11.9" x="524.8" y="262.8" dominant-baseline="central" text-anchor="middle" font-family="Roboto" fill="#1E1E1E" fill-opacity="0.7">
200
</text>
<rect x="456" y="325.5" width="137.5" height="68" fill="#3BA272"/>
<text font-size="14" x="524.8" y="351.1" dominant-baseline="central" text-anchor="middle" font-family="Roboto" fill="#1E1E1E">
nodeOther
</text>
<text font-size="11.9" x="524.8" y="369.3" dominant-baseline="central" text-anchor="middle" font-family="Roboto" fill="#1E1E1E" fill-opacity="0.7">
100
</text>
</svg>