<svg width="600" height="400" viewBox="0 0 600 400" xmlns="http://www.w3.org/2000/svg">
<rect x="0" y="0" width="600" height="400" fill="#FFFFFF"/>
<g>
<line stroke-width="2" x1="266" y1="15" x2="291" y2="15" stroke="#5470C6"/>
<circle cx="278.5" cy="15" r="5.5" stroke-width="2" stroke="#5470C6" fill="#FFFFFF"/>
<text font-size="14" x="294" y="19" font-family="Roboto" fill="#464646">
Speed
</text>
</g>
<polyline fill="none" stroke-width="15" points="185.8,325.2 184.3,323.7 182.9,322.2 181.4,320.6 180,319.1 178.6,317.5 177.2,315.9 175.8,314.3 174.5,312.6 173.2,311 171.9,309.3 170.6,307.6 169.3,305.9 168.1,304.2 166.9,302.5 165.7,300.7 164.6,299 163.4,297.2 162.3,295.4 161.2,293.6 160.1,291.8 159.1,289.9 158.1,288.1 157.1,286.2 156.1,284.3 155.2,282.4 154.2,280.5 153.3,278.6 152.5,276.7 151.6,274.8 150.8,272.8 150,270.8 149.2,268.9 148.5,266.9 147.8,264.9 147.1,262.9 146.4,260.9 145.8,258.9 145.2,256.9 144.6,254.8 144,252.8 143.5,250.8 143,248.7 142.5,246.6 142,244.6 141.6,242.5 141.2,240.4 140.8,238.3 140.5,236.3 140.2,234.2 139.9,232.1 139.6,230 139.4,227.9 139.2,225.8 139,223.7 138.8,221.6 138.7,219.5 138.6,217.3 138.6,215.2 138.5,213.1 138.5,211 138.5,208.9 138.6,206.8 138.6,204.7 138.7,202.5 138.8,200.4 139,198.3 139.2,196.2 139.4,194.1 139.6,192 139.9,189.9 140.2,187.8 140.5,185.7 140.8,183.7 141.2,181.6 141.6,179.5 142,177.4 142.5,175.4 143,173.3 143.5,171.2 144,169.2 144.6,167.2 145.2,165.1 145.8,163.1 146.4,161.1 147.1,159.1 147.8,157.1 148.5,155.1 149.2,153.1 150,151.2 150.8,149.2 151.6,147.2 152.5,145.3 153.3,143.4 154.2,141.5 155.2,139.6 156.1,137.7 157.1,135.8 158.1,133.9 159.1,132.1 160.1,130.3 161.2,128.4 162.3,126.6 163.4,124.8 164.6,123 165.7,121.3 166.9,119.5 168.1,117.8 169.3,116.1 170.6,114.4 171.9,112.7 173.2,111 174.5,109.4 175.8,107.7 177.2,106.1 178.6,104.5 180,102.9 181.4,101.4 182.9,99.8 184.3,98.3 185.8,96.8 187.3,95.3 188.8,93.9 190.4,92.4 191.9,91 193.5,89.6 195.1,88.2 196.7,86.8 198.4,85.5 200,84.2 201.7,82.9 203.4,81.6 205.1,80.3 206.8,79.1 208.5,77.9 210.3,76.7 212,75.6 213.8,74.4 215.6,73.3 217.4,72.2 219.3,71.1 221.1,70.1 222.9,69.1 224.8,68.1 226.7,67.1 228.6,66.2 230.5,65.2 232.4,64.3 234.3,63.5 236.2,62.6 238.2,61.8 240.2,61 242.1,60.2 244.1,59.5 246.1,58.8 248.1,58.1 250.1,57.4 252.1,56.8 254.1,56.2 256.2,55.6 258.2,55 260.2,54.5 262.3,54 264.4,53.5 266.4,53 268.5,52.6 270.6,52.2 272.7,51.8 274.7,51.5 276.8,51.2 278.9,50.9 281,50.6 283.1,50.4 285.2,50.2 287.3,50 289.4,49.8 291.5,49.7 293.7,49.6 295.8,49.6 297.9,49.5 300,49.5 302.1,49.5 304.2,49.6 306.3,49.6 308.5,49.7 310.6,49.8 312.7,50 314.8,50.2 316.9,50.4 319,50.6 321.1,50.9 323.2,51.2 325.3,51.5 327.3,51.8 329.4,52.2 331.5,52.6 333.6,53 335.6,53.5 337.7,54 339.8,54.5 341.8,55 343.8,55.6 345.9,56.2 347.9,56.8 349.9,57.4 351.9,58.1 353.9,58.8 355.9,59.5 357.9,60.2 359.8,61 361.8,61.8 363.8,62.6 365.7,63.5 367.6,64.3 369.5,65.2 371.4,66.2 373.3,67.1 375.2,68.1 377.1,69.1 378.9,70.1 380.8,71.1 382.6,72.2 384.4,73.3 386.2,74.4 388,75.6 389.7,76.7 391.5,77.9 393.2,79.1 394.9,80.3 396.6,81.6 398.3,82.9 400,84.2 401.6,85.5 403.3,86.8 404.9,88.2 406.5,89.6 408.1,91 409.6,92.4 411.2,93.9 412.7,95.3 414.2,96.8 415.7,98.3 417.1,99.8 418.6,101.4 420,102.9 421.4,104.5 422.8,106.1 424.2,107.7 425.5,109.4 426.8,111 428.1,112.7 429.4,114.4 430.7,116.1 431.9,117.8 433.1,119.5 434.3,121.3 435.4,123 436.6,124.8 437.7,126.6 438.8,128.4 439.9,130.2 440.9,132.1 441.9,133.9 442.9,135.8 443.9,137.7 444.8,139.6 445.8,141.5 446.7,143.4 447.5,145.3 448.4,147.2 449.2,149.2 450,151.2 450.8,153.1 451.5,155.1 452.2,157.1 452.9,159.1 453.6,161.1 454.2,163.1 454.8,165.1 455.4,167.2 456,169.2 456.5,171.2 457,173.3 457.5,175.4 458,177.4 458.4,179.5 458.8,181.6 459.2,183.7 459.5,185.7 459.8,187.8 460.1,189.9 460.4,192 460.6,194.1 460.8,196.2 461,198.3 461.2,200.4 461.3,202.5 461.4,204.7 461.4,206.8 461.5,208.9 461.5,211 461.5,213.1 461.4,215.2 461.4,217.3 461.3,219.5 461.2,221.6 461,223.7 460.8,225.8 460.6,227.9 460.4,230 460.1,232.1 459.8,234.2 459.5,236.3 459.2,238.3 458.8,240.4 458.4,242.5 458,244.6 457.5,246.6 457,248.7 456.5,250.8 456,252.8 455.4,254.8 454.8,256.9 454.2,258.9 453.6,260.9 452.9,262.9 452.2,264.9 451.5,266.9 450.8,268.9 450,270.8 449.2,272.8 448.4,274.8 447.5,276.7 446.7,278.6 445.8,280.5 444.8,282.4 443.9,284.3 442.9,286.2 441.9,288.1 440.9,289.9 439.9,291.8 438.8,293.6 437.7,295.4 436.6,297.2 435.4,299 434.3,300.7 433.1,302.5 431.9,304.2 430.7,305.9 429.4,307.6 428.1,309.3 426.8,311 425.5,312.6 424.2,314.3 422.8,315.9 421.4,317.5 420,319.1 418.6,320.6 417.1,322.2 415.7,323.7 414.2,325.2" stroke="#E6E6E6"/>
<polyline fill="none" stroke-width="15" points="185.8,325.2 184.3,323.7 182.9,322.2 181.4,320.6 180,319.1 178.6,317.5 177.2,315.9 175.8,314.3 174.5,312.6 173.2,311 171.9,309.3 170.6,307.6 169.3,305.9 168.1,304.2 166.9,302.5 165.7,300.7 164.6,299 163.4,297.2 162.3,295.4 161.2,293.6 160.1,291.8 159.1,289.9 158.1,288.1 157.1,286.2 156.1,284.3 155.2,282.4 154.2,280.5 153.3,278.6 152.5,276.7 151.6,274.8 150.8,272.8 150,270.8 149.2,268.9 148.5,266.9 147.8,264.9 147.1,262.9 146.4,260.9 145.8,258.9 145.2,256.9 144.6,254.8 144,252.8 143.5,250.8 143,248.7 142.5,246.6 142,244.6 141.6,242.5 141.2,240.4 140.8,238.3 140.5,236.3 140.2,234.2 139.9,232.1 139.6,230 139.4,227.9 139.2,225.8 139,223.7 138.8,221.6 138.7,219.5 138.6,217.3 138.6,215.2 138.5,213.1 138.5,211 138.5,208.9 138.6,206.8 138.6,204.7 138.7,202.5 138.8,200.4 139,198.3 139.2,196.2 139.4,194.1 139.6,192 139.9,189.9 140.2,187.8 140.5,185.7 140.8,183.7 141.2,181.6 141.6,179.5 142,177.4 142.5,175.4 143,173.3 143.5,171.2 144,169.2 144.6,167.2 145.2,165.1 145.8,163.1 146.4,161.1 147.1,159.1 147.8,157.1 148.5,155.1 149.2,153.1 150,151.2 150.8,149.2 151.6,147.2 152.5,145.3 153.3,143.4 154.2,141.5 155.2,139.6 156.1,137.7 157.1,135.8 158.1,133.9 159.1,132.1 160.1,130.3 161.2,128.4 162.3,126.6 163.4,124.8 164.6,123 165.7,121.3 166.9,119.5 168.1,117.8 169.3,116.1 170.6,114.4 171.9,112.7 173.2,111 174.5,109.4 175.8,107.7 177.2,106.1 178.6,104.5 180,102.9 181.4,101.4 182.9,99.8 184.3,98.3 185.8,96.8 187.3,95.3 188.8,93.9 190.4,92.4 191.9,91 193.5,89.6 195.1,88.2 196.7,86.8 198.4,85.5 200,84.2 201.7,82.9 203.4,81.6 205.1,80.3 206.8,79.1 208.5,77.9 210.3,76.7 212,75.6 213.8,74.4 215.6,73.3 217.4,72.2 219.3,71.1 221.1,70.1 222.9,69.1 224.8,68.1 226.7,67.1 228.6,66.2 230.5,65.2 232.4,64.3 234.3,63.5 236.2,62.6 238.2,61.8 240.2,61 242.1,60.2 244.1,59.5 246.1,58.8 248.1,58.1 250.1,57.4 252.1,56.8 254.1,56.2 256.2,55.6 258.2,55 260.2,54.5 262.3,54 264.4,53.5 266.4,53 268.5,52.6 270.6,52.2 272.7,51.8 274.7,51.5 276.8,51.2 278.9,50.9 281,50.6 283.1,50.4 285.2,50.2 287.3,50 289.4,49.8 291.5,49.7 293.7,49.6 295.8,49.6 297.9,49.5 300,49.5 302.1,49.5 304.2,49.6 306.3,49.6 308.5,49.7 310.6,49.8 312.7,50 314.8,50.2 316.9,50.4 319,50.6 321.1,50.9 323.2,51.2 325.3,51.5 327.3,51.8 329.4,52.2 331.5,52.6 333.6,53 335.6,53.5 337.7,54 339.8,54.5 341.8,55 343.8,55.6 345.9,56.2 347.9,56.8 349.9,57.4 351.9,58.1 353.9,58.8 355.9,59.5 357.9,60.2 359.8,61 361.8,61.8 363.8,62.6 365.7,63.5 367.6,64.3 369.5,65.2 371.4,66.2 373.3,67.1 375.2,68.1 377.1,69.1 378.9,70.1 380.8,71.1 382.6,72.2 384.4,73.3 386.2,74.4 388,75.6 389.7,76.7 391.5,77.9 393.2,79.1 394.9,80.3 396.6,81.6 398.3,82.9 400,84.2 401.6,85.5 403.3,86.8 404.9,88.2 406.5,89.6 408.1,91 409.6,92.4 411.2,93.9 412.7,95.3 414.2,96.8 415.7,98.3 417.1,99.8 418.6,101.4 420,102.9 421.4,104.5 422.8,106.1 424.2,107.7 425.5,109.4 426.8,111 428.1,112.7 429.4,114.4 430.7,116.1 431.9,117.8 433.1,119.5 434.3,121.3 435.4,123 436.6,124.8 437.7,126.6 438.8,128.4 439.9,130.2 440.9,132.1 441.9,133.9 442.9,135.8 443.9,137.7 444.8,139.6 445.8,141.5 446.7,143.4 447.5,145.3 448.4,147.2 449.2,149.2" stroke="#5470C6"/>
<line stroke-width="2" x1="192.5" y1="318.5" x2="179.1" y2="331.9" stroke="#E6E6E6"/>
<line stroke-width="2" x1="149.9" y1="187.2" x2="131.1" y2="184.2" stroke="#E6E6E6"/>
<line stroke-width="2" x1="231" y1="75.6" x2="222.4" y2="58.6" stroke="#E6E6E6"/>
<line stroke-width="2" x1="369" y1="75.6" x2="377.6" y2="58.6" stroke="#E6E6E6"/>
<line stroke-width="2" x1="450.1" y1="187.2" x2="468.9" y2="184.2" stroke="#E6E6E6"/>
<line stroke-width="2" x1="407.5" y1="318.5" x2="420.9" y2="331.9" stroke="#E6E6E6"/>
<text font-size="14" x="165.6" y="345.4" dominant-baseline="middle" text-anchor="middle" font-family="Roboto" fill="#464646">
0
</text>
<text font-size="14" x="434.4" y="345.4" dominant-baseline="middle" text-anchor="middle" font-family="Roboto" fill="#464646">
100
</text>
<text font-size="14" x="112.3" y="181.3" dominant-baseline="middle" text-anchor="middle" font-family="Roboto" fill="#464646">
20
</text>
<text font-size="14" x="213.7" y="41.7" dominant-baseline="middle" text-anchor="middle" font-family="Roboto" fill="#464646">
40
</text>
<text font-size="14" x="386.3" y="41.7" dominant-baseline="middle" text-anchor="middle" font-family="Roboto" fill="#464646">
60
</text>
<text font-size="14" x="487.7" y="181.3" dominant-baseline="middle" text-anchor="middle" font-family="Roboto" fill="#464646">
80
</text>
<polygon points="434.9,155.1 302.3,216.5 297.7,205.5" stroke="#5470C6" fill="#5470C6"/>
<circle cx="300" cy="211" r="8" stroke-width="1" stroke="#5470C6" fill="#5470C6"/>
<text font-size="36" x="300" y="304" font-weight="bold" dominant-baseline="middle" text-anchor="middle" font-family="Roboto" fill="#464646">
75
</text>
<text font-size="14" x="300" y="344" dominant-baseline="middle" text-anchor="middle" font-family="Roboto" fill="#464646">
Speed
</text>
</svg>