<svg width="600" height="400" viewBox="0 0 600 400" xmlns="http://www.w3.org/2000/svg">
<rect x="0" y="0" width="600" height="400" fill="#1F1D1D"/>
<text font-size="18" x="273.5" y="5" dy="15" font-weight="bold" dominant-baseline="middle" font-family="Roboto" fill="#D8D9DA">
Gauge
</text>
<g>
<line stroke-width="2" x1="266" y1="15" x2="291" y2="15" stroke="#7EB26D"/>
<circle cx="278.5" cy="15" r="5.5" stroke-width="2" stroke="#7EB26D" fill="#7EB26D"/>
<text font-size="14" x="294" y="19" font-family="Roboto" fill="#D8D9DA">
Speed
</text>
</g>
<polyline fill="none" stroke-width="15" points="190.4,327.1 189,325.7 187.6,324.2 186.2,322.7 184.8,321.2 183.5,319.7 182.1,318.2 180.8,316.6 179.5,315 178.3,313.5 177,311.9 175.8,310.2 174.6,308.6 173.4,307 172.3,305.3 171.1,303.6 170,301.9 168.9,300.2 167.8,298.5 166.8,296.8 165.8,295 164.8,293.2 163.8,291.5 162.8,289.7 161.9,287.9 161,286.1 160.1,284.2 159.2,282.4 158.4,280.5 157.6,278.7 156.8,276.8 156,274.9 155.3,273 154.6,271.1 153.9,269.2 153.2,267.3 152.6,265.4 152,263.5 151.4,261.5 150.8,259.6 150.3,257.6 149.8,255.7 149.3,253.7 148.8,251.7 148.4,249.7 148,247.7 147.6,245.7 147.2,243.7 146.9,241.7 146.6,239.7 146.3,237.7 146.1,235.7 145.8,233.7 145.7,231.7 145.5,229.7 145.3,227.6 145.2,225.6 145.1,223.6 145.1,221.6 145,219.5 145,217.5 145,215.5 145.1,213.4 145.1,211.4 145.2,209.4 145.3,207.4 145.5,205.3 145.7,203.3 145.8,201.3 146.1,199.3 146.3,197.3 146.6,195.3 146.9,193.3 147.2,191.3 147.6,189.3 148,187.3 148.4,185.3 148.8,183.3 149.3,181.3 149.8,179.3 150.3,177.4 150.8,175.4 151.4,173.5 152,171.5 152.6,169.6 153.2,167.7 153.9,165.8 154.6,163.9 155.3,162 156,160.1 156.8,158.2 157.6,156.3 158.4,154.5 159.2,152.6 160.1,150.8 161,148.9 161.9,147.1 162.8,145.3 163.8,143.5 164.8,141.8 165.8,140 166.8,138.2 167.8,136.5 168.9,134.8 170,133.1 171.1,131.4 172.3,129.7 173.4,128 174.6,126.4 175.8,124.8 177,123.1 178.3,121.5 179.5,120 180.8,118.4 182.1,116.8 183.5,115.3 184.8,113.8 186.2,112.3 187.6,110.8 189,109.3 190.4,107.9 191.8,106.5 193.3,105.1 194.8,103.7 196.3,102.3 197.8,101 199.3,99.6 200.9,98.3 202.5,97 204,95.8 205.6,94.5 207.3,93.3 208.9,92.1 210.5,90.9 212.2,89.8 213.9,88.6 215.6,87.5 217.3,86.4 219,85.3 220.7,84.3 222.5,83.3 224.3,82.3 226,81.3 227.8,80.3 229.6,79.4 231.4,78.5 233.3,77.6 235.1,76.7 237,75.9 238.8,75.1 240.7,74.3 242.6,73.5 244.5,72.8 246.4,72.1 248.3,71.4 250.2,70.7 252.1,70.1 254,69.5 256,68.9 257.9,68.3 259.9,67.8 261.8,67.3 263.8,66.8 265.8,66.3 267.8,65.9 269.8,65.5 271.8,65.1 273.8,64.7 275.8,64.4 277.8,64.1 279.8,63.8 281.8,63.6 283.8,63.3 285.8,63.2 287.8,63 289.9,62.8 291.9,62.7 293.9,62.6 295.9,62.6 298,62.5 300,62.5 302,62.5 304.1,62.6 306.1,62.6 308.1,62.7 310.1,62.8 312.2,63 314.2,63.2 316.2,63.3 318.2,63.6 320.2,63.8 322.2,64.1 324.2,64.4 326.2,64.7 328.2,65.1 330.2,65.5 332.2,65.9 334.2,66.3 336.2,66.8 338.2,67.3 340.1,67.8 342.1,68.3 344,68.9 346,69.5 347.9,70.1 349.8,70.7 351.7,71.4 353.6,72.1 355.5,72.8 357.4,73.5 359.3,74.3 361.2,75.1 363,75.9 364.9,76.7 366.7,77.6 368.6,78.5 370.4,79.4 372.2,80.3 374,81.3 375.7,82.3 377.5,83.3 379.3,84.3 381,85.3 382.7,86.4 384.4,87.5 386.1,88.6 387.8,89.8 389.5,90.9 391.1,92.1 392.7,93.3 394.4,94.5 396,95.8 397.5,97 399.1,98.3 400.7,99.6 402.2,101 403.7,102.3 405.2,103.7 406.7,105.1 408.2,106.5 409.6,107.9 411,109.3 412.4,110.8 413.8,112.3 415.2,113.8 416.5,115.3 417.9,116.8 419.2,118.4 420.5,120 421.7,121.5 423,123.1 424.2,124.8 425.4,126.4 426.6,128 427.7,129.7 428.9,131.4 430,133.1 431.1,134.8 432.2,136.5 433.2,138.2 434.2,140 435.2,141.8 436.2,143.5 437.2,145.3 438.1,147.1 439,148.9 439.9,150.8 440.8,152.6 441.6,154.5 442.4,156.3 443.2,158.2 444,160.1 444.7,162 445.4,163.9 446.1,165.8 446.8,167.7 447.4,169.6 448,171.5 448.6,173.5 449.2,175.4 449.7,177.4 450.2,179.3 450.7,181.3 451.2,183.3 451.6,185.3 452,187.3 452.4,189.3 452.8,191.3 453.1,193.3 453.4,195.3 453.7,197.3 453.9,199.3 454.2,201.3 454.3,203.3 454.5,205.3 454.7,207.4 454.8,209.4 454.9,211.4 454.9,213.4 455,215.5 455,217.5 455,219.5 454.9,221.6 454.9,223.6 454.8,225.6 454.7,227.6 454.5,229.7 454.3,231.7 454.2,233.7 453.9,235.7 453.7,237.7 453.4,239.7 453.1,241.7 452.8,243.7 452.4,245.7 452,247.7 451.6,249.7 451.2,251.7 450.7,253.7 450.2,255.7 449.7,257.6 449.2,259.6 448.6,261.5 448,263.5 447.4,265.4 446.8,267.3 446.1,269.2 445.4,271.1 444.7,273 444,274.9 443.2,276.8 442.4,278.7 441.6,280.5 440.8,282.4 439.9,284.2 439,286.1 438.1,287.9 437.2,289.7 436.2,291.5 435.2,293.2 434.2,295 433.2,296.8 432.2,298.5 431.1,300.2 430,301.9 428.9,303.6 427.7,305.3 426.6,307 425.4,308.6 424.2,310.2 423,311.9 421.7,313.5 420.5,315 419.2,316.6 417.9,318.2 416.5,319.7 415.2,321.2 413.8,322.7 412.4,324.2 411,325.7 409.6,327.1" stroke="#E6E6E6"/>
<polyline fill="none" stroke-width="15" points="190.4,327.1 189,325.7 187.6,324.2 186.2,322.7 184.8,321.2 183.5,319.7 182.1,318.2 180.8,316.6 179.5,315 178.3,313.5 177,311.9 175.8,310.2 174.6,308.6 173.4,307 172.3,305.3 171.1,303.6 170,301.9 168.9,300.2 167.8,298.5 166.8,296.8 165.8,295 164.8,293.2 163.8,291.5 162.8,289.7 161.9,287.9 161,286.1 160.1,284.2 159.2,282.4 158.4,280.5 157.6,278.7 156.8,276.8 156,274.9 155.3,273 154.6,271.1 153.9,269.2 153.2,267.3 152.6,265.4 152,263.5 151.4,261.5 150.8,259.6 150.3,257.6 149.8,255.7 149.3,253.7 148.8,251.7 148.4,249.7 148,247.7 147.6,245.7 147.2,243.7 146.9,241.7 146.6,239.7 146.3,237.7 146.1,235.7 145.8,233.7 145.7,231.7 145.5,229.7 145.3,227.6 145.2,225.6 145.1,223.6 145.1,221.6 145,219.5 145,217.5 145,215.5 145.1,213.4 145.1,211.4 145.2,209.4 145.3,207.4 145.5,205.3 145.7,203.3 145.8,201.3 146.1,199.3 146.3,197.3 146.6,195.3 146.9,193.3 147.2,191.3 147.6,189.3 148,187.3 148.4,185.3 148.8,183.3 149.3,181.3 149.8,179.3 150.3,177.4 150.8,175.4 151.4,173.5 152,171.5 152.6,169.6 153.2,167.7 153.9,165.8 154.6,163.9 155.3,162 156,160.1 156.8,158.2 157.6,156.3 158.4,154.5 159.2,152.6 160.1,150.8 161,148.9 161.9,147.1 162.8,145.3 163.8,143.5 164.8,141.8 165.8,140 166.8,138.2 167.8,136.5 168.9,134.8 170,133.1 171.1,131.4 172.3,129.7 173.4,128 174.6,126.4 175.8,124.8 177,123.1 178.3,121.5 179.5,120 180.8,118.4 182.1,116.8 183.5,115.3 184.8,113.8 186.2,112.3 187.6,110.8 189,109.3 190.4,107.9 191.8,106.5 193.3,105.1 194.8,103.7 196.3,102.3 197.8,101 199.3,99.6 200.9,98.3 202.5,97 204,95.8 205.6,94.5 207.3,93.3 208.9,92.1 210.5,90.9 212.2,89.8 213.9,88.6 215.6,87.5 217.3,86.4 219,85.3 220.7,84.3 222.5,83.3 224.3,82.3 226,81.3 227.8,80.3 229.6,79.4 231.4,78.5 233.3,77.6 235.1,76.7 237,75.9 238.8,75.1 240.7,74.3 242.6,73.5 244.5,72.8 246.4,72.1 248.3,71.4 250.2,70.7 252.1,70.1 254,69.5 256,68.9 257.9,68.3 259.9,67.8 261.8,67.3 263.8,66.8 265.8,66.3 267.8,65.9 269.8,65.5 271.8,65.1 273.8,64.7 275.8,64.4 277.8,64.1 279.8,63.8 281.8,63.6 283.8,63.3 285.8,63.2 287.8,63 289.9,62.8 291.9,62.7 293.9,62.6 295.9,62.6 298,62.5 300,62.5 302,62.5 304.1,62.6 306.1,62.6 308.1,62.7 310.1,62.8 312.2,63 314.2,63.2 316.2,63.3 318.2,63.6 320.2,63.8 322.2,64.1 324.2,64.4 326.2,64.7 328.2,65.1 330.2,65.5 332.2,65.9 334.2,66.3 336.2,66.8 338.2,67.3 340.1,67.8 342.1,68.3 344,68.9 346,69.5 347.9,70.1 349.8,70.7 351.7,71.4 353.6,72.1 355.5,72.8 357.4,73.5 359.3,74.3 361.2,75.1 363,75.9 364.9,76.7 366.7,77.6 368.6,78.5 370.4,79.4" stroke="#7EB26D"/>
<line stroke-width="2" x1="197.1" y1="320.4" x2="183.7" y2="333.8" stroke="#E6E6E6"/>
<line stroke-width="2" x1="156.3" y1="194.7" x2="137.5" y2="191.8" stroke="#E6E6E6"/>
<line stroke-width="2" x1="233.9" y1="87.9" x2="225.3" y2="70.9" stroke="#E6E6E6"/>
<line stroke-width="2" x1="366.1" y1="87.9" x2="374.7" y2="70.9" stroke="#E6E6E6"/>
<line stroke-width="2" x1="443.7" y1="194.7" x2="462.5" y2="191.8" stroke="#E6E6E6"/>
<line stroke-width="2" x1="402.9" y1="320.4" x2="416.3" y2="333.8" stroke="#E6E6E6"/>
<text font-size="14" x="170.2" y="347.3" dominant-baseline="middle" text-anchor="middle" font-family="Roboto" fill="#D8D9DA">
0
</text>
<text font-size="14" x="429.8" y="347.3" dominant-baseline="middle" text-anchor="middle" font-family="Roboto" fill="#D8D9DA">
200
</text>
<text font-size="14" x="118.8" y="188.8" dominant-baseline="middle" text-anchor="middle" font-family="Roboto" fill="#D8D9DA">
40
</text>
<text font-size="14" x="216.7" y="54" dominant-baseline="middle" text-anchor="middle" font-family="Roboto" fill="#D8D9DA">
80
</text>
<text font-size="14" x="383.3" y="54" dominant-baseline="middle" text-anchor="middle" font-family="Roboto" fill="#D8D9DA">
120
</text>
<text font-size="14" x="481.2" y="188.8" dominant-baseline="middle" text-anchor="middle" font-family="Roboto" fill="#D8D9DA">
160
</text>
<polygon points="363.3,93.2 305.3,220.2 294.7,214.8" stroke="#7EB26D" fill="#7EB26D"/>
<circle cx="300" cy="217.5" r="8" stroke-width="1" stroke="#7EB26D" fill="#7EB26D"/>
<text font-size="36" x="300" y="306.9" font-weight="bold" dominant-baseline="middle" text-anchor="middle" font-family="Roboto" fill="#D8D9DA">
120
</text>
<text font-size="14" x="300" y="346.9" dominant-baseline="middle" text-anchor="middle" font-family="Roboto" fill="#D8D9DA">
Speed
</text>
</svg>