<svg width="600" height="400" viewBox="0 0 600 400" xmlns="http://www.w3.org/2000/svg">
<rect x="0" y="0" width="600" height="400" fill="#FFFFFF"/>
<text font-size="18" x="227" y="5" dy="15" font-weight="bold" dominant-baseline="middle" font-family="Roboto" fill="#464646">
Nightingale Chart
</text>
<text font-size="14" x="267" y="35" dy="10" dominant-baseline="middle" font-family="Roboto" fill="#464646">
Fake Data
</text>
<path d="M300,179.5 L300,101.5 A8 8 0 0 1 304.7,93.6 A134 134 0 0 1 391.4,129.5 A8 8 0 0 1 389.1,138.4 L333.9,193.6 A8 8 0 0 1 327.3,198.2 A40 40 0 0 0 301.4,187.5 A8 8 0 0 1 300,179.5 Z" fill="#5470C6"/>
<path d="M351.3,103.7 C353.2 99.1, 355.5 87.5, 358.9 85.2 C362.4 82.9, 373.9 85.2, 378.9 85.2" stroke-width="1" fill="none" stroke="#5470C6"/>
<text font-size="14" x="381.9" y="90.2" font-family="Roboto" fill="#464646">
rose 1: 17.1%
</text>
<path d="M333.9,193.6 L385.8,141.7 A8 8 0 0 1 394.6,139.3 A129.3 129.3 0 0 1 429.2,223 A8 8 0 0 1 421.3,227.5 L348,227.5 A8 8 0 0 1 340,226.1 A40 40 0 0 0 329.3,200.2 A8 8 0 0 1 333.9,193.6 Z" fill="#91CC75"/>
<path d="M419.5,178 C425.2 175.7, 436.4 169.9, 442.3 168.6 C447.1 167.5, 457.3 168.6, 462.3 168.6" stroke-width="1" fill="none" stroke="#91CC75"/>
<text font-size="14" x="465.3" y="173.6" font-family="Roboto" fill="#464646">
rose 2: 16.2%
</text>
<path d="M348,227.5 L407.2,227.5 A8 8 0 0 1 415.1,231.5 A115.2 115.2 0 0 1 384.3,306.1 A8 8 0 0 1 375.8,303.3 L333.9,261.4 A8 8 0 0 1 329.3,254.8 A40 40 0 0 0 340,228.9 A8 8 0 0 1 348,227.5 Z" fill="#FAC858"/>
<path d="M406.4,271.6 C415.4 275.3, 433.1 284, 442.3 286.4 C447 287.7, 457.3 286.4, 462.3 286.4" stroke-width="1" fill="none" stroke="#FAC858"/>
<text font-size="14" x="465.3" y="291.4" font-family="Roboto" fill="#464646">
rose 3: 13.7%
</text>
<path d="M333.9,261.4 L372.5,300 A8 8 0 0 1 375.4,308.3 A110.5 110.5 0 0 1 303.9,337.9 A8 8 0 0 1 300,330 L300,275.5 A8 8 0 0 1 301.4,267.5 A40 40 0 0 0 327.3,256.8 A8 8 0 0 1 333.9,261.4 Z" fill="#EE6666"/>
<path d="M342.3,329.6 C346.4 339.6, 352.7 362.9, 358.9 369.8 C361.8 372.9, 373.9 369.8, 378.9 369.8" stroke-width="1" fill="none" stroke="#EE6666"/>
<text font-size="14" x="381.9" y="374.8" font-family="Roboto" fill="#464646">
rose 4: 12.8%
</text>
<path d="M300,275.5 L300,325.3 A8 8 0 0 1 296.3,333.2 A105.8 105.8 0 0 1 227.8,304.9 A8 8 0 0 1 230.8,296.7 L266.1,261.4 A8 8 0 0 1 272.7,256.8 A40 40 0 0 0 298.6,267.5 A8 8 0 0 1 300,275.5 Z" fill="#73C0DE"/>
<path d="M259.5,325.2 C254.9 336.4, 247.9 361.9, 241.1 369.8 C238.2 373, 226.1 369.8, 221.1 369.8" stroke-width="1" fill="none" stroke="#73C0DE"/>
<text font-size="14" x="146.1" y="374.8" font-family="Roboto" fill="#464646">
rose 5: 12%
</text>
<path d="M266.1,261.4 L234.2,293.3 A8 8 0 0 1 226.1,296.5 A101.1 101.1 0 0 1 199,231 A8 8 0 0 1 206.9,227.5 L252,227.5 A8 8 0 0 1 260,228.9 A40 40 0 0 0 270.7,254.8 A8 8 0 0 1 266.1,261.4 Z" fill="#3BA272"/>
<path d="M206.6,266.2 C194.4 271.3, 170.2 282.8, 157.7 286.4 C153 287.8, 142.7 286.4, 137.7 286.4" stroke-width="1" fill="none" stroke="#3BA272"/>
<text font-size="14" x="50.7" y="291.4" font-family="Roboto" fill="#464646">
rose 6: 11.1%
</text>
<path d="M252,227.5 L216.3,227.5 A8 8 0 0 1 208.4,224.3 A91.7 91.7 0 0 1 232.9,165 A8 8 0 0 1 240.8,168.3 L266.1,193.6 A8 8 0 0 1 270.7,200.2 A40 40 0 0 0 260,226.1 A8 8 0 0 1 252,227.5 Z" fill="#FC8452"/>
<path d="M215.3,192.4 C200.9 186.4, 172.4 173.1, 157.7 168.6 C153 167.1, 142.7 168.6, 137.7 168.6" stroke-width="1" fill="none" stroke="#FC8452"/>
<text font-size="14" x="58.7" y="173.6" font-family="Roboto" fill="#464646">
rose 7: 9.4%
</text>
<path d="M266.1,193.6 L247.5,175 A8 8 0 0 1 243.9,167.3 A82.3 82.3 0 0 1 297.1,145.3 A8 8 0 0 1 300,153.2 L300,179.5 A8 8 0 0 1 298.6,187.5 A40 40 0 0 0 272.7,198.2 A8 8 0 0 1 266.1,193.6 Z" fill="#9A60B4"/>
<path d="M268.5,151.5 C261.6 134.9, 250.3 98.2, 241.1 85.2 C238.5 81.6, 226.1 85.2, 221.1 85.2" stroke-width="1" fill="none" stroke="#9A60B4"/>
<text font-size="14" x="142.1" y="90.2" font-family="Roboto" fill="#464646">
rose 8: 7.7%
</text>
</svg>