<svg width="600" height="400" viewBox="0 0 600 400" xmlns="http://www.w3.org/2000/svg">
<rect x="0" y="0" width="600" height="400" fill="#FFFFFF"/>
<text font-size="18" x="227" y="5" dy="15" font-weight="bold" dominant-baseline="middle" font-family="Roboto" fill="#464646">
Nightingale Chart
</text>
<text font-size="14" x="267" y="35" dy="10" dominant-baseline="middle" font-family="Roboto" fill="#464646">
Fake Data
</text>
<path d="M300,189.5 L300,101.5 A8 8 0 0 1 304.7,93.6 A134 134 0 0 1 391.4,129.5 A8 8 0 0 1 389.1,138.4 L326.9,200.6 A8 8 0 0 1 320.5,205.6 A30 30 0 0 0 301,197.5 A8 8 0 0 1 300,189.5 Z" fill="#5470C6"/>
<path d="M351.3,103.7 C353.2 99.1, 355.5 87.5, 358.9 85.2 C362.4 82.9, 373.9 85.2, 378.9 85.2" stroke-width="1" fill="none" stroke="#5470C6"/>
<text font-size="14" x="381.9" y="90.2" font-family="Roboto" fill="#464646">
rose 1: 17.1%
</text>
<path d="M326.9,200.6 L385.4,142.1 A8 8 0 0 1 394.2,139.7 A128.8 128.8 0 0 1 428.7,223 A8 8 0 0 1 420.8,227.5 L338,227.5 A8 8 0 0 1 330,226.5 A30 30 0 0 0 321.9,207 A8 8 0 0 1 326.9,200.6 Z" fill="#91CC75"/>
<path d="M419,178.2 C424.8 175.8, 436.2 169.9, 442.3 168.6 C447.1 167.5, 457.3 168.6, 462.3 168.6" stroke-width="1" fill="none" stroke="#91CC75"/>
<text font-size="14" x="465.3" y="173.6" font-family="Roboto" fill="#464646">
rose 2: 16.2%
</text>
<path d="M338,227.5 L405.2,227.5 A8 8 0 0 1 413.1,231.5 A113.2 113.2 0 0 1 382.8,304.7 A8 8 0 0 1 374.4,301.9 L326.9,254.4 A8 8 0 0 1 321.9,248 A30 30 0 0 0 330,228.5 A8 8 0 0 1 338,227.5 Z" fill="#FAC858"/>
<path d="M404.6,270.8 C414 274.7, 432.6 283.8, 442.3 286.4 C447 287.7, 457.3 286.4, 462.3 286.4" stroke-width="1" fill="none" stroke="#FAC858"/>
<text font-size="14" x="465.3" y="291.4" font-family="Roboto" fill="#464646">
rose 3: 13.7%
</text>
<path d="M326.9,254.4 L370.7,298.2 A8 8 0 0 1 373.7,306.5 A108 108 0 0 1 303.8,335.4 A8 8 0 0 1 300,327.5 L300,265.5 A8 8 0 0 1 301,257.5 A30 30 0 0 0 320.5,249.4 A8 8 0 0 1 326.9,254.4 Z" fill="#EE6666"/>
<path d="M341.3,327.3 C345.7 337.9, 352.4 362.4, 358.9 369.8 C361.8 373, 373.9 369.8, 378.9 369.8" stroke-width="1" fill="none" stroke="#EE6666"/>
<text font-size="14" x="381.9" y="374.8" font-family="Roboto" fill="#464646">
rose 4: 12.8%
</text>
<path d="M300,265.5 L300,322.3 A8 8 0 0 1 296.4,330.2 A102.8 102.8 0 0 1 229.9,302.7 A8 8 0 0 1 233,294.5 L273.1,254.4 A8 8 0 0 1 279.5,249.4 A30 30 0 0 0 299,257.5 A8 8 0 0 1 300,265.5 Z" fill="#73C0DE"/>
<path d="M260.7,322.5 C255.8 334.3, 248.2 361.3, 241.1 369.8 C238.3 373.1, 226.1 369.8, 221.1 369.8" stroke-width="1" fill="none" stroke="#73C0DE"/>
<text font-size="14" x="146.1" y="374.8" font-family="Roboto" fill="#464646">
rose 5: 12%
</text>
<path d="M273.1,254.4 L236.6,290.9 A8 8 0 0 1 228.6,294.1 A97.6 97.6 0 0 1 202.5,230.9 A8 8 0 0 1 210.4,227.5 L262,227.5 A8 8 0 0 1 270,228.5 A30 30 0 0 0 278.1,248 A8 8 0 0 1 273.1,254.4 Z" fill="#3BA272"/>
<path d="M209.8,264.8 C196.8 270.2, 171 282.4, 157.7 286.4 C153 287.8, 142.7 286.4, 137.7 286.4" stroke-width="1" fill="none" stroke="#3BA272"/>
<text font-size="14" x="50.7" y="291.4" font-family="Roboto" fill="#464646">
rose 6: 11.1%
</text>
<path d="M262,227.5 L220.8,227.5 A8 8 0 0 1 212.9,224.5 A87.2 87.2 0 0 1 236.2,168 A8 8 0 0 1 244,171.5 L273.1,200.6 A8 8 0 0 1 278.1,207 A30 30 0 0 0 270,226.5 A8 8 0 0 1 262,227.5 Z" fill="#FC8452"/>
<path d="M219.4,194.1 C204 187.7, 173.4 173.5, 157.7 168.6 C153 167.1, 142.7 168.6, 137.7 168.6" stroke-width="1" fill="none" stroke="#FC8452"/>
<text font-size="14" x="58.7" y="173.6" font-family="Roboto" fill="#464646">
rose 7: 9.4%
</text>
<path d="M273.1,200.6 L251.4,178.9 A8 8 0 0 1 247.6,171.3 A76.8 76.8 0 0 1 297.3,150.7 A8 8 0 0 1 300,158.7 L300,189.5 A8 8 0 0 1 299,197.5 A30 30 0 0 0 279.5,205.6 A8 8 0 0 1 273.1,200.6 Z" fill="#9A60B4"/>
<path d="M270.6,156.5 C263.2 138.7, 250.9 99.4, 241.1 85.2 C238.5 81.6, 226.1 85.2, 221.1 85.2" stroke-width="1" fill="none" stroke="#9A60B4"/>
<text font-size="14" x="142.1" y="90.2" font-family="Roboto" fill="#464646">
rose 8: 7.7%
</text>
</svg>