<svg width="600" height="400" viewBox="0 0 600 400" xmlns="http://www.w3.org/2000/svg">
<rect x="0" y="0" width="600" height="400" fill="#FFFFFF"/>
<text font-size="18" x="225.5" y="23" font-weight="bold" font-family="Arial" fill="#464646">
Nightingale Chart
</text>
<text font-size="14" x="266.5" y="37" font-family="Arial" fill="#464646">
Fake Data
</text>
<g>
<line stroke-width="2" x1="5" y1="55" x2="30" y2="55" stroke="#5470C6"/>
<circle cx="17.5" cy="55" r="5.5" stroke-width="2" stroke="#5470C6" fill="#FFFFFF"/>
<text font-size="14" x="33" y="59" font-family="Arial" fill="#464646">
rose 1
</text>
</g>
<g>
<line stroke-width="2" x1="76" y1="55" x2="101" y2="55" stroke="#91CC75"/>
<circle cx="88.5" cy="55" r="5.5" stroke-width="2" stroke="#91CC75" fill="#FFFFFF"/>
<text font-size="14" x="104" y="59" font-family="Arial" fill="#464646">
rose 2
</text>
</g>
<g>
<line stroke-width="2" x1="149" y1="55" x2="174" y2="55" stroke="#FAC858"/>
<circle cx="161.5" cy="55" r="5.5" stroke-width="2" stroke="#FAC858" fill="#FFFFFF"/>
<text font-size="14" x="177" y="59" font-family="Arial" fill="#464646">
rose 3
</text>
</g>
<g>
<line stroke-width="2" x1="222" y1="55" x2="247" y2="55" stroke="#EE6666"/>
<circle cx="234.5" cy="55" r="5.5" stroke-width="2" stroke="#EE6666" fill="#FFFFFF"/>
<text font-size="14" x="250" y="59" font-family="Arial" fill="#464646">
rose 4
</text>
</g>
<g>
<line stroke-width="2" x1="295" y1="55" x2="320" y2="55" stroke="#73C0DE"/>
<circle cx="307.5" cy="55" r="5.5" stroke-width="2" stroke="#73C0DE" fill="#FFFFFF"/>
<text font-size="14" x="323" y="59" font-family="Arial" fill="#464646">
rose 5
</text>
</g>
<g>
<line stroke-width="2" x1="368" y1="55" x2="393" y2="55" stroke="#3BA272"/>
<circle cx="380.5" cy="55" r="5.5" stroke-width="2" stroke="#3BA272" fill="#FFFFFF"/>
<text font-size="14" x="396" y="59" font-family="Arial" fill="#464646">
rose 6
</text>
</g>
<g>
<line stroke-width="2" x1="441" y1="55" x2="466" y2="55" stroke="#FC8452"/>
<circle cx="453.5" cy="55" r="5.5" stroke-width="2" stroke="#FC8452" fill="#FFFFFF"/>
<text font-size="14" x="469" y="59" font-family="Arial" fill="#464646">
rose 7
</text>
</g>
<g>
<line stroke-width="2" x1="514" y1="55" x2="539" y2="55" stroke="#9A60B4"/>
<circle cx="526.5" cy="55" r="5.5" stroke-width="2" stroke="#9A60B4" fill="#FFFFFF"/>
<text font-size="14" x="542" y="59" font-family="Arial" fill="#464646">
rose 8
</text>
</g>
<path d="M300,183 L300,107.8 A8 8 0 0 1 304.6,99.9 A131.2 131.2 0 0 1 389.5,135 A8 8 0 0 1 387.1,143.9 L333.9,197.1 A8 8 0 0 1 327.3,201.7 A40 40 0 0 0 301.4,191 A8 8 0 0 1 300,183 Z" fill="#5470C6"/>
<path fill="none" d="M350.2,109.8 C352.1 105.2, 354.4 93.6, 357.9 91.3 C361.3 89, 372.9 91.3, 377.9 91.3" stroke-width="1" stroke="#5470C6"/>
<text font-size="14" x="380.9" y="96.3" font-family="Arial" fill="#464646">
rose 1
</text>
<path d="M333.9,197.1 L382.5,148.5 A8 8 0 0 1 391.2,146 A124.6 124.6 0 0 1 424.6,226.7 A8 8 0 0 1 416.6,231 L348,231 A8 8 0 0 1 340,229.6 A40 40 0 0 0 329.3,203.7 A8 8 0 0 1 333.9,197.1 Z" fill="#91CC75"/>
<path fill="none" d="M415.2,183.3 C421.3 180.8, 433.3 174.6, 439.7 173.1 C444.5 172, 454.7 173.1, 459.7 173.1" stroke-width="1" stroke="#91CC75"/>
<text font-size="14" x="462.7" y="178.1" font-family="Arial" fill="#464646">
rose 2
</text>
<path d="M348,231 L397,231 A8 8 0 0 1 404.9,234.7 A105 105 0 0 1 376.8,302.6 A8 8 0 0 1 368.6,299.6 L333.9,264.9 A8 8 0 0 1 329.3,258.3 A40 40 0 0 0 340,232.4 A8 8 0 0 1 348,231 Z" fill="#FAC858"/>
<path fill="none" d="M397,271.2 C407.7 275.6, 428.7 285.8, 439.7 288.9 C444.4 290.2, 454.7 288.9, 459.7 288.9" stroke-width="1" stroke="#FAC858"/>
<text font-size="14" x="462.7" y="293.9" font-family="Arial" fill="#464646">
rose 3
</text>
<path d="M333.9,264.9 L363.9,294.9 A8 8 0 0 1 367.1,303 A98.4 98.4 0 0 1 303.4,329.3 A8 8 0 0 1 300,321.4 L300,279 A8 8 0 0 1 301.4,271 A40 40 0 0 0 327.3,260.3 A8 8 0 0 1 333.9,264.9 Z" fill="#EE6666"/>
<path fill="none" d="M337.7,321.9 C342.7 334.1, 350.6 361.8, 357.9 370.7 C360.6 374, 372.9 370.7, 377.9 370.7" stroke-width="1" stroke="#EE6666"/>
<text font-size="14" x="380.9" y="375.7" font-family="Arial" fill="#464646">
rose 4
</text>
<path d="M300,279 L300,314.8 A8 8 0 0 1 296.8,322.8 A91.8 91.8 0 0 1 237.4,298.2 A8 8 0 0 1 240.7,290.3 L266.1,264.9 A8 8 0 0 1 272.7,260.3 A40 40 0 0 0 298.6,271 A8 8 0 0 1 300,279 Z" fill="#73C0DE"/>
<path fill="none" d="M264.9,315.8 C259.2 329.6, 250.1 360.4, 242.1 370.7 C239.4 374.1, 227.1 370.7, 222.1 370.7" stroke-width="1" stroke="#73C0DE"/>
<text font-size="14" x="182.1" y="375.7" font-family="Arial" fill="#464646">
rose 5
</text>
<path d="M266.1,264.9 L245.4,285.6 A8 8 0 0 1 237.6,289.2 A85.3 85.3 0 0 1 214.8,234 A8 8 0 0 1 222.7,231 L252,231 A8 8 0 0 1 260,232.4 A40 40 0 0 0 270.7,258.3 A8 8 0 0 1 266.1,264.9 Z" fill="#3BA272"/>
<path fill="none" d="M221.2,263.6 C206 269.9, 175.8 284, 160.3 288.9 C155.6 290.3, 145.3 288.9, 140.3 288.9" stroke-width="1" stroke="#3BA272"/>
<text font-size="14" x="100.3" y="293.9" font-family="Arial" fill="#464646">
rose 6
</text>
<path d="M252,231 L235.8,231 A8 8 0 0 1 227.9,228.5 A72.2 72.2 0 0 1 247.2,181.8 A8 8 0 0 1 254.6,185.6 L266.1,197.1 A8 8 0 0 1 270.7,203.7 A40 40 0 0 0 260,229.6 A8 8 0 0 1 252,231 Z" fill="#FC8452"/>
<path fill="none" d="M233.3,203.4 C215.1 195.8, 178.9 179.2, 160.3 173.1 C155.6 171.6, 145.3 173.1, 140.3 173.1" stroke-width="1" stroke="#FC8452"/>
<text font-size="14" x="100.3" y="178.1" font-family="Arial" fill="#464646">
rose 7
</text>
<path d="M266.1,197.1 L263.9,194.9 A8 8 0 0 1 259.7,187.8 A59 59 0 0 1 297.9,172 A8 8 0 0 1 300,180 L300,183 A8 8 0 0 1 298.6,191 A40 40 0 0 0 272.7,201.7 A8 8 0 0 1 266.1,197.1 Z" fill="#9A60B4"/>
<path fill="none" d="M277.4,176.5 C268.6 155.2, 253.5 108.8, 242.1 91.3 C239.7 87.5, 227.1 91.3, 222.1 91.3" stroke-width="1" stroke="#9A60B4"/>
<text font-size="14" x="182.1" y="96.3" font-family="Arial" fill="#464646">
rose 8
</text>
</svg>