<svg width="600" height="400" viewBox="0 0 600 400" xmlns="http://www.w3.org/2000/svg">
<rect x="0" y="0" width="600" height="400" fill="#FFFFFF"/>
<text font-size="18" x="225.5" y="23" font-weight="bold" font-family="Arial" fill="#464646">
Nightingale Chart
</text>
<text font-size="14" x="266.5" y="37" font-family="Arial" fill="#464646">
Fake Data
</text>
<path d="M300,177.5 L300,97.9 A8 8 0 0 1 304.7,90 A135.6 135.6 0 0 1 392.5,126.3 A8 8 0 0 1 390.2,135.3 L333.9,191.6 A8 8 0 0 1 327.3,196.2 A40 40 0 0 0 301.4,185.5 A8 8 0 0 1 300,177.5 Z" fill="#5470C6"/>
<path d="M351.9,100.2 C353.8 95.6, 356.1 84.1, 359.5 81.7 C363 79.4, 374.5 81.7, 379.5 81.7" stroke-width="1" fill="none" stroke="#5470C6"/>
<text font-size="14" x="382.5" y="86.7" font-family="Arial" fill="#464646">
rose 1
</text>
<path d="M333.9,191.6 L385.4,140.1 A8 8 0 0 1 394.2,137.6 A128.8 128.8 0 0 1 428.7,221 A8 8 0 0 1 420.8,225.5 L348,225.5 A8 8 0 0 1 340,224.1 A40 40 0 0 0 329.3,198.2 A8 8 0 0 1 333.9,191.6 Z" fill="#91CC75"/>
<path d="M419,176.2 C425.2 173.6, 437.4 167.4, 443.8 166 C448.5 164.9, 458.8 166, 463.8 166" stroke-width="1" fill="none" stroke="#91CC75"/>
<text font-size="14" x="466.8" y="171" font-family="Arial" fill="#464646">
rose 2
</text>
<path d="M348,225.5 L400.5,225.5 A8 8 0 0 1 408.4,229.3 A108.5 108.5 0 0 1 379.3,299.5 A8 8 0 0 1 371.1,296.6 L333.9,259.4 A8 8 0 0 1 329.3,252.8 A40 40 0 0 0 340,226.9 A8 8 0 0 1 348,225.5 Z" fill="#FAC858"/>
<path d="M400.2,267 C411.1 271.5, 432.6 281.9, 443.8 285 C448.5 286.4, 458.8 285, 463.8 285" stroke-width="1" fill="none" stroke="#FAC858"/>
<text font-size="14" x="466.8" y="290" font-family="Arial" fill="#464646">
rose 3
</text>
<path d="M333.9,259.4 L366.3,291.8 A8 8 0 0 1 369.4,299.9 A101.7 101.7 0 0 1 303.5,327.1 A8 8 0 0 1 300,319.2 L300,273.5 A8 8 0 0 1 301.4,265.5 A40 40 0 0 0 327.3,254.8 A8 8 0 0 1 333.9,259.4 Z" fill="#EE6666"/>
<path d="M338.9,319.5 C344.1 331.9, 352.1 360.2, 359.5 369.3 C362.3 372.6, 374.5 369.3, 379.5 369.3" stroke-width="1" fill="none" stroke="#EE6666"/>
<text font-size="14" x="382.5" y="374.3" font-family="Arial" fill="#464646">
rose 4
</text>
<path d="M300,273.5 L300,312.4 A8 8 0 0 1 296.7,320.4 A94.9 94.9 0 0 1 235.3,294.9 A8 8 0 0 1 238.5,287 L266.1,259.4 A8 8 0 0 1 272.7,254.8 A40 40 0 0 0 298.6,265.5 A8 8 0 0 1 300,273.5 Z" fill="#73C0DE"/>
<path d="M263.7,313.2 C257.9 327.2, 248.6 358.7, 240.5 369.3 C237.8 372.7, 225.5 369.3, 220.5 369.3" stroke-width="1" fill="none" stroke="#73C0DE"/>
<text font-size="14" x="180.5" y="374.3" font-family="Arial" fill="#464646">
rose 5
</text>
<path d="M266.1,259.4 L243.3,282.2 A8 8 0 0 1 235.5,285.6 A88.1 88.1 0 0 1 211.9,228.6 A8 8 0 0 1 219.9,225.5 L252,225.5 A8 8 0 0 1 260,226.9 A40 40 0 0 0 270.7,252.8 A8 8 0 0 1 266.1,259.4 Z" fill="#3BA272"/>
<path d="M218.6,259.2 C203 265.7, 172.1 280.1, 156.2 285 C151.5 286.5, 141.2 285, 136.2 285" stroke-width="1" fill="none" stroke="#3BA272"/>
<text font-size="14" x="96.2" y="290" font-family="Arial" fill="#464646">
rose 6
</text>
<path d="M252,225.5 L233.4,225.5 A8 8 0 0 1 225.5,222.9 A74.6 74.6 0 0 1 245.5,174.6 A8 8 0 0 1 252.9,178.4 L266.1,191.6 A8 8 0 0 1 270.7,198.2 A40 40 0 0 0 260,224.1 A8 8 0 0 1 252,225.5 Z" fill="#FC8452"/>
<path d="M231.1,197 C212.4 189.2, 175.3 172.2, 156.2 166 C151.5 164.4, 141.2 166, 136.2 166" stroke-width="1" fill="none" stroke="#FC8452"/>
<text font-size="14" x="96.2" y="171" font-family="Arial" fill="#464646">
rose 7
</text>
<path d="M266.1,191.6 L262.5,188 A8 8 0 0 1 258.4,180.9 A61 61 0 0 1 297.9,164.5 A8 8 0 0 1 300,172.5 L300,177.5 A8 8 0 0 1 298.6,185.5 A40 40 0 0 0 272.7,196.2 A8 8 0 0 1 266.1,191.6 Z" fill="#9A60B4"/>
<path d="M276.6,169.1 C267.6 147.3, 252.1 99.8, 240.5 81.7 C238 77.9, 225.5 81.7, 220.5 81.7" stroke-width="1" fill="none" stroke="#9A60B4"/>
<text font-size="14" x="180.5" y="86.7" font-family="Arial" fill="#464646">
rose 8
</text>
</svg>