<svg width="600" height="400" viewBox="0 0 600 400" xmlns="http://www.w3.org/2000/svg">
<rect x="0" y="0" width="600" height="400" fill="#FFFFFF"/>
<text font-size="18" x="227" y="5" dy="15" font-weight="bold" dominant-baseline="middle" font-family="Roboto" fill="#464646">
Nightingale Chart
</text>
<text font-size="14" x="267" y="35" dy="10" dominant-baseline="middle" font-family="Roboto" fill="#464646">
Fake Data
</text>
<path d="M296,185.5 L296,101.5 A8 8 0 0 1 300.5,93.6 A130 130 0 0 1 384.7,128.4 A8 8 0 0 1 382.3,137.2 L322.9,196.6 A8 8 0 0 1 316.5,201.6 A30 30 0 0 0 297,193.5 A8 8 0 0 1 296,185.5 Z" fill="#5470C6"/>
<path d="M345.7,103.4 C347.7 98.8, 349.9 87.2, 353.4 84.9 C356.9 82.6, 368.4 84.9, 373.4 84.9" stroke-width="1" fill="none" stroke="#5470C6"/>
<text font-size="14" x="376.4" y="89.9" font-family="Roboto" fill="#464646">
rose 1: 17.1%
</text>
<path d="M322.9,196.6 L378.7,140.8 A8 8 0 0 1 387.4,138.3 A125 125 0 0 1 420.9,219.1 A8 8 0 0 1 413,223.5 L334,223.5 A8 8 0 0 1 326,222.5 A30 30 0 0 0 317.9,203 A8 8 0 0 1 322.9,196.6 Z" fill="#91CC75"/>
<path d="M411.5,175.7 C417.3 173.3, 428.6 167.4, 434.6 166.1 C439.4 165, 449.6 166.1, 454.6 166.1" stroke-width="1" fill="none" stroke="#91CC75"/>
<text font-size="14" x="457.6" y="171.1" font-family="Roboto" fill="#464646">
rose 2: 16.2%
</text>
<path d="M334,223.5 L398,223.5 A8 8 0 0 1 405.9,227.3 A110 110 0 0 1 376.4,298.5 A8 8 0 0 1 368.1,295.6 L322.9,250.4 A8 8 0 0 1 317.9,244 A30 30 0 0 0 326,224.5 A8 8 0 0 1 334,223.5 Z" fill="#FAC858"/>
<path d="M397.6,265.6 C406.9 269.4, 425.1 278.4, 434.6 280.9 C439.3 282.2, 449.6 280.9, 454.6 280.9" stroke-width="1" fill="none" stroke="#FAC858"/>
<text font-size="14" x="457.6" y="285.9" font-family="Roboto" fill="#464646">
rose 3: 13.7%
</text>
<path d="M322.9,250.4 L364.6,292.1 A8 8 0 0 1 367.6,300.3 A105 105 0 0 1 299.7,328.4 A8 8 0 0 1 296,320.5 L296,261.5 A8 8 0 0 1 297,253.5 A30 30 0 0 0 316.5,245.4 A8 8 0 0 1 322.9,250.4 Z" fill="#EE6666"/>
<path d="M336.2,320.5 C340.5 330.9, 347 354.9, 353.4 362.1 C356.3 365.3, 368.4 362.1, 373.4 362.1" stroke-width="1" fill="none" stroke="#EE6666"/>
<text font-size="14" x="376.4" y="367.1" font-family="Roboto" fill="#464646">
rose 4: 12.8%
</text>
<path d="M296,261.5 L296,315.5 A8 8 0 0 1 292.5,323.4 A100 100 0 0 1 227.8,296.6 A8 8 0 0 1 230.9,288.6 L269.1,250.4 A8 8 0 0 1 275.5,245.4 A30 30 0 0 0 295,253.5 A8 8 0 0 1 296,261.5 Z" fill="#73C0DE"/>
<path d="M257.7,315.9 C252.9 327.4, 245.6 353.8, 238.6 362.1 C235.8 365.4, 223.6 362.1, 218.6 362.1" stroke-width="1" fill="none" stroke="#73C0DE"/>
<text font-size="14" x="143.6" y="367.1" font-family="Roboto" fill="#464646">
rose 5: 12%
</text>
<path d="M269.1,250.4 L234.5,285 A8 8 0 0 1 226.5,288.3 A95 95 0 0 1 201.1,226.8 A8 8 0 0 1 209,223.5 L258,223.5 A8 8 0 0 1 266,224.5 A30 30 0 0 0 274.1,244 A8 8 0 0 1 269.1,250.4 Z" fill="#3BA272"/>
<path d="M208.2,259.9 C195.5 265.1, 170.4 277, 157.4 280.9 C152.7 282.3, 142.4 280.9, 137.4 280.9" stroke-width="1" fill="none" stroke="#3BA272"/>
<text font-size="14" x="50.4" y="285.9" font-family="Roboto" fill="#464646">
rose 6: 11.1%
</text>
<path d="M258,223.5 L219,223.5 A8 8 0 0 1 211.1,220.5 A85 85 0 0 1 233.8,165.5 A8 8 0 0 1 241.6,169.1 L269.1,196.6 A8 8 0 0 1 274.1,203 A30 30 0 0 0 266,222.5 A8 8 0 0 1 258,223.5 Z" fill="#FC8452"/>
<path d="M217.5,191 C202.5 184.8, 172.7 170.9, 157.4 166.1 C152.7 164.6, 142.4 166.1, 137.4 166.1" stroke-width="1" fill="none" stroke="#FC8452"/>
<text font-size="14" x="58.4" y="171.1" font-family="Roboto" fill="#464646">
rose 7: 9.4%
</text>
<path d="M269.1,196.6 L248.6,176.1 A8 8 0 0 1 244.9,168.6 A75 75 0 0 1 293.4,148.5 A8 8 0 0 1 296,156.5 L296,185.5 A8 8 0 0 1 295,193.5 A30 30 0 0 0 275.5,201.6 A8 8 0 0 1 269.1,196.6 Z" fill="#9A60B4"/>
<path d="M267.3,154.2 C260.1 136.9, 248.2 98.6, 238.6 84.9 C236 81.3, 223.6 84.9, 218.6 84.9" stroke-width="1" fill="none" stroke="#9A60B4"/>
<text font-size="14" x="139.6" y="89.9" font-family="Roboto" fill="#464646">
rose 8: 7.7%
</text>
</svg>