<svg width="600" height="400" viewBox="0 0 600 400" xmlns="http://www.w3.org/2000/svg">
<rect x="0" y="0" width="600" height="400" fill="#FFFFFF"/>
<g>
<line stroke-width="2" x1="5" y1="15" x2="30" y2="15" stroke="#5470C6"/>
<circle cx="17.5" cy="15" r="5.5" stroke-width="2" stroke="#5470C6" fill="#FFFFFF"/>
<text font-size="14" x="33" y="19" font-family="Arial" fill="#464646">
rose 1
</text>
</g>
<g>
<line stroke-width="2" x1="76" y1="15" x2="101" y2="15" stroke="#91CC75"/>
<circle cx="88.5" cy="15" r="5.5" stroke-width="2" stroke="#91CC75" fill="#FFFFFF"/>
<text font-size="14" x="104" y="19" font-family="Arial" fill="#464646">
rose 2
</text>
</g>
<g>
<line stroke-width="2" x1="149" y1="15" x2="174" y2="15" stroke="#FAC858"/>
<circle cx="161.5" cy="15" r="5.5" stroke-width="2" stroke="#FAC858" fill="#FFFFFF"/>
<text font-size="14" x="177" y="19" font-family="Arial" fill="#464646">
rose 3
</text>
</g>
<g>
<line stroke-width="2" x1="222" y1="15" x2="247" y2="15" stroke="#EE6666"/>
<circle cx="234.5" cy="15" r="5.5" stroke-width="2" stroke="#EE6666" fill="#FFFFFF"/>
<text font-size="14" x="250" y="19" font-family="Arial" fill="#464646">
rose 4
</text>
</g>
<g>
<line stroke-width="2" x1="295" y1="15" x2="320" y2="15" stroke="#73C0DE"/>
<circle cx="307.5" cy="15" r="5.5" stroke-width="2" stroke="#73C0DE" fill="#FFFFFF"/>
<text font-size="14" x="323" y="19" font-family="Arial" fill="#464646">
rose 5
</text>
</g>
<g>
<line stroke-width="2" x1="368" y1="15" x2="393" y2="15" stroke="#3BA272"/>
<circle cx="380.5" cy="15" r="5.5" stroke-width="2" stroke="#3BA272" fill="#FFFFFF"/>
<text font-size="14" x="396" y="19" font-family="Arial" fill="#464646">
rose 6
</text>
</g>
<g>
<line stroke-width="2" x1="441" y1="15" x2="466" y2="15" stroke="#FC8452"/>
<circle cx="453.5" cy="15" r="5.5" stroke-width="2" stroke="#FC8452" fill="#FFFFFF"/>
<text font-size="14" x="469" y="19" font-family="Arial" fill="#464646">
rose 7
</text>
</g>
<g>
<line stroke-width="2" x1="514" y1="15" x2="539" y2="15" stroke="#9A60B4"/>
<circle cx="526.5" cy="15" r="5.5" stroke-width="2" stroke="#9A60B4" fill="#FFFFFF"/>
<text font-size="14" x="542" y="19" font-family="Arial" fill="#464646">
rose 8
</text>
</g>
<path d="M300,163 L300,71.8 A8 8 0 0 1 305.1,63.9 A147.2 147.2 0 0 1 400.4,103.3 A8 8 0 0 1 398.4,112.6 L333.9,177.1 A8 8 0 0 1 327.3,181.7 A40 40 0 0 0 301.4,171 A8 8 0 0 1 300,163 Z" fill="#5470C6"/>
<path fill="none" d="M356.3,75 C358.2 70.4, 360.5 58.8, 364 56.5 C367.4 54.2, 379 56.5, 384 56.5" stroke-width="1" stroke="#5470C6"/>
<text font-size="14" x="387" y="61.5" font-family="Arial" fill="#464646">
rose 1
</text>
<path d="M333.9,177.1 L393.2,117.8 A8 8 0 0 1 402.3,115.6 A139.8 139.8 0 0 1 439.8,206.1 A8 8 0 0 1 431.8,211 L348,211 A8 8 0 0 1 340,209.6 A40 40 0 0 0 329.3,183.7 A8 8 0 0 1 333.9,177.1 Z" fill="#91CC75"/>
<path fill="none" d="M429.2,157.5 C435.5 154.9, 447.9 148.5, 454.5 147 C459.3 145.9, 469.5 147, 474.5 147" stroke-width="1" stroke="#91CC75"/>
<text font-size="14" x="477.5" y="152" font-family="Arial" fill="#464646">
rose 2
</text>
<path d="M348,211 L409.8,211 A8 8 0 0 1 417.7,215.1 A117.8 117.8 0 0 1 386.1,291.3 A8 8 0 0 1 377.6,288.6 L333.9,244.9 A8 8 0 0 1 329.3,238.3 A40 40 0 0 0 340,212.4 A8 8 0 0 1 348,211 Z" fill="#FAC858"/>
<path fill="none" d="M408.8,256.1 C420.2 260.8, 442.8 271.6, 454.5 275 C459.2 276.3, 469.5 275, 474.5 275" stroke-width="1" stroke="#FAC858"/>
<text font-size="14" x="477.5" y="280" font-family="Arial" fill="#464646">
rose 3
</text>
<path d="M333.9,244.9 L372.4,283.4 A8 8 0 0 1 375.3,291.7 A110.4 110.4 0 0 1 303.9,321.3 A8 8 0 0 1 300,313.4 L300,259 A8 8 0 0 1 301.4,251 A40 40 0 0 0 327.3,240.3 A8 8 0 0 1 333.9,244.9 Z" fill="#EE6666"/>
<path fill="none" d="M342.2,313 C347.7 326.1, 356.3 355.8, 364 365.5 C366.7 368.9, 379 365.5, 384 365.5" stroke-width="1" stroke="#EE6666"/>
<text font-size="14" x="387" y="370.5" font-family="Arial" fill="#464646">
rose 4
</text>
<path d="M300,259 L300,306 A8 8 0 0 1 296.4,314 A103 103 0 0 1 229.7,286.4 A8 8 0 0 1 232.8,278.2 L266.1,244.9 A8 8 0 0 1 272.7,240.3 A40 40 0 0 0 298.6,251 A8 8 0 0 1 300,259 Z" fill="#73C0DE"/>
<path fill="none" d="M260.6,306.2 C254.4 321, 244.5 354.2, 236 365.5 C233.4 369, 221 365.5, 216 365.5" stroke-width="1" stroke="#73C0DE"/>
<text font-size="14" x="176" y="370.5" font-family="Arial" fill="#464646">
rose 5
</text>
<path d="M266.1,244.9 L238,273 A8 8 0 0 1 230,276.3 A95.7 95.7 0 0 1 204.4,214.3 A8 8 0 0 1 212.3,211 L252,211 A8 8 0 0 1 260,212.4 A40 40 0 0 0 270.7,238.3 A8 8 0 0 1 266.1,244.9 Z" fill="#3BA272"/>
<path fill="none" d="M211.6,247.6 C195.1 254.5, 162.3 269.6, 145.5 275 C140.8 276.5, 130.5 275, 125.5 275" stroke-width="1" stroke="#3BA272"/>
<text font-size="14" x="85.5" y="280" font-family="Arial" fill="#464646">
rose 6
</text>
<path d="M252,211 L227,211 A8 8 0 0 1 219.1,208.2 A81 81 0 0 1 240.8,155.8 A8 8 0 0 1 248.4,159.4 L266.1,177.1 A8 8 0 0 1 270.7,183.7 A40 40 0 0 0 260,209.6 A8 8 0 0 1 252,211 Z" fill="#FC8452"/>
<path fill="none" d="M225.2,180 C205.3 171.8, 165.8 153.7, 145.5 147 C140.8 145.5, 130.5 147, 125.5 147" stroke-width="1" stroke="#FC8452"/>
<text font-size="14" x="85.5" y="152" font-family="Arial" fill="#464646">
rose 7
</text>
<path d="M266.1,177.1 L258.8,169.8 A8 8 0 0 1 254.8,162.6 A66.2 66.2 0 0 1 297.7,144.8 A8 8 0 0 1 300,152.8 L300,163 A8 8 0 0 1 298.6,171 A40 40 0 0 0 272.7,181.7 A8 8 0 0 1 266.1,177.1 Z" fill="#9A60B4"/>
<path fill="none" d="M274.7,149.8 C265 126.5, 248.3 76, 236 56.5 C233.6 52.7, 221 56.5, 216 56.5" stroke-width="1" stroke="#9A60B4"/>
<text font-size="14" x="176" y="61.5" font-family="Arial" fill="#464646">
rose 8
</text>
</svg>