<svg width="600" height="400" viewBox="0 0 600 400" xmlns="http://www.w3.org/2000/svg">
<rect x="0" y="0" width="600" height="400" fill="#FFFFFF"/>
<text font-size="18" x="261.5" y="5" dy="15" font-weight="bold" dominant-baseline="middle" font-family="Roboto" fill="#464646">
Pie Chart
</text>
<text font-size="14" x="267" y="35" dy="10" dominant-baseline="middle" font-family="Roboto" fill="#464646">
Fake Data
</text>
<path d="M300,227.5 L323.3,95.5 A0 0 0 0 1 327.9,96.4 A134 134 0 0 1 425.2,275.2 A0 0 0 0 1 423.5,279.6 L300,227.5 Z" fill="#5470C6"/>
<text font-size="14" x="335" y="184.8" font-family="Roboto" fill="#464646">
rose 1: 28.6%
</text>
<path d="M300,227.5 L423.5,279.6 A0 0 0 0 1 421.6,283.8 A134 134 0 0 1 235.9,345.2 A0 0 0 0 1 231.8,342.9 L300,227.5 Z" fill="#91CC75"/>
<text font-size="14" x="284.5" y="312.3" font-family="Roboto" fill="#464646">
rose 2: 27.1%
</text>
<path d="M300,227.5 L231.8,342.9 A0 0 0 0 1 227.9,340.4 A134 134 0 0 1 174.8,179.8 A0 0 0 0 1 176.5,175.4 L300,227.5 Z" fill="#FAC858"/>
<text font-size="14" x="171.7" y="255.5" font-family="Roboto" fill="#464646">
rose 3: 22.9%
</text>
<path d="M300,227.5 L176.5,175.4 A0 0 0 0 1 178.4,171.2 A134 134 0 0 1 318.6,94.8 A0 0 0 0 1 323.3,95.5 L300,227.5 Z" fill="#EE6666"/>
<text font-size="14" x="213.8" y="149" font-family="Roboto" fill="#464646">
rose 4: 21.4%
</text>
</svg>