<svg width="600" height="400" viewBox="0 0 600 400" xmlns="http://www.w3.org/2000/svg">
<rect x="0" y="0" width="600" height="400" fill="#FFFFFF"/>
<text font-size="18" x="261.5" y="5" dy="15" font-weight="bold" dominant-baseline="middle" font-family="Roboto" fill="#464646">
Pie Chart
</text>
<text font-size="14" x="267" y="35" dy="10" dominant-baseline="middle" font-family="Roboto" fill="#464646">
Fake Data
</text>
<path d="M300,179.5 L300,101.5 A8 8 0 0 1 304.7,93.6 A134 134 0 0 1 304.7,361.4 A134 134 0 0 1 183.5,293.6 A8 8 0 0 1 188.3,285.8 L257.5,249.7 A8 8 0 0 1 265.2,247.2 A40 40 0 0 0 335.5,209 A40 40 0 0 0 301.4,187.5 A8 8 0 0 1 300,179.5 Z" fill="#5470C6"/>
<path d="M414.6,296.9 C418.9 299.5, 427.1 306, 431.7 307.3 C436.3 308.6, 446.7 307.3, 451.7 307.3" stroke-width="1" fill="none" stroke="#5470C6"/>
<text font-size="14" x="454.7" y="312.3" font-family="Roboto" fill="#464646">
rose 1: 67.3%
</text>
<path d="M257.5,249.7 L188.3,285.8 A8 8 0 0 1 179.1,285.3 A134 134 0 0 1 166.9,242.8 A8 8 0 0 1 174.4,237.5 L252.2,231.3 A8 8 0 0 1 260.3,232.1 A40 40 0 0 0 263.9,244.8 A8 8 0 0 1 257.5,249.7 Z" fill="#91CC75"/>
<path d="M171.2,264.6 C166.4 266, 156.9 269.4, 152 270.1 C147.1 270.8, 137 270.1, 132 270.1" stroke-width="1" fill="none" stroke="#91CC75"/>
<text font-size="14" x="53" y="275.1" font-family="Roboto" fill="#464646">
rose 2: 6.4%
</text>
<path d="M252.2,231.3 L174.4,237.5 A8 8 0 0 1 166.1,233.5 A134 134 0 0 1 169.4,197.7 A8 8 0 0 1 178.2,195.2 L253.6,215.2 A8 8 0 0 1 261,218.6 A40 40 0 0 0 260,229.3 A8 8 0 0 1 252.2,231.3 Z" fill="#FAC858"/>
<path d="M166.5,215.5 C161.6 215, 151.6 213.9, 146.6 213.7 C141.6 213.4, 131.6 213.7, 126.6 213.7" stroke-width="1" fill="none" stroke="#FAC858"/>
<text font-size="14" x="47.6" y="218.7" font-family="Roboto" fill="#464646">
rose 3: 5.4%
</text>
<path d="M253.6,215.2 L178.2,195.2 A8 8 0 0 1 171.8,188.7 A134 134 0 0 1 185.2,158.4 A8 8 0 0 1 194.4,158.8 L259.8,201.3 A8 8 0 0 1 265.7,206.9 A40 40 0 0 0 261.7,215.9 A8 8 0 0 1 253.6,215.2 Z" fill="#EE6666"/>
<path d="M177.5,173.1 C173 171.1, 164 166, 159.2 165 C154.5 164, 144.2 165, 139.2 165" stroke-width="1" fill="none" stroke="#EE6666"/>
<text font-size="14" x="60.2" y="170" font-family="Roboto" fill="#464646">
rose 4: 5.1%
</text>
<path d="M259.8,201.3 L194.4,158.8 A8 8 0 0 1 190.3,150.6 A134 134 0 0 1 210.3,127.9 A8 8 0 0 1 219,131 L269.1,190.7 A8 8 0 0 1 273.2,197.8 A40 40 0 0 0 267.2,204.5 A8 8 0 0 1 259.8,201.3 Z" fill="#73C0DE"/>
<path d="M199.7,138.7 C195.9 135.4, 189.1 127.1, 184.7 125.4 C180.3 123.8, 169.7 125.4, 164.7 125.4" stroke-width="1" fill="none" stroke="#73C0DE"/>
<text font-size="14" x="85.7" y="130.4" font-family="Roboto" fill="#464646">
rose 5: 4.7%
</text>
<path d="M269.1,190.7 L219,131 A8 8 0 0 1 217.5,121.9 A134 134 0 0 1 240.7,107.3 A8 8 0 0 1 248.3,112.6 L280.3,183.7 A8 8 0 0 1 282.3,191.6 A40 40 0 0 0 275.4,196 A8 8 0 0 1 269.1,190.7 Z" fill="#3BA272"/>
<path d="M228.8,114 C226.1 109.8, 221.9 99.2, 218.1 97.1 C214.3 95, 203.1 97.1, 198.1 97.1" stroke-width="1" fill="none" stroke="#3BA272"/>
<text font-size="14" x="119.1" y="102.1" font-family="Roboto" fill="#464646">
rose 6: 4.4%
</text>
<path d="M280.3,183.7 L248.3,112.6 A8 8 0 0 1 249.3,103.5 A134 134 0 0 1 270.1,96.9 A8 8 0 0 1 276.2,103.8 L290.9,180.4 A8 8 0 0 1 291.1,188.5 A40 40 0 0 0 284.9,190.5 A8 8 0 0 1 280.3,183.7 Z" fill="#FC8452"/>
<path d="M259.5,99.8 C258 95, 256.8 83.1, 253.5 80.7 C250.2 78.3, 238.5 80.7, 233.5 80.7" stroke-width="1" fill="none" stroke="#FC8452"/>
<text font-size="14" x="154.5" y="85.7" font-family="Roboto" fill="#464646">
rose 7: 3.7%
</text>
<path d="M290.9,180.4 L276.2,103.8 A8 8 0 0 1 279.2,95.1 A134 134 0 0 1 295.3,93.6 A8 8 0 0 1 300,101.5 L300,179.5 A8 8 0 0 1 298.6,187.5 A40 40 0 0 0 293.8,188 A8 8 0 0 1 290.9,180.4 Z" fill="#9A60B4"/>
<path d="M287.3,94.1 C286.8 89.1, 288.1 76.7, 285.4 74.2 C282.6 71.7, 270.4 74.2, 265.4 74.2" stroke-width="1" fill="none" stroke="#9A60B4"/>
<text font-size="14" x="198.4" y="79.2" font-family="Roboto" fill="#464646">
rose 8: 3%
</text>
</svg>