<svg width="600" height="400" viewBox="0 0 600 400" xmlns="http://www.w3.org/2000/svg">
<rect x="0" y="0" width="600" height="400" fill="#FFFFFF"/>
<text font-size="18" x="227" y="5" dy="15" font-weight="bold" dominant-baseline="middle" font-family="Roboto" fill="#464646">
Nightingale Chart
</text>
<text font-size="14" x="267" y="35" dy="10" dominant-baseline="middle" font-family="Roboto" fill="#464646">
Fake Data
</text>
<path d="M300,179.5 L300,101.5 A8 8 0 0 1 304.7,93.6 A134 134 0 0 1 391.4,129.5 A8 8 0 0 1 389.1,138.4 L333.9,193.6 A8 8 0 0 1 327.3,198.2 A40 40 0 0 0 301.4,187.5 A8 8 0 0 1 300,179.5 Z" fill="#5470C6"/>
<path d="M351.3,103.7 C353.2 99.1, 355.5 87.5, 358.9 85.2 C362.4 82.9, 373.9 85.2, 378.9 85.2" stroke-width="1" fill="none" stroke="#5470C6"/>
<text font-size="14" x="381.9" y="90.2" font-family="Roboto" fill="#464646">
rose 1: 99.5%
</text>
<path d="M329.7,197.8 L327.6,199.9 A2 2 0 0 1 330,199.5 A41 41 0 0 1 341,226.1 A2 2 0 0 1 339,227.5 L342,227.5 A2 2 0 0 1 340,226.1 A40 40 0 0 0 329.3,200.2 A2 2 0 0 1 329.7,197.8 Z" fill="#91CC75"/>
<path d="M337.9,211.8 C364 201, 415.9 177.8, 442.3 168.6 C447 166.9, 457.3 168.6, 462.3 168.6" stroke-width="1" fill="none" stroke="#91CC75"/>
<text font-size="14" x="465.3" y="173.6" font-family="Roboto" fill="#464646">
rose 2: 0.1%
</text>
<path d="M342,227.5 L339,227.5 A2 2 0 0 1 341,228.9 A41 41 0 0 1 330,255.5 A2 2 0 0 1 327.6,255.1 L329.7,257.2 A2 2 0 0 1 329.3,254.8 A40 40 0 0 0 340,228.9 A2 2 0 0 1 342,227.5 Z" fill="#FAC858"/>
<path d="M337.9,243.2 C364 254, 415.9 277.2, 442.3 286.4 C447 288.1, 457.3 286.4, 462.3 286.4" stroke-width="1" fill="none" stroke="#FAC858"/>
<text font-size="14" x="465.3" y="291.4" font-family="Roboto" fill="#464646">
rose 3: 0.1%
</text>
<path d="M329.7,257.2 L327.6,255.1 A2 2 0 0 1 328,257.5 A41 41 0 0 1 301.4,268.5 A2 2 0 0 1 300,266.5 L300,269.5 A2 2 0 0 1 301.4,267.5 A40 40 0 0 0 327.3,256.8 A2 2 0 0 1 329.7,257.2 Z" fill="#EE6666"/>
<path d="M315.7,265.4 C326.5 291.5, 345.5 347.6, 358.9 369.8 C361.3 373.7, 373.9 369.8, 378.9 369.8" stroke-width="1" fill="none" stroke="#EE6666"/>
<text font-size="14" x="381.9" y="374.8" font-family="Roboto" fill="#464646">
rose 4: 0.1%
</text>
<path d="M300,269.5 L300,266.5 A2 2 0 0 1 298.6,268.5 A41 41 0 0 1 272,257.5 A2 2 0 0 1 272.4,255.1 L270.3,257.2 A2 2 0 0 1 272.7,256.8 A40 40 0 0 0 298.6,267.5 A2 2 0 0 1 300,269.5 Z" fill="#73C0DE"/>
<path d="M284.3,265.4 C273.5 291.5, 254.5 347.6, 241.1 369.8 C238.7 373.7, 226.1 369.8, 221.1 369.8" stroke-width="1" fill="none" stroke="#73C0DE"/>
<text font-size="14" x="142.1" y="374.8" font-family="Roboto" fill="#464646">
rose 5: 0.1%
</text>
<path d="M270.3,257.2 L272.4,255.1 A2 2 0 0 1 270,255.5 A41 41 0 0 1 259,228.9 A2 2 0 0 1 261,227.5 L258,227.5 A2 2 0 0 1 260,228.9 A40 40 0 0 0 270.7,254.8 A2 2 0 0 1 270.3,257.2 Z" fill="#3BA272"/>
<path d="M262.1,243.2 C236 254, 184.1 277.2, 157.7 286.4 C153 288.1, 142.7 286.4, 137.7 286.4" stroke-width="1" fill="none" stroke="#3BA272"/>
<text font-size="14" x="58.7" y="291.4" font-family="Roboto" fill="#464646">
rose 6: 0.1%
</text>
<path d="M258,227.5 L261,227.5 A2 2 0 0 1 259,226.1 A41 41 0 0 1 270,199.5 A2 2 0 0 1 272.4,199.9 L270.3,197.8 A2 2 0 0 1 270.7,200.2 A40 40 0 0 0 260,226.1 A2 2 0 0 1 258,227.5 Z" fill="#FC8452"/>
<path d="M262.1,211.8 C236 201, 184.1 177.8, 157.7 168.6 C153 166.9, 142.7 168.6, 137.7 168.6" stroke-width="1" fill="none" stroke="#FC8452"/>
<text font-size="14" x="58.7" y="173.6" font-family="Roboto" fill="#464646">
rose 7: 0.1%
</text>
<path d="M270.3,197.8 L272.4,199.9 A2 2 0 0 1 272,197.5 A41 41 0 0 1 298.6,186.5 A2 2 0 0 1 300,188.5 L300,185.5 A2 2 0 0 1 298.6,187.5 A40 40 0 0 0 272.7,198.2 A2 2 0 0 1 270.3,197.8 Z" fill="#9A60B4"/>
<path d="M284.3,189.6 C273.5 163.5, 254.5 107.4, 241.1 85.2 C238.7 81.3, 226.1 85.2, 221.1 85.2" stroke-width="1" fill="none" stroke="#9A60B4"/>
<text font-size="14" x="154.1" y="90.2" font-family="Roboto" fill="#464646">
rose 8: 0%
</text>
</svg>