<svg width="400" height="300" viewBox="0 0 400 300" xmlns="http://www.w3.org/2000/svg">
<rect x="0" y="0" width="400" height="300" fill="#FFFFFF"/>
<text font-size="18" x="127" y="5" dy="15" font-weight="bold" dominant-baseline="middle" font-family="Roboto" fill="#464646">
Nightingale Chart
</text>
<text font-size="14" x="167" y="35" dy="10" dominant-baseline="middle" font-family="Roboto" fill="#464646">
Fake Data
</text>
<path d="M200,129.5 L200,91.5 A8 8 0 0 1 203.3,83.6 A94 94 0 0 1 264.1,108.8 A8 8 0 0 1 260.8,116.7 L233.9,143.6 A8 8 0 0 1 227.3,148.2 A40 40 0 0 0 201.4,137.5 A8 8 0 0 1 200,129.5 Z" fill="#5470C6"/>
<path d="M236,90.7 C237.9 86, 240.2 74.5, 243.6 72.2 C247.1 69.9, 258.6 72.2, 263.6 72.2" stroke-width="1" fill="none" stroke="#5470C6"/>
<text font-size="14" x="266.6" y="77.2" font-family="Roboto" fill="#464646">
rose 1: 17.1%
</text>
<path d="M233.9,143.6 L258.9,118.6 A8 8 0 0 1 266.8,115.2 A91.3 91.3 0 0 1 291.2,174.3 A8 8 0 0 1 283.3,177.5 L248,177.5 A8 8 0 0 1 240,176.1 A40 40 0 0 0 229.3,150.2 A8 8 0 0 1 233.9,143.6 Z" fill="#91CC75"/>
<path d="M284.4,142.6 C289.6 140.4, 299.9 135, 305.3 133.9 C310.1 132.9, 320.3 133.9, 325.3 133.9" stroke-width="1" fill="none" stroke="#91CC75"/>
<text font-size="14" x="328.3" y="138.9" font-family="Roboto" fill="#464646">
rose 2: 16.2%
</text>
<path d="M248,177.5 L275.2,177.5 A8 8 0 0 1 283.1,180.4 A83.2 83.2 0 0 1 260.8,234.2 A8 8 0 0 1 253.2,230.7 L233.9,211.4 A8 8 0 0 1 229.3,204.8 A40 40 0 0 0 240,178.9 A8 8 0 0 1 248,177.5 Z" fill="#FAC858"/>
<path d="M276.9,209.3 C284 212.3, 298 219.3, 305.3 221.1 C310.1 222.3, 320.3 221.1, 325.3 221.1" stroke-width="1" fill="none" stroke="#FAC858"/>
<text font-size="14" x="328.3" y="226.1" font-family="Roboto" fill="#464646">
rose 3: 13.7%
</text>
<path d="M233.9,211.4 L251.3,228.8 A8 8 0 0 1 254.9,236.4 A80.5 80.5 0 0 1 202.8,258 A8 8 0 0 1 200,250 L200,225.5 A8 8 0 0 1 201.4,217.5 A40 40 0 0 0 227.3,206.8 A8 8 0 0 1 233.9,211.4 Z" fill="#EE6666"/>
<path d="M230.8,251.9 C234 259.6, 238.5 278, 243.6 282.8 C246.7 285.7, 258.6 282.8, 263.6 282.8" stroke-width="1" fill="none" stroke="#EE6666"/>
<text font-size="14" x="266.6" y="287.8" font-family="Roboto" fill="#464646">
rose 4: 12.8%
</text>
<path d="M200,225.5 L200,247.3 A8 8 0 0 1 197.3,255.3 A77.8 77.8 0 0 1 146.9,234.4 A8 8 0 0 1 150.6,226.9 L166.1,211.4 A8 8 0 0 1 172.7,206.8 A40 40 0 0 0 198.6,217.5 A8 8 0 0 1 200,225.5 Z" fill="#73C0DE"/>
<path d="M170.2,249.4 C166.8 257.7, 161.8 277.4, 156.4 282.8 C153.4 285.8, 141.4 282.8, 136.4 282.8" stroke-width="1" fill="none" stroke="#73C0DE"/>
<text font-size="14" x="61.4" y="287.8" font-family="Roboto" fill="#464646">
rose 5: 12%
</text>
<path d="M166.1,211.4 L152.6,224.9 A8 8 0 0 1 145.1,228.7 A75.1 75.1 0 0 1 124.9,180.1 A8 8 0 0 1 132.9,177.5 L152,177.5 A8 8 0 0 1 160,178.9 A40 40 0 0 0 170.7,204.8 A8 8 0 0 1 166.1,211.4 Z" fill="#3BA272"/>
<path d="M130.6,206.2 C121.6 210, 103.9 218.7, 94.7 221.1 C89.9 222.4, 79.7 221.1, 74.7 221.1" stroke-width="1" fill="none" stroke="#3BA272"/>
<text font-size="14" x="-12.3" y="226.1" font-family="Roboto" fill="#464646">
rose 6: 11.1%
</text>
<path d="M152,177.5 L138.3,177.5 A8 8 0 0 1 130.3,175.1 A69.7 69.7 0 0 1 149,130 A8 8 0 0 1 156.4,133.9 L166.1,143.6 A8 8 0 0 1 170.7,150.2 A40 40 0 0 0 160,176.1 A8 8 0 0 1 152,177.5 Z" fill="#FC8452"/>
<path d="M135.6,150.8 C125.4 146.6, 105.2 136.8, 94.7 133.9 C89.9 132.6, 79.7 133.9, 74.7 133.9" stroke-width="1" fill="none" stroke="#FC8452"/>
<text font-size="14" x="-4.3" y="138.9" font-family="Roboto" fill="#464646">
rose 7: 9.4%
</text>
<path d="M166.1,143.6 L160.2,137.7 A8 8 0 0 1 156.1,130.5 A64.3 64.3 0 0 1 197.8,113.2 A8 8 0 0 1 200,121.2 L200,129.5 A8 8 0 0 1 198.6,137.5 A40 40 0 0 0 172.7,148.2 A8 8 0 0 1 166.1,143.6 Z" fill="#9A60B4"/>
<path d="M175.4,118.1 C170.6 106.6, 163.3 80.4, 156.4 72.2 C153.6 68.9, 141.4 72.2, 136.4 72.2" stroke-width="1" fill="none" stroke="#9A60B4"/>
<text font-size="14" x="57.4" y="77.2" font-family="Roboto" fill="#464646">
rose 8: 7.7%
</text>
</svg>