<svg width="400" height="300" viewBox="0 0 400 300" xmlns="http://www.w3.org/2000/svg">
<rect x="0" y="0" width="400" height="300" fill="#FFFFFF"/>
<text font-size="18" x="127" y="5" dy="15" font-weight="bold" dominant-baseline="middle" font-family="Roboto" fill="#464646">
Nightingale Chart
</text>
<text font-size="14" x="167" y="35" dy="10" dominant-baseline="middle" font-family="Roboto" fill="#464646">
Fake Data
</text>
<path d="M200,129.5 L200,91.5 A8 8 0 0 1 203.3,83.6 A94 94 0 0 1 264.1,108.8 A8 8 0 0 1 260.8,116.7 L233.9,143.6 A8 8 0 0 1 227.3,148.2 A40 40 0 0 0 201.4,137.5 A8 8 0 0 1 200,129.5 Z" fill="#5470C6"/>
<path d="M236,90.7 C237.9 86, 240.2 74.5, 243.6 72.2 C247.1 69.9, 258.6 72.2, 263.6 72.2" stroke-width="1" fill="none" stroke="#5470C6"/>
<text font-size="14" x="266.6" y="77.2" font-family="Roboto" fill="#464646">
rose 1: 67.3%
</text>
<path d="M229.7,147.8 L230.5,147 A2 2 0 0 1 233,146.7 A45.1 45.1 0 0 1 245.1,175.9 A2 2 0 0 1 243.1,177.5 L242,177.5 A2 2 0 0 1 240,176.1 A40 40 0 0 0 229.3,150.2 A2 2 0 0 1 229.7,147.8 Z" fill="#91CC75"/>
<path d="M241.7,160.2 C257.6 153.6, 289.1 139, 305.3 133.9 C310 132.4, 320.3 133.9, 325.3 133.9" stroke-width="1" fill="none" stroke="#91CC75"/>
<text font-size="14" x="328.3" y="138.9" font-family="Roboto" fill="#464646">
rose 2: 6.4%
</text>
<path d="M242,177.5 L242.3,177.5 A2 2 0 0 1 244.3,179 A44.3 44.3 0 0 1 232.4,207.7 A2 2 0 0 1 229.9,207.4 L229.7,207.2 A2 2 0 0 1 229.3,204.8 A40 40 0 0 0 240,178.9 A2 2 0 0 1 242,177.5 Z" fill="#FAC858"/>
<path d="M240.9,194.5 C257 201.1, 288.9 215.9, 305.3 221.1 C310 222.6, 320.3 221.1, 325.3 221.1" stroke-width="1" fill="none" stroke="#FAC858"/>
<text font-size="14" x="328.3" y="226.1" font-family="Roboto" fill="#464646">
rose 3: 5.4%
</text>
<path d="M229.7,207.2 L229.7,207.2 A2 2 0 0 1 230,209.7 A44 44 0 0 1 201.5,221.5 A2 2 0 0 1 200,219.6 L200,219.5 A2 2 0 0 1 201.4,217.5 A40 40 0 0 0 227.3,206.8 A2 2 0 0 1 229.7,207.2 Z" fill="#EE6666"/>
<path d="M216.9,218.2 C223.5 234.4, 234.5 270.3, 243.6 282.8 C246.2 286.4, 258.6 282.8, 263.6 282.8" stroke-width="1" fill="none" stroke="#EE6666"/>
<text font-size="14" x="266.6" y="287.8" font-family="Roboto" fill="#464646">
rose 4: 5.1%
</text>
<path d="M200,219.5 L200,219.3 A2 2 0 0 1 198.5,221.3 A43.8 43.8 0 0 1 170.1,209.5 A2 2 0 0 1 170.5,207 L170.3,207.2 A2 2 0 0 1 172.7,206.8 A40 40 0 0 0 198.6,217.5 A2 2 0 0 1 200,219.5 Z" fill="#73C0DE"/>
<path d="M183.2,217.9 C176.5 234.2, 165.5 270.2, 156.4 282.8 C153.8 286.4, 141.4 282.8, 136.4 282.8" stroke-width="1" fill="none" stroke="#73C0DE"/>
<text font-size="14" x="57.4" y="287.8" font-family="Roboto" fill="#464646">
rose 5: 4.7%
</text>
<path d="M170.3,207.2 L170.6,206.9 A2 2 0 0 1 168.2,207.2 A43.5 43.5 0 0 1 156.5,179 A2 2 0 0 1 158.5,177.5 L158,177.5 A2 2 0 0 1 160,178.9 A40 40 0 0 0 170.7,204.8 A2 2 0 0 1 170.3,207.2 Z" fill="#3BA272"/>
<path d="M159.8,194.2 C143.5 200.9, 111.3 215.9, 94.7 221.1 C90 222.6, 79.7 221.1, 74.7 221.1" stroke-width="1" fill="none" stroke="#3BA272"/>
<text font-size="14" x="-4.3" y="226.1" font-family="Roboto" fill="#464646">
rose 6: 4.4%
</text>
<path d="M158,177.5 L159,177.5 A2 2 0 0 1 157.1,176 A43 43 0 0 1 168.6,148.2 A2 2 0 0 1 171,148.5 L170.3,147.8 A2 2 0 0 1 170.7,150.2 A40 40 0 0 0 160,176.1 A2 2 0 0 1 158,177.5 Z" fill="#FC8452"/>
<path d="M160.3,161.1 C143.9 154.3, 111.4 139.2, 94.7 133.9 C90 132.4, 79.7 133.9, 74.7 133.9" stroke-width="1" fill="none" stroke="#FC8452"/>
<text font-size="14" x="-4.3" y="138.9" font-family="Roboto" fill="#464646">
rose 7: 3.7%
</text>
<path d="M170.3,147.8 L171.4,148.9 A2 2 0 0 1 171.1,146.5 A42.4 42.4 0 0 1 198.5,135.1 A2 2 0 0 1 200,137.1 L200,135.5 A2 2 0 0 1 198.6,137.5 A40 40 0 0 0 172.7,148.2 A2 2 0 0 1 170.3,147.8 Z" fill="#9A60B4"/>
<path d="M183.8,138.3 C176.9 121.8, 165.6 85.1, 156.4 72.2 C153.8 68.6, 141.4 72.2, 136.4 72.2" stroke-width="1" fill="none" stroke="#9A60B4"/>
<text font-size="14" x="69.4" y="77.2" font-family="Roboto" fill="#464646">
rose 8: 3%
</text>
</svg>