<svg width="600" height="400" viewBox="0 0 600 400" xmlns="http://www.w3.org/2000/svg">
<rect x="0" y="0" width="600" height="400" fill="#FFFFFF"/>
<text font-size="18" x="5" y="23" font-weight="bold" font-family="Arial" fill="#464646">
World Population
</text>
<g>
<line stroke-width="2" x1="232" y1="15" x2="257" y2="15" stroke="#5470C6"/>
<circle cx="244.5" cy="15" r="5.5" stroke-width="2" stroke="#5470C6" fill="#FFFFFF"/>
<text font-size="14" x="260" y="19" font-family="Arial" fill="#464646">
2011
</text>
</g>
<g>
<line stroke-width="2" x1="295" y1="15" x2="320" y2="15" stroke="#91CC75"/>
<circle cx="307.5" cy="15" r="5.5" stroke-width="2" stroke="#91CC75" fill="#FFFFFF"/>
<text font-size="14" x="323" y="19" font-family="Arial" fill="#464646">
2012
</text>
</g>
<g>
<g stroke="#6E7079">
<line stroke-width="1" x1="73" y1="49" x2="73" y2="370"/>
<line stroke-width="1" x1="73" y1="49" x2="68" y2="49"/>
<line stroke-width="1" x1="73" y1="102.5" x2="68" y2="102.5"/>
<line stroke-width="1" x1="73" y1="156" x2="68" y2="156"/>
<line stroke-width="1" x1="73" y1="209.5" x2="68" y2="209.5"/>
<line stroke-width="1" x1="73" y1="263" x2="68" y2="263"/>
<line stroke-width="1" x1="73" y1="316.5" x2="68" y2="316.5"/>
<line stroke-width="1" x1="73" y1="370" x2="68" y2="370"/>
</g>
<text font-size="14" x="30" y="80.8" font-family="Arial" fill="#6E7079">
World
</text>
<text font-size="14" x="29" y="134.2" font-family="Arial" fill="#6E7079">
China
</text>
<text font-size="14" x="36" y="187.8" font-family="Arial" fill="#6E7079">
India
</text>
<text font-size="14" x="37" y="241.2" font-family="Arial" fill="#6E7079">
USA
</text>
<text font-size="14" x="5" y="294.8" font-family="Arial" fill="#6E7079">
Indonesia
</text>
<text font-size="14" x="31" y="348.2" font-family="Arial" fill="#6E7079">
Brazil
</text>
</g>
<g>

<text font-size="14" x="69" y="392" font-family="Arial" fill="#6E7079">
0
</text>
<text font-size="14" x="142.8" y="392" font-family="Arial" fill="#6E7079">
150k
</text>
<text font-size="14" x="228.2" y="392" font-family="Arial" fill="#6E7079">
300k
</text>
<text font-size="14" x="313.5" y="392" font-family="Arial" fill="#6E7079">
450k
</text>
<text font-size="14" x="398.8" y="392" font-family="Arial" fill="#6E7079">
600k
</text>
<text font-size="14" x="484.2" y="392" font-family="Arial" fill="#6E7079">
750k
</text>
<text font-size="14" x="569.5" y="392" font-family="Arial" fill="#6E7079">
900k
</text>
</g>
<g stroke="#E0E6F2">
<line stroke-width="1" x1="158.3" y1="49" x2="158.3" y2="370"/><line stroke-width="1" x1="243.7" y1="49" x2="243.7" y2="370"/><line stroke-width="1" x1="329" y1="49" x2="329" y2="370"/><line stroke-width="1" x1="414.3" y1="49" x2="414.3" y2="370"/><line stroke-width="1" x1="499.7" y1="49" x2="499.7" y2="370"/><line stroke-width="1" x1="585" y1="49" x2="585" y2="370"/>
</g>
<rect x="73" y="321.5" width="10.4" height="20.2" fill="#5470C6"/>
<rect x="73" y="268" width="13.4" height="20.2" fill="#5470C6"/>
<rect x="73" y="214.5" width="16.5" height="20.2" fill="#5470C6"/>
<rect x="73" y="161" width="59.7" height="20.2" fill="#5470C6"/>
<rect x="73" y="107.5" width="74.9" height="20.2" fill="#5470C6"/>
<rect x="73" y="54" width="358.5" height="20.2" fill="#5470C6"/>
<rect x="73" y="344.8" width="11" height="20.2" fill="#91CC75"/>
<rect x="73" y="291.2" width="13.3" height="20.2" fill="#91CC75"/>
<rect x="73" y="237.8" width="17.6" height="20.2" fill="#91CC75"/>
<rect x="73" y="184.2" width="69.2" height="20.2" fill="#91CC75"/>
<rect x="73" y="130.8" width="76.3" height="20.2" fill="#91CC75"/>
<rect x="73" y="77.2" width="387.9" height="20.2" fill="#91CC75"/>
<text font-size="14" x="83.4" y="331.6" dx="3" dy="5" font-family="Arial" fill="#464646">
18203
</text>
<text font-size="14" x="86.4" y="278.1" dx="3" dy="5" font-family="Arial" fill="#464646">
23489
</text>
<text font-size="14" x="89.5" y="224.6" dx="3" dy="5" font-family="Arial" fill="#464646">
29034
</text>
<text font-size="14" x="132.7" y="171.1" dx="3" dy="5" font-family="Arial" fill="#464646">
104970
</text>
<text font-size="14" x="147.9" y="117.6" dx="3" dy="5" font-family="Arial" fill="#464646">
131744
</text>
<text font-size="14" x="431.5" y="64.1" dx="3" dy="5" font-family="Arial" fill="#464646">
630230
</text>
</svg>