<svg width="600" height="400" viewBox="0 0 600 400" xmlns="http://www.w3.org/2000/svg">
<rect x="0" y="0" width="600" height="400" fill="#FFFFFF"/>
<text font-size="18" x="10" y="10" dy="15" font-weight="bold" dominant-baseline="middle" font-family="Roboto" fill="#464646">
World Population
</text>
<g>
<line stroke-width="2" x1="232.5" y1="20" x2="257.5" y2="20" stroke="#5470C6"/>
<circle cx="245" cy="20" r="5.5" stroke-width="2" stroke="#5470C6" fill="#FFFFFF"/>
<text font-size="14" x="260.5" y="24" font-family="Roboto" fill="#464646">
2011
</text>
</g>
<g>
<line stroke-width="2" x1="294.5" y1="20" x2="319.5" y2="20" stroke="#91CC75"/>
<circle cx="307" cy="20" r="5.5" stroke-width="2" stroke="#91CC75" fill="#FFFFFF"/>
<text font-size="14" x="322.5" y="24" font-family="Roboto" fill="#464646">
2012
</text>
</g>
<g>
<g stroke="#6E7079">
<line stroke-width="1" x1="78" y1="50" x2="78" y2="365"/>
<line stroke-width="1" x1="78" y1="50" x2="73" y2="50"/>
<line stroke-width="1" x1="78" y1="102.5" x2="73" y2="102.5"/>
<line stroke-width="1" x1="78" y1="155" x2="73" y2="155"/>
<line stroke-width="1" x1="78" y1="207.5" x2="73" y2="207.5"/>
<line stroke-width="1" x1="78" y1="260" x2="73" y2="260"/>
<line stroke-width="1" x1="78" y1="312.5" x2="73" y2="312.5"/>
<line stroke-width="1" x1="78" y1="365" x2="73" y2="365"/>
</g>
<text font-size="14" x="36" y="81.2" font-family="Roboto" fill="#6E7079">
World
</text>
<text font-size="14" x="36" y="133.8" font-family="Roboto" fill="#6E7079">
China
</text>
<text font-size="14" x="42" y="186.2" font-family="Roboto" fill="#6E7079">
India
</text>
<text font-size="14" x="45" y="238.8" font-family="Roboto" fill="#6E7079">
USA
</text>
<text font-size="14" x="10" y="291.2" font-family="Roboto" fill="#6E7079">
Indonesia
</text>
<text font-size="14" x="37" y="343.8" font-family="Roboto" fill="#6E7079">
Brazil
</text>
</g>
<g>

<text font-size="14" x="74" y="387" font-family="Roboto" fill="#6E7079">
0
</text>
<text font-size="14" x="145.7" y="387" font-family="Roboto" fill="#6E7079">
136k
</text>
<text font-size="14" x="229.3" y="387" font-family="Roboto" fill="#6E7079">
272k
</text>
<text font-size="14" x="313" y="387" font-family="Roboto" fill="#6E7079">
408k
</text>
<text font-size="14" x="396.7" y="387" font-family="Roboto" fill="#6E7079">
544k
</text>
<text font-size="14" x="480.3" y="387" font-family="Roboto" fill="#6E7079">
680k
</text>
<text font-size="14" x="564" y="387" font-family="Roboto" fill="#6E7079">
816k
</text>
</g>
<g stroke="#E0E6F2">
<line stroke-width="1" x1="161.7" y1="50" x2="161.7" y2="365"/><line stroke-width="1" x1="245.3" y1="50" x2="245.3" y2="365"/><line stroke-width="1" x1="329" y1="50" x2="329" y2="365"/><line stroke-width="1" x1="412.7" y1="50" x2="412.7" y2="365"/><line stroke-width="1" x1="496.3" y1="50" x2="496.3" y2="365"/><line stroke-width="1" x1="580" y1="50" x2="580" y2="365"/>
</g>
<rect x="78" y="317.5" width="11.2" height="19.8" fill="#5470C6"/>
<rect x="78" y="265" width="14.5" height="19.8" fill="#5470C6"/>
<rect x="78" y="212.5" width="17.9" height="19.8" fill="#5470C6"/>
<rect x="78" y="160" width="64.6" height="19.8" fill="#5470C6"/>
<rect x="78" y="107.5" width="81" height="19.8" fill="#5470C6"/>
<rect x="78" y="55" width="387.7" height="19.8" fill="#5470C6"/>
<rect x="78" y="340.2" width="11.9" height="19.8" fill="#91CC75"/>
<rect x="78" y="287.8" width="14.4" height="19.8" fill="#91CC75"/>
<rect x="78" y="235.2" width="19.1" height="19.8" fill="#91CC75"/>
<rect x="78" y="182.8" width="74.8" height="19.8" fill="#91CC75"/>
<rect x="78" y="130.2" width="82.5" height="19.8" fill="#91CC75"/>
<rect x="78" y="77.8" width="419.4" height="19.8" fill="#91CC75"/>
</svg>