<svg width="600" height="400" viewBox="0 0 600 400" xmlns="http://www.w3.org/2000/svg">
<rect x="0" y="0" width="600" height="400" fill="#FFFFFF"/>
<text font-size="18" x="10" y="10" dy="15" font-weight="bold" dominant-baseline="middle" font-family="Arial" fill="#464646">
World Population
</text>
<g>
<line stroke-width="2" x1="232" y1="20" x2="257" y2="20" stroke="#5470C6"/>
<circle cx="244.5" cy="20" r="5.5" stroke-width="2" stroke="#5470C6" fill="#FFFFFF"/>
<text font-size="14" x="260" y="24" font-family="Arial" fill="#464646">
2011
</text>
</g>
<g>
<line stroke-width="2" x1="295" y1="20" x2="320" y2="20" stroke="#91CC75"/>
<circle cx="307.5" cy="20" r="5.5" stroke-width="2" stroke="#91CC75" fill="#FFFFFF"/>
<text font-size="14" x="323" y="24" font-family="Arial" fill="#464646">
2012
</text>
</g>
<g>
<g stroke="#6E7079">
<line stroke-width="1" x1="78" y1="50" x2="78" y2="365"/>
<line stroke-width="1" x1="78" y1="50" x2="73" y2="50"/>
<line stroke-width="1" x1="78" y1="102.5" x2="73" y2="102.5"/>
<line stroke-width="1" x1="78" y1="155" x2="73" y2="155"/>
<line stroke-width="1" x1="78" y1="207.5" x2="73" y2="207.5"/>
<line stroke-width="1" x1="78" y1="260" x2="73" y2="260"/>
<line stroke-width="1" x1="78" y1="312.5" x2="73" y2="312.5"/>
<line stroke-width="1" x1="78" y1="365" x2="73" y2="365"/>
</g>
<text font-size="14" x="35" y="81.2" font-family="Arial" fill="#6E7079">
World
</text>
<text font-size="14" x="34" y="133.8" font-family="Arial" fill="#6E7079">
China
</text>
<text font-size="14" x="41" y="186.2" font-family="Arial" fill="#6E7079">
India
</text>
<text font-size="14" x="42" y="238.8" font-family="Arial" fill="#6E7079">
USA
</text>
<text font-size="14" x="10" y="291.2" font-family="Arial" fill="#6E7079">
Indonesia
</text>
<text font-size="14" x="36" y="343.8" font-family="Arial" fill="#6E7079">
Brazil
</text>
</g>
<g>

<text font-size="14" x="74" y="387" font-family="Arial" fill="#6E7079">
0
</text>
<text font-size="14" x="146.2" y="387" font-family="Arial" fill="#6E7079">
150k
</text>
<text font-size="14" x="229.8" y="387" font-family="Arial" fill="#6E7079">
300k
</text>
<text font-size="14" x="313.5" y="387" font-family="Arial" fill="#6E7079">
450k
</text>
<text font-size="14" x="397.2" y="387" font-family="Arial" fill="#6E7079">
600k
</text>
<text font-size="14" x="480.8" y="387" font-family="Arial" fill="#6E7079">
750k
</text>
<text font-size="14" x="564.5" y="387" font-family="Arial" fill="#6E7079">
900k
</text>
</g>
<g stroke="#E0E6F2">
<line stroke-width="1" x1="161.7" y1="50" x2="161.7" y2="365"/><line stroke-width="1" x1="245.3" y1="50" x2="245.3" y2="365"/><line stroke-width="1" x1="329" y1="50" x2="329" y2="365"/><line stroke-width="1" x1="412.7" y1="50" x2="412.7" y2="365"/><line stroke-width="1" x1="496.3" y1="50" x2="496.3" y2="365"/><line stroke-width="1" x1="580" y1="50" x2="580" y2="365"/>
</g>
<rect x="78" y="317.5" width="10.2" height="19.8" fill="#5470C6"/>
<rect x="78" y="265" width="13.1" height="19.8" fill="#5470C6"/>
<rect x="78" y="212.5" width="16.2" height="19.8" fill="#5470C6"/>
<rect x="78" y="160" width="58.5" height="19.8" fill="#5470C6"/>
<rect x="78" y="107.5" width="73.5" height="19.8" fill="#5470C6"/>
<rect x="78" y="55" width="351.5" height="19.8" fill="#5470C6"/>
<rect x="78" y="340.2" width="10.8" height="19.8" fill="#91CC75"/>
<rect x="78" y="287.8" width="13.1" height="19.8" fill="#91CC75"/>
<rect x="78" y="235.2" width="17.3" height="19.8" fill="#91CC75"/>
<rect x="78" y="182.8" width="67.8" height="19.8" fill="#91CC75"/>
<rect x="78" y="130.2" width="74.8" height="19.8" fill="#91CC75"/>
<rect x="78" y="77.8" width="380.3" height="19.8" fill="#91CC75"/>
</svg>