<svg width="630" height="410" viewBox="0 0 630 410" xmlns="http://www.w3.org/2000/svg">
<style>@keyframes line-draw{from{stroke-dashoffset:1}to{stroke-dashoffset:0}} .line-anim-0{stroke-dasharray:1;stroke-dashoffset:1;animation:line-draw 1000ms ease 0ms forwards} .line-anim-1{stroke-dasharray:1;stroke-dashoffset:1;animation:line-draw 1000ms ease 80ms forwards} .line-anim-2{stroke-dasharray:1;stroke-dashoffset:1;animation:line-draw 1000ms ease 160ms forwards} .line-anim-3{stroke-dasharray:1;stroke-dashoffset:1;animation:line-draw 1000ms ease 240ms forwards}</style>
<rect x="0" y="0" width="630" height="410" fill="#FFFFFF"/>
<text font-size="18" x="208" y="5" dy="15" font-weight="bold" dominant-baseline="middle" font-family="Roboto" fill="#464646">
Line Chart with Animation
</text>
<g>
<line stroke-width="2" x1="129" y1="15" x2="154" y2="15" stroke="#5470C6"/>
<circle cx="141.5" cy="15" r="5.5" stroke-width="2" stroke="#5470C6" fill="#FFFFFF"/>
<text font-size="14" x="157" y="19" font-family="Roboto" fill="#464646">
Email
</text>
</g>
<g>
<line stroke-width="2" x1="198" y1="15" x2="223" y2="15" stroke="#91CC75"/>
<circle cx="210.5" cy="15" r="5.5" stroke-width="2" stroke="#91CC75" fill="#FFFFFF"/>
<text font-size="14" x="226" y="19" font-family="Roboto" fill="#464646">
Union Ads
</text>
</g>
<g>
<line stroke-width="2" x1="298" y1="15" x2="323" y2="15" stroke="#FAC858"/>
<circle cx="310.5" cy="15" r="5.5" stroke-width="2" stroke="#FAC858" fill="#FFFFFF"/>
<text font-size="14" x="326" y="19" font-family="Roboto" fill="#464646">
Direct
</text>
</g>
<g>
<line stroke-width="2" x1="371" y1="15" x2="396" y2="15" stroke="#EE6666"/>
<circle cx="383.5" cy="15" r="5.5" stroke-width="2" stroke="#EE6666" fill="#FFFFFF"/>
<text font-size="14" x="399" y="19" font-family="Roboto" fill="#464646">
Search Engine
</text>
</g>
<g stroke="#E0E6F2">
<line stroke-width="1" x1="34" y1="40" x2="625" y2="40"/><line stroke-width="1" x1="34" y1="95.8" x2="625" y2="95.8"/><line stroke-width="1" x1="34" y1="151.7" x2="625" y2="151.7"/><line stroke-width="1" x1="34" y1="207.5" x2="625" y2="207.5"/><line stroke-width="1" x1="34" y1="263.3" x2="625" y2="263.3"/><line stroke-width="1" x1="34" y1="319.2" x2="625" y2="319.2"/>
</g>
<g>

<text font-size="14" x="2" y="45" font-family="Roboto" fill="#6E7079">
420
</text>
<text font-size="14" x="2" y="100.8" font-family="Roboto" fill="#6E7079">
350
</text>
<text font-size="14" x="2" y="156.7" font-family="Roboto" fill="#6E7079">
280
</text>
<text font-size="14" x="2" y="212.5" font-family="Roboto" fill="#6E7079">
210
</text>
<text font-size="14" x="2" y="268.3" font-family="Roboto" fill="#6E7079">
140
</text>
<text font-size="14" x="10" y="324.2" font-family="Roboto" fill="#6E7079">
70
</text>
<text font-size="14" x="18" y="380" font-family="Roboto" fill="#6E7079">
0
</text>
</g>
<g>
<g stroke="#6E7079">
<line stroke-width="1" x1="34" y1="375" x2="625" y2="375"/>
<line stroke-width="1" x1="34" y1="375" x2="34" y2="380"/>
<line stroke-width="1" x1="118.4" y1="375" x2="118.4" y2="380"/>
<line stroke-width="1" x1="202.9" y1="375" x2="202.9" y2="380"/>
<line stroke-width="1" x1="287.3" y1="375" x2="287.3" y2="380"/>
<line stroke-width="1" x1="371.7" y1="375" x2="371.7" y2="380"/>
<line stroke-width="1" x1="456.1" y1="375" x2="456.1" y2="380"/>
<line stroke-width="1" x1="540.6" y1="375" x2="540.6" y2="380"/>
<line stroke-width="1" x1="625" y1="375" x2="625" y2="380"/>
</g>
<text font-size="14" x="62.2" y="394" font-family="Roboto" fill="#6E7079">
Mon
</text>
<text font-size="14" x="148.6" y="394" font-family="Roboto" fill="#6E7079">
Tue
</text>
<text font-size="14" x="231.1" y="394" font-family="Roboto" fill="#6E7079">
Wed
</text>
<text font-size="14" x="317.5" y="394" font-family="Roboto" fill="#6E7079">
Thu
</text>
<text font-size="14" x="405.9" y="394" font-family="Roboto" fill="#6E7079">
Fri
</text>
<text font-size="14" x="487.4" y="394" font-family="Roboto" fill="#6E7079">
Sat
</text>
<text font-size="14" x="570.8" y="394" font-family="Roboto" fill="#6E7079">
Sun
</text>
</g>
<g>
<path d="M 76.2 279.3 L 160.6 269.7 L 245.1 294.4 L 329.5 268.1 L 413.9 303.2 L 498.4 191.5 L 582.8 207.5" stroke-width="2" fill="none" stroke="#5470C6" pathLength="1" class="line-anim-0"/>
<circle cx="76.2" cy="279.3" r="2" stroke-width="2" stroke="#5470C6" fill="#FFFFFF"/>
<circle cx="160.6" cy="269.7" r="2" stroke-width="2" stroke="#5470C6" fill="#FFFFFF"/>
<circle cx="245.1" cy="294.4" r="2" stroke-width="2" stroke="#5470C6" fill="#FFFFFF"/>
<circle cx="329.5" cy="268.1" r="2" stroke-width="2" stroke="#5470C6" fill="#FFFFFF"/>
<circle cx="413.9" cy="303.2" r="2" stroke-width="2" stroke="#5470C6" fill="#FFFFFF"/>
<circle cx="498.4" cy="191.5" r="2" stroke-width="2" stroke="#5470C6" fill="#FFFFFF"/>
<circle cx="582.8" cy="207.5" r="2" stroke-width="2" stroke="#5470C6" fill="#FFFFFF"/>
</g>
<g>
<path d="M 76.2 199.5 L 160.6 229.8 L 245.1 222.7 L 329.5 188.4 L 413.9 143.7 L 498.4 111.8 L 582.8 127.7" stroke-width="2" fill="none" stroke="#91CC75" pathLength="1" class="line-anim-1"/>
<circle cx="76.2" cy="199.5" r="2" stroke-width="2" stroke="#91CC75" fill="#FFFFFF"/>
<circle cx="160.6" cy="229.8" r="2" stroke-width="2" stroke="#91CC75" fill="#FFFFFF"/>
<circle cx="245.1" cy="222.7" r="2" stroke-width="2" stroke="#91CC75" fill="#FFFFFF"/>
<circle cx="329.5" cy="188.4" r="2" stroke-width="2" stroke="#91CC75" fill="#FFFFFF"/>
<circle cx="413.9" cy="143.7" r="2" stroke-width="2" stroke="#91CC75" fill="#FFFFFF"/>
<circle cx="498.4" cy="111.8" r="2" stroke-width="2" stroke="#91CC75" fill="#FFFFFF"/>
<circle cx="582.8" cy="127.7" r="2" stroke-width="2" stroke="#91CC75" fill="#FFFFFF"/>
</g>
<g>
<path d="M 76.2 255.4 L 160.6 190 L 245.1 214.7 L 329.5 252.2 L 413.9 223.5 L 498.4 111.8 L 582.8 48" stroke-width="2" fill="none" stroke="#FAC858" pathLength="1" class="line-anim-2"/>
<circle cx="76.2" cy="255.4" r="2" stroke-width="2" stroke="#FAC858" fill="#FFFFFF"/>
<circle cx="160.6" cy="190" r="2" stroke-width="2" stroke="#FAC858" fill="#FFFFFF"/>
<circle cx="245.1" cy="214.7" r="2" stroke-width="2" stroke="#FAC858" fill="#FFFFFF"/>
<circle cx="329.5" cy="252.2" r="2" stroke-width="2" stroke="#FAC858" fill="#FFFFFF"/>
<circle cx="413.9" cy="223.5" r="2" stroke-width="2" stroke="#FAC858" fill="#FFFFFF"/>
<circle cx="498.4" cy="111.8" r="2" stroke-width="2" stroke="#FAC858" fill="#FFFFFF"/>
<circle cx="582.8" cy="48" r="2" stroke-width="2" stroke="#FAC858" fill="#FFFFFF"/>
</g>
<g>
<path d="M 76.2 119.8 L 160.6 110.2 L 245.1 134.9 L 329.5 108.6 L 413.9 63.9 L 498.4 111.8 L 582.8 119.8" stroke-width="2" fill="none" stroke="#EE6666" pathLength="1" class="line-anim-3"/>
<circle cx="76.2" cy="119.8" r="2" stroke-width="2" stroke="#EE6666" fill="#FFFFFF"/>
<circle cx="160.6" cy="110.2" r="2" stroke-width="2" stroke="#EE6666" fill="#FFFFFF"/>
<circle cx="245.1" cy="134.9" r="2" stroke-width="2" stroke="#EE6666" fill="#FFFFFF"/>
<circle cx="329.5" cy="108.6" r="2" stroke-width="2" stroke="#EE6666" fill="#FFFFFF"/>
<circle cx="413.9" cy="63.9" r="2" stroke-width="2" stroke="#EE6666" fill="#FFFFFF"/>
<circle cx="498.4" cy="111.8" r="2" stroke-width="2" stroke="#EE6666" fill="#FFFFFF"/>
<circle cx="582.8" cy="119.8" r="2" stroke-width="2" stroke="#EE6666" fill="#FFFFFF"/>
</g>
</svg>