<svg width="600" height="400" viewBox="0 0 600 400" xmlns="http://www.w3.org/2000/svg">
<rect x="0" y="0" width="600" height="400" fill="#FFFFFF"/>
<text font-size="18" x="5" y="5" dy="15" font-weight="bold" dominant-baseline="middle" font-family="Roboto" fill="#464646">
Forecast
</text>
<g>
<line stroke-width="2" x1="431" y1="15" x2="456" y2="15" stroke="#5470C6"/>
<circle cx="443.5" cy="15" r="5.5" stroke-width="2" stroke="#5470C6" fill="#FFFFFF"/>
<text font-size="14" x="459" y="19" font-family="Roboto" fill="#464646">
Forecast
</text>
</g>
<g>
<line stroke-width="2" x1="522" y1="15" x2="547" y2="15" stroke="#91CC75"/>
<circle cx="534.5" cy="15" r="5.5" stroke-width="2" stroke="#91CC75" fill="#FFFFFF"/>
<text font-size="14" x="550" y="19" font-family="Roboto" fill="#464646">
Actual
</text>
</g>
<text font-size="14" x="324.5" y="391.5" text-anchor="middle" font-family="Roboto" fill="#6E7079">
Day
</text>
<text font-size="14" transform="translate(16.9,192.5) rotate(-90)" text-anchor="middle" font-family="Roboto" fill="#6E7079">
Demand
</text>
<g stroke="#E0E6F2" stroke-width="1">
<line x1="54" y1="40" x2="595" y2="40"/><line x1="54" y1="90.8" x2="595" y2="90.8"/><line x1="54" y1="141.7" x2="595" y2="141.7"/><line x1="54" y1="192.5" x2="595" y2="192.5"/><line x1="54" y1="243.3" x2="595" y2="243.3"/><line x1="54" y1="294.2" x2="595" y2="294.2"/>
</g>
<g>

<text font-size="14" x="22" y="45" font-family="Roboto" fill="#6E7079">
240
</text>
<text font-size="14" x="22" y="95.8" font-family="Roboto" fill="#6E7079">
200
</text>
<text font-size="14" x="22" y="146.7" font-family="Roboto" fill="#6E7079">
160
</text>
<text font-size="14" x="22" y="197.5" font-family="Roboto" fill="#6E7079">
120
</text>
<text font-size="14" x="30" y="248.3" font-family="Roboto" fill="#6E7079">
80
</text>
<text font-size="14" x="30" y="299.2" font-family="Roboto" fill="#6E7079">
40
</text>
<text font-size="14" x="38" y="350" font-family="Roboto" fill="#6E7079">
0
</text>
</g>
<g>
<g stroke="#6E7079" stroke-width="1">
<line x1="54" y1="345" x2="595" y2="345"/>
<line x1="54" y1="345" x2="54" y2="350"/>
<line x1="108.1" y1="345" x2="108.1" y2="350"/>
<line x1="162.2" y1="345" x2="162.2" y2="350"/>
<line x1="216.3" y1="345" x2="216.3" y2="350"/>
<line x1="270.4" y1="345" x2="270.4" y2="350"/>
<line x1="324.5" y1="345" x2="324.5" y2="350"/>
<line x1="378.6" y1="345" x2="378.6" y2="350"/>
<line x1="432.7" y1="345" x2="432.7" y2="350"/>
<line x1="486.8" y1="345" x2="486.8" y2="350"/>
<line x1="540.9" y1="345" x2="540.9" y2="350"/>
<line x1="595" y1="345" x2="595" y2="350"/>
</g>
<text font-size="14" x="67.1" y="364" font-family="Roboto" fill="#6E7079">
Mon
</text>
<text font-size="14" x="123.1" y="364" font-family="Roboto" fill="#6E7079">
Tue
</text>
<text font-size="14" x="175.2" y="364" font-family="Roboto" fill="#6E7079">
Wed
</text>
<text font-size="14" x="231.3" y="364" font-family="Roboto" fill="#6E7079">
Thu
</text>
<text font-size="14" x="289.5" y="364" font-family="Roboto" fill="#6E7079">
Fri
</text>
<text font-size="14" x="340.5" y="364" font-family="Roboto" fill="#6E7079">
Sat
</text>
<text font-size="14" x="393.6" y="364" font-family="Roboto" fill="#6E7079">
Sun
</text>
<text font-size="14" x="445.7" y="364" font-family="Roboto" fill="#6E7079">
Mon
</text>
<text font-size="14" x="501.8" y="364" font-family="Roboto" fill="#6E7079">
Tue
</text>
<text font-size="14" x="554" y="364" font-family="Roboto" fill="#6E7079">
Wed
</text>
</g>
<path d="M81.1,187.4 C94.6 183, 121.3 171.7, 135.1 169.6 C148.3 167.6, 176.2 173.2, 189.2 170.9 C203.2 168.4, 229.7 155.2, 243.3 150.6 C256.7 146, 284.1 138.7, 297.5 134 C311.2 129.2, 337.5 115.2, 351.5 112.4 C364.6 109.8, 392.6 115, 405.6 112.4 C419.7 109.6, 445.9 95.4, 459.7 90.8 C473 86.5, 500.5 80.9, 513.8 76.9 C527.6 72.7, 554.4 62.6, 568 57.8 L568 162 C554.4 163, 527.4 165.2, 513.8 165.8 C500.3 166.4, 473.2 165.8, 459.7 167.1 C446.1 168.4, 419.1 176.5, 405.6 176 C392 175.5, 365.1 163.4, 351.5 163.3 C338.1 163.1, 311.1 172.5, 297.5 174.7 C284 176.9, 256.7 178.7, 243.3 181.1 C229.7 183.5, 202.9 193.3, 189.2 193.8 C175.8 194.2, 148.6 184.4, 135.1 184.9 C121.5 185.4, 94.6 194.4, 81.1 197.6 Z" fill="#5470C6" fill-opacity="0.24" class="ct-band" data-series="Forecast"/>
<g>
<path d="M81.1,192.5 C94.6 188.7, 121.4 178.5, 135.1 177.2 C148.4 176, 176 183.7, 189.2 182.3 C203 180.9, 229.7 169.3, 243.3 165.8 C256.7 162.4, 284.1 157.8, 297.5 154.4 C311.1 150.8, 337.8 139.1, 351.5 137.9 C364.8 136.6, 392.3 145.3, 405.6 144.2 C419.4 143.1, 446 131.9, 459.7 129 C473.1 126.1, 500.4 123.7, 513.8 121.3 C527.5 118.9, 554.4 112.8, 568 109.9" stroke-width="2" fill="none" stroke="#5470C6"/>
<g stroke-width="2" stroke="#5470C6" fill="#FFFFFF">
<circle cx="81.1" cy="192.5" r="2"/>
<circle cx="135.1" cy="177.2" r="2"/>
<circle cx="189.2" cy="182.3" r="2"/>
<circle cx="243.3" cy="165.8" r="2"/>
<circle cx="297.5" cy="154.4" r="2"/>
<circle cx="351.5" cy="137.9" r="2"/>
<circle cx="405.6" cy="144.2" r="2"/>
<circle cx="459.7" cy="129" r="2"/>
<circle cx="513.8" cy="121.3" r="2"/>
<circle cx="568" cy="109.9" r="2"/>
</g>
</g>
<g>
<path d="M81.1,195 C94.6 189.6, 121.2 175.6, 135.1 173.4 C148.2 171.4, 175.8 179, 189.2 178.5 C202.8 178, 230.2 173.3, 243.3 169.6 C257.3 165.7, 283.9 153.4, 297.5 148" stroke-width="2" fill="none" stroke="#91CC75"/>
<g stroke-width="2" stroke="#91CC75" fill="#FFFFFF">
<circle cx="81.1" cy="195" r="2"/>
<circle cx="135.1" cy="173.4" r="2"/>
<circle cx="189.2" cy="178.5" r="2"/>
<circle cx="243.3" cy="169.6" r="2"/>
<circle cx="297.5" cy="148" r="2"/>
</g>
</g>
</svg>