<svg width="600" height="400" viewBox="0 0 600 400" xmlns="http://www.w3.org/2000/svg">
<rect x="0" y="0" width="600" height="400" fill="#FFFFFF"/>
<text font-size="18" x="199" y="10" dy="15" font-weight="bold" dominant-baseline="middle" font-family="Roboto" fill="#464646">
Stacked Area Chart
</text>
<text font-size="14" x="242.5" y="40" dy="10" dominant-baseline="middle" font-family="Roboto" fill="#464646">
Hello World
</text>
<g>
<line stroke-width="2" x1="94" y1="70" x2="119" y2="70" stroke="#5470C6"/>
<circle cx="106.5" cy="70" r="5.5" stroke-width="2" stroke="#5470C6" fill="#FFFFFF"/>
<text font-size="14" x="122" y="74" font-family="Roboto" fill="#464646">
Email
</text>
</g>
<g>
<line stroke-width="2" x1="163" y1="70" x2="188" y2="70" stroke="#91CC75"/>
<circle cx="175.5" cy="70" r="5.5" stroke-width="2" stroke="#91CC75" fill="#FFFFFF"/>
<text font-size="14" x="191" y="74" font-family="Roboto" fill="#464646">
Union Ads
</text>
</g>
<g>
<line stroke-width="2" x1="263" y1="70" x2="288" y2="70" stroke="#FAC858"/>
<circle cx="275.5" cy="70" r="5.5" stroke-width="2" stroke="#FAC858" fill="#FFFFFF"/>
<text font-size="14" x="291" y="74" font-family="Roboto" fill="#464646">
Direct
</text>
</g>
<g>
<line stroke-width="2" x1="336" y1="70" x2="361" y2="70" stroke="#EE6666"/>
<circle cx="348.5" cy="70" r="5.5" stroke-width="2" stroke="#EE6666" fill="#FFFFFF"/>
<text font-size="14" x="364" y="74" font-family="Roboto" fill="#464646">
Search Engine
</text>
</g>
<g stroke="#E0E6F2">
<line stroke-width="1" x1="43" y1="92" x2="550" y2="92"/><line stroke-width="1" x1="43" y1="136.7" x2="550" y2="136.7"/><line stroke-width="1" x1="43" y1="181.3" x2="550" y2="181.3"/><line stroke-width="1" x1="43" y1="226" x2="550" y2="226"/><line stroke-width="1" x1="43" y1="270.7" x2="550" y2="270.7"/><line stroke-width="1" x1="43" y1="315.3" x2="550" y2="315.3"/>
</g>
<g>

<text font-size="14" x="7" y="97" font-family="Roboto" fill="#6E7079">
1.4k
</text>
<text font-size="14" x="7" y="141.7" font-family="Roboto" fill="#6E7079">
1.1k
</text>
<text font-size="14" x="11" y="186.3" font-family="Roboto" fill="#6E7079">
920
</text>
<text font-size="14" x="11" y="231" font-family="Roboto" fill="#6E7079">
690
</text>
<text font-size="14" x="11" y="275.7" font-family="Roboto" fill="#6E7079">
460
</text>
<text font-size="14" x="11" y="320.3" font-family="Roboto" fill="#6E7079">
230
</text>
<text font-size="14" x="27" y="365" font-family="Roboto" fill="#6E7079">
0
</text>
</g>
<g>
<g stroke="#6E7079">
<line stroke-width="1" x1="43" y1="360" x2="550" y2="360"/>
<line stroke-width="1" x1="43" y1="360" x2="43" y2="365"/>
<line stroke-width="1" x1="115.4" y1="360" x2="115.4" y2="365"/>
<line stroke-width="1" x1="187.9" y1="360" x2="187.9" y2="365"/>
<line stroke-width="1" x1="260.3" y1="360" x2="260.3" y2="365"/>
<line stroke-width="1" x1="332.7" y1="360" x2="332.7" y2="365"/>
<line stroke-width="1" x1="405.1" y1="360" x2="405.1" y2="365"/>
<line stroke-width="1" x1="477.6" y1="360" x2="477.6" y2="365"/>
<line stroke-width="1" x1="550" y1="360" x2="550" y2="365"/>
</g>
<text font-size="14" transform="translate(79,392) rotate(44)" text-anchor="middle" font-family="Roboto" fill="#6E7079">
Monday
</text>
<text font-size="14" transform="translate(151,382) rotate(44)" text-anchor="middle" font-family="Roboto" fill="#6E7079">
Tue
</text>
<text font-size="14" transform="translate(224,383) rotate(44)" text-anchor="middle" font-family="Roboto" fill="#6E7079">
Wed
</text>
<text font-size="14" transform="translate(296,382) rotate(44)" text-anchor="middle" font-family="Roboto" fill="#6E7079">
Thu
</text>
<text font-size="14" transform="translate(368,379) rotate(44)" text-anchor="middle" font-family="Roboto" fill="#6E7079">
Fri
</text>
<text font-size="14" transform="translate(441,381) rotate(44)" text-anchor="middle" font-family="Roboto" fill="#6E7079">
Sat
</text>
<text font-size="14" transform="translate(513,382) rotate(44)" text-anchor="middle" font-family="Roboto" fill="#6E7079">
Sun
</text>
</g>
<g>
<path d="M 79.2 336.7 L 151.6 334.4 L 224.1 340.4 L 296.5 334 L 368.9 342.5 L 441.4 315.3 L 513.8 319.2" stroke-width="2" fill="none" stroke="#5470C6"/>
<circle cx="79.2" cy="336.7" r="2" stroke-width="2" stroke="#5470C6" fill="#FFFFFF"/>
<circle cx="151.6" cy="334.4" r="2" stroke-width="2" stroke="#5470C6" fill="#FFFFFF"/>
<circle cx="224.1" cy="340.4" r="2" stroke-width="2" stroke="#5470C6" fill="#FFFFFF"/>
<circle cx="296.5" cy="334" r="2" stroke-width="2" stroke="#5470C6" fill="#FFFFFF"/>
<circle cx="368.9" cy="342.5" r="2" stroke-width="2" stroke="#5470C6" fill="#FFFFFF"/>
<circle cx="441.4" cy="315.3" r="2" stroke-width="2" stroke="#5470C6" fill="#FFFFFF"/>
<circle cx="513.8" cy="319.2" r="2" stroke-width="2" stroke="#5470C6" fill="#FFFFFF"/>
</g>
<g>
<path d="M 79.2 317.3 L 151.6 324.7 L 224.1 322.9 L 296.5 314.6 L 368.9 303.7 L 441.4 295.9 L 513.8 299.8" stroke-width="2" fill="none" stroke="#91CC75"/>
<circle cx="79.2" cy="317.3" r="2" stroke-width="2" stroke="#91CC75" fill="#FFFFFF"/>
<circle cx="151.6" cy="324.7" r="2" stroke-width="2" stroke="#91CC75" fill="#FFFFFF"/>
<circle cx="224.1" cy="322.9" r="2" stroke-width="2" stroke="#91CC75" fill="#FFFFFF"/>
<circle cx="296.5" cy="314.6" r="2" stroke-width="2" stroke="#91CC75" fill="#FFFFFF"/>
<circle cx="368.9" cy="303.7" r="2" stroke-width="2" stroke="#91CC75" fill="#FFFFFF"/>
<circle cx="441.4" cy="295.9" r="2" stroke-width="2" stroke="#91CC75" fill="#FFFFFF"/>
<circle cx="513.8" cy="299.8" r="2" stroke-width="2" stroke="#91CC75" fill="#FFFFFF"/>
</g>
<g>
<path d="M 79.2 297.9 L 151.6 295.5 L 224.1 301.5 L 296.5 295.1 L 368.9 284.3 L 441.4 295.9 L 513.8 297.9" stroke-width="2" fill="none" stroke="#FAC858"/>
<circle cx="79.2" cy="297.9" r="2" stroke-width="2" stroke="#FAC858" fill="#FFFFFF"/>
<circle cx="151.6" cy="295.5" r="2" stroke-width="2" stroke="#FAC858" fill="#FFFFFF"/>
<circle cx="224.1" cy="301.5" r="2" stroke-width="2" stroke="#FAC858" fill="#FFFFFF"/>
<circle cx="296.5" cy="295.1" r="2" stroke-width="2" stroke="#FAC858" fill="#FFFFFF"/>
<circle cx="368.9" cy="284.3" r="2" stroke-width="2" stroke="#FAC858" fill="#FFFFFF"/>
<circle cx="441.4" cy="295.9" r="2" stroke-width="2" stroke="#FAC858" fill="#FFFFFF"/>
<circle cx="513.8" cy="297.9" r="2" stroke-width="2" stroke="#FAC858" fill="#FFFFFF"/>
</g>
<path d="M 359.3,265.8 A 15,15 0,0,1 353.9,254.3 A 15,15 0,0,1 383.9,254.3 A 15,15 0,0,1 378.6,265.8 L 368.9,276.8 Z" fill="#FAC858"/>
<text font-size="14" x="368.9" y="248.8" dx="-11" dy="7.5" dominant-baseline="middle" font-family="Roboto" fill="#464646">
390
</text>
<path d="M 214.4,283 A 15,15 0,0,1 209.1,271.5 A 15,15 0,0,1 239.1,271.5 A 15,15 0,0,1 233.7,283 L 224.1,294 Z" fill="#FAC858"/>
<text font-size="14" x="224.1" y="266" dx="-9.5" dy="7.5" dominant-baseline="middle" font-family="Roboto" fill="#464646">
301
</text>
<g>
<path d="M 79.2 200.8 L 151.6 179 L 224.1 185 L 296.5 178.6 L 368.9 109.5 L 441.4 101.7 L 513.8 103.7" stroke-width="2" fill="none" stroke="#EE6666"/>
<circle cx="79.2" cy="200.8" r="2" stroke-width="2" stroke="#EE6666" fill="#FFFFFF"/>
<circle cx="151.6" cy="179" r="2" stroke-width="2" stroke="#EE6666" fill="#FFFFFF"/>
<circle cx="224.1" cy="185" r="2" stroke-width="2" stroke="#EE6666" fill="#FFFFFF"/>
<circle cx="296.5" cy="178.6" r="2" stroke-width="2" stroke="#EE6666" fill="#FFFFFF"/>
<circle cx="368.9" cy="109.5" r="2" stroke-width="2" stroke="#EE6666" fill="#FFFFFF"/>
<circle cx="441.4" cy="101.7" r="2" stroke-width="2" stroke="#EE6666" fill="#FFFFFF"/>
<circle cx="513.8" cy="103.7" r="2" stroke-width="2" stroke="#EE6666" fill="#FFFFFF"/>
</g>
<text font-size="14" x="79.2" y="200.8" dx="-12" dy="-8" font-family="Roboto" fill="#464646">
820
</text>
<text font-size="14" x="151.6" y="179" dx="-12" dy="-8" font-family="Roboto" fill="#464646">
932
</text>
<text font-size="14" x="224.1" y="185" dx="-10.5" dy="-8" font-family="Roboto" fill="#464646">
901
</text>
<text font-size="14" x="296.5" y="178.6" dx="-12" dy="-8" font-family="Roboto" fill="#464646">
934
</text>
<text font-size="14" x="368.9" y="109.5" dx="-16" dy="-8" font-family="Roboto" fill="#464646">
1290
</text>
<text font-size="14" x="441.4" y="101.7" dx="-16" dy="-8" font-family="Roboto" fill="#464646">
1330
</text>
<text font-size="14" x="513.8" y="103.7" dx="-16" dy="-8" font-family="Roboto" fill="#464646">
1320
</text>
<circle cx="46" cy="151.2" r="3.5" stroke-width="1" stroke="#EE6666" fill="#EE6666"/>
<line stroke-width="1" x1="51" y1="151.2" x2="540" y2="151.2" stroke="#EE6666" stroke-dasharray="4,2"/>
<path d="M 540 151.2 L 535 146.2 L 550 151.2 L 535 156.2 Z" stroke-width="1" fill="#EE6666" stroke="#EE6666"/>
<text font-size="14" x="552" y="142.2" dy="10" dominant-baseline="middle" font-family="Roboto" fill="#464646">
1075.3
</text>
</svg>