<svg width="600" height="400" viewBox="0 0 600 400" xmlns="http://www.w3.org/2000/svg">
<rect x="0" y="0" width="600" height="400" fill="#FFFFFF"/>
<text font-size="18" x="215.5" y="5" dy="15" font-weight="bold" dominant-baseline="middle" font-family="Arial" fill="#464646">
Stacked Area Chart
</text>
<text font-size="14" x="261.5" y="35" dy="10" dominant-baseline="middle" font-family="Arial" fill="#464646">
Hello World
</text>
<g>
<line stroke-width="2" x1="112" y1="65" x2="137" y2="65" stroke="#5470C6"/>
<circle cx="124.5" cy="65" r="5.5" stroke-width="2" stroke="#5470C6" fill="#FFFFFF"/>
<text font-size="14" x="140" y="69" font-family="Arial" fill="#464646">
Email
</text>
</g>
<g>
<line stroke-width="2" x1="182" y1="65" x2="207" y2="65" stroke="#91CC75"/>
<circle cx="194.5" cy="65" r="5.5" stroke-width="2" stroke="#91CC75" fill="#FFFFFF"/>
<text font-size="14" x="210" y="69" font-family="Arial" fill="#464646">
Union Ads
</text>
</g>
<g>
<line stroke-width="2" x1="283" y1="65" x2="308" y2="65" stroke="#FAC858"/>
<circle cx="295.5" cy="65" r="5.5" stroke-width="2" stroke="#FAC858" fill="#FFFFFF"/>
<text font-size="14" x="311" y="69" font-family="Arial" fill="#464646">
Direct
</text>
</g>
<g>
<line stroke-width="2" x1="355" y1="65" x2="380" y2="65" stroke="#EE6666"/>
<circle cx="367.5" cy="65" r="5.5" stroke-width="2" stroke="#EE6666" fill="#FFFFFF"/>
<text font-size="14" x="383" y="69" font-family="Arial" fill="#464646">
Search Engine
</text>
</g>
<g stroke="#E0E6F2">
<line stroke-width="1" x1="37" y1="87" x2="595" y2="87"/><line stroke-width="1" x1="37" y1="133.3" x2="595" y2="133.3"/><line stroke-width="1" x1="37" y1="179.7" x2="595" y2="179.7"/><line stroke-width="1" x1="37" y1="226" x2="595" y2="226"/><line stroke-width="1" x1="37" y1="272.3" x2="595" y2="272.3"/><line stroke-width="1" x1="37" y1="318.7" x2="595" y2="318.7"/>
</g>
<g>

<text font-size="14" x="2" y="92" font-family="Arial" fill="#6E7079">
1.8k
</text>
<text font-size="14" x="2" y="138.3" font-family="Arial" fill="#6E7079">
1.5k
</text>
<text font-size="14" x="2" y="184.7" font-family="Arial" fill="#6E7079">
1.2k
</text>
<text font-size="14" x="5" y="231" font-family="Arial" fill="#6E7079">
900
</text>
<text font-size="14" x="5" y="277.3" font-family="Arial" fill="#6E7079">
600
</text>
<text font-size="14" x="5" y="323.7" font-family="Arial" fill="#6E7079">
300
</text>
<text font-size="14" x="21" y="370" font-family="Arial" fill="#6E7079">
0
</text>
</g>
<g>
<g stroke="#6E7079">
<line stroke-width="1" x1="37" y1="365" x2="595" y2="365"/>
<line stroke-width="1" x1="37" y1="365" x2="37" y2="370"/>
<line stroke-width="1" x1="116.7" y1="365" x2="116.7" y2="370"/>
<line stroke-width="1" x1="196.4" y1="365" x2="196.4" y2="370"/>
<line stroke-width="1" x1="276.1" y1="365" x2="276.1" y2="370"/>
<line stroke-width="1" x1="355.9" y1="365" x2="355.9" y2="370"/>
<line stroke-width="1" x1="435.6" y1="365" x2="435.6" y2="370"/>
<line stroke-width="1" x1="515.3" y1="365" x2="515.3" y2="370"/>
<line stroke-width="1" x1="595" y1="365" x2="595" y2="370"/>
</g>
<text font-size="14" x="63.4" y="384" font-family="Arial" fill="#6E7079">
Mon
</text>
<text font-size="14" x="144.1" y="384" font-family="Arial" fill="#6E7079">
Tue
</text>
<text font-size="14" x="221.8" y="384" font-family="Arial" fill="#6E7079">
Wed
</text>
<text font-size="14" x="304" y="384" font-family="Arial" fill="#6E7079">
Thu
</text>
<text font-size="14" x="387.2" y="384" font-family="Arial" fill="#6E7079">
Fri
</text>
<text font-size="14" x="464.4" y="384" font-family="Arial" fill="#6E7079">
Sat
</text>
<text font-size="14" x="542.6" y="384" font-family="Arial" fill="#6E7079">
Sun
</text>
</g>
<g>
<path d="M 76.9 346.5 L 156.6 344.6 L 236.3 349.4 L 316 344.3 L 395.7 351.1 L 475.4 329.5 L 555.1 332.6" stroke-width="2" fill="none" stroke="#5470C6"/>
<circle cx="76.9" cy="346.5" r="2" stroke-width="2" stroke="#5470C6" fill="#FFFFFF"/>
<circle cx="156.6" cy="344.6" r="2" stroke-width="2" stroke="#5470C6" fill="#FFFFFF"/>
<circle cx="236.3" cy="349.4" r="2" stroke-width="2" stroke="#5470C6" fill="#FFFFFF"/>
<circle cx="316" cy="344.3" r="2" stroke-width="2" stroke="#5470C6" fill="#FFFFFF"/>
<circle cx="395.7" cy="351.1" r="2" stroke-width="2" stroke="#5470C6" fill="#FFFFFF"/>
<circle cx="475.4" cy="329.5" r="2" stroke-width="2" stroke="#5470C6" fill="#FFFFFF"/>
<circle cx="555.1" cy="332.6" r="2" stroke-width="2" stroke="#5470C6" fill="#FFFFFF"/>
</g>
<g>
<path d="M 76.9 331 L 156.6 336.9 L 236.3 335.5 L 316 328.9 L 395.7 320.2 L 475.4 314 L 555.1 317.1" stroke-width="2" fill="none" stroke="#91CC75"/>
<circle cx="76.9" cy="331" r="2" stroke-width="2" stroke="#91CC75" fill="#FFFFFF"/>
<circle cx="156.6" cy="336.9" r="2" stroke-width="2" stroke="#91CC75" fill="#FFFFFF"/>
<circle cx="236.3" cy="335.5" r="2" stroke-width="2" stroke="#91CC75" fill="#FFFFFF"/>
<circle cx="316" cy="328.9" r="2" stroke-width="2" stroke="#91CC75" fill="#FFFFFF"/>
<circle cx="395.7" cy="320.2" r="2" stroke-width="2" stroke="#91CC75" fill="#FFFFFF"/>
<circle cx="475.4" cy="314" r="2" stroke-width="2" stroke="#91CC75" fill="#FFFFFF"/>
<circle cx="555.1" cy="317.1" r="2" stroke-width="2" stroke="#91CC75" fill="#FFFFFF"/>
</g>
<g>
<path d="M 76.9 315.6 L 156.6 313.7 L 236.3 318.5 L 316 313.4 L 395.7 304.8 L 475.4 314 L 555.1 315.6" stroke-width="2" fill="none" stroke="#FAC858"/>
<circle cx="76.9" cy="315.6" r="2" stroke-width="2" stroke="#FAC858" fill="#FFFFFF"/>
<circle cx="156.6" cy="313.7" r="2" stroke-width="2" stroke="#FAC858" fill="#FFFFFF"/>
<circle cx="236.3" cy="318.5" r="2" stroke-width="2" stroke="#FAC858" fill="#FFFFFF"/>
<circle cx="316" cy="313.4" r="2" stroke-width="2" stroke="#FAC858" fill="#FFFFFF"/>
<circle cx="395.7" cy="304.8" r="2" stroke-width="2" stroke="#FAC858" fill="#FFFFFF"/>
<circle cx="475.4" cy="314" r="2" stroke-width="2" stroke="#FAC858" fill="#FFFFFF"/>
<circle cx="555.1" cy="315.6" r="2" stroke-width="2" stroke="#FAC858" fill="#FFFFFF"/>
</g>
<g>
<path d="M 76.9 238.4 L 156.6 221.1 L 236.3 225.8 L 316 220.7 L 395.7 165.8 L 475.4 159.6 L 555.1 161.1" stroke-width="2" fill="none" stroke="#EE6666"/>
<circle cx="76.9" cy="238.4" r="2" stroke-width="2" stroke="#EE6666" fill="#FFFFFF"/>
<circle cx="156.6" cy="221.1" r="2" stroke-width="2" stroke="#EE6666" fill="#FFFFFF"/>
<circle cx="236.3" cy="225.8" r="2" stroke-width="2" stroke="#EE6666" fill="#FFFFFF"/>
<circle cx="316" cy="220.7" r="2" stroke-width="2" stroke="#EE6666" fill="#FFFFFF"/>
<circle cx="395.7" cy="165.8" r="2" stroke-width="2" stroke="#EE6666" fill="#FFFFFF"/>
<circle cx="475.4" cy="159.6" r="2" stroke-width="2" stroke="#EE6666" fill="#FFFFFF"/>
<circle cx="555.1" cy="161.1" r="2" stroke-width="2" stroke="#EE6666" fill="#FFFFFF"/>
</g>
<text font-size="14" x="76.9" y="238.4" dx="-12" dy="-8" font-family="Arial" fill="#464646">
820
</text>
<text font-size="14" x="156.6" y="221.1" dx="-12" dy="-8" font-family="Arial" fill="#464646">
932
</text>
<text font-size="14" x="236.3" y="225.8" dx="-11" dy="-8" font-family="Arial" fill="#464646">
901
</text>
<text font-size="14" x="316" y="220.7" dx="-12" dy="-8" font-family="Arial" fill="#464646">
934
</text>
<text font-size="14" x="395.7" y="165.8" dx="-16" dy="-8" font-family="Arial" fill="#464646">
1290
</text>
<text font-size="14" x="475.4" y="159.6" dx="-16" dy="-8" font-family="Arial" fill="#464646">
1330
</text>
<text font-size="14" x="555.1" y="161.1" dx="-16" dy="-8" font-family="Arial" fill="#464646">
1320
</text>
</svg>