<svg width="600" height="400" viewBox="0 0 600 400" xmlns="http://www.w3.org/2000/svg">
<rect x="0" y="0" width="600" height="400" fill="#FFFFFF"/>
<text font-size="18" x="196.5" y="5" dy="15" font-weight="bold" dominant-baseline="middle" font-family="Roboto" fill="#464646">
Stacked Area Chart
</text>
<text font-size="14" x="240" y="35" dy="10" dominant-baseline="middle" font-family="Roboto" fill="#464646">
Hello World
</text>
<g>
<line stroke-width="2" x1="91.5" y1="65" x2="116.5" y2="65" stroke="#5470C6"/>
<circle cx="104" cy="65" r="5.5" stroke-width="2" stroke="#5470C6" fill="#FFFFFF"/>
<text font-size="14" x="119.5" y="69" font-family="Roboto" fill="#464646">
Email
</text>
</g>
<g>
<line stroke-width="2" x1="160.5" y1="65" x2="185.5" y2="65" stroke="#91CC75"/>
<circle cx="173" cy="65" r="5.5" stroke-width="2" stroke="#91CC75" fill="#FFFFFF"/>
<text font-size="14" x="188.5" y="69" font-family="Roboto" fill="#464646">
Union Ads
</text>
</g>
<g>
<line stroke-width="2" x1="260.5" y1="65" x2="285.5" y2="65" stroke="#FAC858"/>
<circle cx="273" cy="65" r="5.5" stroke-width="2" stroke="#FAC858" fill="#FFFFFF"/>
<text font-size="14" x="288.5" y="69" font-family="Roboto" fill="#464646">
Direct
</text>
</g>
<g>
<line stroke-width="2" x1="333.5" y1="65" x2="358.5" y2="65" stroke="#EE6666"/>
<circle cx="346" cy="65" r="5.5" stroke-width="2" stroke="#EE6666" fill="#FFFFFF"/>
<text font-size="14" x="361.5" y="69" font-family="Roboto" fill="#464646">
Search Engine
</text>
</g>
<g stroke="#E0E6F2">
<line stroke-width="1" x1="38" y1="87" x2="550" y2="87"/><line stroke-width="1" x1="38" y1="133.3" x2="550" y2="133.3"/><line stroke-width="1" x1="38" y1="179.7" x2="550" y2="179.7"/><line stroke-width="1" x1="38" y1="226" x2="550" y2="226"/><line stroke-width="1" x1="38" y1="272.3" x2="550" y2="272.3"/><line stroke-width="1" x1="38" y1="318.7" x2="550" y2="318.7"/>
</g>
<g>

<text font-size="14" x="2" y="92" font-family="Roboto" fill="#6E7079">
1.8k
</text>
<text font-size="14" x="2" y="138.3" font-family="Roboto" fill="#6E7079">
1.5k
</text>
<text font-size="14" x="2" y="184.7" font-family="Roboto" fill="#6E7079">
1.2k
</text>
<text font-size="14" x="6" y="231" font-family="Roboto" fill="#6E7079">
900
</text>
<text font-size="14" x="6" y="277.3" font-family="Roboto" fill="#6E7079">
600
</text>
<text font-size="14" x="6" y="323.7" font-family="Roboto" fill="#6E7079">
300
</text>
<text font-size="14" x="22" y="370" font-family="Roboto" fill="#6E7079">
0
</text>
</g>
<g>
<g stroke="#6E7079">
<line stroke-width="1" x1="38" y1="365" x2="550" y2="365"/>
<line stroke-width="1" x1="38" y1="365" x2="38" y2="370"/>
<line stroke-width="1" x1="111.1" y1="365" x2="111.1" y2="370"/>
<line stroke-width="1" x1="184.3" y1="365" x2="184.3" y2="370"/>
<line stroke-width="1" x1="257.4" y1="365" x2="257.4" y2="370"/>
<line stroke-width="1" x1="330.6" y1="365" x2="330.6" y2="370"/>
<line stroke-width="1" x1="403.7" y1="365" x2="403.7" y2="370"/>
<line stroke-width="1" x1="476.9" y1="365" x2="476.9" y2="370"/>
<line stroke-width="1" x1="550" y1="365" x2="550" y2="370"/>
</g>
<text font-size="14" x="60.6" y="384" font-family="Roboto" fill="#6E7079">
Mon
</text>
<text font-size="14" x="135.7" y="384" font-family="Roboto" fill="#6E7079">
Tue
</text>
<text font-size="14" x="206.9" y="384" font-family="Roboto" fill="#6E7079">
Wed
</text>
<text font-size="14" x="282" y="384" font-family="Roboto" fill="#6E7079">
Thu
</text>
<text font-size="14" x="359.1" y="384" font-family="Roboto" fill="#6E7079">
Fri
</text>
<text font-size="14" x="429.3" y="384" font-family="Roboto" fill="#6E7079">
Sat
</text>
<text font-size="14" x="501.4" y="384" font-family="Roboto" fill="#6E7079">
Sun
</text>
</g>
<g>
<path d="M 74.6 346.5 L 147.7 344.6 L 220.9 349.4 L 294 344.3 L 367.1 351.1 L 440.3 329.5 L 513.4 332.6" stroke-width="2" fill="none" stroke="#5470C6"/>
<circle cx="74.6" cy="346.5" r="2" stroke-width="2" stroke="#5470C6" fill="#FFFFFF"/>
<circle cx="147.7" cy="344.6" r="2" stroke-width="2" stroke="#5470C6" fill="#FFFFFF"/>
<circle cx="220.9" cy="349.4" r="2" stroke-width="2" stroke="#5470C6" fill="#FFFFFF"/>
<circle cx="294" cy="344.3" r="2" stroke-width="2" stroke="#5470C6" fill="#FFFFFF"/>
<circle cx="367.1" cy="351.1" r="2" stroke-width="2" stroke="#5470C6" fill="#FFFFFF"/>
<circle cx="440.3" cy="329.5" r="2" stroke-width="2" stroke="#5470C6" fill="#FFFFFF"/>
<circle cx="513.4" cy="332.6" r="2" stroke-width="2" stroke="#5470C6" fill="#FFFFFF"/>
</g>
<g>
<path d="M 74.6 331 L 147.7 336.9 L 220.9 335.5 L 294 328.9 L 367.1 320.2 L 440.3 314 L 513.4 317.1" stroke-width="2" fill="none" stroke="#91CC75"/>
<circle cx="74.6" cy="331" r="2" stroke-width="2" stroke="#91CC75" fill="#FFFFFF"/>
<circle cx="147.7" cy="336.9" r="2" stroke-width="2" stroke="#91CC75" fill="#FFFFFF"/>
<circle cx="220.9" cy="335.5" r="2" stroke-width="2" stroke="#91CC75" fill="#FFFFFF"/>
<circle cx="294" cy="328.9" r="2" stroke-width="2" stroke="#91CC75" fill="#FFFFFF"/>
<circle cx="367.1" cy="320.2" r="2" stroke-width="2" stroke="#91CC75" fill="#FFFFFF"/>
<circle cx="440.3" cy="314" r="2" stroke-width="2" stroke="#91CC75" fill="#FFFFFF"/>
<circle cx="513.4" cy="317.1" r="2" stroke-width="2" stroke="#91CC75" fill="#FFFFFF"/>
</g>
<g>
<path d="M 74.6 315.6 L 147.7 313.7 L 220.9 318.5 L 294 313.4 L 367.1 304.8 L 440.3 314 L 513.4 315.6" stroke-width="2" fill="none" stroke="#FAC858"/>
<circle cx="74.6" cy="315.6" r="2" stroke-width="2" stroke="#FAC858" fill="#FFFFFF"/>
<circle cx="147.7" cy="313.7" r="2" stroke-width="2" stroke="#FAC858" fill="#FFFFFF"/>
<circle cx="220.9" cy="318.5" r="2" stroke-width="2" stroke="#FAC858" fill="#FFFFFF"/>
<circle cx="294" cy="313.4" r="2" stroke-width="2" stroke="#FAC858" fill="#FFFFFF"/>
<circle cx="367.1" cy="304.8" r="2" stroke-width="2" stroke="#FAC858" fill="#FFFFFF"/>
<circle cx="440.3" cy="314" r="2" stroke-width="2" stroke="#FAC858" fill="#FFFFFF"/>
<circle cx="513.4" cy="315.6" r="2" stroke-width="2" stroke="#FAC858" fill="#FFFFFF"/>
</g>
<path d="M 357.5,286.3 A 15,15 0,0,1 352.1,274.8 A 15,15 0,0,1 382.1,274.8 A 15,15 0,0,1 376.8,286.3 L 367.1,297.3 Z" fill="#FAC858"/>
<text font-size="14" x="367.1" y="267.3" dx="-12" dy="7.5" dominant-baseline="middle" font-family="Roboto" fill="#464646">
390
</text>
<path d="M 211.2,300 A 15,15 0,0,1 205.9,288.5 A 15,15 0,0,1 235.9,288.5 A 15,15 0,0,1 230.5,300 L 220.9,311 Z" fill="#FAC858"/>
<text font-size="14" x="220.9" y="281" dx="-10.5" dy="7.5" dominant-baseline="middle" font-family="Roboto" fill="#464646">
301
</text>
<g>
<path d="M 74.6 238.4 L 147.7 221.1 L 220.9 225.8 L 294 220.7 L 367.1 165.8 L 440.3 159.6 L 513.4 161.1" stroke-width="2" fill="none" stroke="#EE6666"/>
<circle cx="74.6" cy="238.4" r="2" stroke-width="2" stroke="#EE6666" fill="#FFFFFF"/>
<circle cx="147.7" cy="221.1" r="2" stroke-width="2" stroke="#EE6666" fill="#FFFFFF"/>
<circle cx="220.9" cy="225.8" r="2" stroke-width="2" stroke="#EE6666" fill="#FFFFFF"/>
<circle cx="294" cy="220.7" r="2" stroke-width="2" stroke="#EE6666" fill="#FFFFFF"/>
<circle cx="367.1" cy="165.8" r="2" stroke-width="2" stroke="#EE6666" fill="#FFFFFF"/>
<circle cx="440.3" cy="159.6" r="2" stroke-width="2" stroke="#EE6666" fill="#FFFFFF"/>
<circle cx="513.4" cy="161.1" r="2" stroke-width="2" stroke="#EE6666" fill="#FFFFFF"/>
</g>
<text font-size="14" x="74.6" y="238.4" dx="-12" dy="-8" font-family="Roboto" fill="#464646">
820
</text>
<text font-size="14" x="147.7" y="221.1" dx="-12" dy="-8" font-family="Roboto" fill="#464646">
932
</text>
<text font-size="14" x="220.9" y="225.8" dx="-10.5" dy="-8" font-family="Roboto" fill="#464646">
901
</text>
<text font-size="14" x="294" y="220.7" dx="-12" dy="-8" font-family="Roboto" fill="#464646">
934
</text>
<text font-size="14" x="367.1" y="165.8" dx="-16" dy="-8" font-family="Roboto" fill="#464646">
1290
</text>
<text font-size="14" x="440.3" y="159.6" dx="-16" dy="-8" font-family="Roboto" fill="#464646">
1330
</text>
<text font-size="14" x="513.4" y="161.1" dx="-16" dy="-8" font-family="Roboto" fill="#464646">
1320
</text>
<circle cx="41" cy="198.9" r="3.5" stroke-width="1" stroke="#EE6666" fill="#EE6666"/>
<line stroke-width="1" x1="46" y1="198.9" x2="540" y2="198.9" stroke="#EE6666" stroke-dasharray="4,2"/>
<path d="M 540 198.9 L 535 193.9 L 550 198.9 L 535 203.9 Z" stroke-width="1" fill="#EE6666" stroke="#EE6666"/>
<text font-size="14" x="552" y="189.9" dy="10" dominant-baseline="middle" font-family="Roboto" fill="#464646">
1075.3
</text>
</svg>