<svg width="600" height="400" viewBox="0 0 600 400" xmlns="http://www.w3.org/2000/svg">
<rect x="0" y="0" width="600" height="400" fill="#FFFFFF"/>
<text font-size="18" x="199" y="10" dy="15" font-weight="bold" dominant-baseline="middle" font-family="Roboto" fill="#464646">
Stacked Area Chart
</text>
<text font-size="14" x="242.5" y="40" dy="10" dominant-baseline="middle" font-family="Roboto" fill="#464646">
Hello World
</text>
<g>
<line stroke-width="2" x1="94" y1="70" x2="119" y2="70" stroke="#5470C6"/>
<circle cx="106.5" cy="70" r="5.5" stroke-width="2" stroke="#5470C6" fill="#FFFFFF"/>
<text font-size="14" x="122" y="74" font-family="Roboto" fill="#464646">
Email
</text>
</g>
<g>
<line stroke-width="2" x1="163" y1="70" x2="188" y2="70" stroke="#91CC75"/>
<circle cx="175.5" cy="70" r="5.5" stroke-width="2" stroke="#91CC75" fill="#FFFFFF"/>
<text font-size="14" x="191" y="74" font-family="Roboto" fill="#464646">
Union Ads
</text>
</g>
<g>
<line stroke-width="2" x1="263" y1="70" x2="288" y2="70" stroke="#FAC858"/>
<circle cx="275.5" cy="70" r="5.5" stroke-width="2" stroke="#FAC858" fill="#FFFFFF"/>
<text font-size="14" x="291" y="74" font-family="Roboto" fill="#464646">
Direct
</text>
</g>
<g>
<line stroke-width="2" x1="336" y1="70" x2="361" y2="70" stroke="#EE6666"/>
<circle cx="348.5" cy="70" r="5.5" stroke-width="2" stroke="#EE6666" fill="#FFFFFF"/>
<text font-size="14" x="364" y="74" font-family="Roboto" fill="#464646">
Search Engine
</text>
</g>
<g stroke="#E0E6F2">
<line stroke-width="1" x1="43" y1="92" x2="550" y2="92"/><line stroke-width="1" x1="43" y1="136.7" x2="550" y2="136.7"/><line stroke-width="1" x1="43" y1="181.3" x2="550" y2="181.3"/><line stroke-width="1" x1="43" y1="226" x2="550" y2="226"/><line stroke-width="1" x1="43" y1="270.7" x2="550" y2="270.7"/><line stroke-width="1" x1="43" y1="315.3" x2="550" y2="315.3"/>
</g>
<g>

<text font-size="14" x="7" y="97" font-family="Roboto" fill="#6E7079">
1.8k
</text>
<text font-size="14" x="7" y="141.7" font-family="Roboto" fill="#6E7079">
1.5k
</text>
<text font-size="14" x="7" y="186.3" font-family="Roboto" fill="#6E7079">
1.2k
</text>
<text font-size="14" x="11" y="231" font-family="Roboto" fill="#6E7079">
900
</text>
<text font-size="14" x="11" y="275.7" font-family="Roboto" fill="#6E7079">
600
</text>
<text font-size="14" x="11" y="320.3" font-family="Roboto" fill="#6E7079">
300
</text>
<text font-size="14" x="27" y="365" font-family="Roboto" fill="#6E7079">
0
</text>
</g>
<g>
<g stroke="#6E7079">
<line stroke-width="1" x1="43" y1="360" x2="550" y2="360"/>
<line stroke-width="1" x1="43" y1="360" x2="43" y2="365"/>
<line stroke-width="1" x1="115.4" y1="360" x2="115.4" y2="365"/>
<line stroke-width="1" x1="187.9" y1="360" x2="187.9" y2="365"/>
<line stroke-width="1" x1="260.3" y1="360" x2="260.3" y2="365"/>
<line stroke-width="1" x1="332.7" y1="360" x2="332.7" y2="365"/>
<line stroke-width="1" x1="405.1" y1="360" x2="405.1" y2="365"/>
<line stroke-width="1" x1="477.6" y1="360" x2="477.6" y2="365"/>
<line stroke-width="1" x1="550" y1="360" x2="550" y2="365"/>
</g>
<text font-size="14" x="65.2" y="379" font-family="Roboto" fill="#6E7079">
Mon
</text>
<text font-size="14" x="139.6" y="379" font-family="Roboto" fill="#6E7079">
Tue
</text>
<text font-size="14" x="210.1" y="379" font-family="Roboto" fill="#6E7079">
Wed
</text>
<text font-size="14" x="284.5" y="379" font-family="Roboto" fill="#6E7079">
Thu
</text>
<text font-size="14" x="360.9" y="379" font-family="Roboto" fill="#6E7079">
Fri
</text>
<text font-size="14" x="430.4" y="379" font-family="Roboto" fill="#6E7079">
Sat
</text>
<text font-size="14" x="501.8" y="379" font-family="Roboto" fill="#6E7079">
Sun
</text>
</g>
<g>
<path d="M 79.2 342.1 L 151.6 340.3 L 224.1 345 L 296.5 340 L 368.9 346.6 L 441.4 325.8 L 513.8 328.7" stroke-width="2" fill="none" stroke="#5470C6"/>
<circle cx="79.2" cy="342.1" r="2" stroke-width="2" stroke="#5470C6" fill="#FFFFFF"/>
<circle cx="151.6" cy="340.3" r="2" stroke-width="2" stroke="#5470C6" fill="#FFFFFF"/>
<circle cx="224.1" cy="345" r="2" stroke-width="2" stroke="#5470C6" fill="#FFFFFF"/>
<circle cx="296.5" cy="340" r="2" stroke-width="2" stroke="#5470C6" fill="#FFFFFF"/>
<circle cx="368.9" cy="346.6" r="2" stroke-width="2" stroke="#5470C6" fill="#FFFFFF"/>
<circle cx="441.4" cy="325.8" r="2" stroke-width="2" stroke="#5470C6" fill="#FFFFFF"/>
<circle cx="513.8" cy="328.7" r="2" stroke-width="2" stroke="#5470C6" fill="#FFFFFF"/>
</g>
<g>
<path d="M 79.2 327.2 L 151.6 332.9 L 224.1 331.6 L 296.5 325.2 L 368.9 316.8 L 441.4 310.9 L 513.8 313.8" stroke-width="2" fill="none" stroke="#91CC75"/>
<circle cx="79.2" cy="327.2" r="2" stroke-width="2" stroke="#91CC75" fill="#FFFFFF"/>
<circle cx="151.6" cy="332.9" r="2" stroke-width="2" stroke="#91CC75" fill="#FFFFFF"/>
<circle cx="224.1" cy="331.6" r="2" stroke-width="2" stroke="#91CC75" fill="#FFFFFF"/>
<circle cx="296.5" cy="325.2" r="2" stroke-width="2" stroke="#91CC75" fill="#FFFFFF"/>
<circle cx="368.9" cy="316.8" r="2" stroke-width="2" stroke="#91CC75" fill="#FFFFFF"/>
<circle cx="441.4" cy="310.9" r="2" stroke-width="2" stroke="#91CC75" fill="#FFFFFF"/>
<circle cx="513.8" cy="313.8" r="2" stroke-width="2" stroke="#91CC75" fill="#FFFFFF"/>
</g>
<g>
<path d="M 79.2 312.4 L 151.6 310.6 L 224.1 315.2 L 296.5 310.3 L 368.9 301.9 L 441.4 310.9 L 513.8 312.4" stroke-width="2" fill="none" stroke="#FAC858"/>
<circle cx="79.2" cy="312.4" r="2" stroke-width="2" stroke="#FAC858" fill="#FFFFFF"/>
<circle cx="151.6" cy="310.6" r="2" stroke-width="2" stroke="#FAC858" fill="#FFFFFF"/>
<circle cx="224.1" cy="315.2" r="2" stroke-width="2" stroke="#FAC858" fill="#FFFFFF"/>
<circle cx="296.5" cy="310.3" r="2" stroke-width="2" stroke="#FAC858" fill="#FFFFFF"/>
<circle cx="368.9" cy="301.9" r="2" stroke-width="2" stroke="#FAC858" fill="#FFFFFF"/>
<circle cx="441.4" cy="310.9" r="2" stroke-width="2" stroke="#FAC858" fill="#FFFFFF"/>
<circle cx="513.8" cy="312.4" r="2" stroke-width="2" stroke="#FAC858" fill="#FFFFFF"/>
</g>
<g>
<path d="M 79.2 237.9 L 151.6 221.2 L 224.1 225.9 L 296.5 220.9 L 368.9 167.9 L 441.4 162 L 513.8 163.5" stroke-width="2" fill="none" stroke="#EE6666"/>
<circle cx="79.2" cy="237.9" r="2" stroke-width="2" stroke="#EE6666" fill="#FFFFFF"/>
<circle cx="151.6" cy="221.2" r="2" stroke-width="2" stroke="#EE6666" fill="#FFFFFF"/>
<circle cx="224.1" cy="225.9" r="2" stroke-width="2" stroke="#EE6666" fill="#FFFFFF"/>
<circle cx="296.5" cy="220.9" r="2" stroke-width="2" stroke="#EE6666" fill="#FFFFFF"/>
<circle cx="368.9" cy="167.9" r="2" stroke-width="2" stroke="#EE6666" fill="#FFFFFF"/>
<circle cx="441.4" cy="162" r="2" stroke-width="2" stroke="#EE6666" fill="#FFFFFF"/>
<circle cx="513.8" cy="163.5" r="2" stroke-width="2" stroke="#EE6666" fill="#FFFFFF"/>
</g>
<text font-size="14" x="79.2" y="237.9" dx="-12" dy="-8" font-family="Roboto" fill="#464646">
820
</text>
<text font-size="14" x="151.6" y="221.2" dx="-12" dy="-8" font-family="Roboto" fill="#464646">
932
</text>
<text font-size="14" x="224.1" y="225.9" dx="-10.5" dy="-8" font-family="Roboto" fill="#464646">
901
</text>
<text font-size="14" x="296.5" y="220.9" dx="-12" dy="-8" font-family="Roboto" fill="#464646">
934
</text>
<text font-size="14" x="368.9" y="167.9" dx="-16" dy="-8" font-family="Roboto" fill="#464646">
1290
</text>
<text font-size="14" x="441.4" y="162" dx="-16" dy="-8" font-family="Roboto" fill="#464646">
1330
</text>
<text font-size="14" x="513.8" y="163.5" dx="-16" dy="-8" font-family="Roboto" fill="#464646">
1320
</text>
<circle cx="46" cy="199.9" r="3.5" stroke-width="1" stroke="#EE6666" fill="#EE6666"/>
<line stroke-width="1" x1="51" y1="199.9" x2="540" y2="199.9" stroke="#EE6666" stroke-dasharray="4,2"/>
<path d="M 540 199.9 L 535 194.9 L 550 199.9 L 535 204.9 Z" stroke-width="1" fill="#EE6666" stroke="#EE6666"/>
<text font-size="14" x="552" y="190.9" dy="10" dominant-baseline="middle" font-family="Roboto" fill="#464646">
1075.3
</text>
</svg>