<svg width="600" height="400" viewBox="0 0 600 400" xmlns="http://www.w3.org/2000/svg">
<rect x="0" y="0" width="600" height="400" fill="#FFFFFF"/>
<text font-size="18" x="215.5" y="23" font-weight="bold" font-family="Arial" fill="#464646">
Stacked Area Chart
</text>
<text font-size="14" x="261.5" y="37" font-family="Arial" fill="#464646">
Hello World
</text>
<g>
<line stroke-width="2" x1="112" y1="55" x2="137" y2="55" stroke="#5470C6"/>
<circle cx="124.5" cy="55" r="5.5" stroke-width="2" stroke="#5470C6" fill="#FFFFFF"/>
<text font-size="14" x="140" y="59" font-family="Arial" fill="#464646">
Email
</text>
</g>
<g>
<line stroke-width="2" x1="182" y1="55" x2="207" y2="55" stroke="#91CC75"/>
<circle cx="194.5" cy="55" r="5.5" stroke-width="2" stroke="#91CC75" fill="#FFFFFF"/>
<text font-size="14" x="210" y="59" font-family="Arial" fill="#464646">
Union Ads
</text>
</g>
<g>
<line stroke-width="2" x1="283" y1="55" x2="308" y2="55" stroke="#FAC858"/>
<circle cx="295.5" cy="55" r="5.5" stroke-width="2" stroke="#FAC858" fill="#FFFFFF"/>
<text font-size="14" x="311" y="59" font-family="Arial" fill="#464646">
Direct
</text>
</g>
<g>
<line stroke-width="2" x1="355" y1="55" x2="380" y2="55" stroke="#EE6666"/>
<circle cx="367.5" cy="55" r="5.5" stroke-width="2" stroke="#EE6666" fill="#FFFFFF"/>
<text font-size="14" x="383" y="59" font-family="Arial" fill="#464646">
Search Engine
</text>
</g>
<g stroke="#E0E6F2">
<line stroke-width="1" x1="37" y1="77" x2="595" y2="77"/><line stroke-width="1" x1="37" y1="125" x2="595" y2="125"/><line stroke-width="1" x1="37" y1="173" x2="595" y2="173"/><line stroke-width="1" x1="37" y1="221" x2="595" y2="221"/><line stroke-width="1" x1="37" y1="269" x2="595" y2="269"/><line stroke-width="1" x1="37" y1="317" x2="595" y2="317"/>
</g>
<g>

<text font-size="14" x="2" y="82" font-family="Arial" fill="#6E7079">
1.8k
</text>
<text font-size="14" x="2" y="130" font-family="Arial" fill="#6E7079">
1.5k
</text>
<text font-size="14" x="2" y="178" font-family="Arial" fill="#6E7079">
1.2k
</text>
<text font-size="14" x="5" y="226" font-family="Arial" fill="#6E7079">
900
</text>
<text font-size="14" x="5" y="274" font-family="Arial" fill="#6E7079">
600
</text>
<text font-size="14" x="5" y="322" font-family="Arial" fill="#6E7079">
300
</text>
<text font-size="14" x="21" y="370" font-family="Arial" fill="#6E7079">
0
</text>
</g>
<g>
<g stroke="#6E7079">
<line stroke-width="1" x1="37" y1="365" x2="595" y2="365"/>
<line stroke-width="1" x1="37" y1="365" x2="37" y2="370"/>
<line stroke-width="1" x1="116.7" y1="365" x2="116.7" y2="370"/>
<line stroke-width="1" x1="196.4" y1="365" x2="196.4" y2="370"/>
<line stroke-width="1" x1="276.1" y1="365" x2="276.1" y2="370"/>
<line stroke-width="1" x1="355.9" y1="365" x2="355.9" y2="370"/>
<line stroke-width="1" x1="435.6" y1="365" x2="435.6" y2="370"/>
<line stroke-width="1" x1="515.3" y1="365" x2="515.3" y2="370"/>
<line stroke-width="1" x1="595" y1="365" x2="595" y2="370"/>
</g>
<text font-size="14" x="63.4" y="384" font-family="Arial" fill="#6E7079">
Mon
</text>
<text font-size="14" x="144.1" y="384" font-family="Arial" fill="#6E7079">
Tue
</text>
<text font-size="14" x="221.8" y="384" font-family="Arial" fill="#6E7079">
Wed
</text>
<text font-size="14" x="304" y="384" font-family="Arial" fill="#6E7079">
Thu
</text>
<text font-size="14" x="387.2" y="384" font-family="Arial" fill="#6E7079">
Fri
</text>
<text font-size="14" x="464.4" y="384" font-family="Arial" fill="#6E7079">
Sat
</text>
<text font-size="14" x="542.6" y="384" font-family="Arial" fill="#6E7079">
Sun
</text>
</g>
<g>
<path d="M 76.9 345.8 L 156.6 343.9 L 236.3 348.8 L 316 343.6 L 395.7 350.6 L 475.4 328.2 L 555.1 331.4" stroke-width="2" fill="none" stroke="#5470C6"/>
<circle cx="76.9" cy="345.8" r="2" stroke-width="2" stroke="#5470C6" fill="#FFFFFF"/>
<circle cx="156.6" cy="343.9" r="2" stroke-width="2" stroke="#5470C6" fill="#FFFFFF"/>
<circle cx="236.3" cy="348.8" r="2" stroke-width="2" stroke="#5470C6" fill="#FFFFFF"/>
<circle cx="316" cy="343.6" r="2" stroke-width="2" stroke="#5470C6" fill="#FFFFFF"/>
<circle cx="395.7" cy="350.6" r="2" stroke-width="2" stroke="#5470C6" fill="#FFFFFF"/>
<circle cx="475.4" cy="328.2" r="2" stroke-width="2" stroke="#5470C6" fill="#FFFFFF"/>
<circle cx="555.1" cy="331.4" r="2" stroke-width="2" stroke="#5470C6" fill="#FFFFFF"/>
</g>
<g>
<path d="M 76.9 329.8 L 156.6 335.9 L 236.3 334.4 L 316 327.6 L 395.7 318.6 L 475.4 312.2 L 555.1 315.4" stroke-width="2" fill="none" stroke="#91CC75"/>
<circle cx="76.9" cy="329.8" r="2" stroke-width="2" stroke="#91CC75" fill="#FFFFFF"/>
<circle cx="156.6" cy="335.9" r="2" stroke-width="2" stroke="#91CC75" fill="#FFFFFF"/>
<circle cx="236.3" cy="334.4" r="2" stroke-width="2" stroke="#91CC75" fill="#FFFFFF"/>
<circle cx="316" cy="327.6" r="2" stroke-width="2" stroke="#91CC75" fill="#FFFFFF"/>
<circle cx="395.7" cy="318.6" r="2" stroke-width="2" stroke="#91CC75" fill="#FFFFFF"/>
<circle cx="475.4" cy="312.2" r="2" stroke-width="2" stroke="#91CC75" fill="#FFFFFF"/>
<circle cx="555.1" cy="315.4" r="2" stroke-width="2" stroke="#91CC75" fill="#FFFFFF"/>
</g>
<g>
<path d="M 76.9 313.8 L 156.6 311.9 L 236.3 316.8 L 316 311.6 L 395.7 302.6 L 475.4 312.2 L 555.1 313.8" stroke-width="2" fill="none" stroke="#FAC858"/>
<circle cx="76.9" cy="313.8" r="2" stroke-width="2" stroke="#FAC858" fill="#FFFFFF"/>
<circle cx="156.6" cy="311.9" r="2" stroke-width="2" stroke="#FAC858" fill="#FFFFFF"/>
<circle cx="236.3" cy="316.8" r="2" stroke-width="2" stroke="#FAC858" fill="#FFFFFF"/>
<circle cx="316" cy="311.6" r="2" stroke-width="2" stroke="#FAC858" fill="#FFFFFF"/>
<circle cx="395.7" cy="302.6" r="2" stroke-width="2" stroke="#FAC858" fill="#FFFFFF"/>
<circle cx="475.4" cy="312.2" r="2" stroke-width="2" stroke="#FAC858" fill="#FFFFFF"/>
<circle cx="555.1" cy="313.8" r="2" stroke-width="2" stroke="#FAC858" fill="#FFFFFF"/>
</g>
<g>
<path d="M 76.9 233.8 L 156.6 215.9 L 236.3 220.8 L 316 215.6 L 395.7 158.6 L 475.4 152.2 L 555.1 153.8" stroke-width="2" fill="none" stroke="#EE6666"/>
<circle cx="76.9" cy="233.8" r="2" stroke-width="2" stroke="#EE6666" fill="#FFFFFF"/>
<circle cx="156.6" cy="215.9" r="2" stroke-width="2" stroke="#EE6666" fill="#FFFFFF"/>
<circle cx="236.3" cy="220.8" r="2" stroke-width="2" stroke="#EE6666" fill="#FFFFFF"/>
<circle cx="316" cy="215.6" r="2" stroke-width="2" stroke="#EE6666" fill="#FFFFFF"/>
<circle cx="395.7" cy="158.6" r="2" stroke-width="2" stroke="#EE6666" fill="#FFFFFF"/>
<circle cx="475.4" cy="152.2" r="2" stroke-width="2" stroke="#EE6666" fill="#FFFFFF"/>
<circle cx="555.1" cy="153.8" r="2" stroke-width="2" stroke="#EE6666" fill="#FFFFFF"/>
</g>
<text font-size="14" x="76.9" y="233.8" dx="-12" dy="-8" font-family="Arial" fill="#464646">
820
</text>
<text font-size="14" x="156.6" y="215.9" dx="-12" dy="-8" font-family="Arial" fill="#464646">
932
</text>
<text font-size="14" x="236.3" y="220.8" dx="-11" dy="-8" font-family="Arial" fill="#464646">
901
</text>
<text font-size="14" x="316" y="215.6" dx="-12" dy="-8" font-family="Arial" fill="#464646">
934
</text>
<text font-size="14" x="395.7" y="158.6" dx="-16" dy="-8" font-family="Arial" fill="#464646">
1290
</text>
<text font-size="14" x="475.4" y="152.2" dx="-16" dy="-8" font-family="Arial" fill="#464646">
1330
</text>
<text font-size="14" x="555.1" y="153.8" dx="-16" dy="-8" font-family="Arial" fill="#464646">
1320
</text>
</svg>