<svg width="600" height="400" viewBox="0 0 600 400" xmlns="http://www.w3.org/2000/svg">
<rect x="0" y="0" width="600" height="400" fill="#FFFFFF"/>
<text font-size="18" x="215.5" y="23" font-weight="bold" font-family="Arial" fill="#464646">
Stacked Area Chart
</text>
<text font-size="14" x="261.5" y="37" font-family="Arial" fill="#464646">
Hello World
</text>
<g>
<line stroke-width="2" x1="112" y1="55" x2="137" y2="55" stroke="#5470C6"/>
<circle cx="124.5" cy="55" r="5.5" stroke-width="2" stroke="#5470C6" fill="#FFFFFF"/>
<text font-size="14" x="140" y="59" font-family="Arial" fill="#464646">
Email
</text>
</g>
<g>
<line stroke-width="2" x1="182" y1="55" x2="207" y2="55" stroke="#91CC75"/>
<circle cx="194.5" cy="55" r="5.5" stroke-width="2" stroke="#91CC75" fill="#FFFFFF"/>
<text font-size="14" x="210" y="59" font-family="Arial" fill="#464646">
Union Ads
</text>
</g>
<g>
<line stroke-width="2" x1="283" y1="55" x2="308" y2="55" stroke="#FAC858"/>
<circle cx="295.5" cy="55" r="5.5" stroke-width="2" stroke="#FAC858" fill="#FFFFFF"/>
<text font-size="14" x="311" y="59" font-family="Arial" fill="#464646">
Direct
</text>
</g>
<g>
<line stroke-width="2" x1="355" y1="55" x2="380" y2="55" stroke="#EE6666"/>
<circle cx="367.5" cy="55" r="5.5" stroke-width="2" stroke="#EE6666" fill="#FFFFFF"/>
<text font-size="14" x="383" y="59" font-family="Arial" fill="#464646">
Search Engine
</text>
</g>
<g stroke="#E0E6F2">
<line stroke-width="1" x1="42" y1="77" x2="595" y2="77"/><line stroke-width="1" x1="42" y1="125" x2="595" y2="125"/><line stroke-width="1" x1="42" y1="173" x2="595" y2="173"/><line stroke-width="1" x1="42" y1="221" x2="595" y2="221"/><line stroke-width="1" x1="42" y1="269" x2="595" y2="269"/><line stroke-width="1" x1="42" y1="317" x2="595" y2="317"/>
</g>
<g>

<text font-size="14" x="2" y="82" font-family="Arial" fill="#6E7079">
1800
</text>
<text font-size="14" x="2" y="130" font-family="Arial" fill="#6E7079">
1500
</text>
<text font-size="14" x="2" y="178" font-family="Arial" fill="#6E7079">
1200
</text>
<text font-size="14" x="10" y="226" font-family="Arial" fill="#6E7079">
900
</text>
<text font-size="14" x="10" y="274" font-family="Arial" fill="#6E7079">
600
</text>
<text font-size="14" x="10" y="322" font-family="Arial" fill="#6E7079">
300
</text>
<text font-size="14" x="26" y="370" font-family="Arial" fill="#6E7079">
0
</text>
</g>
<g>
<g stroke="#6E7079">
<line stroke-width="1" x1="42" y1="365" x2="595" y2="365"/>
<line stroke-width="1" x1="42" y1="365" x2="42" y2="370"/>
<line stroke-width="1" x1="121" y1="365" x2="121" y2="370"/>
<line stroke-width="1" x1="200" y1="365" x2="200" y2="370"/>
<line stroke-width="1" x1="279" y1="365" x2="279" y2="370"/>
<line stroke-width="1" x1="358" y1="365" x2="358" y2="370"/>
<line stroke-width="1" x1="437" y1="365" x2="437" y2="370"/>
<line stroke-width="1" x1="516" y1="365" x2="516" y2="370"/>
<line stroke-width="1" x1="595" y1="365" x2="595" y2="370"/>
</g>
<text font-size="14" x="68" y="384" font-family="Arial" fill="#6E7079">
Mon
</text>
<text font-size="14" x="148" y="384" font-family="Arial" fill="#6E7079">
Tue
</text>
<text font-size="14" x="225" y="384" font-family="Arial" fill="#6E7079">
Wed
</text>
<text font-size="14" x="306.5" y="384" font-family="Arial" fill="#6E7079">
Thu
</text>
<text font-size="14" x="389" y="384" font-family="Arial" fill="#6E7079">
Fri
</text>
<text font-size="14" x="465.5" y="384" font-family="Arial" fill="#6E7079">
Sat
</text>
<text font-size="14" x="543" y="384" font-family="Arial" fill="#6E7079">
Sun
</text>
</g>
<g>
<path fill="none" d="M 81.5 345.8 L 160.5 343.9 L 239.5 348.8 L 318.5 343.6 L 397.5 350.6 L 476.5 328.2 L 555.5 331.4" stroke-width="2" stroke="#5470C6"/>
<circle cx="81.5" cy="345.8" r="2" stroke-width="2" stroke="#5470C6" fill="#FFFFFF"/>
<circle cx="160.5" cy="343.9" r="2" stroke-width="2" stroke="#5470C6" fill="#FFFFFF"/>
<circle cx="239.5" cy="348.8" r="2" stroke-width="2" stroke="#5470C6" fill="#FFFFFF"/>
<circle cx="318.5" cy="343.6" r="2" stroke-width="2" stroke="#5470C6" fill="#FFFFFF"/>
<circle cx="397.5" cy="350.6" r="2" stroke-width="2" stroke="#5470C6" fill="#FFFFFF"/>
<circle cx="476.5" cy="328.2" r="2" stroke-width="2" stroke="#5470C6" fill="#FFFFFF"/>
<circle cx="555.5" cy="331.4" r="2" stroke-width="2" stroke="#5470C6" fill="#FFFFFF"/>
</g>
<g>
<path fill="none" d="M 81.5 329.8 L 160.5 335.9 L 239.5 334.4 L 318.5 327.6 L 397.5 318.6 L 476.5 312.2 L 555.5 315.4" stroke-width="2" stroke="#91CC75"/>
<circle cx="81.5" cy="329.8" r="2" stroke-width="2" stroke="#91CC75" fill="#FFFFFF"/>
<circle cx="160.5" cy="335.9" r="2" stroke-width="2" stroke="#91CC75" fill="#FFFFFF"/>
<circle cx="239.5" cy="334.4" r="2" stroke-width="2" stroke="#91CC75" fill="#FFFFFF"/>
<circle cx="318.5" cy="327.6" r="2" stroke-width="2" stroke="#91CC75" fill="#FFFFFF"/>
<circle cx="397.5" cy="318.6" r="2" stroke-width="2" stroke="#91CC75" fill="#FFFFFF"/>
<circle cx="476.5" cy="312.2" r="2" stroke-width="2" stroke="#91CC75" fill="#FFFFFF"/>
<circle cx="555.5" cy="315.4" r="2" stroke-width="2" stroke="#91CC75" fill="#FFFFFF"/>
</g>
<g>
<path fill="none" d="M 81.5 313.8 L 160.5 311.9 L 239.5 316.8 L 318.5 311.6 L 397.5 302.6 L 476.5 312.2 L 555.5 313.8" stroke-width="2" stroke="#FAC858"/>
<circle cx="81.5" cy="313.8" r="2" stroke-width="2" stroke="#FAC858" fill="#FFFFFF"/>
<circle cx="160.5" cy="311.9" r="2" stroke-width="2" stroke="#FAC858" fill="#FFFFFF"/>
<circle cx="239.5" cy="316.8" r="2" stroke-width="2" stroke="#FAC858" fill="#FFFFFF"/>
<circle cx="318.5" cy="311.6" r="2" stroke-width="2" stroke="#FAC858" fill="#FFFFFF"/>
<circle cx="397.5" cy="302.6" r="2" stroke-width="2" stroke="#FAC858" fill="#FFFFFF"/>
<circle cx="476.5" cy="312.2" r="2" stroke-width="2" stroke="#FAC858" fill="#FFFFFF"/>
<circle cx="555.5" cy="313.8" r="2" stroke-width="2" stroke="#FAC858" fill="#FFFFFF"/>
</g>
<g>
<path fill="none" d="M 81.5 233.8 L 160.5 215.9 L 239.5 220.8 L 318.5 215.6 L 397.5 158.6 L 476.5 152.2 L 555.5 153.8" stroke-width="2" stroke="#EE6666"/>
<circle cx="81.5" cy="233.8" r="2" stroke-width="2" stroke="#EE6666" fill="#FFFFFF"/>
<circle cx="160.5" cy="215.9" r="2" stroke-width="2" stroke="#EE6666" fill="#FFFFFF"/>
<circle cx="239.5" cy="220.8" r="2" stroke-width="2" stroke="#EE6666" fill="#FFFFFF"/>
<circle cx="318.5" cy="215.6" r="2" stroke-width="2" stroke="#EE6666" fill="#FFFFFF"/>
<circle cx="397.5" cy="158.6" r="2" stroke-width="2" stroke="#EE6666" fill="#FFFFFF"/>
<circle cx="476.5" cy="152.2" r="2" stroke-width="2" stroke="#EE6666" fill="#FFFFFF"/>
<circle cx="555.5" cy="153.8" r="2" stroke-width="2" stroke="#EE6666" fill="#FFFFFF"/>
</g>
</svg>