<svg width="600" height="400" viewBox="0 0 600 400" xmlns="http://www.w3.org/2000/svg">
<rect x="0" y="0" width="600" height="400" fill="#FFFFFF"/>
<text font-size="18" x="210.5" y="23" font-weight="bold" font-family="Arial" fill="#464646">
Stacked Area Chart
</text>
<text font-size="14" x="256.5" y="37" font-family="Arial" fill="#464646">
Hello World
</text>
<g>
<line stroke-width="2" x1="107" y1="55" x2="132" y2="55" stroke="#5470C6"/>
<circle cx="119.5" cy="55" r="5.5" stroke-width="2" stroke="#5470C6" fill="#FFFFFF"/>
<text font-size="14" x="135" y="59" font-family="Arial" fill="#464646">
Email
</text>
</g>
<g>
<line stroke-width="2" x1="177" y1="55" x2="202" y2="55" stroke="#91CC75"/>
<circle cx="189.5" cy="55" r="5.5" stroke-width="2" stroke="#91CC75" fill="#FFFFFF"/>
<text font-size="14" x="205" y="59" font-family="Arial" fill="#464646">
Union Ads
</text>
</g>
<g>
<line stroke-width="2" x1="278" y1="55" x2="303" y2="55" stroke="#FAC858"/>
<circle cx="290.5" cy="55" r="5.5" stroke-width="2" stroke="#FAC858" fill="#FFFFFF"/>
<text font-size="14" x="306" y="59" font-family="Arial" fill="#464646">
Direct
</text>
</g>
<g>
<line stroke-width="2" x1="350" y1="55" x2="375" y2="55" stroke="#EE6666"/>
<circle cx="362.5" cy="55" r="5.5" stroke-width="2" stroke="#EE6666" fill="#FFFFFF"/>
<text font-size="14" x="378" y="59" font-family="Arial" fill="#464646">
Search Engine
</text>
</g>
<g stroke="#E0E6F2">
<line stroke-width="1" x1="42" y1="77" x2="585" y2="77"/><line stroke-width="1" x1="42" y1="125" x2="585" y2="125"/><line stroke-width="1" x1="42" y1="173" x2="585" y2="173"/><line stroke-width="1" x1="42" y1="221" x2="585" y2="221"/><line stroke-width="1" x1="42" y1="269" x2="585" y2="269"/><line stroke-width="1" x1="42" y1="317" x2="585" y2="317"/>
</g>
<g>

<text font-size="14" x="2" y="82" font-family="Arial" fill="#6E7079">
1800
</text>
<text font-size="14" x="2" y="130" font-family="Arial" fill="#6E7079">
1500
</text>
<text font-size="14" x="2" y="178" font-family="Arial" fill="#6E7079">
1200
</text>
<text font-size="14" x="10" y="226" font-family="Arial" fill="#6E7079">
900
</text>
<text font-size="14" x="10" y="274" font-family="Arial" fill="#6E7079">
600
</text>
<text font-size="14" x="10" y="322" font-family="Arial" fill="#6E7079">
300
</text>
<text font-size="14" x="26" y="370" font-family="Arial" fill="#6E7079">
0
</text>
</g>
<g>
<g stroke="#6E7079">
<line stroke-width="1" x1="42" y1="365" x2="585" y2="365"/>
<line stroke-width="1" x1="42" y1="365" x2="42" y2="370"/>
<line stroke-width="1" x1="132.5" y1="365" x2="132.5" y2="370"/>
<line stroke-width="1" x1="223" y1="365" x2="223" y2="370"/>
<line stroke-width="1" x1="313.5" y1="365" x2="313.5" y2="370"/>
<line stroke-width="1" x1="404" y1="365" x2="404" y2="370"/>
<line stroke-width="1" x1="494.5" y1="365" x2="494.5" y2="370"/>
<line stroke-width="1" x1="585" y1="365" x2="585" y2="370"/>
</g>
<text font-size="14" x="28.5" y="384" font-family="Arial" fill="#6E7079">
Mon
</text>
<text font-size="14" x="120" y="384" font-family="Arial" fill="#6E7079">
Tue
</text>
<text font-size="14" x="208.5" y="384" font-family="Arial" fill="#6E7079">
Wed
</text>
<text font-size="14" x="301.5" y="384" font-family="Arial" fill="#6E7079">
Thu
</text>
<text font-size="14" x="395.5" y="384" font-family="Arial" fill="#6E7079">
Fri
</text>
<text font-size="14" x="483.5" y="384" font-family="Arial" fill="#6E7079">
Sat
</text>
<text font-size="14" x="572.5" y="384" font-family="Arial" fill="#6E7079">
Sun
</text>
</g>
<g>
<path fill="none" d="M 42 345.8 L 132.5 343.9 L 223 348.8 L 313.5 343.6 L 404 350.6 L 494.5 328.2 L 585 331.4" stroke-width="2" stroke="#5470C6"/>
<circle cx="42" cy="345.8" r="2" stroke-width="2" stroke="#5470C6" fill="#FFFFFF"/>
<circle cx="132.5" cy="343.9" r="2" stroke-width="2" stroke="#5470C6" fill="#FFFFFF"/>
<circle cx="223" cy="348.8" r="2" stroke-width="2" stroke="#5470C6" fill="#FFFFFF"/>
<circle cx="313.5" cy="343.6" r="2" stroke-width="2" stroke="#5470C6" fill="#FFFFFF"/>
<circle cx="404" cy="350.6" r="2" stroke-width="2" stroke="#5470C6" fill="#FFFFFF"/>
<circle cx="494.5" cy="328.2" r="2" stroke-width="2" stroke="#5470C6" fill="#FFFFFF"/>
<circle cx="585" cy="331.4" r="2" stroke-width="2" stroke="#5470C6" fill="#FFFFFF"/>
</g>
<g>
<path fill="none" d="M 42 329.8 L 132.5 335.9 L 223 334.4 L 313.5 327.6 L 404 318.6 L 494.5 312.2 L 585 315.4" stroke-width="2" stroke="#91CC75"/>
<circle cx="42" cy="329.8" r="2" stroke-width="2" stroke="#91CC75" fill="#FFFFFF"/>
<circle cx="132.5" cy="335.9" r="2" stroke-width="2" stroke="#91CC75" fill="#FFFFFF"/>
<circle cx="223" cy="334.4" r="2" stroke-width="2" stroke="#91CC75" fill="#FFFFFF"/>
<circle cx="313.5" cy="327.6" r="2" stroke-width="2" stroke="#91CC75" fill="#FFFFFF"/>
<circle cx="404" cy="318.6" r="2" stroke-width="2" stroke="#91CC75" fill="#FFFFFF"/>
<circle cx="494.5" cy="312.2" r="2" stroke-width="2" stroke="#91CC75" fill="#FFFFFF"/>
<circle cx="585" cy="315.4" r="2" stroke-width="2" stroke="#91CC75" fill="#FFFFFF"/>
</g>
<g>
<path fill="none" d="M 42 313.8 L 132.5 311.9 L 223 316.8 L 313.5 311.6 L 404 302.6 L 494.5 312.2 L 585 313.8" stroke-width="2" stroke="#FAC858"/>
<circle cx="42" cy="313.8" r="2" stroke-width="2" stroke="#FAC858" fill="#FFFFFF"/>
<circle cx="132.5" cy="311.9" r="2" stroke-width="2" stroke="#FAC858" fill="#FFFFFF"/>
<circle cx="223" cy="316.8" r="2" stroke-width="2" stroke="#FAC858" fill="#FFFFFF"/>
<circle cx="313.5" cy="311.6" r="2" stroke-width="2" stroke="#FAC858" fill="#FFFFFF"/>
<circle cx="404" cy="302.6" r="2" stroke-width="2" stroke="#FAC858" fill="#FFFFFF"/>
<circle cx="494.5" cy="312.2" r="2" stroke-width="2" stroke="#FAC858" fill="#FFFFFF"/>
<circle cx="585" cy="313.8" r="2" stroke-width="2" stroke="#FAC858" fill="#FFFFFF"/>
</g>
<g>
<path fill="none" d="M 42 233.8 L 132.5 215.9 L 223 220.8 L 313.5 215.6 L 404 158.6 L 494.5 152.2 L 585 153.8" stroke-width="2" stroke="#EE6666"/>
<circle cx="42" cy="233.8" r="2" stroke-width="2" stroke="#EE6666" fill="#FFFFFF"/>
<circle cx="132.5" cy="215.9" r="2" stroke-width="2" stroke="#EE6666" fill="#FFFFFF"/>
<circle cx="223" cy="220.8" r="2" stroke-width="2" stroke="#EE6666" fill="#FFFFFF"/>
<circle cx="313.5" cy="215.6" r="2" stroke-width="2" stroke="#EE6666" fill="#FFFFFF"/>
<circle cx="404" cy="158.6" r="2" stroke-width="2" stroke="#EE6666" fill="#FFFFFF"/>
<circle cx="494.5" cy="152.2" r="2" stroke-width="2" stroke="#EE6666" fill="#FFFFFF"/>
<circle cx="585" cy="153.8" r="2" stroke-width="2" stroke="#EE6666" fill="#FFFFFF"/>
</g>
</svg>