<svg width="600" height="400" viewBox="0 0 600 400" xmlns="http://www.w3.org/2000/svg">
<rect x="0" y="0" width="600" height="400" fill="#FFFFFF"/>
<text font-size="18" x="214" y="5" dy="15" font-weight="bold" dominant-baseline="middle" font-family="Roboto" fill="#464646">
Stacked Area Chart
</text>
<text font-size="14" x="257.5" y="35" dy="10" dominant-baseline="middle" font-family="Roboto" fill="#464646">
Hello World
</text>
<g>
<line stroke-width="2" x1="109" y1="65" x2="134" y2="65" stroke="#5470C6"/>
<circle cx="121.5" cy="65" r="5.5" stroke-width="2" stroke="#5470C6" fill="#FFFFFF"/>
<text font-size="14" x="137" y="69" font-family="Roboto" fill="#464646">
Email
</text>
</g>
<g>
<line stroke-width="2" x1="178" y1="65" x2="203" y2="65" stroke="#91CC75"/>
<circle cx="190.5" cy="65" r="5.5" stroke-width="2" stroke="#91CC75" fill="#FFFFFF"/>
<text font-size="14" x="206" y="69" font-family="Roboto" fill="#464646">
Union Ads
</text>
</g>
<g>
<line stroke-width="2" x1="278" y1="65" x2="303" y2="65" stroke="#FAC858"/>
<circle cx="290.5" cy="65" r="5.5" stroke-width="2" stroke="#FAC858" fill="#FFFFFF"/>
<text font-size="14" x="306" y="69" font-family="Roboto" fill="#464646">
Direct
</text>
</g>
<g>
<line stroke-width="2" x1="351" y1="65" x2="376" y2="65" stroke="#EE6666"/>
<circle cx="363.5" cy="65" r="5.5" stroke-width="2" stroke="#EE6666" fill="#FFFFFF"/>
<text font-size="14" x="379" y="69" font-family="Roboto" fill="#464646">
Search Engine
</text>
</g>
<g stroke="#E0E6F2">
<line stroke-width="1" x1="38" y1="87" x2="585" y2="87"/><line stroke-width="1" x1="38" y1="133.3" x2="585" y2="133.3"/><line stroke-width="1" x1="38" y1="179.7" x2="585" y2="179.7"/><line stroke-width="1" x1="38" y1="226" x2="585" y2="226"/><line stroke-width="1" x1="38" y1="272.3" x2="585" y2="272.3"/><line stroke-width="1" x1="38" y1="318.7" x2="585" y2="318.7"/>
</g>
<g>

<text font-size="14" x="2" y="92" font-family="Roboto" fill="#6E7079">
1.8k
</text>
<text font-size="14" x="2" y="138.3" font-family="Roboto" fill="#6E7079">
1.5k
</text>
<text font-size="14" x="2" y="184.7" font-family="Roboto" fill="#6E7079">
1.2k
</text>
<text font-size="14" x="6" y="231" font-family="Roboto" fill="#6E7079">
900
</text>
<text font-size="14" x="6" y="277.3" font-family="Roboto" fill="#6E7079">
600
</text>
<text font-size="14" x="6" y="323.7" font-family="Roboto" fill="#6E7079">
300
</text>
<text font-size="14" x="22" y="370" font-family="Roboto" fill="#6E7079">
0
</text>
</g>
<g>
<g stroke="#6E7079">
<line stroke-width="1" x1="38" y1="365" x2="585" y2="365"/>
<line stroke-width="1" x1="38" y1="365" x2="38" y2="370"/>
<line stroke-width="1" x1="129.2" y1="365" x2="129.2" y2="370"/>
<line stroke-width="1" x1="220.3" y1="365" x2="220.3" y2="370"/>
<line stroke-width="1" x1="311.5" y1="365" x2="311.5" y2="370"/>
<line stroke-width="1" x1="402.7" y1="365" x2="402.7" y2="370"/>
<line stroke-width="1" x1="493.8" y1="365" x2="493.8" y2="370"/>
<line stroke-width="1" x1="585" y1="365" x2="585" y2="370"/>
</g>
<text font-size="14" x="24" y="384" font-family="Roboto" fill="#6E7079">
Mon
</text>
<text font-size="14" x="117.2" y="384" font-family="Roboto" fill="#6E7079">
Tue
</text>
<text font-size="14" x="206.3" y="384" font-family="Roboto" fill="#6E7079">
Wed
</text>
<text font-size="14" x="299.5" y="384" font-family="Roboto" fill="#6E7079">
Thu
</text>
<text font-size="14" x="394.7" y="384" font-family="Roboto" fill="#6E7079">
Fri
</text>
<text font-size="14" x="482.8" y="384" font-family="Roboto" fill="#6E7079">
Sat
</text>
<text font-size="14" x="573" y="384" font-family="Roboto" fill="#6E7079">
Sun
</text>
</g>
<g>
<path d="M 38 346.5 L 129.2 344.6 L 220.3 349.4 L 311.5 344.3 L 402.7 351.1 L 493.8 329.5 L 585 332.6" stroke-width="2" fill="none" stroke="#5470C6"/>
<circle cx="38" cy="346.5" r="2" stroke-width="2" stroke="#5470C6" fill="#FFFFFF"/>
<circle cx="129.2" cy="344.6" r="2" stroke-width="2" stroke="#5470C6" fill="#FFFFFF"/>
<circle cx="220.3" cy="349.4" r="2" stroke-width="2" stroke="#5470C6" fill="#FFFFFF"/>
<circle cx="311.5" cy="344.3" r="2" stroke-width="2" stroke="#5470C6" fill="#FFFFFF"/>
<circle cx="402.7" cy="351.1" r="2" stroke-width="2" stroke="#5470C6" fill="#FFFFFF"/>
<circle cx="493.8" cy="329.5" r="2" stroke-width="2" stroke="#5470C6" fill="#FFFFFF"/>
<circle cx="585" cy="332.6" r="2" stroke-width="2" stroke="#5470C6" fill="#FFFFFF"/>
</g>
<g>
<path d="M 38 331 L 129.2 336.9 L 220.3 335.5 L 311.5 328.9 L 402.7 320.2 L 493.8 314 L 585 317.1" stroke-width="2" fill="none" stroke="#91CC75"/>
<circle cx="38" cy="331" r="2" stroke-width="2" stroke="#91CC75" fill="#FFFFFF"/>
<circle cx="129.2" cy="336.9" r="2" stroke-width="2" stroke="#91CC75" fill="#FFFFFF"/>
<circle cx="220.3" cy="335.5" r="2" stroke-width="2" stroke="#91CC75" fill="#FFFFFF"/>
<circle cx="311.5" cy="328.9" r="2" stroke-width="2" stroke="#91CC75" fill="#FFFFFF"/>
<circle cx="402.7" cy="320.2" r="2" stroke-width="2" stroke="#91CC75" fill="#FFFFFF"/>
<circle cx="493.8" cy="314" r="2" stroke-width="2" stroke="#91CC75" fill="#FFFFFF"/>
<circle cx="585" cy="317.1" r="2" stroke-width="2" stroke="#91CC75" fill="#FFFFFF"/>
</g>
<g>
<path d="M 38 315.6 L 129.2 313.7 L 220.3 318.5 L 311.5 313.4 L 402.7 304.8 L 493.8 314 L 585 315.6" stroke-width="2" fill="none" stroke="#FAC858"/>
<circle cx="38" cy="315.6" r="2" stroke-width="2" stroke="#FAC858" fill="#FFFFFF"/>
<circle cx="129.2" cy="313.7" r="2" stroke-width="2" stroke="#FAC858" fill="#FFFFFF"/>
<circle cx="220.3" cy="318.5" r="2" stroke-width="2" stroke="#FAC858" fill="#FFFFFF"/>
<circle cx="311.5" cy="313.4" r="2" stroke-width="2" stroke="#FAC858" fill="#FFFFFF"/>
<circle cx="402.7" cy="304.8" r="2" stroke-width="2" stroke="#FAC858" fill="#FFFFFF"/>
<circle cx="493.8" cy="314" r="2" stroke-width="2" stroke="#FAC858" fill="#FFFFFF"/>
<circle cx="585" cy="315.6" r="2" stroke-width="2" stroke="#FAC858" fill="#FFFFFF"/>
</g>
<g>
<path d="M 38 238.4 L 129.2 221.1 L 220.3 225.8 L 311.5 220.7 L 402.7 165.8 L 493.8 159.6 L 585 161.1" stroke-width="2" fill="none" stroke="#EE6666"/>
<circle cx="38" cy="238.4" r="2" stroke-width="2" stroke="#EE6666" fill="#FFFFFF"/>
<circle cx="129.2" cy="221.1" r="2" stroke-width="2" stroke="#EE6666" fill="#FFFFFF"/>
<circle cx="220.3" cy="225.8" r="2" stroke-width="2" stroke="#EE6666" fill="#FFFFFF"/>
<circle cx="311.5" cy="220.7" r="2" stroke-width="2" stroke="#EE6666" fill="#FFFFFF"/>
<circle cx="402.7" cy="165.8" r="2" stroke-width="2" stroke="#EE6666" fill="#FFFFFF"/>
<circle cx="493.8" cy="159.6" r="2" stroke-width="2" stroke="#EE6666" fill="#FFFFFF"/>
<circle cx="585" cy="161.1" r="2" stroke-width="2" stroke="#EE6666" fill="#FFFFFF"/>
</g>
</svg>