<svg width="600" height="400" viewBox="0 0 600 400" xmlns="http://www.w3.org/2000/svg">
<rect x="0" y="0" width="600" height="400" fill="#FFFFFF"/>
<text font-size="18" x="210.5" y="23" font-weight="bold" font-family="Arial" fill="#464646">
Stacked Area Chart
</text>
<text font-size="14" x="256.5" y="37" font-family="Arial" fill="#464646">
Hello World
</text>
<g>
<line stroke-width="2" x1="107" y1="55" x2="132" y2="55" stroke="#5470C6"/>
<circle cx="119.5" cy="55" r="5.5" stroke-width="2" stroke="#5470C6" fill="#FFFFFF"/>
<text font-size="14" x="135" y="59" font-family="Arial" fill="#464646">
Email
</text>
</g>
<g>
<line stroke-width="2" x1="177" y1="55" x2="202" y2="55" stroke="#91CC75"/>
<circle cx="189.5" cy="55" r="5.5" stroke-width="2" stroke="#91CC75" fill="#FFFFFF"/>
<text font-size="14" x="205" y="59" font-family="Arial" fill="#464646">
Union Ads
</text>
</g>
<g>
<line stroke-width="2" x1="278" y1="55" x2="303" y2="55" stroke="#FAC858"/>
<circle cx="290.5" cy="55" r="5.5" stroke-width="2" stroke="#FAC858" fill="#FFFFFF"/>
<text font-size="14" x="306" y="59" font-family="Arial" fill="#464646">
Direct
</text>
</g>
<g>
<line stroke-width="2" x1="350" y1="55" x2="375" y2="55" stroke="#EE6666"/>
<circle cx="362.5" cy="55" r="5.5" stroke-width="2" stroke="#EE6666" fill="#FFFFFF"/>
<text font-size="14" x="378" y="59" font-family="Arial" fill="#464646">
Search Engine
</text>
</g>
<g stroke="#E0E6F2">
<line stroke-width="1" x1="45" y1="77" x2="585" y2="77"/><line stroke-width="1" x1="45" y1="125" x2="585" y2="125"/><line stroke-width="1" x1="45" y1="173" x2="585" y2="173"/><line stroke-width="1" x1="45" y1="221" x2="585" y2="221"/><line stroke-width="1" x1="45" y1="269" x2="585" y2="269"/><line stroke-width="1" x1="45" y1="317" x2="585" y2="317"/>
</g>
<g>

<text font-size="14" x="5" y="82" font-family="Arial" fill="#6E7079">
1800
</text>
<text font-size="14" x="5" y="130" font-family="Arial" fill="#6E7079">
1500
</text>
<text font-size="14" x="5" y="178" font-family="Arial" fill="#6E7079">
1200
</text>
<text font-size="14" x="13" y="226" font-family="Arial" fill="#6E7079">
900
</text>
<text font-size="14" x="13" y="274" font-family="Arial" fill="#6E7079">
600
</text>
<text font-size="14" x="13" y="322" font-family="Arial" fill="#6E7079">
300
</text>
<text font-size="14" x="29" y="370" font-family="Arial" fill="#6E7079">
0
</text>
</g>
<g>
<g stroke="#6E7079">
<line stroke-width="1" x1="45" y1="365" x2="585" y2="365"/>
<line stroke-width="1" x1="45" y1="365" x2="45" y2="370"/>
<line stroke-width="1" x1="135" y1="365" x2="135" y2="370"/>
<line stroke-width="1" x1="225" y1="365" x2="225" y2="370"/>
<line stroke-width="1" x1="315" y1="365" x2="315" y2="370"/>
<line stroke-width="1" x1="405" y1="365" x2="405" y2="370"/>
<line stroke-width="1" x1="495" y1="365" x2="495" y2="370"/>
<line stroke-width="1" x1="585" y1="365" x2="585" y2="370"/>
</g>
<text font-size="14" x="31.5" y="384" font-family="Arial" fill="#6E7079">
Mon
</text>
<text font-size="14" x="122.5" y="384" font-family="Arial" fill="#6E7079">
Tue
</text>
<text font-size="14" x="210.5" y="384" font-family="Arial" fill="#6E7079">
Wed
</text>
<text font-size="14" x="303" y="384" font-family="Arial" fill="#6E7079">
Thu
</text>
<text font-size="14" x="396.5" y="384" font-family="Arial" fill="#6E7079">
Fri
</text>
<text font-size="14" x="484" y="384" font-family="Arial" fill="#6E7079">
Sat
</text>
<text font-size="14" x="572.5" y="384" font-family="Arial" fill="#6E7079">
Sun
</text>
</g>
<g>
<path fill="none" d="M 45 345.8 L 135 343.9 L 225 348.8 L 315 343.6 L 405 350.6 L 495 328.2 L 585 331.4" stroke-width="2" stroke="#5470C6"/>
<circle cx="45" cy="345.8" r="2" stroke-width="2" stroke="#5470C6" fill="#FFFFFF"/>
<circle cx="135" cy="343.9" r="2" stroke-width="2" stroke="#5470C6" fill="#FFFFFF"/>
<circle cx="225" cy="348.8" r="2" stroke-width="2" stroke="#5470C6" fill="#FFFFFF"/>
<circle cx="315" cy="343.6" r="2" stroke-width="2" stroke="#5470C6" fill="#FFFFFF"/>
<circle cx="405" cy="350.6" r="2" stroke-width="2" stroke="#5470C6" fill="#FFFFFF"/>
<circle cx="495" cy="328.2" r="2" stroke-width="2" stroke="#5470C6" fill="#FFFFFF"/>
<circle cx="585" cy="331.4" r="2" stroke-width="2" stroke="#5470C6" fill="#FFFFFF"/>
</g>
<g>
<path fill="none" d="M 45 329.8 L 135 335.9 L 225 334.4 L 315 327.6 L 405 318.6 L 495 312.2 L 585 315.4" stroke-width="2" stroke="#91CC75"/>
<circle cx="45" cy="329.8" r="2" stroke-width="2" stroke="#91CC75" fill="#FFFFFF"/>
<circle cx="135" cy="335.9" r="2" stroke-width="2" stroke="#91CC75" fill="#FFFFFF"/>
<circle cx="225" cy="334.4" r="2" stroke-width="2" stroke="#91CC75" fill="#FFFFFF"/>
<circle cx="315" cy="327.6" r="2" stroke-width="2" stroke="#91CC75" fill="#FFFFFF"/>
<circle cx="405" cy="318.6" r="2" stroke-width="2" stroke="#91CC75" fill="#FFFFFF"/>
<circle cx="495" cy="312.2" r="2" stroke-width="2" stroke="#91CC75" fill="#FFFFFF"/>
<circle cx="585" cy="315.4" r="2" stroke-width="2" stroke="#91CC75" fill="#FFFFFF"/>
</g>
<g>
<path fill="none" d="M 45 313.8 L 135 311.9 L 225 316.8 L 315 311.6 L 405 302.6 L 495 312.2 L 585 313.8" stroke-width="2" stroke="#FAC858"/>
<circle cx="45" cy="313.8" r="2" stroke-width="2" stroke="#FAC858" fill="#FFFFFF"/>
<circle cx="135" cy="311.9" r="2" stroke-width="2" stroke="#FAC858" fill="#FFFFFF"/>
<circle cx="225" cy="316.8" r="2" stroke-width="2" stroke="#FAC858" fill="#FFFFFF"/>
<circle cx="315" cy="311.6" r="2" stroke-width="2" stroke="#FAC858" fill="#FFFFFF"/>
<circle cx="405" cy="302.6" r="2" stroke-width="2" stroke="#FAC858" fill="#FFFFFF"/>
<circle cx="495" cy="312.2" r="2" stroke-width="2" stroke="#FAC858" fill="#FFFFFF"/>
<circle cx="585" cy="313.8" r="2" stroke-width="2" stroke="#FAC858" fill="#FFFFFF"/>
</g>
<g>
<path fill="none" d="M 45 233.8 L 135 215.9 L 225 220.8 L 315 215.6 L 405 158.6 L 495 152.2 L 585 153.8" stroke-width="2" stroke="#EE6666"/>
<circle cx="45" cy="233.8" r="2" stroke-width="2" stroke="#EE6666" fill="#FFFFFF"/>
<circle cx="135" cy="215.9" r="2" stroke-width="2" stroke="#EE6666" fill="#FFFFFF"/>
<circle cx="225" cy="220.8" r="2" stroke-width="2" stroke="#EE6666" fill="#FFFFFF"/>
<circle cx="315" cy="215.6" r="2" stroke-width="2" stroke="#EE6666" fill="#FFFFFF"/>
<circle cx="405" cy="158.6" r="2" stroke-width="2" stroke="#EE6666" fill="#FFFFFF"/>
<circle cx="495" cy="152.2" r="2" stroke-width="2" stroke="#EE6666" fill="#FFFFFF"/>
<circle cx="585" cy="153.8" r="2" stroke-width="2" stroke="#EE6666" fill="#FFFFFF"/>
</g>
</svg>