<svg width="600" height="400" viewBox="0 0 600 400" xmlns="http://www.w3.org/2000/svg">
<rect x="0" y="0" width="600" height="400" fill="#FFFFFF"/>
<text font-size="18" x="196.5" y="5" dy="15" font-weight="bold" dominant-baseline="middle" font-family="Roboto" fill="#464646">
Stacked Area Chart
</text>
<text font-size="14" x="240" y="35" dy="10" dominant-baseline="middle" font-family="Roboto" fill="#464646">
Hello World
</text>
<g>
<line stroke-width="2" x1="91.5" y1="65" x2="116.5" y2="65" stroke="#5470C6"/>
<circle cx="104" cy="65" r="5.5" stroke-width="2" stroke="#5470C6" fill="#FFFFFF"/>
<text font-size="14" x="119.5" y="69" font-family="Roboto" fill="#464646">
Email
</text>
</g>
<g>
<line stroke-width="2" x1="160.5" y1="65" x2="185.5" y2="65" stroke="#91CC75"/>
<circle cx="173" cy="65" r="5.5" stroke-width="2" stroke="#91CC75" fill="#FFFFFF"/>
<text font-size="14" x="188.5" y="69" font-family="Roboto" fill="#464646">
Union Ads
</text>
</g>
<g>
<line stroke-width="2" x1="260.5" y1="65" x2="285.5" y2="65" stroke="#FAC858"/>
<circle cx="273" cy="65" r="5.5" stroke-width="2" stroke="#FAC858" fill="#FFFFFF"/>
<text font-size="14" x="288.5" y="69" font-family="Roboto" fill="#464646">
Direct
</text>
</g>
<g>
<line stroke-width="2" x1="333.5" y1="65" x2="358.5" y2="65" stroke="#EE6666"/>
<circle cx="346" cy="65" r="5.5" stroke-width="2" stroke="#EE6666" fill="#FFFFFF"/>
<text font-size="14" x="361.5" y="69" font-family="Roboto" fill="#464646">
Search Engine
</text>
</g>
<g stroke="#E0E6F2">
<line stroke-width="1" x1="5" y1="87" x2="550" y2="87"/><line stroke-width="1" x1="5" y1="138.3" x2="550" y2="138.3"/><line stroke-width="1" x1="5" y1="189.7" x2="550" y2="189.7"/><line stroke-width="1" x1="5" y1="241" x2="550" y2="241"/><line stroke-width="1" x1="5" y1="292.3" x2="550" y2="292.3"/><line stroke-width="1" x1="5" y1="343.7" x2="550" y2="343.7"/>
</g>
<g>
<path d="M 43.9 368.2 L 121.8 365.5 L 199.6 372.5 L 277.5 365.1 L 355.4 374.9 L 433.2 343.7 L 511.1 348.1" stroke-width="2" fill="none" stroke="#5470C6" stroke-dasharray="4,2"/>
<circle cx="43.9" cy="368.2" r="2" stroke-width="2" stroke="#5470C6" fill="#FFFFFF"/>
<circle cx="121.8" cy="365.5" r="2" stroke-width="2" stroke="#5470C6" fill="#FFFFFF"/>
<circle cx="199.6" cy="372.5" r="2" stroke-width="2" stroke="#5470C6" fill="#FFFFFF"/>
<circle cx="277.5" cy="365.1" r="2" stroke-width="2" stroke="#5470C6" fill="#FFFFFF"/>
<circle cx="355.4" cy="374.9" r="2" stroke-width="2" stroke="#5470C6" fill="#FFFFFF"/>
<circle cx="433.2" cy="343.7" r="2" stroke-width="2" stroke="#5470C6" fill="#FFFFFF"/>
<circle cx="511.1" cy="348.1" r="2" stroke-width="2" stroke="#5470C6" fill="#FFFFFF"/>
</g>
<g>
<path d="M 43.9 345.9 L 121.8 354.4 L 199.6 352.4 L 277.5 342.8 L 355.4 330.3 L 433.2 321.3 L 511.1 325.8" stroke-width="2" fill="none" stroke="#91CC75"/>
<circle cx="43.9" cy="345.9" r="2" stroke-width="2" stroke="#91CC75" fill="#FFFFFF"/>
<circle cx="121.8" cy="354.4" r="2" stroke-width="2" stroke="#91CC75" fill="#FFFFFF"/>
<circle cx="199.6" cy="352.4" r="2" stroke-width="2" stroke="#91CC75" fill="#FFFFFF"/>
<circle cx="277.5" cy="342.8" r="2" stroke-width="2" stroke="#91CC75" fill="#FFFFFF"/>
<circle cx="355.4" cy="330.3" r="2" stroke-width="2" stroke="#91CC75" fill="#FFFFFF"/>
<circle cx="433.2" cy="321.3" r="2" stroke-width="2" stroke="#91CC75" fill="#FFFFFF"/>
<circle cx="511.1" cy="325.8" r="2" stroke-width="2" stroke="#91CC75" fill="#FFFFFF"/>
</g>
<g>
<path d="M 43.9 323.6 L 121.8 320.9 L 199.6 327.8 L 277.5 320.5 L 355.4 308 L 433.2 321.3 L 511.1 323.6" stroke-width="2" fill="none" stroke="#FAC858"/>
<circle cx="43.9" cy="323.6" r="2" stroke-width="2" stroke="#FAC858" fill="#FFFFFF"/>
<circle cx="121.8" cy="320.9" r="2" stroke-width="2" stroke="#FAC858" fill="#FFFFFF"/>
<circle cx="199.6" cy="327.8" r="2" stroke-width="2" stroke="#FAC858" fill="#FFFFFF"/>
<circle cx="277.5" cy="320.5" r="2" stroke-width="2" stroke="#FAC858" fill="#FFFFFF"/>
<circle cx="355.4" cy="308" r="2" stroke-width="2" stroke="#FAC858" fill="#FFFFFF"/>
<circle cx="433.2" cy="321.3" r="2" stroke-width="2" stroke="#FAC858" fill="#FFFFFF"/>
<circle cx="511.1" cy="323.6" r="2" stroke-width="2" stroke="#FAC858" fill="#FFFFFF"/>
</g>
<path d="M 345.7,289.4 A 15,15 0,0,1 340.4,278 A 15,15 0,0,1 370.4,278 A 15,15 0,0,1 365,289.4 L 355.4,300.5 Z" fill="#FAC858"/>
<text font-size="14" x="355.4" y="272.5" dx="-11" dy="7.5" dominant-baseline="middle" font-family="Roboto" fill="#464646">
390
</text>
<path d="M 190,309.3 A 15,15 0,0,1 184.6,297.8 A 15,15 0,0,1 214.6,297.8 A 15,15 0,0,1 209.3,309.3 L 199.6,320.3 Z" fill="#FAC858"/>
<text font-size="14" x="199.6" y="292.3" dx="-9.5" dy="7.5" dominant-baseline="middle" font-family="Roboto" fill="#464646">
301
</text>
<g>
<path d="M 43.9 212 L 121.8 187 L 199.6 193.9 L 277.5 186.5 L 355.4 107.1 L 433.2 98.2 L 511.1 100.4" stroke-width="2" fill="none" stroke="#EE6666"/>
<circle cx="43.9" cy="212" r="2" stroke-width="2" stroke="#EE6666" fill="#FFFFFF"/>
<circle cx="121.8" cy="187" r="2" stroke-width="2" stroke="#EE6666" fill="#FFFFFF"/>
<circle cx="199.6" cy="193.9" r="2" stroke-width="2" stroke="#EE6666" fill="#FFFFFF"/>
<circle cx="277.5" cy="186.5" r="2" stroke-width="2" stroke="#EE6666" fill="#FFFFFF"/>
<circle cx="355.4" cy="107.1" r="2" stroke-width="2" stroke="#EE6666" fill="#FFFFFF"/>
<circle cx="433.2" cy="98.2" r="2" stroke-width="2" stroke="#EE6666" fill="#FFFFFF"/>
<circle cx="511.1" cy="100.4" r="2" stroke-width="2" stroke="#EE6666" fill="#FFFFFF"/>
</g>
<text font-size="14" x="43.9" y="212" dx="-12" dy="-8" font-family="Roboto" fill="#464646">
820
</text>
<text font-size="14" x="121.8" y="187" dx="-12" dy="-8" font-family="Roboto" fill="#464646">
932
</text>
<text font-size="14" x="199.6" y="193.9" dx="-10.5" dy="-8" font-family="Roboto" fill="#464646">
901
</text>
<text font-size="14" x="277.5" y="186.5" dx="-12" dy="-8" font-family="Roboto" fill="#464646">
934
</text>
<text font-size="14" x="355.4" y="107.1" dx="-16" dy="-8" font-family="Roboto" fill="#464646">
1290
</text>
<text font-size="14" x="433.2" y="98.2" dx="-16" dy="-8" font-family="Roboto" fill="#464646">
1330
</text>
<text font-size="14" x="511.1" y="100.4" dx="-16" dy="-8" font-family="Roboto" fill="#464646">
1320
</text>
<circle cx="8" cy="155" r="3.5" stroke-width="1" stroke="#EE6666" fill="#EE6666"/>
<line stroke-width="1" x1="13" y1="155" x2="540" y2="155" stroke="#EE6666" stroke-dasharray="4,2"/>
<path d="M 540 155 L 535 150 L 550 155 L 535 160 Z" stroke-width="1" fill="#EE6666" stroke="#EE6666"/>
<text font-size="14" x="552" y="146" dy="10" dominant-baseline="middle" font-family="Roboto" fill="#464646">
1075.3
</text>
</svg>