<svg width="600" height="400" viewBox="0 0 600 400" xmlns="http://www.w3.org/2000/svg">
<rect x="0" y="0" width="600" height="400" fill="#FFFFFF"/>
<text font-size="18" x="215.5" y="23" font-weight="bold" font-family="Arial" fill="#464646">
Stacked Area Chart
</text>
<text font-size="14" x="261.5" y="37" font-family="Arial" fill="#464646">
Hello World
</text>
<g>
<line stroke-width="2" x1="238" y1="55" x2="263" y2="55" stroke="#5470C6"/>
<circle cx="250.5" cy="55" r="5.5" stroke-width="2" stroke="#5470C6" fill="#FFFFFF"/>
<text font-size="14" x="266" y="59" font-family="Arial" fill="#464646">
Search Engine
</text>
</g>
<g stroke="#E0E6F2">
<line stroke-width="1" x1="45" y1="77" x2="595" y2="77"/><line stroke-width="1" x1="45" y1="125" x2="595" y2="125"/><line stroke-width="1" x1="45" y1="173" x2="595" y2="173"/><line stroke-width="1" x1="45" y1="221" x2="595" y2="221"/><line stroke-width="1" x1="45" y1="269" x2="595" y2="269"/><line stroke-width="1" x1="45" y1="317" x2="595" y2="317"/>
</g>
<g>

<text font-size="14" x="5" y="82" font-family="Arial" fill="#6E7079">
1800
</text>
<text font-size="14" x="5" y="130" font-family="Arial" fill="#6E7079">
1500
</text>
<text font-size="14" x="5" y="178" font-family="Arial" fill="#6E7079">
1200
</text>
<text font-size="14" x="13" y="226" font-family="Arial" fill="#6E7079">
900
</text>
<text font-size="14" x="13" y="274" font-family="Arial" fill="#6E7079">
600
</text>
<text font-size="14" x="13" y="322" font-family="Arial" fill="#6E7079">
300
</text>
<text font-size="14" x="29" y="370" font-family="Arial" fill="#6E7079">
0
</text>
</g>
<g>
<g stroke="#6E7079">
<line stroke-width="1" x1="45" y1="365" x2="595" y2="365"/>
<line stroke-width="1" x1="45" y1="365" x2="45" y2="370"/>
<line stroke-width="1" x1="123.6" y1="365" x2="123.6" y2="370"/>
<line stroke-width="1" x1="202.1" y1="365" x2="202.1" y2="370"/>
<line stroke-width="1" x1="280.7" y1="365" x2="280.7" y2="370"/>
<line stroke-width="1" x1="359.3" y1="365" x2="359.3" y2="370"/>
<line stroke-width="1" x1="437.9" y1="365" x2="437.9" y2="370"/>
<line stroke-width="1" x1="516.4" y1="365" x2="516.4" y2="370"/>
<line stroke-width="1" x1="595" y1="365" x2="595" y2="370"/>
</g>
<text font-size="14" x="70.8" y="384" font-family="Arial" fill="#6E7079">
Mon
</text>
<text font-size="14" x="150.4" y="384" font-family="Arial" fill="#6E7079">
Tue
</text>
<text font-size="14" x="226.9" y="384" font-family="Arial" fill="#6E7079">
Wed
</text>
<text font-size="14" x="308" y="384" font-family="Arial" fill="#6E7079">
Thu
</text>
<text font-size="14" x="390.1" y="384" font-family="Arial" fill="#6E7079">
Fri
</text>
<text font-size="14" x="466.1" y="384" font-family="Arial" fill="#6E7079">
Sat
</text>
<text font-size="14" x="543.2" y="384" font-family="Arial" fill="#6E7079">
Sun
</text>
</g>
<path d="M84.3,233.8 C103.9 229.3, 143 217.5, 162.9 215.9 C182.3 214.3, 221.8 220.9, 241.4 220.8 C261.1 220.8, 302.4 222.5, 320 215.6 C341.7 207, 376.9 167.3, 398.6 158.6 C416.2 151.5, 457.5 152.8, 477.1 152.2 C496.8 151.6, 536.1 153.4, 555.7 153.8M 555.7 153.8 L 555.7 365 L 84.3 365 L 84.3 233.8" fill="#5470C6" fill-opacity="0.4"/>
<g>
<path fill="none" d="M84.3,233.8 C103.9 229.3, 143 217.5, 162.9 215.9 C182.3 214.3, 221.8 220.9, 241.4 220.8 C261.1 220.8, 302.4 222.5, 320 215.6 C341.7 207, 376.9 167.3, 398.6 158.6 C416.2 151.5, 457.5 152.8, 477.1 152.2 C496.8 151.6, 536.1 153.4, 555.7 153.8" stroke-width="2" stroke="#5470C6"/>
<circle cx="84.3" cy="233.8" r="2" stroke-width="2" stroke="#5470C6" fill="#FFFFFF"/>
<circle cx="162.9" cy="215.9" r="2" stroke-width="2" stroke="#5470C6" fill="#FFFFFF"/>
<circle cx="241.4" cy="220.8" r="2" stroke-width="2" stroke="#5470C6" fill="#FFFFFF"/>
<circle cx="320" cy="215.6" r="2" stroke-width="2" stroke="#5470C6" fill="#FFFFFF"/>
<circle cx="398.6" cy="158.6" r="2" stroke-width="2" stroke="#5470C6" fill="#FFFFFF"/>
<circle cx="477.1" cy="152.2" r="2" stroke-width="2" stroke="#5470C6" fill="#FFFFFF"/>
<circle cx="555.7" cy="153.8" r="2" stroke-width="2" stroke="#5470C6" fill="#FFFFFF"/>
</g>
</svg>