<svg width="600" height="400" viewBox="0 0 600 400" xmlns="http://www.w3.org/2000/svg">
<rect x="0" y="0" width="600" height="400" fill="#FFFFFF"/>
<text font-size="18" x="219" y="5" dy="15" font-weight="bold" dominant-baseline="middle" font-family="Roboto" fill="#464646">
Stacked Area Chart
</text>
<text font-size="14" x="262.5" y="35" dy="10" dominant-baseline="middle" font-family="Roboto" fill="#464646">
Hello World
</text>
<g>
<line stroke-width="2" x1="239.5" y1="65" x2="264.5" y2="65" stroke="#5470C6"/>
<circle cx="252" cy="65" r="5.5" stroke-width="2" stroke="#5470C6" fill="#FFFFFF"/>
<text font-size="14" x="267.5" y="69" font-family="Roboto" fill="#464646">
Search Engine
</text>
</g>
<g stroke="#E0E6F2">
<line stroke-width="1" x1="38" y1="87" x2="595" y2="87"/><line stroke-width="1" x1="38" y1="133.3" x2="595" y2="133.3"/><line stroke-width="1" x1="38" y1="179.7" x2="595" y2="179.7"/><line stroke-width="1" x1="38" y1="226" x2="595" y2="226"/><line stroke-width="1" x1="38" y1="272.3" x2="595" y2="272.3"/><line stroke-width="1" x1="38" y1="318.7" x2="595" y2="318.7"/>
</g>
<g>

<text font-size="14" x="2" y="92" font-family="Roboto" fill="#6E7079">
1.4k
</text>
<text font-size="14" x="2" y="138.3" font-family="Roboto" fill="#6E7079">
1.1k
</text>
<text font-size="14" x="6" y="184.7" font-family="Roboto" fill="#6E7079">
920
</text>
<text font-size="14" x="6" y="231" font-family="Roboto" fill="#6E7079">
690
</text>
<text font-size="14" x="6" y="277.3" font-family="Roboto" fill="#6E7079">
460
</text>
<text font-size="14" x="6" y="323.7" font-family="Roboto" fill="#6E7079">
230
</text>
<text font-size="14" x="22" y="370" font-family="Roboto" fill="#6E7079">
0
</text>
</g>
<g>
<g stroke="#6E7079">
<line stroke-width="1" x1="38" y1="365" x2="595" y2="365"/>
<line stroke-width="1" x1="38" y1="365" x2="38" y2="370"/>
<line stroke-width="1" x1="117.6" y1="365" x2="117.6" y2="370"/>
<line stroke-width="1" x1="197.1" y1="365" x2="197.1" y2="370"/>
<line stroke-width="1" x1="276.7" y1="365" x2="276.7" y2="370"/>
<line stroke-width="1" x1="356.3" y1="365" x2="356.3" y2="370"/>
<line stroke-width="1" x1="435.9" y1="365" x2="435.9" y2="370"/>
<line stroke-width="1" x1="515.4" y1="365" x2="515.4" y2="370"/>
<line stroke-width="1" x1="595" y1="365" x2="595" y2="370"/>
</g>
<text font-size="14" x="63.8" y="384" font-family="Roboto" fill="#6E7079">
Mon
</text>
<text font-size="14" x="145.4" y="384" font-family="Roboto" fill="#6E7079">
Tue
</text>
<text font-size="14" x="222.9" y="384" font-family="Roboto" fill="#6E7079">
Wed
</text>
<text font-size="14" x="304.5" y="384" font-family="Roboto" fill="#6E7079">
Thu
</text>
<text font-size="14" x="388.1" y="384" font-family="Roboto" fill="#6E7079">
Fri
</text>
<text font-size="14" x="464.6" y="384" font-family="Roboto" fill="#6E7079">
Sat
</text>
<text font-size="14" x="543.2" y="384" font-family="Roboto" fill="#6E7079">
Sun
</text>
</g>
<path d="M77.8,199.8 C97.7 194.2, 137.1 179.3, 157.4 177.2 C176.9 175.2, 217 183.5, 236.9 183.5 C256.8 183.4, 299.5 185.2, 316.5 176.8 C339.3 165.6, 373.3 116.5, 396.1 105.1 C413.1 96.6, 455.7 97.8, 475.6 97.1 C495.5 96.3, 535.3 98.6, 555.2 99.1M 555.2 99.1 L 555.2 365 L 77.8 365 L 77.8 199.8" fill="#5470C6" fill-opacity="0.4"/>
<g>
<path d="M77.8,199.8 C97.7 194.2, 137.1 179.3, 157.4 177.2 C176.9 175.2, 217 183.5, 236.9 183.5 C256.8 183.4, 299.5 185.2, 316.5 176.8 C339.3 165.6, 373.3 116.5, 396.1 105.1 C413.1 96.6, 455.7 97.8, 475.6 97.1 C495.5 96.3, 535.3 98.6, 555.2 99.1" stroke-width="2" fill="none" stroke="#5470C6"/>
<circle cx="77.8" cy="199.8" r="2" stroke-width="2" stroke="#5470C6" fill="#FFFFFF"/>
<circle cx="157.4" cy="177.2" r="2" stroke-width="2" stroke="#5470C6" fill="#FFFFFF"/>
<circle cx="236.9" cy="183.5" r="2" stroke-width="2" stroke="#5470C6" fill="#FFFFFF"/>
<circle cx="316.5" cy="176.8" r="2" stroke-width="2" stroke="#5470C6" fill="#FFFFFF"/>
<circle cx="396.1" cy="105.1" r="2" stroke-width="2" stroke="#5470C6" fill="#FFFFFF"/>
<circle cx="475.6" cy="97.1" r="2" stroke-width="2" stroke="#5470C6" fill="#FFFFFF"/>
<circle cx="555.2" cy="99.1" r="2" stroke-width="2" stroke="#5470C6" fill="#FFFFFF"/>
</g>
</svg>