<svg width="600" height="400" viewBox="0 0 600 400" xmlns="http://www.w3.org/2000/svg">
<rect x="0" y="0" width="600" height="400" fill="#FFFFFF"/>
<text font-size="18" x="215.5" y="23" font-weight="bold" font-family="Arial" fill="#464646">
Stacked Area Chart
</text>
<text font-size="14" x="261.5" y="37" font-family="Arial" fill="#464646">
Hello World
</text>
<g>
<line stroke-width="2" x1="238" y1="55" x2="263" y2="55" stroke="#5470C6"/>
<circle cx="250.5" cy="55" r="5.5" stroke-width="2" stroke="#5470C6" fill="#FFFFFF"/>
<text font-size="14" x="266" y="59" font-family="Arial" fill="#464646">
Search Engine
</text>
</g>
<g stroke="#E0E6F2">
<line stroke-width="1" x1="42" y1="77" x2="595" y2="77"/><line stroke-width="1" x1="42" y1="125" x2="595" y2="125"/><line stroke-width="1" x1="42" y1="173" x2="595" y2="173"/><line stroke-width="1" x1="42" y1="221" x2="595" y2="221"/><line stroke-width="1" x1="42" y1="269" x2="595" y2="269"/><line stroke-width="1" x1="42" y1="317" x2="595" y2="317"/>
</g>
<g>

<text font-size="14" x="2" y="82" font-family="Arial" fill="#6E7079">
1800
</text>
<text font-size="14" x="2" y="130" font-family="Arial" fill="#6E7079">
1500
</text>
<text font-size="14" x="2" y="178" font-family="Arial" fill="#6E7079">
1200
</text>
<text font-size="14" x="10" y="226" font-family="Arial" fill="#6E7079">
900
</text>
<text font-size="14" x="10" y="274" font-family="Arial" fill="#6E7079">
600
</text>
<text font-size="14" x="10" y="322" font-family="Arial" fill="#6E7079">
300
</text>
<text font-size="14" x="26" y="370" font-family="Arial" fill="#6E7079">
0
</text>
</g>
<g>
<g stroke="#6E7079">
<line stroke-width="1" x1="42" y1="365" x2="595" y2="365"/>
<line stroke-width="1" x1="42" y1="365" x2="42" y2="370"/>
<line stroke-width="1" x1="121" y1="365" x2="121" y2="370"/>
<line stroke-width="1" x1="200" y1="365" x2="200" y2="370"/>
<line stroke-width="1" x1="279" y1="365" x2="279" y2="370"/>
<line stroke-width="1" x1="358" y1="365" x2="358" y2="370"/>
<line stroke-width="1" x1="437" y1="365" x2="437" y2="370"/>
<line stroke-width="1" x1="516" y1="365" x2="516" y2="370"/>
<line stroke-width="1" x1="595" y1="365" x2="595" y2="370"/>
</g>
<text font-size="14" x="68" y="384" font-family="Arial" fill="#6E7079">
Mon
</text>
<text font-size="14" x="148" y="384" font-family="Arial" fill="#6E7079">
Tue
</text>
<text font-size="14" x="225" y="384" font-family="Arial" fill="#6E7079">
Wed
</text>
<text font-size="14" x="306.5" y="384" font-family="Arial" fill="#6E7079">
Thu
</text>
<text font-size="14" x="389" y="384" font-family="Arial" fill="#6E7079">
Fri
</text>
<text font-size="14" x="465.5" y="384" font-family="Arial" fill="#6E7079">
Sat
</text>
<text font-size="14" x="543" y="384" font-family="Arial" fill="#6E7079">
Sun
</text>
</g>
<path d="M81.5,233.8 C101.2 229.3, 140.5 217.5, 160.5 215.9 C180 214.3, 219.8 220.9, 239.5 220.8 C259.3 220.8, 300.8 222.5, 318.5 215.6 C340.3 207, 375.7 167.3, 397.5 158.6 C415.2 151.5, 456.7 152.8, 476.5 152.2 C496.2 151.6, 535.8 153.4, 555.5 153.8M 555.5 153.8 L 555.5 365 L 81.5 365 L 81.5 233.8" fill="#5470C6" fill-opacity="0.4"/>
<g>
<path fill="none" d="M81.5,233.8 C101.2 229.3, 140.5 217.5, 160.5 215.9 C180 214.3, 219.8 220.9, 239.5 220.8 C259.3 220.8, 300.8 222.5, 318.5 215.6 C340.3 207, 375.7 167.3, 397.5 158.6 C415.2 151.5, 456.7 152.8, 476.5 152.2 C496.2 151.6, 535.8 153.4, 555.5 153.8" stroke-width="2" stroke="#5470C6"/>
<circle cx="81.5" cy="233.8" r="2" stroke-width="2" stroke="#5470C6" fill="#FFFFFF"/>
<circle cx="160.5" cy="215.9" r="2" stroke-width="2" stroke="#5470C6" fill="#FFFFFF"/>
<circle cx="239.5" cy="220.8" r="2" stroke-width="2" stroke="#5470C6" fill="#FFFFFF"/>
<circle cx="318.5" cy="215.6" r="2" stroke-width="2" stroke="#5470C6" fill="#FFFFFF"/>
<circle cx="397.5" cy="158.6" r="2" stroke-width="2" stroke="#5470C6" fill="#FFFFFF"/>
<circle cx="476.5" cy="152.2" r="2" stroke-width="2" stroke="#5470C6" fill="#FFFFFF"/>
<circle cx="555.5" cy="153.8" r="2" stroke-width="2" stroke="#5470C6" fill="#FFFFFF"/>
</g>
</svg>