<svg width="630" height="410" viewBox="0 0 630 410" xmlns="http://www.w3.org/2000/svg">
<rect x="0" y="0" width="630" height="410" fill="#FFFFFF"/>
<text font-size="18" x="234" y="5" dy="15" font-weight="bold" dominant-baseline="middle" font-family="Roboto" fill="#464646">
Stacked Area Chart
</text>
<g>
<line stroke-width="2" x1="129" y1="15" x2="154" y2="15" stroke="#5470C6"/>
<circle cx="141.5" cy="15" r="5.5" stroke-width="2" stroke="#5470C6" fill="#FFFFFF"/>
<text font-size="14" x="157" y="19" font-family="Roboto" fill="#464646">
Email
</text>
</g>
<g>
<line stroke-width="2" x1="198" y1="15" x2="223" y2="15" stroke="#91CC75"/>
<circle cx="210.5" cy="15" r="5.5" stroke-width="2" stroke="#91CC75" fill="#FFFFFF"/>
<text font-size="14" x="226" y="19" font-family="Roboto" fill="#464646">
Union Ads
</text>
</g>
<g>
<line stroke-width="2" x1="298" y1="15" x2="323" y2="15" stroke="#FAC858"/>
<circle cx="310.5" cy="15" r="5.5" stroke-width="2" stroke="#FAC858" fill="#FFFFFF"/>
<text font-size="14" x="326" y="19" font-family="Roboto" fill="#464646">
Direct
</text>
</g>
<g>
<line stroke-width="2" x1="371" y1="15" x2="396" y2="15" stroke="#EE6666"/>
<circle cx="383.5" cy="15" r="5.5" stroke-width="2" stroke="#EE6666" fill="#FFFFFF"/>
<text font-size="14" x="399" y="19" font-family="Roboto" fill="#464646">
Search Engine
</text>
</g>
<g stroke="#E0E6F2">
<line stroke-width="1" x1="38" y1="40" x2="625" y2="40"/><line stroke-width="1" x1="38" y1="95.8" x2="625" y2="95.8"/><line stroke-width="1" x1="38" y1="151.7" x2="625" y2="151.7"/><line stroke-width="1" x1="38" y1="207.5" x2="625" y2="207.5"/><line stroke-width="1" x1="38" y1="263.3" x2="625" y2="263.3"/><line stroke-width="1" x1="38" y1="319.2" x2="625" y2="319.2"/>
</g>
<g>

<text font-size="14" x="2" y="45" font-family="Roboto" fill="#6E7079">
1.3k
</text>
<text font-size="14" x="14" y="100.8" font-family="Roboto" fill="#6E7079">
1k
</text>
<text font-size="14" x="6" y="156.7" font-family="Roboto" fill="#6E7079">
840
</text>
<text font-size="14" x="6" y="212.5" font-family="Roboto" fill="#6E7079">
630
</text>
<text font-size="14" x="6" y="268.3" font-family="Roboto" fill="#6E7079">
420
</text>
<text font-size="14" x="6" y="324.2" font-family="Roboto" fill="#6E7079">
210
</text>
<text font-size="14" x="22" y="380" font-family="Roboto" fill="#6E7079">
0
</text>
</g>
<g>
<g stroke="#6E7079">
<line stroke-width="1" x1="38" y1="375" x2="625" y2="375"/>
<line stroke-width="1" x1="38" y1="375" x2="38" y2="380"/>
<line stroke-width="1" x1="121.9" y1="375" x2="121.9" y2="380"/>
<line stroke-width="1" x1="205.7" y1="375" x2="205.7" y2="380"/>
<line stroke-width="1" x1="289.6" y1="375" x2="289.6" y2="380"/>
<line stroke-width="1" x1="373.4" y1="375" x2="373.4" y2="380"/>
<line stroke-width="1" x1="457.3" y1="375" x2="457.3" y2="380"/>
<line stroke-width="1" x1="541.1" y1="375" x2="541.1" y2="380"/>
<line stroke-width="1" x1="625" y1="375" x2="625" y2="380"/>
</g>
<text font-size="14" x="65.9" y="394" font-family="Roboto" fill="#6E7079">
Mon
</text>
<text font-size="14" x="151.8" y="394" font-family="Roboto" fill="#6E7079">
Tue
</text>
<text font-size="14" x="233.6" y="394" font-family="Roboto" fill="#6E7079">
Wed
</text>
<text font-size="14" x="319.5" y="394" font-family="Roboto" fill="#6E7079">
Thu
</text>
<text font-size="14" x="407.4" y="394" font-family="Roboto" fill="#6E7079">
Fri
</text>
<text font-size="14" x="488.2" y="394" font-family="Roboto" fill="#6E7079">
Sat
</text>
<text font-size="14" x="571.1" y="394" font-family="Roboto" fill="#6E7079">
Sun
</text>
</g>
<polygon points="79.9,343.1 163.8,339.9 247.6,348.1 331.5,339.4 415.4,351.1 499.2,313.8 583.1,319.2 583.1,375 499.2,375 415.4,375 331.5,375 247.6,375 163.8,375 79.9,375" fill="#5470C6" fill-opacity="0.4"/>
<g>
<path d="M 79.9 343.1 L 163.8 339.9 L 247.6 348.1 L 331.5 339.4 L 415.4 351.1 L 499.2 313.8 L 583.1 319.2" stroke-width="2" fill="none" stroke="#5470C6"/>
<circle cx="79.9" cy="343.1" r="2" stroke-width="2" stroke="#5470C6" fill="#FFFFFF"/>
<circle cx="163.8" cy="339.9" r="2" stroke-width="2" stroke="#5470C6" fill="#FFFFFF"/>
<circle cx="247.6" cy="348.1" r="2" stroke-width="2" stroke="#5470C6" fill="#FFFFFF"/>
<circle cx="331.5" cy="339.4" r="2" stroke-width="2" stroke="#5470C6" fill="#FFFFFF"/>
<circle cx="415.4" cy="351.1" r="2" stroke-width="2" stroke="#5470C6" fill="#FFFFFF"/>
<circle cx="499.2" cy="313.8" r="2" stroke-width="2" stroke="#5470C6" fill="#FFFFFF"/>
<circle cx="583.1" cy="319.2" r="2" stroke-width="2" stroke="#5470C6" fill="#FFFFFF"/>
</g>
<polygon points="79.9,284.6 163.8,291.5 247.6,297.4 331.5,277.2 415.4,274 499.2,226.1 583.1,236.7 583.1,319.2 499.2,313.8 415.4,351.1 331.5,339.4 247.6,348.1 163.8,339.9 79.9,343.1" fill="#91CC75" fill-opacity="0.4"/>
<g>
<path d="M 79.9 284.6 L 163.8 291.5 L 247.6 297.4 L 331.5 277.2 L 415.4 274 L 499.2 226.1 L 583.1 236.7" stroke-width="2" fill="none" stroke="#91CC75"/>
<circle cx="79.9" cy="284.6" r="2" stroke-width="2" stroke="#91CC75" fill="#FFFFFF"/>
<circle cx="163.8" cy="291.5" r="2" stroke-width="2" stroke="#91CC75" fill="#FFFFFF"/>
<circle cx="247.6" cy="297.4" r="2" stroke-width="2" stroke="#91CC75" fill="#FFFFFF"/>
<circle cx="331.5" cy="277.2" r="2" stroke-width="2" stroke="#91CC75" fill="#FFFFFF"/>
<circle cx="415.4" cy="274" r="2" stroke-width="2" stroke="#91CC75" fill="#FFFFFF"/>
<circle cx="499.2" cy="226.1" r="2" stroke-width="2" stroke="#91CC75" fill="#FFFFFF"/>
<circle cx="583.1" cy="236.7" r="2" stroke-width="2" stroke="#91CC75" fill="#FFFFFF"/>
</g>
<polygon points="79.9,244.7 163.8,229.8 247.6,243.9 331.5,236.2 415.4,223.5 499.2,138.4 583.1,127.7 583.1,236.7 499.2,226.1 415.4,274 331.5,277.2 247.6,297.4 163.8,291.5 79.9,284.6" fill="#FAC858" fill-opacity="0.4"/>
<g>
<path d="M 79.9 244.7 L 163.8 229.8 L 247.6 243.9 L 331.5 236.2 L 415.4 223.5 L 499.2 138.4 L 583.1 127.7" stroke-width="2" fill="none" stroke="#FAC858"/>
<circle cx="79.9" cy="244.7" r="2" stroke-width="2" stroke="#FAC858" fill="#FFFFFF"/>
<circle cx="163.8" cy="229.8" r="2" stroke-width="2" stroke="#FAC858" fill="#FFFFFF"/>
<circle cx="247.6" cy="243.9" r="2" stroke-width="2" stroke="#FAC858" fill="#FFFFFF"/>
<circle cx="331.5" cy="236.2" r="2" stroke-width="2" stroke="#FAC858" fill="#FFFFFF"/>
<circle cx="415.4" cy="223.5" r="2" stroke-width="2" stroke="#FAC858" fill="#FFFFFF"/>
<circle cx="499.2" cy="138.4" r="2" stroke-width="2" stroke="#FAC858" fill="#FFFFFF"/>
<circle cx="583.1" cy="127.7" r="2" stroke-width="2" stroke="#FAC858" fill="#FFFFFF"/>
</g>
<polygon points="79.9,159.6 163.8,141.6 247.6,163.9 331.5,147.4 415.4,119.8 499.2,50.6 583.1,42.7 583.1,127.7 499.2,138.4 415.4,223.5 331.5,236.2 247.6,243.9 163.8,229.8 79.9,244.7" fill="#EE6666" fill-opacity="0.4"/>
<g>
<path d="M 79.9 159.6 L 163.8 141.6 L 247.6 163.9 L 331.5 147.4 L 415.4 119.8 L 499.2 50.6 L 583.1 42.7" stroke-width="2" fill="none" stroke="#EE6666"/>
<circle cx="79.9" cy="159.6" r="2" stroke-width="2" stroke="#EE6666" fill="#FFFFFF"/>
<circle cx="163.8" cy="141.6" r="2" stroke-width="2" stroke="#EE6666" fill="#FFFFFF"/>
<circle cx="247.6" cy="163.9" r="2" stroke-width="2" stroke="#EE6666" fill="#FFFFFF"/>
<circle cx="331.5" cy="147.4" r="2" stroke-width="2" stroke="#EE6666" fill="#FFFFFF"/>
<circle cx="415.4" cy="119.8" r="2" stroke-width="2" stroke="#EE6666" fill="#FFFFFF"/>
<circle cx="499.2" cy="50.6" r="2" stroke-width="2" stroke="#EE6666" fill="#FFFFFF"/>
<circle cx="583.1" cy="42.7" r="2" stroke-width="2" stroke="#EE6666" fill="#FFFFFF"/>
</g>
</svg>