<svg width="600" height="400" viewBox="0 0 600 400" xmlns="http://www.w3.org/2000/svg">
<rect x="0" y="0" width="600" height="400" fill="#FFFFFF"/>
<g>
<line stroke-width="2" x1="244.5" y1="15" x2="269.5" y2="15" stroke="#5470C6"/>
<circle cx="257" cy="15" r="5.5" stroke-width="2" stroke="#5470C6" fill="#FFFFFF"/>
<text font-size="14" x="272.5" y="19" font-family="Roboto" fill="#464646">
MA5
</text>
</g>
<g>
<line stroke-width="2" x1="308.5" y1="15" x2="333.5" y2="15" stroke="#91CC75"/>
<circle cx="321" cy="15" r="5.5" stroke-width="2" stroke="#91CC75" fill="#FFFFFF"/>
<text font-size="14" x="336.5" y="19" font-family="Roboto" fill="#464646">
日K
</text>
</g>
<g stroke="#E0E6F2">
<line stroke-width="1" x1="50" y1="27" x2="590" y2="27"/><line stroke-width="1" x1="50" y1="84.2" x2="590" y2="84.2"/><line stroke-width="1" x1="50" y1="141.3" x2="590" y2="141.3"/><line stroke-width="1" x1="50" y1="198.5" x2="590" y2="198.5"/><line stroke-width="1" x1="50" y1="255.7" x2="590" y2="255.7"/><line stroke-width="1" x1="50" y1="312.8" x2="590" y2="312.8"/>
</g>
<g>

<text font-size="14" x="7" y="32" font-family="Roboto" fill="#6E7079">
2,460
</text>
<text font-size="14" x="7" y="89.2" font-family="Roboto" fill="#6E7079">
2,400
</text>
<text font-size="14" x="7" y="146.3" font-family="Roboto" fill="#6E7079">
2,340
</text>
<text font-size="14" x="7" y="203.5" font-family="Roboto" fill="#6E7079">
2,280
</text>
<text font-size="14" x="7" y="260.7" font-family="Roboto" fill="#6E7079">
2,220
</text>
<text font-size="14" x="7" y="317.8" font-family="Roboto" fill="#6E7079">
2,160
</text>
<text font-size="14" x="7" y="375" font-family="Roboto" fill="#6E7079">
2,100
</text>
</g>
<g>
<g stroke="#6E7079">
<line stroke-width="1" x1="51" y1="370" x2="591" y2="370"/>
<line stroke-width="1" x1="51" y1="370" x2="51" y2="375"/>
<line stroke-width="1" x1="132" y1="370" x2="132" y2="375"/>
<line stroke-width="1" x1="213" y1="370" x2="213" y2="375"/>
<line stroke-width="1" x1="294" y1="370" x2="294" y2="375"/>
<line stroke-width="1" x1="375" y1="370" x2="375" y2="375"/>
<line stroke-width="1" x1="456" y1="370" x2="456" y2="375"/>
<line stroke-width="1" x1="537" y1="370" x2="537" y2="375"/>
</g>
<text font-size="14" x="21.5" y="389" font-family="Roboto" fill="#6E7079">
2013/1/24
</text>
<text font-size="14" x="106.5" y="389" font-family="Roboto" fill="#6E7079">
2013/2/6
</text>
<text font-size="14" x="183.5" y="389" font-family="Roboto" fill="#6E7079">
2013/2/26
</text>
<text font-size="14" x="266" y="389" font-family="Roboto" fill="#6E7079">
2013/3/11
</text>
<text font-size="14" x="345.5" y="389" font-family="Roboto" fill="#6E7079">
2013/3/22
</text>
<text font-size="14" x="430.5" y="389" font-family="Roboto" fill="#6E7079">
2013/4/8
</text>
<text font-size="14" x="508" y="389" font-family="Roboto" fill="#6E7079">
2013/4/19
</text>
</g>
<line stroke-width="1" x1="53.5" y1="119.5" x2="53.5" y2="191.5" stroke="#EC0000"/>
<rect x="51.2" y="160.1" width="4.5" height="1" stroke="#000000" stroke-opacity="0" fill="#EC0000"/>
<line stroke-width="1" x1="62.5" y1="171.5" x2="62.5" y2="190.6" stroke="#00DA3C"/>
<rect x="60.2" y="179.4" width="4.5" height="8.3" stroke="#008F28" fill="#00DA3C"/>
<line stroke-width="1" x1="71.5" y1="134.7" x2="71.5" y2="183.9" stroke="#EC0000"/>
<rect x="69.2" y="135.1" width="4.5" height="48.7" stroke="#8A0000" fill="#EC0000"/>
<line stroke-width="1" x1="80.5" y1="118.7" x2="80.5" y2="143.9" stroke="#EC0000"/>
<rect x="78.2" y="123.2" width="4.5" height="11.2" stroke="#8A0000" fill="#EC0000"/>
<line stroke-width="1" x1="89.5" y1="99.6" x2="89.5" y2="133.8" stroke="#EC0000"/>
<rect x="87.2" y="100.9" width="4.5" height="20.7" stroke="#8A0000" fill="#EC0000"/>
<line stroke-width="1" x1="98.5" y1="92" x2="98.5" y2="111.6" stroke="#EC0000"/>
<rect x="96.2" y="98.1" width="4.5" height="1.9" stroke="#8A0000" fill="#EC0000"/>
<line stroke-width="1" x1="107.5" y1="64" x2="107.5" y2="113.2" stroke="#EC0000"/>
<rect x="105.2" y="66" width="4.5" height="39.6" stroke="#8A0000" fill="#EC0000"/>
<line stroke-width="1" x1="116.5" y1="45.7" x2="116.5" y2="67.4" stroke="#EC0000"/>
<rect x="114.2" y="57.3" width="4.5" height="2.1" stroke="#8A0000" fill="#EC0000"/>
<line stroke-width="1" x1="125.5" y1="48.5" x2="125.5" y2="81" stroke="#EC0000"/>
<rect x="123.2" y="52.6" width="4.5" height="21.1" stroke="#8A0000" fill="#EC0000"/>
<line stroke-width="1" x1="134.5" y1="44.4" x2="134.5" y2="57.8" stroke="#EC0000"/>
<rect x="132.2" y="51.3" width="4.5" height="1.7" stroke="#8A0000" fill="#EC0000"/>
<line stroke-width="1" x1="143.5" y1="51.9" x2="143.5" y2="89.7" stroke="#00DA3C"/>
<rect x="141.2" y="54.9" width="4.5" height="11.6" stroke="#008F28" fill="#00DA3C"/>
<line stroke-width="1" x1="152.5" y1="43.2" x2="152.5" y2="70.4" stroke="#EC0000"/>
<rect x="150.2" y="53.3" width="4.5" height="15" stroke="#8A0000" fill="#EC0000"/>
<line stroke-width="1" x1="161.5" y1="41.5" x2="161.5" y2="69.5" stroke="#00DA3C"/>
<rect x="159.2" y="44.2" width="4.5" height="19.4" stroke="#008F28" fill="#00DA3C"/>
<line stroke-width="1" x1="170.5" y1="58.4" x2="170.5" y2="109.4" stroke="#00DA3C"/>
<rect x="168.2" y="64.9" width="4.5" height="35.6" stroke="#008F28" fill="#00DA3C"/>
<line stroke-width="1" x1="179.5" y1="86.1" x2="179.5" y2="112.2" stroke="#EC0000"/>
<rect x="177.2" y="86.9" width="4.5" height="13" stroke="#8A0000" fill="#EC0000"/>
<line stroke-width="1" x1="188.5" y1="104.3" x2="188.5" y2="170.7" stroke="#00DA3C"/>
<rect x="186.2" y="104.3" width="4.5" height="50.4" stroke="#008F28" fill="#00DA3C"/>
<line stroke-width="1" x1="197.5" y1="150" x2="197.5" y2="171.1" stroke="#00DA3C"/>
<rect x="195.2" y="157.6" width="4.5" height="8.4" stroke="#008F28" fill="#00DA3C"/>
<line stroke-width="1" x1="206.5" y1="142.5" x2="206.5" y2="165.1" stroke="#EC0000"/>
<rect x="204.2" y="154.8" width="4.5" height="5" stroke="#8A0000" fill="#EC0000"/>
<line stroke-width="1" x1="215.5" y1="140.7" x2="215.5" y2="189.1" stroke="#00DA3C"/>
<rect x="213.2" y="166.4" width="4.5" height="19.4" stroke="#008F28" fill="#00DA3C"/>
<line stroke-width="1" x1="224.5" y1="156" x2="224.5" y2="187" stroke="#EC0000"/>
<rect x="222.2" y="166.8" width="4.5" height="14.7" stroke="#8A0000" fill="#EC0000"/>
<line stroke-width="1" x1="233.5" y1="116.4" x2="233.5" y2="170.9" stroke="#EC0000"/>
<rect x="231.2" y="117" width="4.5" height="41.2" stroke="#8A0000" fill="#EC0000"/>
<line stroke-width="1" x1="242.5" y1="113.1" x2="242.5" y2="150" stroke="#00DA3C"/>
<rect x="240.2" y="118" width="4.5" height="4.8" stroke="#008F28" fill="#00DA3C"/>
<line stroke-width="1" x1="251.5" y1="147.5" x2="251.5" y2="218.3" stroke="#00DA3C"/>
<rect x="249.2" y="148.9" width="4.5" height="55.9" stroke="#008F28" fill="#00DA3C"/>
<line stroke-width="1" x1="260.5" y1="152.6" x2="260.5" y2="207.9" stroke="#EC0000"/>
<rect x="258.2" y="154.4" width="4.5" height="49.1" stroke="#8A0000" fill="#EC0000"/>
<line stroke-width="1" x1="269.5" y1="130.4" x2="269.5" y2="158.9" stroke="#EC0000"/>
<rect x="267.2" y="134.5" width="4.5" height="12.9" stroke="#8A0000" fill="#EC0000"/>
<line stroke-width="1" x1="278.5" y1="129.9" x2="278.5" y2="175.4" stroke="#00DA3C"/>
<rect x="276.2" y="140.9" width="4.5" height="15.4" stroke="#008F28" fill="#00DA3C"/>
<line stroke-width="1" x1="287.5" y1="147.4" x2="287.5" y2="165.5" stroke="#00DA3C"/>
<rect x="285.2" y="154.3" width="4.5" height="7.4" stroke="#008F28" fill="#00DA3C"/>
<line stroke-width="1" x1="296.5" y1="159.5" x2="296.5" y2="182.7" stroke="#00DA3C"/>
<rect x="294.2" y="165.5" width="4.5" height="3.9" stroke="#008F28" fill="#00DA3C"/>
<line stroke-width="1" x1="305.5" y1="147.7" x2="305.5" y2="213" stroke="#00DA3C"/>
<rect x="303.2" y="170.7" width="4.5" height="21.5" stroke="#008F28" fill="#00DA3C"/>
<line stroke-width="1" x1="314.5" y1="192.5" x2="314.5" y2="224" stroke="#00DA3C"/>
<rect x="312.2" y="196.4" width="4.5" height="17.3" stroke="#008F28" fill="#00DA3C"/>
<line stroke-width="1" x1="323.5" y1="202.1" x2="323.5" y2="223.9" stroke="#EC0000"/>
<rect x="321.2" y="207.8" width="4.5" height="13.8" stroke="#8A0000" fill="#EC0000"/>
<line stroke-width="1" x1="332.5" y1="167.9" x2="332.5" y2="227.1" stroke="#EC0000"/>
<rect x="330.2" y="200" width="4.5" height="8.7" stroke="#8A0000" fill="#EC0000"/>
<line stroke-width="1" x1="341.5" y1="202.3" x2="341.5" y2="237.4" stroke="#00DA3C"/>
<rect x="339.2" y="210.6" width="4.5" height="26" stroke="#008F28" fill="#00DA3C"/>
<line stroke-width="1" x1="350.5" y1="216.3" x2="350.5" y2="244.2" stroke="#EC0000"/>
<rect x="348.2" y="220" width="4.5" height="12.5" stroke="#8A0000" fill="#EC0000"/>
<line stroke-width="1" x1="359.5" y1="162.4" x2="359.5" y2="220" stroke="#EC0000"/>
<rect x="357.2" y="162.9" width="4.5" height="56.8" stroke="#8A0000" fill="#EC0000"/>
<line stroke-width="1" x1="368.5" y1="150.1" x2="368.5" y2="168.4" stroke="#EC0000"/>
<rect x="366.2" y="156.3" width="4.5" height="5.7" stroke="#8A0000" fill="#EC0000"/>
<line stroke-width="1" x1="377.5" y1="149" x2="377.5" y2="165.2" stroke="#EC0000"/>
<rect x="375.2" y="152.5" width="4.5" height="6.6" stroke="#8A0000" fill="#EC0000"/>
<line stroke-width="1" x1="386.5" y1="136.7" x2="386.5" y2="160.5" stroke="#00DA3C"/>
<rect x="384.2" y="146.3" width="4.5" height="7.6" stroke="#008F28" fill="#00DA3C"/>
<line stroke-width="1" x1="395.5" y1="160.4" x2="395.5" y2="197.4" stroke="#00DA3C"/>
<rect x="393.2" y="161.7" width="4.5" height="19.9" stroke="#008F28" fill="#00DA3C"/>
<line stroke-width="1" x1="404.5" y1="157.1" x2="404.5" y2="189.9" stroke="#EC0000"/>
<rect x="402.2" y="178.2" width="4.5" height="1.8" stroke="#8A0000" fill="#EC0000"/>
<line stroke-width="1" x1="413.5" y1="204.6" x2="413.5" y2="243.4" stroke="#00DA3C"/>
<rect x="411.2" y="204.6" width="4.5" height="35.5" stroke="#008F28" fill="#00DA3C"/>
<line stroke-width="1" x1="422.5" y1="230.1" x2="422.5" y2="247.3" stroke="#00DA3C"/>
<rect x="420.2" y="238" width="4.5" height="1.8" stroke="#008F28" fill="#00DA3C"/>
<line stroke-width="1" x1="431.5" y1="232.8" x2="431.5" y2="248.7" stroke="#EC0000"/>
<rect x="429.2" y="241.9" width="4.5" height="4.7" stroke="#8A0000" fill="#EC0000"/>
<line stroke-width="1" x1="440.5" y1="223.8" x2="440.5" y2="255.2" stroke="#00DA3C"/>
<rect x="438.2" y="241.5" width="4.5" height="6.8" stroke="#008F28" fill="#00DA3C"/>
<line stroke-width="1" x1="449.5" y1="235.3" x2="449.5" y2="258.3" stroke="#00DA3C"/>
<rect x="447.2" y="243.6" width="4.5" height="7.1" stroke="#008F28" fill="#00DA3C"/>
<line stroke-width="1" x1="458.5" y1="262.7" x2="458.5" y2="293.1" stroke="#EC0000"/>
<rect x="456.2" y="263.7" width="4.5" height="14.6" stroke="#8A0000" fill="#EC0000"/>
<line stroke-width="1" x1="467.5" y1="241.6" x2="467.5" y2="260" stroke="#EC0000"/>
<rect x="465.2" y="250.2" width="4.5" height="9.8" stroke="#8A0000" fill="#EC0000"/>
<line stroke-width="1" x1="476.5" y1="243.2" x2="476.5" y2="262.8" stroke="#EC0000"/>
<rect x="474.2" y="249.8" width="4.5" height="1.1" stroke="#8A0000" fill="#EC0000"/>
<line stroke-width="1" x1="485.5" y1="234.2" x2="485.5" y2="258.3" stroke="#00DA3C"/>
<rect x="483.2" y="239.5" width="4.5" height="16.6" stroke="#008F28" fill="#00DA3C"/>
<line stroke-width="1" x1="494.5" y1="249.7" x2="494.5" y2="270.5" stroke="#00DA3C"/>
<rect x="492.2" y="257.5" width="4.5" height="10.8" stroke="#008F28" fill="#00DA3C"/>
<line stroke-width="1" x1="503.5" y1="270" x2="503.5" y2="296.3" stroke="#00DA3C"/>
<rect x="501.2" y="274.8" width="4.5" height="17.1" stroke="#008F28" fill="#00DA3C"/>
<line stroke-width="1" x1="512.5" y1="278.1" x2="512.5" y2="307.3" stroke="#EC0000"/>
<rect x="510.2" y="279.6" width="4.5" height="24" stroke="#8A0000" fill="#EC0000"/>
<line stroke-width="1" x1="521.5" y1="277.1" x2="521.5" y2="295.2" stroke="#00DA3C"/>
<rect x="519.2" y="279.5" width="4.5" height="1.2" stroke="#008F28" fill="#00DA3C"/>
<line stroke-width="1" x1="530.5" y1="269" x2="530.5" y2="298.1" stroke="#EC0000"/>
<rect x="528.2" y="277" width="4.5" height="15" stroke="#8A0000" fill="#EC0000"/>
<line stroke-width="1" x1="539.5" y1="227" x2="539.5" y2="274.2" stroke="#EC0000"/>
<rect x="537.2" y="232.2" width="4.5" height="41.5" stroke="#8A0000" fill="#EC0000"/>
<line stroke-width="1" x1="548.5" y1="231.7" x2="548.5" y2="244" stroke="#EC0000"/>
<rect x="546.2" y="234.5" width="4.5" height="5.5" stroke="#8A0000" fill="#EC0000"/>
<line stroke-width="1" x1="557.5" y1="234.1" x2="557.5" y2="291.1" stroke="#00DA3C"/>
<rect x="555.2" y="234.1" width="4.5" height="55.3" stroke="#008F28" fill="#00DA3C"/>
<line stroke-width="1" x1="566.5" y1="249.8" x2="566.5" y2="289.9" stroke="#EC0000"/>
<rect x="564.2" y="257.3" width="4.5" height="29.5" stroke="#8A0000" fill="#EC0000"/>
<line stroke-width="1" x1="575.5" y1="251.3" x2="575.5" y2="282.5" stroke="#00DA3C"/>
<rect x="573.2" y="262.2" width="4.5" height="13.2" stroke="#008F28" fill="#00DA3C"/>
<line stroke-width="1" x1="584.5" y1="264.6" x2="584.5" y2="299.6" stroke="#00DA3C"/>
<rect x="582.2" y="271" width="4.5" height="24.8" stroke="#008F28" fill="#00DA3C"/>
<g>
<path d="M 99.5 129 L 108.5 104.7 L 117.5 89.1 L 126.5 75 L 135.5 65.1 L 144.5 58.8 L 153.5 56.2 L 162.5 57.5 L 171.5 67 L 180.5 74.2 L 189.5 91.8 L 198.5 114.3 L 207.5 132.6 L 216.5 149.6 L 225.5 165.6 L 234.5 158.1 L 243.5 149.4 L 252.5 159.4 L 261.5 153.1 L 270.5 146.7 L 279.5 154.5 L 288.5 162.3 L 297.5 155.3 L 306.5 162.8 L 315.5 178.7 L 324.5 189 L 333.5 196.6 L 342.5 210.1 L 351.5 215.6 L 360.5 205.5 L 369.5 195.2 L 378.5 185.7 L 387.5 169.2 L 396.5 161.5 L 405.5 164.6 L 414.5 181.3 L 423.5 198.8 L 432.5 216.4 L 441.5 229.7 L 450.5 244.2 L 459.5 248.9 L 468.5 251 L 477.5 252.5 L 486.5 254.1 L 495.5 257.6 L 504.5 263.3 L 513.5 269.1 L 522.5 275.3 L 531.5 279.5 L 540.5 272.3 L 549.5 260.8 L 558.5 262.8 L 567.5 258.1 L 576.5 257.8 L 585.5 270.5" stroke-width="2" fill="none" stroke="#5470C6"/>
<circle cx="99.5" cy="129" r="2" stroke-width="2" stroke="#5470C6" fill="#FFFFFF"/>
<circle cx="108.5" cy="104.7" r="2" stroke-width="2" stroke="#5470C6" fill="#FFFFFF"/>
<circle cx="117.5" cy="89.1" r="2" stroke-width="2" stroke="#5470C6" fill="#FFFFFF"/>
<circle cx="126.5" cy="75" r="2" stroke-width="2" stroke="#5470C6" fill="#FFFFFF"/>
<circle cx="135.5" cy="65.1" r="2" stroke-width="2" stroke="#5470C6" fill="#FFFFFF"/>
<circle cx="144.5" cy="58.8" r="2" stroke-width="2" stroke="#5470C6" fill="#FFFFFF"/>
<circle cx="153.5" cy="56.2" r="2" stroke-width="2" stroke="#5470C6" fill="#FFFFFF"/>
<circle cx="162.5" cy="57.5" r="2" stroke-width="2" stroke="#5470C6" fill="#FFFFFF"/>
<circle cx="171.5" cy="67" r="2" stroke-width="2" stroke="#5470C6" fill="#FFFFFF"/>
<circle cx="180.5" cy="74.2" r="2" stroke-width="2" stroke="#5470C6" fill="#FFFFFF"/>
<circle cx="189.5" cy="91.8" r="2" stroke-width="2" stroke="#5470C6" fill="#FFFFFF"/>
<circle cx="198.5" cy="114.3" r="2" stroke-width="2" stroke="#5470C6" fill="#FFFFFF"/>
<circle cx="207.5" cy="132.6" r="2" stroke-width="2" stroke="#5470C6" fill="#FFFFFF"/>
<circle cx="216.5" cy="149.6" r="2" stroke-width="2" stroke="#5470C6" fill="#FFFFFF"/>
<circle cx="225.5" cy="165.6" r="2" stroke-width="2" stroke="#5470C6" fill="#FFFFFF"/>
<circle cx="234.5" cy="158.1" r="2" stroke-width="2" stroke="#5470C6" fill="#FFFFFF"/>
<circle cx="243.5" cy="149.4" r="2" stroke-width="2" stroke="#5470C6" fill="#FFFFFF"/>
<circle cx="252.5" cy="159.4" r="2" stroke-width="2" stroke="#5470C6" fill="#FFFFFF"/>
<circle cx="261.5" cy="153.1" r="2" stroke-width="2" stroke="#5470C6" fill="#FFFFFF"/>
<circle cx="270.5" cy="146.7" r="2" stroke-width="2" stroke="#5470C6" fill="#FFFFFF"/>
<circle cx="279.5" cy="154.5" r="2" stroke-width="2" stroke="#5470C6" fill="#FFFFFF"/>
<circle cx="288.5" cy="162.3" r="2" stroke-width="2" stroke="#5470C6" fill="#FFFFFF"/>
<circle cx="297.5" cy="155.3" r="2" stroke-width="2" stroke="#5470C6" fill="#FFFFFF"/>
<circle cx="306.5" cy="162.8" r="2" stroke-width="2" stroke="#5470C6" fill="#FFFFFF"/>
<circle cx="315.5" cy="178.7" r="2" stroke-width="2" stroke="#5470C6" fill="#FFFFFF"/>
<circle cx="324.5" cy="189" r="2" stroke-width="2" stroke="#5470C6" fill="#FFFFFF"/>
<circle cx="333.5" cy="196.6" r="2" stroke-width="2" stroke="#5470C6" fill="#FFFFFF"/>
<circle cx="342.5" cy="210.1" r="2" stroke-width="2" stroke="#5470C6" fill="#FFFFFF"/>
<circle cx="351.5" cy="215.6" r="2" stroke-width="2" stroke="#5470C6" fill="#FFFFFF"/>
<circle cx="360.5" cy="205.5" r="2" stroke-width="2" stroke="#5470C6" fill="#FFFFFF"/>
<circle cx="369.5" cy="195.2" r="2" stroke-width="2" stroke="#5470C6" fill="#FFFFFF"/>
<circle cx="378.5" cy="185.7" r="2" stroke-width="2" stroke="#5470C6" fill="#FFFFFF"/>
<circle cx="387.5" cy="169.2" r="2" stroke-width="2" stroke="#5470C6" fill="#FFFFFF"/>
<circle cx="396.5" cy="161.5" r="2" stroke-width="2" stroke="#5470C6" fill="#FFFFFF"/>
<circle cx="405.5" cy="164.6" r="2" stroke-width="2" stroke="#5470C6" fill="#FFFFFF"/>
<circle cx="414.5" cy="181.3" r="2" stroke-width="2" stroke="#5470C6" fill="#FFFFFF"/>
<circle cx="423.5" cy="198.8" r="2" stroke-width="2" stroke="#5470C6" fill="#FFFFFF"/>
<circle cx="432.5" cy="216.4" r="2" stroke-width="2" stroke="#5470C6" fill="#FFFFFF"/>
<circle cx="441.5" cy="229.7" r="2" stroke-width="2" stroke="#5470C6" fill="#FFFFFF"/>
<circle cx="450.5" cy="244.2" r="2" stroke-width="2" stroke="#5470C6" fill="#FFFFFF"/>
<circle cx="459.5" cy="248.9" r="2" stroke-width="2" stroke="#5470C6" fill="#FFFFFF"/>
<circle cx="468.5" cy="251" r="2" stroke-width="2" stroke="#5470C6" fill="#FFFFFF"/>
<circle cx="477.5" cy="252.5" r="2" stroke-width="2" stroke="#5470C6" fill="#FFFFFF"/>
<circle cx="486.5" cy="254.1" r="2" stroke-width="2" stroke="#5470C6" fill="#FFFFFF"/>
<circle cx="495.5" cy="257.6" r="2" stroke-width="2" stroke="#5470C6" fill="#FFFFFF"/>
<circle cx="504.5" cy="263.3" r="2" stroke-width="2" stroke="#5470C6" fill="#FFFFFF"/>
<circle cx="513.5" cy="269.1" r="2" stroke-width="2" stroke="#5470C6" fill="#FFFFFF"/>
<circle cx="522.5" cy="275.3" r="2" stroke-width="2" stroke="#5470C6" fill="#FFFFFF"/>
<circle cx="531.5" cy="279.5" r="2" stroke-width="2" stroke="#5470C6" fill="#FFFFFF"/>
<circle cx="540.5" cy="272.3" r="2" stroke-width="2" stroke="#5470C6" fill="#FFFFFF"/>
<circle cx="549.5" cy="260.8" r="2" stroke-width="2" stroke="#5470C6" fill="#FFFFFF"/>
<circle cx="558.5" cy="262.8" r="2" stroke-width="2" stroke="#5470C6" fill="#FFFFFF"/>
<circle cx="567.5" cy="258.1" r="2" stroke-width="2" stroke="#5470C6" fill="#FFFFFF"/>
<circle cx="576.5" cy="257.8" r="2" stroke-width="2" stroke="#5470C6" fill="#FFFFFF"/>
<circle cx="585.5" cy="270.5" r="2" stroke-width="2" stroke="#5470C6" fill="#FFFFFF"/>
</g>
</svg>