<svg width="600" height="400" viewBox="0 0 600 400" xmlns="http://www.w3.org/2000/svg">
<rect x="0" y="0" width="600" height="400" fill="#FFFFFF"/>
<g stroke="#E0E6F2">
<line stroke-width="1" x1="26" y1="27" x2="595" y2="27"/><line stroke-width="1" x1="26" y1="83.3" x2="595" y2="83.3"/><line stroke-width="1" x1="26" y1="139.7" x2="595" y2="139.7"/><line stroke-width="1" x1="26" y1="196" x2="595" y2="196"/><line stroke-width="1" x1="26" y1="252.3" x2="595" y2="252.3"/><line stroke-width="1" x1="26" y1="308.7" x2="595" y2="308.7"/>
</g>
<g>

<text font-size="14" x="2" y="32" font-family="Roboto" fill="#6E7079">
54
</text>
<text font-size="14" x="2" y="88.3" font-family="Roboto" fill="#6E7079">
45
</text>
<text font-size="14" x="2" y="144.7" font-family="Roboto" fill="#6E7079">
36
</text>
<text font-size="14" x="2" y="201" font-family="Roboto" fill="#6E7079">
27
</text>
<text font-size="14" x="2" y="257.3" font-family="Roboto" fill="#6E7079">
18
</text>
<text font-size="14" x="11" y="313.7" font-family="Roboto" fill="#6E7079">
9
</text>
<text font-size="14" x="10" y="370" font-family="Roboto" fill="#6E7079">
0
</text>
</g>
<g>
<g stroke="#6E7079">
<line stroke-width="1" x1="26" y1="365" x2="595" y2="365"/>
<line stroke-width="1" x1="26" y1="365" x2="26" y2="370"/>
<line stroke-width="1" x1="168.2" y1="365" x2="168.2" y2="370"/>
<line stroke-width="1" x1="310.5" y1="365" x2="310.5" y2="370"/>
<line stroke-width="1" x1="452.8" y1="365" x2="452.8" y2="370"/>
<line stroke-width="1" x1="595" y1="365" x2="595" y2="370"/>
</g>
<text font-size="14" x="61.1" y="384" font-family="Roboto" fill="#6E7079">
2017-10-24
</text>
<text font-size="14" x="203.4" y="384" font-family="Roboto" fill="#6E7079">
2017-10-25
</text>
<text font-size="14" x="345.6" y="384" font-family="Roboto" fill="#6E7079">
2017-10-26
</text>
<text font-size="14" x="487.9" y="384" font-family="Roboto" fill="#6E7079">
2017-10-27
</text>
</g>
<line stroke-width="1" x1="96.1" y1="127.1" x2="96.1" y2="302.4" stroke="#EC0000"/>
<rect x="60.6" y="152.2" width="71.1" height="87.6" stroke="#8A0000" fill="#EC0000"/>
<line stroke-width="1" x1="238.4" y1="52" x2="238.4" y2="177.2" stroke="#00DA3C"/>
<rect x="202.8" y="114.6" width="71.1" height="31.3" stroke="#008F28" fill="#00DA3C"/>
<line stroke-width="1" x1="380.6" y1="89.6" x2="380.6" y2="158.4" stroke="#EC0000"/>
<rect x="345.1" y="127.1" width="71.1" height="43.8" stroke="#8A0000" fill="#EC0000"/>
<line stroke-width="1" x1="522.9" y1="102.1" x2="522.9" y2="333.7" stroke="#00DA3C"/>
<rect x="487.3" y="127.1" width="71.1" height="144" stroke="#008F28" fill="#00DA3C"/>
</svg>