<svg width="600" height="400" viewBox="0 0 600 400" xmlns="http://www.w3.org/2000/svg">
<rect x="0" y="0" width="600" height="400" fill="#FFFFFF"/>
<g stroke="#E0E6F2">
<line stroke-width="1" x1="45" y1="27" x2="595" y2="27"/><line stroke-width="1" x1="45" y1="83.3" x2="595" y2="83.3"/><line stroke-width="1" x1="45" y1="139.7" x2="595" y2="139.7"/><line stroke-width="1" x1="45" y1="196" x2="595" y2="196"/><line stroke-width="1" x1="45" y1="252.3" x2="595" y2="252.3"/><line stroke-width="1" x1="45" y1="308.7" x2="595" y2="308.7"/>
</g>
<g>

<text font-size="14" x="2" y="32" font-family="Roboto" fill="#6E7079">
2,500
</text>
<text font-size="14" x="2" y="88.3" font-family="Roboto" fill="#6E7079">
2,450
</text>
<text font-size="14" x="2" y="144.7" font-family="Roboto" fill="#6E7079">
2,400
</text>
<text font-size="14" x="2" y="201" font-family="Roboto" fill="#6E7079">
2,350
</text>
<text font-size="14" x="2" y="257.3" font-family="Roboto" fill="#6E7079">
2,300
</text>
<text font-size="14" x="2" y="313.7" font-family="Roboto" fill="#6E7079">
2,250
</text>
<text font-size="14" x="2" y="370" font-family="Roboto" fill="#6E7079">
2,200
</text>
</g>
<g>
<g stroke="#6E7079">
<line stroke-width="1" x1="45" y1="365" x2="595" y2="365"/>
<line stroke-width="1" x1="45" y1="365" x2="45" y2="370"/>
<line stroke-width="1" x1="71.2" y1="365" x2="71.2" y2="370"/>
<line stroke-width="1" x1="97.4" y1="365" x2="97.4" y2="370"/>
<line stroke-width="1" x1="123.6" y1="365" x2="123.6" y2="370"/>
<line stroke-width="1" x1="149.8" y1="365" x2="149.8" y2="370"/>
<line stroke-width="1" x1="176" y1="365" x2="176" y2="370"/>
<line stroke-width="1" x1="202.1" y1="365" x2="202.1" y2="370"/>
<line stroke-width="1" x1="228.3" y1="365" x2="228.3" y2="370"/>
<line stroke-width="1" x1="254.5" y1="365" x2="254.5" y2="370"/>
<line stroke-width="1" x1="280.7" y1="365" x2="280.7" y2="370"/>
<line stroke-width="1" x1="306.9" y1="365" x2="306.9" y2="370"/>
<line stroke-width="1" x1="333.1" y1="365" x2="333.1" y2="370"/>
<line stroke-width="1" x1="359.3" y1="365" x2="359.3" y2="370"/>
<line stroke-width="1" x1="385.5" y1="365" x2="385.5" y2="370"/>
<line stroke-width="1" x1="411.7" y1="365" x2="411.7" y2="370"/>
<line stroke-width="1" x1="437.9" y1="365" x2="437.9" y2="370"/>
<line stroke-width="1" x1="464" y1="365" x2="464" y2="370"/>
<line stroke-width="1" x1="490.2" y1="365" x2="490.2" y2="370"/>
<line stroke-width="1" x1="516.4" y1="365" x2="516.4" y2="370"/>
<line stroke-width="1" x1="542.6" y1="365" x2="542.6" y2="370"/>
<line stroke-width="1" x1="568.8" y1="365" x2="568.8" y2="370"/>
<line stroke-width="1" x1="595" y1="365" x2="595" y2="370"/>
</g>
<text font-size="14" x="24.1" y="384" font-family="Roboto" fill="#6E7079">
2013/1/24
</text>
<text font-size="14" x="50.3" y="384" font-family="Roboto" fill="#6E7079">
2013/1/25
</text>
<text font-size="14" x="76.5" y="384" font-family="Roboto" fill="#6E7079">
2013/1/28
</text>
<text font-size="14" x="103.2" y="384" font-family="Roboto" fill="#6E7079">
2013/1/29
</text>
<text font-size="14" x="128.9" y="384" font-family="Roboto" fill="#6E7079">
2013/1/30
</text>
<text font-size="14" x="156.5" y="384" font-family="Roboto" fill="#6E7079">
2013/1/31
</text>
<text font-size="14" x="186.7" y="384" font-family="Roboto" fill="#6E7079">
2013/2/1
</text>
<text font-size="14" x="211.4" y="384" font-family="Roboto" fill="#6E7079">
2013/2/4
</text>
<text font-size="14" x="237.6" y="384" font-family="Roboto" fill="#6E7079">
2013/2/5
</text>
<text font-size="14" x="263.8" y="384" font-family="Roboto" fill="#6E7079">
2013/2/6
</text>
<text font-size="14" x="290" y="384" font-family="Roboto" fill="#6E7079">
2013/2/7
</text>
<text font-size="14" x="316.2" y="384" font-family="Roboto" fill="#6E7079">
2013/2/8
</text>
<text font-size="14" x="338.4" y="384" font-family="Roboto" fill="#6E7079">
2013/2/18
</text>
<text font-size="14" x="365.1" y="384" font-family="Roboto" fill="#6E7079">
2013/2/19
</text>
<text font-size="14" x="390.8" y="384" font-family="Roboto" fill="#6E7079">
2013/2/20
</text>
<text font-size="14" x="418.5" y="384" font-family="Roboto" fill="#6E7079">
2013/2/21
</text>
<text font-size="14" x="443.1" y="384" font-family="Roboto" fill="#6E7079">
2013/2/22
</text>
<text font-size="14" x="469.3" y="384" font-family="Roboto" fill="#6E7079">
2013/2/25
</text>
<text font-size="14" x="495.5" y="384" font-family="Roboto" fill="#6E7079">
2013/2/26
</text>
<text font-size="14" x="521.7" y="384" font-family="Roboto" fill="#6E7079">
2013/2/27
</text>
<text font-size="14" x="547.9" y="384" font-family="Roboto" fill="#6E7079">
2013/2/28
</text>
</g>
<rect x="50.5" y="229.5" width="13.1" height="1" stroke="#000000" stroke-opacity="0" fill="#EC0000"/>
<line stroke-width="1" x1="58.1" y1="181.4" x2="58.1" y2="266.6" stroke="#EC0000"/>
<rect x="76.7" y="252.3" width="13.1" height="9.8" stroke="#008F28" fill="#00DA3C"/>
<line stroke-width="1" x1="84.3" y1="242.9" x2="84.3" y2="265.6" stroke="#00DA3C"/>
<rect x="102.9" y="199.9" width="13.1" height="57.6" stroke="#8A0000" fill="#EC0000"/>
<line stroke-width="1" x1="110.5" y1="199.5" x2="110.5" y2="257.6" stroke="#EC0000"/>
<rect x="129.1" y="185.9" width="13.1" height="13.2" stroke="#8A0000" fill="#EC0000"/>
<line stroke-width="1" x1="136.7" y1="180.5" x2="136.7" y2="210.3" stroke="#EC0000"/>
<rect x="155.3" y="159.4" width="13.1" height="24.5" stroke="#8A0000" fill="#EC0000"/>
<line stroke-width="1" x1="162.9" y1="158" x2="162.9" y2="198.4" stroke="#EC0000"/>
<rect x="181.5" y="156.1" width="13.1" height="2.2" stroke="#8A0000" fill="#EC0000"/>
<line stroke-width="1" x1="189" y1="148.9" x2="189" y2="172.1" stroke="#EC0000"/>
<rect x="207.7" y="118.2" width="13.1" height="46.9" stroke="#8A0000" fill="#EC0000"/>
<line stroke-width="1" x1="215.2" y1="115.8" x2="215.2" y2="174" stroke="#EC0000"/>
<rect x="233.9" y="108" width="13.1" height="2.5" stroke="#8A0000" fill="#EC0000"/>
<line stroke-width="1" x1="241.4" y1="94.2" x2="241.4" y2="119.9" stroke="#EC0000"/>
<rect x="260.1" y="102.3" width="13.1" height="24.9" stroke="#8A0000" fill="#EC0000"/>
<line stroke-width="1" x1="267.6" y1="97.5" x2="267.6" y2="135.9" stroke="#EC0000"/>
<rect x="286.3" y="100.8" width="13.1" height="2" stroke="#8A0000" fill="#EC0000"/>
<line stroke-width="1" x1="293.8" y1="92.7" x2="293.8" y2="108.5" stroke="#EC0000"/>
<rect x="312.5" y="105.1" width="13.1" height="13.7" stroke="#008F28" fill="#00DA3C"/>
<line stroke-width="1" x1="320" y1="101.5" x2="320" y2="146.2" stroke="#00DA3C"/>
<rect x="338.6" y="103.2" width="13.1" height="17.8" stroke="#8A0000" fill="#EC0000"/>
<line stroke-width="1" x1="346.2" y1="91.2" x2="346.2" y2="123.4" stroke="#EC0000"/>
<rect x="364.8" y="92.4" width="13.1" height="22.9" stroke="#008F28" fill="#00DA3C"/>
<line stroke-width="1" x1="372.4" y1="89.2" x2="372.4" y2="122.3" stroke="#00DA3C"/>
<rect x="391" y="116.8" width="13.1" height="42.1" stroke="#008F28" fill="#00DA3C"/>
<line stroke-width="1" x1="398.6" y1="109.2" x2="398.6" y2="169.5" stroke="#00DA3C"/>
<rect x="417.2" y="142.8" width="13.1" height="15.4" stroke="#8A0000" fill="#EC0000"/>
<line stroke-width="1" x1="424.8" y1="142" x2="424.8" y2="172.8" stroke="#EC0000"/>
<rect x="443.4" y="163.5" width="13.1" height="59.6" stroke="#008F28" fill="#00DA3C"/>
<line stroke-width="1" x1="451" y1="163.5" x2="451" y2="242" stroke="#00DA3C"/>
<rect x="469.6" y="226.5" width="13.1" height="9.9" stroke="#008F28" fill="#00DA3C"/>
<line stroke-width="1" x1="477.1" y1="217.5" x2="477.1" y2="242.5" stroke="#00DA3C"/>
<rect x="495.8" y="223.2" width="13.1" height="5.9" stroke="#8A0000" fill="#EC0000"/>
<line stroke-width="1" x1="503.3" y1="208.6" x2="503.3" y2="235.4" stroke="#EC0000"/>
<rect x="522" y="236.9" width="13.1" height="23" stroke="#008F28" fill="#00DA3C"/>
<line stroke-width="1" x1="529.5" y1="206.5" x2="529.5" y2="263.7" stroke="#00DA3C"/>
<rect x="548.2" y="237.4" width="13.1" height="17.4" stroke="#8A0000" fill="#EC0000"/>
<line stroke-width="1" x1="555.7" y1="224.6" x2="555.7" y2="261.3" stroke="#EC0000"/>
<rect x="574.4" y="178.4" width="13.1" height="48.8" stroke="#8A0000" fill="#EC0000"/>
<line stroke-width="1" x1="581.9" y1="177.8" x2="581.9" y2="242.3" stroke="#EC0000"/>
</svg>