<svg width="600" height="400" viewBox="0 0 600 400" xmlns="http://www.w3.org/2000/svg">
<rect x="0" y="0" width="600" height="400" fill="#FFFFFF"/>
<g>
<line stroke-width="2" x1="244.5" y1="15" x2="269.5" y2="15" stroke="#5470C6"/>
<circle cx="257" cy="15" r="5.5" stroke-width="2" stroke="#5470C6" fill="#FFFFFF"/>
<text font-size="14" x="272.5" y="19" font-family="Roboto" fill="#464646">
MA5
</text>
</g>
<g>
<line stroke-width="2" x1="308.5" y1="15" x2="333.5" y2="15" stroke="#91CC75"/>
<circle cx="321" cy="15" r="5.5" stroke-width="2" stroke="#91CC75" fill="#FFFFFF"/>
<text font-size="14" x="336.5" y="19" font-family="Roboto" fill="#464646">
日K
</text>
</g>
<g stroke="#E0E6F2">
<line stroke-width="1" x1="45" y1="27" x2="595" y2="27"/><line stroke-width="1" x1="45" y1="83.3" x2="595" y2="83.3"/><line stroke-width="1" x1="45" y1="139.7" x2="595" y2="139.7"/><line stroke-width="1" x1="45" y1="196" x2="595" y2="196"/><line stroke-width="1" x1="45" y1="252.3" x2="595" y2="252.3"/><line stroke-width="1" x1="45" y1="308.7" x2="595" y2="308.7"/>
</g>
<g>

<text font-size="14" x="2" y="32" font-family="Roboto" fill="#6E7079">
2,460
</text>
<text font-size="14" x="2" y="88.3" font-family="Roboto" fill="#6E7079">
2,400
</text>
<text font-size="14" x="2" y="144.7" font-family="Roboto" fill="#6E7079">
2,340
</text>
<text font-size="14" x="2" y="201" font-family="Roboto" fill="#6E7079">
2,280
</text>
<text font-size="14" x="2" y="257.3" font-family="Roboto" fill="#6E7079">
2,220
</text>
<text font-size="14" x="2" y="313.7" font-family="Roboto" fill="#6E7079">
2,160
</text>
<text font-size="14" x="2" y="370" font-family="Roboto" fill="#6E7079">
2,100
</text>
</g>
<g>
<g stroke="#6E7079">
<line stroke-width="1" x1="45" y1="365" x2="595" y2="365"/>
<line stroke-width="1" x1="45" y1="365" x2="45" y2="370"/>
<line stroke-width="1" x1="127.5" y1="365" x2="127.5" y2="370"/>
<line stroke-width="1" x1="210" y1="365" x2="210" y2="370"/>
<line stroke-width="1" x1="292.5" y1="365" x2="292.5" y2="370"/>
<line stroke-width="1" x1="375" y1="365" x2="375" y2="370"/>
<line stroke-width="1" x1="457.5" y1="365" x2="457.5" y2="370"/>
<line stroke-width="1" x1="540" y1="365" x2="540" y2="370"/>
</g>
<text font-size="14" x="15.6" y="384" font-family="Roboto" fill="#6E7079">
2013/1/24
</text>
<text font-size="14" x="102.1" y="384" font-family="Roboto" fill="#6E7079">
2013/2/6
</text>
<text font-size="14" x="180.6" y="384" font-family="Roboto" fill="#6E7079">
2013/2/26
</text>
<text font-size="14" x="264.6" y="384" font-family="Roboto" fill="#6E7079">
2013/3/11
</text>
<text font-size="14" x="345.6" y="384" font-family="Roboto" fill="#6E7079">
2013/3/22
</text>
<text font-size="14" x="432.1" y="384" font-family="Roboto" fill="#6E7079">
2013/4/8
</text>
<text font-size="14" x="511.1" y="384" font-family="Roboto" fill="#6E7079">
2013/4/19
</text>
</g>
<line stroke-width="1" x1="48.6" y1="118.1" x2="48.6" y2="189.1" stroke="#EC0000"/>
<rect x="46.3" y="158.2" width="4.6" height="1" stroke="#000000" stroke-opacity="0" fill="#EC0000"/>
<line stroke-width="1" x1="57.8" y1="169.4" x2="57.8" y2="188.2" stroke="#00DA3C"/>
<rect x="55.5" y="177.2" width="4.6" height="8.2" stroke="#008F28" fill="#00DA3C"/>
<line stroke-width="1" x1="66.9" y1="133.2" x2="66.9" y2="181.6" stroke="#EC0000"/>
<rect x="64.6" y="133.6" width="4.6" height="48" stroke="#8A0000" fill="#EC0000"/>
<line stroke-width="1" x1="76.1" y1="117.3" x2="76.1" y2="142.2" stroke="#EC0000"/>
<rect x="73.8" y="121.8" width="4.6" height="11" stroke="#8A0000" fill="#EC0000"/>
<line stroke-width="1" x1="85.2" y1="98.6" x2="85.2" y2="132.3" stroke="#EC0000"/>
<rect x="83" y="99.8" width="4.6" height="20.4" stroke="#8A0000" fill="#EC0000"/>
<line stroke-width="1" x1="94.4" y1="91" x2="94.4" y2="110.3" stroke="#EC0000"/>
<rect x="92.1" y="97" width="4.6" height="1.9" stroke="#8A0000" fill="#EC0000"/>
<line stroke-width="1" x1="103.6" y1="63.5" x2="103.6" y2="111.9" stroke="#EC0000"/>
<rect x="101.3" y="65.5" width="4.6" height="39.1" stroke="#8A0000" fill="#EC0000"/>
<line stroke-width="1" x1="112.8" y1="45.4" x2="112.8" y2="66.8" stroke="#EC0000"/>
<rect x="110.5" y="56.9" width="4.6" height="2.1" stroke="#8A0000" fill="#EC0000"/>
<line stroke-width="1" x1="121.9" y1="48.2" x2="121.9" y2="80.2" stroke="#EC0000"/>
<rect x="119.6" y="52.2" width="4.6" height="20.8" stroke="#8A0000" fill="#EC0000"/>
<line stroke-width="1" x1="131.1" y1="44.2" x2="131.1" y2="57.3" stroke="#EC0000"/>
<rect x="128.8" y="51" width="4.6" height="1.7" stroke="#8A0000" fill="#EC0000"/>
<line stroke-width="1" x1="140.2" y1="51.5" x2="140.2" y2="88.8" stroke="#00DA3C"/>
<rect x="138" y="54.5" width="4.6" height="11.4" stroke="#008F28" fill="#00DA3C"/>
<line stroke-width="1" x1="149.4" y1="42.9" x2="149.4" y2="69.8" stroke="#EC0000"/>
<rect x="147.1" y="52.9" width="4.6" height="14.8" stroke="#8A0000" fill="#EC0000"/>
<line stroke-width="1" x1="158.6" y1="41.3" x2="158.6" y2="68.8" stroke="#00DA3C"/>
<rect x="156.3" y="44" width="4.6" height="19.1" stroke="#008F28" fill="#00DA3C"/>
<line stroke-width="1" x1="167.8" y1="57.9" x2="167.8" y2="108.2" stroke="#00DA3C"/>
<rect x="165.5" y="64.3" width="4.6" height="35.1" stroke="#008F28" fill="#00DA3C"/>
<line stroke-width="1" x1="176.9" y1="85.3" x2="176.9" y2="110.9" stroke="#EC0000"/>
<rect x="174.6" y="86" width="4.6" height="12.9" stroke="#8A0000" fill="#EC0000"/>
<line stroke-width="1" x1="186.1" y1="103.2" x2="186.1" y2="168.6" stroke="#00DA3C"/>
<rect x="183.8" y="103.2" width="4.6" height="49.6" stroke="#008F28" fill="#00DA3C"/>
<line stroke-width="1" x1="195.2" y1="148.2" x2="195.2" y2="169" stroke="#00DA3C"/>
<rect x="193" y="155.7" width="4.6" height="8.2" stroke="#008F28" fill="#00DA3C"/>
<line stroke-width="1" x1="204.4" y1="140.8" x2="204.4" y2="163.1" stroke="#EC0000"/>
<rect x="202.1" y="153" width="4.6" height="4.9" stroke="#8A0000" fill="#EC0000"/>
<line stroke-width="1" x1="213.6" y1="139" x2="213.6" y2="186.7" stroke="#00DA3C"/>
<rect x="211.3" y="164.3" width="4.6" height="19.2" stroke="#008F28" fill="#00DA3C"/>
<line stroke-width="1" x1="222.8" y1="154.1" x2="222.8" y2="184.7" stroke="#EC0000"/>
<rect x="220.5" y="164.8" width="4.6" height="14.5" stroke="#8A0000" fill="#EC0000"/>
<line stroke-width="1" x1="231.9" y1="115.1" x2="231.9" y2="168.8" stroke="#EC0000"/>
<rect x="229.6" y="115.6" width="4.6" height="40.6" stroke="#8A0000" fill="#EC0000"/>
<line stroke-width="1" x1="241.1" y1="111.8" x2="241.1" y2="148.2" stroke="#00DA3C"/>
<rect x="238.8" y="116.6" width="4.6" height="4.7" stroke="#008F28" fill="#00DA3C"/>
<line stroke-width="1" x1="250.2" y1="145.7" x2="250.2" y2="215.5" stroke="#00DA3C"/>
<rect x="248" y="147.1" width="4.6" height="55.1" stroke="#008F28" fill="#00DA3C"/>
<line stroke-width="1" x1="259.4" y1="150.8" x2="259.4" y2="205.3" stroke="#EC0000"/>
<rect x="257.1" y="152.5" width="4.6" height="48.4" stroke="#8A0000" fill="#EC0000"/>
<line stroke-width="1" x1="268.6" y1="128.9" x2="268.6" y2="156.9" stroke="#EC0000"/>
<rect x="266.3" y="132.9" width="4.6" height="12.7" stroke="#8A0000" fill="#EC0000"/>
<line stroke-width="1" x1="277.8" y1="128.4" x2="277.8" y2="173.2" stroke="#00DA3C"/>
<rect x="275.5" y="139.3" width="4.6" height="15.2" stroke="#008F28" fill="#00DA3C"/>
<line stroke-width="1" x1="286.9" y1="145.6" x2="286.9" y2="163.5" stroke="#00DA3C"/>
<rect x="284.6" y="152.4" width="4.6" height="7.3" stroke="#008F28" fill="#00DA3C"/>
<line stroke-width="1" x1="296.1" y1="157.5" x2="296.1" y2="180.4" stroke="#00DA3C"/>
<rect x="293.8" y="163.4" width="4.6" height="3.8" stroke="#008F28" fill="#00DA3C"/>
<line stroke-width="1" x1="305.3" y1="146" x2="305.3" y2="210.2" stroke="#00DA3C"/>
<rect x="303" y="168.6" width="4.6" height="21.2" stroke="#008F28" fill="#00DA3C"/>
<line stroke-width="1" x1="314.4" y1="190.1" x2="314.4" y2="221.1" stroke="#00DA3C"/>
<rect x="312.1" y="194" width="4.6" height="17.1" stroke="#008F28" fill="#00DA3C"/>
<line stroke-width="1" x1="323.6" y1="199.5" x2="323.6" y2="221.1" stroke="#EC0000"/>
<rect x="321.3" y="205.1" width="4.6" height="13.6" stroke="#8A0000" fill="#EC0000"/>
<line stroke-width="1" x1="332.8" y1="165.9" x2="332.8" y2="224.2" stroke="#EC0000"/>
<rect x="330.5" y="197.5" width="4.6" height="8.5" stroke="#8A0000" fill="#EC0000"/>
<line stroke-width="1" x1="341.9" y1="199.7" x2="341.9" y2="234.3" stroke="#00DA3C"/>
<rect x="339.6" y="207.9" width="4.6" height="25.6" stroke="#008F28" fill="#00DA3C"/>
<line stroke-width="1" x1="351.1" y1="213.5" x2="351.1" y2="241" stroke="#EC0000"/>
<rect x="348.8" y="217.2" width="4.6" height="12.4" stroke="#8A0000" fill="#EC0000"/>
<line stroke-width="1" x1="360.3" y1="160.5" x2="360.3" y2="217.2" stroke="#EC0000"/>
<rect x="358" y="160.9" width="4.6" height="56" stroke="#8A0000" fill="#EC0000"/>
<line stroke-width="1" x1="369.4" y1="148.3" x2="369.4" y2="166.3" stroke="#EC0000"/>
<rect x="367.1" y="154.5" width="4.6" height="5.7" stroke="#8A0000" fill="#EC0000"/>
<line stroke-width="1" x1="378.6" y1="147.2" x2="378.6" y2="163.2" stroke="#EC0000"/>
<rect x="376.3" y="150.7" width="4.6" height="6.5" stroke="#8A0000" fill="#EC0000"/>
<line stroke-width="1" x1="387.8" y1="135.1" x2="387.8" y2="158.5" stroke="#00DA3C"/>
<rect x="385.5" y="144.6" width="4.6" height="7.5" stroke="#008F28" fill="#00DA3C"/>
<line stroke-width="1" x1="396.9" y1="158.5" x2="396.9" y2="194.9" stroke="#00DA3C"/>
<rect x="394.6" y="159.8" width="4.6" height="19.6" stroke="#008F28" fill="#00DA3C"/>
<line stroke-width="1" x1="406.1" y1="155.2" x2="406.1" y2="187.6" stroke="#EC0000"/>
<rect x="403.8" y="176" width="4.6" height="1.8" stroke="#8A0000" fill="#EC0000"/>
<line stroke-width="1" x1="415.3" y1="202.1" x2="415.3" y2="240.2" stroke="#00DA3C"/>
<rect x="413" y="202.1" width="4.6" height="35" stroke="#008F28" fill="#00DA3C"/>
<line stroke-width="1" x1="424.4" y1="227.1" x2="424.4" y2="244.1" stroke="#00DA3C"/>
<rect x="422.1" y="235" width="4.6" height="1.8" stroke="#008F28" fill="#00DA3C"/>
<line stroke-width="1" x1="433.6" y1="229.8" x2="433.6" y2="245.5" stroke="#EC0000"/>
<rect x="431.3" y="238.8" width="4.6" height="4.6" stroke="#8A0000" fill="#EC0000"/>
<line stroke-width="1" x1="442.8" y1="221" x2="442.8" y2="251.9" stroke="#00DA3C"/>
<rect x="440.5" y="238.3" width="4.6" height="6.7" stroke="#008F28" fill="#00DA3C"/>
<line stroke-width="1" x1="451.9" y1="232.3" x2="451.9" y2="254.9" stroke="#00DA3C"/>
<rect x="449.6" y="240.4" width="4.6" height="6.9" stroke="#008F28" fill="#00DA3C"/>
<line stroke-width="1" x1="461.1" y1="259.3" x2="461.1" y2="289.3" stroke="#EC0000"/>
<rect x="458.8" y="260.2" width="4.6" height="14.4" stroke="#8A0000" fill="#EC0000"/>
<line stroke-width="1" x1="470.3" y1="238.5" x2="470.3" y2="256.6" stroke="#EC0000"/>
<rect x="468" y="246.9" width="4.6" height="9.7" stroke="#8A0000" fill="#EC0000"/>
<line stroke-width="1" x1="479.4" y1="240.1" x2="479.4" y2="259.3" stroke="#EC0000"/>
<rect x="477.1" y="246.6" width="4.6" height="1.1" stroke="#8A0000" fill="#EC0000"/>
<line stroke-width="1" x1="488.6" y1="231.2" x2="488.6" y2="254.9" stroke="#00DA3C"/>
<rect x="486.3" y="236.4" width="4.6" height="16.4" stroke="#008F28" fill="#00DA3C"/>
<line stroke-width="1" x1="497.8" y1="246.5" x2="497.8" y2="266.9" stroke="#00DA3C"/>
<rect x="495.5" y="254.1" width="4.6" height="10.6" stroke="#008F28" fill="#00DA3C"/>
<line stroke-width="1" x1="506.9" y1="266.4" x2="506.9" y2="292.3" stroke="#00DA3C"/>
<rect x="504.6" y="271.2" width="4.6" height="16.9" stroke="#008F28" fill="#00DA3C"/>
<line stroke-width="1" x1="516.1" y1="274.5" x2="516.1" y2="303.2" stroke="#EC0000"/>
<rect x="513.8" y="275.9" width="4.6" height="23.7" stroke="#8A0000" fill="#EC0000"/>
<line stroke-width="1" x1="525.2" y1="273.4" x2="525.2" y2="291.3" stroke="#00DA3C"/>
<rect x="523" y="275.8" width="4.6" height="1.2" stroke="#008F28" fill="#00DA3C"/>
<line stroke-width="1" x1="534.4" y1="265.4" x2="534.4" y2="294.2" stroke="#EC0000"/>
<rect x="532.1" y="273.4" width="4.6" height="14.8" stroke="#8A0000" fill="#EC0000"/>
<line stroke-width="1" x1="543.6" y1="224.1" x2="543.6" y2="270.6" stroke="#EC0000"/>
<rect x="541.3" y="229.2" width="4.6" height="40.9" stroke="#8A0000" fill="#EC0000"/>
<line stroke-width="1" x1="552.8" y1="228.7" x2="552.8" y2="240.8" stroke="#EC0000"/>
<rect x="550.5" y="231.5" width="4.6" height="5.4" stroke="#8A0000" fill="#EC0000"/>
<line stroke-width="1" x1="561.9" y1="231.1" x2="561.9" y2="287.3" stroke="#00DA3C"/>
<rect x="559.6" y="231.1" width="4.6" height="54.5" stroke="#008F28" fill="#00DA3C"/>
<line stroke-width="1" x1="571.1" y1="246.6" x2="571.1" y2="286" stroke="#EC0000"/>
<rect x="568.8" y="253.9" width="4.6" height="29.1" stroke="#8A0000" fill="#EC0000"/>
<line stroke-width="1" x1="580.2" y1="248" x2="580.2" y2="278.8" stroke="#00DA3C"/>
<rect x="578" y="258.7" width="4.6" height="13" stroke="#008F28" fill="#00DA3C"/>
<line stroke-width="1" x1="589.4" y1="261.2" x2="589.4" y2="295.7" stroke="#00DA3C"/>
<rect x="587.1" y="267.5" width="4.6" height="24.4" stroke="#008F28" fill="#00DA3C"/>
<g>
<path d="M 95.4 127.5 L 104.6 103.5 L 113.8 88.2 L 122.9 74.3 L 132.1 64.5 L 141.2 58.3 L 150.4 55.8 L 159.6 57 L 168.8 66.5 L 177.9 73.5 L 187.1 90.9 L 196.2 113 L 205.4 131 L 214.6 147.8 L 223.8 163.6 L 232.9 156.2 L 242.1 147.7 L 251.2 157.5 L 260.4 151.3 L 269.6 144.9 L 278.8 152.7 L 287.9 160.4 L 297.1 153.4 L 306.3 160.8 L 315.4 176.5 L 324.6 186.6 L 333.8 194.2 L 342.9 207.4 L 352.1 212.9 L 361.3 202.9 L 370.4 192.7 L 379.6 183.4 L 388.8 167.1 L 397.9 159.5 L 407.1 162.5 L 416.3 179.1 L 425.4 196.3 L 434.6 213.6 L 443.8 226.7 L 452.9 241 L 462.1 245.6 L 471.3 247.7 L 480.4 249.2 L 489.6 250.8 L 498.8 254.2 L 507.9 259.8 L 517.1 265.6 L 526.2 271.7 L 535.4 275.8 L 544.6 268.7 L 553.8 257.4 L 562.9 259.3 L 572.1 254.7 L 581.2 254.4 L 590.4 266.9" stroke-width="2" fill="none" stroke="#5470C6"/>
<circle cx="95.4" cy="127.5" r="2" stroke-width="2" stroke="#5470C6" fill="#FFFFFF"/>
<circle cx="104.6" cy="103.5" r="2" stroke-width="2" stroke="#5470C6" fill="#FFFFFF"/>
<circle cx="113.8" cy="88.2" r="2" stroke-width="2" stroke="#5470C6" fill="#FFFFFF"/>
<circle cx="122.9" cy="74.3" r="2" stroke-width="2" stroke="#5470C6" fill="#FFFFFF"/>
<circle cx="132.1" cy="64.5" r="2" stroke-width="2" stroke="#5470C6" fill="#FFFFFF"/>
<circle cx="141.2" cy="58.3" r="2" stroke-width="2" stroke="#5470C6" fill="#FFFFFF"/>
<circle cx="150.4" cy="55.8" r="2" stroke-width="2" stroke="#5470C6" fill="#FFFFFF"/>
<circle cx="159.6" cy="57" r="2" stroke-width="2" stroke="#5470C6" fill="#FFFFFF"/>
<circle cx="168.8" cy="66.5" r="2" stroke-width="2" stroke="#5470C6" fill="#FFFFFF"/>
<circle cx="177.9" cy="73.5" r="2" stroke-width="2" stroke="#5470C6" fill="#FFFFFF"/>
<circle cx="187.1" cy="90.9" r="2" stroke-width="2" stroke="#5470C6" fill="#FFFFFF"/>
<circle cx="196.2" cy="113" r="2" stroke-width="2" stroke="#5470C6" fill="#FFFFFF"/>
<circle cx="205.4" cy="131" r="2" stroke-width="2" stroke="#5470C6" fill="#FFFFFF"/>
<circle cx="214.6" cy="147.8" r="2" stroke-width="2" stroke="#5470C6" fill="#FFFFFF"/>
<circle cx="223.8" cy="163.6" r="2" stroke-width="2" stroke="#5470C6" fill="#FFFFFF"/>
<circle cx="232.9" cy="156.2" r="2" stroke-width="2" stroke="#5470C6" fill="#FFFFFF"/>
<circle cx="242.1" cy="147.7" r="2" stroke-width="2" stroke="#5470C6" fill="#FFFFFF"/>
<circle cx="251.2" cy="157.5" r="2" stroke-width="2" stroke="#5470C6" fill="#FFFFFF"/>
<circle cx="260.4" cy="151.3" r="2" stroke-width="2" stroke="#5470C6" fill="#FFFFFF"/>
<circle cx="269.6" cy="144.9" r="2" stroke-width="2" stroke="#5470C6" fill="#FFFFFF"/>
<circle cx="278.8" cy="152.7" r="2" stroke-width="2" stroke="#5470C6" fill="#FFFFFF"/>
<circle cx="287.9" cy="160.4" r="2" stroke-width="2" stroke="#5470C6" fill="#FFFFFF"/>
<circle cx="297.1" cy="153.4" r="2" stroke-width="2" stroke="#5470C6" fill="#FFFFFF"/>
<circle cx="306.3" cy="160.8" r="2" stroke-width="2" stroke="#5470C6" fill="#FFFFFF"/>
<circle cx="315.4" cy="176.5" r="2" stroke-width="2" stroke="#5470C6" fill="#FFFFFF"/>
<circle cx="324.6" cy="186.6" r="2" stroke-width="2" stroke="#5470C6" fill="#FFFFFF"/>
<circle cx="333.8" cy="194.2" r="2" stroke-width="2" stroke="#5470C6" fill="#FFFFFF"/>
<circle cx="342.9" cy="207.4" r="2" stroke-width="2" stroke="#5470C6" fill="#FFFFFF"/>
<circle cx="352.1" cy="212.9" r="2" stroke-width="2" stroke="#5470C6" fill="#FFFFFF"/>
<circle cx="361.3" cy="202.9" r="2" stroke-width="2" stroke="#5470C6" fill="#FFFFFF"/>
<circle cx="370.4" cy="192.7" r="2" stroke-width="2" stroke="#5470C6" fill="#FFFFFF"/>
<circle cx="379.6" cy="183.4" r="2" stroke-width="2" stroke="#5470C6" fill="#FFFFFF"/>
<circle cx="388.8" cy="167.1" r="2" stroke-width="2" stroke="#5470C6" fill="#FFFFFF"/>
<circle cx="397.9" cy="159.5" r="2" stroke-width="2" stroke="#5470C6" fill="#FFFFFF"/>
<circle cx="407.1" cy="162.5" r="2" stroke-width="2" stroke="#5470C6" fill="#FFFFFF"/>
<circle cx="416.3" cy="179.1" r="2" stroke-width="2" stroke="#5470C6" fill="#FFFFFF"/>
<circle cx="425.4" cy="196.3" r="2" stroke-width="2" stroke="#5470C6" fill="#FFFFFF"/>
<circle cx="434.6" cy="213.6" r="2" stroke-width="2" stroke="#5470C6" fill="#FFFFFF"/>
<circle cx="443.8" cy="226.7" r="2" stroke-width="2" stroke="#5470C6" fill="#FFFFFF"/>
<circle cx="452.9" cy="241" r="2" stroke-width="2" stroke="#5470C6" fill="#FFFFFF"/>
<circle cx="462.1" cy="245.6" r="2" stroke-width="2" stroke="#5470C6" fill="#FFFFFF"/>
<circle cx="471.3" cy="247.7" r="2" stroke-width="2" stroke="#5470C6" fill="#FFFFFF"/>
<circle cx="480.4" cy="249.2" r="2" stroke-width="2" stroke="#5470C6" fill="#FFFFFF"/>
<circle cx="489.6" cy="250.8" r="2" stroke-width="2" stroke="#5470C6" fill="#FFFFFF"/>
<circle cx="498.8" cy="254.2" r="2" stroke-width="2" stroke="#5470C6" fill="#FFFFFF"/>
<circle cx="507.9" cy="259.8" r="2" stroke-width="2" stroke="#5470C6" fill="#FFFFFF"/>
<circle cx="517.1" cy="265.6" r="2" stroke-width="2" stroke="#5470C6" fill="#FFFFFF"/>
<circle cx="526.2" cy="271.7" r="2" stroke-width="2" stroke="#5470C6" fill="#FFFFFF"/>
<circle cx="535.4" cy="275.8" r="2" stroke-width="2" stroke="#5470C6" fill="#FFFFFF"/>
<circle cx="544.6" cy="268.7" r="2" stroke-width="2" stroke="#5470C6" fill="#FFFFFF"/>
<circle cx="553.8" cy="257.4" r="2" stroke-width="2" stroke="#5470C6" fill="#FFFFFF"/>
<circle cx="562.9" cy="259.3" r="2" stroke-width="2" stroke="#5470C6" fill="#FFFFFF"/>
<circle cx="572.1" cy="254.7" r="2" stroke-width="2" stroke="#5470C6" fill="#FFFFFF"/>
<circle cx="581.2" cy="254.4" r="2" stroke-width="2" stroke="#5470C6" fill="#FFFFFF"/>
<circle cx="590.4" cy="266.9" r="2" stroke-width="2" stroke="#5470C6" fill="#FFFFFF"/>
</g>
</svg>