<svg width="600" height="400" viewBox="0 0 600 400" xmlns="http://www.w3.org/2000/svg">
<rect x="0" y="0" width="600" height="400" fill="#FFFFFF"/>
<text font-size="18" x="259" y="23" font-weight="bold" font-family="Arial" fill="#464646">
Bar Chart
</text>
<g>
<line stroke-width="2" x1="112" y1="45" x2="137" y2="45" stroke="#5470C6"/>
<circle cx="124.5" cy="45" r="5.5" stroke-width="2" stroke="#5470C6" fill="#FFFFFF"/>
<text font-size="14" x="140" y="49" font-family="Arial" fill="#464646">
Email
</text>
</g>
<g>
<line stroke-width="2" x1="182" y1="45" x2="207" y2="45" stroke="#91CC75"/>
<circle cx="194.5" cy="45" r="5.5" stroke-width="2" stroke="#91CC75" fill="#FFFFFF"/>
<text font-size="14" x="210" y="49" font-family="Arial" fill="#464646">
Union Ads
</text>
</g>
<g>
<line stroke-width="2" x1="283" y1="45" x2="308" y2="45" stroke="#FAC858"/>
<circle cx="295.5" cy="45" r="5.5" stroke-width="2" stroke="#FAC858" fill="#FFFFFF"/>
<text font-size="14" x="311" y="49" font-family="Arial" fill="#464646">
Direct
</text>
</g>
<g>
<line stroke-width="2" x1="355" y1="45" x2="380" y2="45" stroke="#EE6666"/>
<circle cx="367.5" cy="45" r="5.5" stroke-width="2" stroke="#EE6666" fill="#FFFFFF"/>
<text font-size="14" x="383" y="49" font-family="Arial" fill="#464646">
Search Engine
</text>
</g>
<g stroke="#E0E6F2">
<line stroke-width="1" x1="45" y1="67" x2="595" y2="67"/><line stroke-width="1" x1="45" y1="116.7" x2="595" y2="116.7"/><line stroke-width="1" x1="45" y1="166.3" x2="595" y2="166.3"/><line stroke-width="1" x1="45" y1="216" x2="595" y2="216"/><line stroke-width="1" x1="45" y1="265.7" x2="595" y2="265.7"/><line stroke-width="1" x1="45" y1="315.3" x2="595" y2="315.3"/>
</g>
<g>

<text font-size="14" x="5" y="72" font-family="Arial" fill="#6E7079">
1800
</text>
<text font-size="14" x="5" y="121.7" font-family="Arial" fill="#6E7079">
1500
</text>
<text font-size="14" x="5" y="171.3" font-family="Arial" fill="#6E7079">
1200
</text>
<text font-size="14" x="13" y="221" font-family="Arial" fill="#6E7079">
900
</text>
<text font-size="14" x="13" y="270.7" font-family="Arial" fill="#6E7079">
600
</text>
<text font-size="14" x="13" y="320.3" font-family="Arial" fill="#6E7079">
300
</text>
<text font-size="14" x="29" y="370" font-family="Arial" fill="#6E7079">
0
</text>
</g>
<g>
<g stroke="#6E7079">
<line stroke-width="1" x1="45" y1="365" x2="595" y2="365"/>
<line stroke-width="1" x1="45" y1="365" x2="45" y2="370"/>
<line stroke-width="1" x1="123.6" y1="365" x2="123.6" y2="370"/>
<line stroke-width="1" x1="202.1" y1="365" x2="202.1" y2="370"/>
<line stroke-width="1" x1="280.7" y1="365" x2="280.7" y2="370"/>
<line stroke-width="1" x1="359.3" y1="365" x2="359.3" y2="370"/>
<line stroke-width="1" x1="437.9" y1="365" x2="437.9" y2="370"/>
<line stroke-width="1" x1="516.4" y1="365" x2="516.4" y2="370"/>
<line stroke-width="1" x1="595" y1="365" x2="595" y2="370"/>
</g>
<text font-size="14" x="70.8" y="384" font-family="Arial" fill="#6E7079">
Mon
</text>
<text font-size="14" x="150.4" y="384" font-family="Arial" fill="#6E7079">
Tue
</text>
<text font-size="14" x="226.9" y="384" font-family="Arial" fill="#6E7079">
Wed
</text>
<text font-size="14" x="308" y="384" font-family="Arial" fill="#6E7079">
Thu
</text>
<text font-size="14" x="390.1" y="384" font-family="Arial" fill="#6E7079">
Fri
</text>
<text font-size="14" x="466.1" y="384" font-family="Arial" fill="#6E7079">
Sat
</text>
<text font-size="14" x="543.2" y="384" font-family="Arial" fill="#6E7079">
Sun
</text>
</g>
<rect x="50" y="345.1" width="14.9" height="19.9" fill="#5470C6"/>
<rect x="128.6" y="343.1" width="14.9" height="21.9" fill="#5470C6"/>
<rect x="207.1" y="348.3" width="14.9" height="16.7" fill="#5470C6"/>
<rect x="285.7" y="342.8" width="14.9" height="22.2" fill="#5470C6"/>
<rect x="364.3" y="350.1" width="14.9" height="14.9" fill="#5470C6"/>
<rect x="442.9" y="326.9" width="14.9" height="38.1" fill="#5470C6"/>
<rect x="521.4" y="330.2" width="14.9" height="34.8" fill="#5470C6"/>
<rect x="67.9" y="328.6" width="14.9" height="36.4" fill="#91CC75"/>
<rect x="146.5" y="334.9" width="14.9" height="30.1" fill="#91CC75"/>
<rect x="225" y="333.4" width="14.9" height="31.6" fill="#91CC75"/>
<rect x="303.6" y="326.3" width="14.9" height="38.7" fill="#91CC75"/>
<rect x="382.2" y="317" width="14.9" height="48" fill="#91CC75"/>
<rect x="460.7" y="310.4" width="14.9" height="54.6" fill="#91CC75"/>
<rect x="539.3" y="313.7" width="14.9" height="51.3" fill="#91CC75"/>
<rect x="85.8" y="312" width="14.9" height="53" fill="#FAC858"/>
<rect x="164.4" y="310" width="14.9" height="55" fill="#FAC858"/>
<rect x="242.9" y="315.2" width="14.9" height="49.8" fill="#FAC858"/>
<rect x="321.5" y="309.7" width="14.9" height="55.3" fill="#FAC858"/>
<rect x="400.1" y="300.4" width="14.9" height="64.6" fill="#FAC858"/>
<rect x="478.6" y="310.4" width="14.9" height="54.6" fill="#FAC858"/>
<rect x="557.2" y="312" width="14.9" height="53" fill="#FAC858"/>
<rect x="103.7" y="229.2" width="14.9" height="135.8" fill="#EE6666"/>
<rect x="182.2" y="210.7" width="14.9" height="154.3" fill="#EE6666"/>
<rect x="260.8" y="215.8" width="14.9" height="149.2" fill="#EE6666"/>
<rect x="339.4" y="210.4" width="14.9" height="154.6" fill="#EE6666"/>
<rect x="418" y="151.4" width="14.9" height="213.6" fill="#EE6666"/>
<rect x="496.5" y="144.8" width="14.9" height="220.2" fill="#EE6666"/>
<rect x="575.1" y="146.5" width="14.9" height="218.5" fill="#EE6666"/>
</svg>