<svg width="600" height="400" viewBox="0 0 600 400" xmlns="http://www.w3.org/2000/svg">
<rect x="0" y="0" width="600" height="400" fill="#1F1D1D"/>
<text font-size="18" x="259" y="5" dy="24" font-weight="bold" font-family="Arial" fill="#D8D9DA">
Bar Chart
</text>
<g>
<line stroke-width="2" x1="112" y1="50" x2="137" y2="50" stroke="#7EB26D"/>
<circle cx="124.5" cy="50" r="5.5" stroke-width="2" stroke="#7EB26D" fill="#7EB26D"/>
<text font-size="14" x="140" y="54" font-family="Arial" fill="#D8D9DA">
Email
</text>
</g>
<g>
<line stroke-width="2" x1="182" y1="50" x2="207" y2="50" stroke="#EAB839"/>
<circle cx="194.5" cy="50" r="5.5" stroke-width="2" stroke="#EAB839" fill="#EAB839"/>
<text font-size="14" x="210" y="54" font-family="Arial" fill="#D8D9DA">
Union Ads
</text>
</g>
<g>
<line stroke-width="2" x1="283" y1="50" x2="308" y2="50" stroke="#6ED0E0"/>
<circle cx="295.5" cy="50" r="5.5" stroke-width="2" stroke="#6ED0E0" fill="#6ED0E0"/>
<text font-size="14" x="311" y="54" font-family="Arial" fill="#D8D9DA">
Direct
</text>
</g>
<g>
<line stroke-width="2" x1="355" y1="50" x2="380" y2="50" stroke="#EF843C"/>
<circle cx="367.5" cy="50" r="5.5" stroke-width="2" stroke="#EF843C" fill="#EF843C"/>
<text font-size="14" x="383" y="54" font-family="Arial" fill="#D8D9DA">
Search Engine
</text>
</g>
<g stroke="#444343">
<line stroke-width="1" x1="60" y1="72" x2="595" y2="72"/><line stroke-width="1" x1="60" y1="120.8" x2="595" y2="120.8"/><line stroke-width="1" x1="60" y1="169.7" x2="595" y2="169.7"/><line stroke-width="1" x1="60" y1="218.5" x2="595" y2="218.5"/><line stroke-width="1" x1="60" y1="267.3" x2="595" y2="267.3"/><line stroke-width="1" x1="60" y1="316.2" x2="595" y2="316.2"/>
</g>
<g>

<text font-size="14" x="6" y="77" font-family="Arial" fill="#B9B8CE">
1.8k ml
</text>
<text font-size="14" x="6" y="125.8" font-family="Arial" fill="#B9B8CE">
1.5k ml
</text>
<text font-size="14" x="6" y="174.7" font-family="Arial" fill="#B9B8CE">
1.2k ml
</text>
<text font-size="14" x="9" y="223.5" font-family="Arial" fill="#B9B8CE">
900 ml
</text>
<text font-size="14" x="9" y="272.3" font-family="Arial" fill="#B9B8CE">
600 ml
</text>
<text font-size="14" x="9" y="321.2" font-family="Arial" fill="#B9B8CE">
300 ml
</text>
<text font-size="14" x="25" y="370" font-family="Arial" fill="#B9B8CE">
0 ml
</text>
</g>
<g>
<g stroke="#B9B8CE">
<line stroke-width="1" x1="60" y1="365" x2="595" y2="365"/>
<line stroke-width="1" x1="60" y1="365" x2="60" y2="370"/>
<line stroke-width="1" x1="136.4" y1="365" x2="136.4" y2="370"/>
<line stroke-width="1" x1="212.9" y1="365" x2="212.9" y2="370"/>
<line stroke-width="1" x1="289.3" y1="365" x2="289.3" y2="370"/>
<line stroke-width="1" x1="365.7" y1="365" x2="365.7" y2="370"/>
<line stroke-width="1" x1="442.1" y1="365" x2="442.1" y2="370"/>
<line stroke-width="1" x1="518.6" y1="365" x2="518.6" y2="370"/>
<line stroke-width="1" x1="595" y1="365" x2="595" y2="370"/>
</g>
<text font-size="14" x="84.7" y="384" font-family="Arial" fill="#B9B8CE">
Mon
</text>
<text font-size="14" x="162.1" y="384" font-family="Arial" fill="#B9B8CE">
Tue
</text>
<text font-size="14" x="236.6" y="384" font-family="Arial" fill="#B9B8CE">
Wed
</text>
<text font-size="14" x="315.5" y="384" font-family="Arial" fill="#B9B8CE">
Thu
</text>
<text font-size="14" x="395.4" y="384" font-family="Arial" fill="#B9B8CE">
Fri
</text>
<text font-size="14" x="469.4" y="384" font-family="Arial" fill="#B9B8CE">
Sat
</text>
<text font-size="14" x="544.3" y="384" font-family="Arial" fill="#B9B8CE">
Sun
</text>
</g>
<rect x="65" y="345.5" width="14.4" height="19.5" fill="#7EB26D"/>
<rect x="141.4" y="343.5" width="14.4" height="21.5" fill="#7EB26D"/>
<rect x="217.9" y="348.6" width="14.4" height="16.4" fill="#7EB26D"/>
<rect x="294.3" y="343.2" width="14.4" height="21.8" fill="#7EB26D"/>
<rect x="370.7" y="350.4" width="14.4" height="14.6" fill="#7EB26D"/>
<rect x="447.1" y="327.6" width="14.4" height="37.4" fill="#7EB26D"/>
<rect x="523.6" y="330.8" width="14.4" height="34.2" fill="#7EB26D"/>
<rect x="82.4" y="329.2" width="14.4" height="35.8" fill="#EAB839"/>
<rect x="158.8" y="335.4" width="14.4" height="29.6" fill="#EAB839"/>
<rect x="235.2" y="333.9" width="14.4" height="31.1" fill="#EAB839"/>
<rect x="311.6" y="326.9" width="14.4" height="38.1" fill="#EAB839"/>
<rect x="388.1" y="317.8" width="14.4" height="47.2" fill="#EAB839"/>
<rect x="464.5" y="311.3" width="14.4" height="53.7" fill="#EAB839"/>
<rect x="540.9" y="314.5" width="14.4" height="50.5" fill="#EAB839"/>
<rect x="99.7" y="312.9" width="14.4" height="52.1" fill="#6ED0E0"/>
<rect x="176.1" y="311" width="14.4" height="54" fill="#6ED0E0"/>
<rect x="252.6" y="316" width="14.4" height="49" fill="#6ED0E0"/>
<rect x="329" y="310.6" width="14.4" height="54.4" fill="#6ED0E0"/>
<rect x="405.4" y="301.5" width="14.4" height="63.5" fill="#6ED0E0"/>
<rect x="481.9" y="311.3" width="14.4" height="53.7" fill="#6ED0E0"/>
<rect x="558.3" y="312.9" width="14.4" height="52.1" fill="#6ED0E0"/>
<rect x="117.1" y="231.5" width="14.4" height="133.5" fill="#EF843C"/>
<rect x="193.5" y="213.3" width="14.4" height="151.7" fill="#EF843C"/>
<rect x="269.9" y="218.3" width="14.4" height="146.7" fill="#EF843C"/>
<rect x="346.4" y="213" width="14.4" height="152" fill="#EF843C"/>
<rect x="422.8" y="155" width="14.4" height="210" fill="#EF843C"/>
<rect x="499.2" y="148.5" width="14.4" height="216.5" fill="#EF843C"/>
<rect x="575.6" y="150.1" width="14.4" height="214.9" fill="#EF843C"/>
<text font-size="14" x="72.2" y="345.5" dx="-12" dy="-8" font-family="Arial" fill="#D8D9DA">
120
</text>
<text font-size="14" x="148.6" y="343.5" dx="-12" dy="-8" font-family="Arial" fill="#D8D9DA">
132
</text>
<text font-size="14" x="225" y="348.6" dx="-11" dy="-8" font-family="Arial" fill="#D8D9DA">
101
</text>
<text font-size="14" x="301.5" y="343.2" dx="-12" dy="-8" font-family="Arial" fill="#D8D9DA">
134
</text>
<text font-size="14" x="377.9" y="350.4" dx="-8" dy="-8" font-family="Arial" fill="#D8D9DA">
90
</text>
<text font-size="14" x="454.3" y="327.6" dx="-12" dy="-8" font-family="Arial" fill="#D8D9DA">
230
</text>
<text font-size="14" x="530.8" y="330.8" dx="-12" dy="-8" font-family="Arial" fill="#D8D9DA">
210
</text>
</svg>