<svg width="600" height="400" viewBox="0 0 600 400" xmlns="http://www.w3.org/2000/svg">
<rect x="0" y="0" width="600" height="400" fill="#FFFFFF"/>
<g>
<line stroke-width="2" x1="265" y1="15" x2="290" y2="15" stroke="#5470C6"/>
<circle cx="277.5" cy="15" r="5.5" stroke-width="2" stroke="#5470C6" fill="#FFFFFF"/>
<text font-size="14" x="293" y="19" font-family="Roboto" fill="#464646">
values
</text>
</g>
<g stroke="#E0E6F2">
<line stroke-width="1" x1="30" y1="27" x2="595" y2="27"/><line stroke-width="1" x1="30" y1="83.3" x2="595" y2="83.3"/><line stroke-width="1" x1="30" y1="139.7" x2="595" y2="139.7"/><line stroke-width="1" x1="30" y1="196" x2="595" y2="196"/><line stroke-width="1" x1="30" y1="252.3" x2="595" y2="252.3"/><line stroke-width="1" x1="30" y1="308.7" x2="595" y2="308.7"/>
</g>
<g>

<text font-size="14" x="2" y="32" font-family="Roboto" fill="#6E7079">
1.2
</text>
<text font-size="14" x="17" y="88.3" font-family="Roboto" fill="#6E7079">
1
</text>
<text font-size="14" x="2" y="144.7" font-family="Roboto" fill="#6E7079">
0.8
</text>
<text font-size="14" x="2" y="201" font-family="Roboto" fill="#6E7079">
0.6
</text>
<text font-size="14" x="2" y="257.3" font-family="Roboto" fill="#6E7079">
0.4
</text>
<text font-size="14" x="2" y="313.7" font-family="Roboto" fill="#6E7079">
0.2
</text>
<text font-size="14" x="14" y="370" font-family="Roboto" fill="#6E7079">
0
</text>
</g>
<g>
<g stroke="#6E7079">
<line stroke-width="1" x1="30" y1="365" x2="595" y2="365"/>
<line stroke-width="1" x1="30" y1="365" x2="30" y2="370"/>
<line stroke-width="1" x1="143" y1="365" x2="143" y2="370"/>
<line stroke-width="1" x1="256" y1="365" x2="256" y2="370"/>
<line stroke-width="1" x1="369" y1="365" x2="369" y2="370"/>
<line stroke-width="1" x1="482" y1="365" x2="482" y2="370"/>
<line stroke-width="1" x1="595" y1="365" x2="595" y2="370"/>
</g>
<text font-size="14" x="84" y="384" font-family="Roboto" fill="#6E7079">
1
</text>
<text font-size="14" x="195.5" y="384" font-family="Roboto" fill="#6E7079">
2
</text>
<text font-size="14" x="309" y="384" font-family="Roboto" fill="#6E7079">
3
</text>
<text font-size="14" x="421.5" y="384" font-family="Roboto" fill="#6E7079">
4
</text>
<text font-size="14" x="534.5" y="384" font-family="Roboto" fill="#6E7079">
5
</text>
</g>
<rect x="35" y="365" width="103" height="0" fill="#5470C6"/>
<rect x="148" y="294.6" width="103" height="70.4" fill="#5470C6"/>
<rect x="261" y="224.2" width="103" height="140.8" fill="#5470C6"/>
<rect x="374" y="153.8" width="103" height="211.2" fill="#5470C6"/>
<rect x="487" y="83.3" width="103" height="281.7" fill="#5470C6"/>
<text font-size="14" x="86.5" y="365" dx="-4" dy="-8" font-family="Roboto" fill="#464646">
0
</text>
<text font-size="14" x="199.5" y="294.6" dx="-10" dy="-8" font-family="Roboto" fill="#464646">
0.2
</text>
<text font-size="14" x="312.5" y="224.2" dx="-10" dy="-8" font-family="Roboto" fill="#464646">
0.5
</text>
<text font-size="14" x="425.5" y="153.8" dx="-10" dy="-8" font-family="Roboto" fill="#464646">
0.8
</text>
<text font-size="14" x="538.5" y="83.3" dx="-2.5" dy="-8" font-family="Roboto" fill="#464646">
1
</text>
</svg>
