<svg width="630" height="410" viewBox="0 0 630 410" xmlns="http://www.w3.org/2000/svg">
<rect x="0" y="0" width="630" height="410" fill="#FFFFFF"/>
<text font-size="18" x="541" y="5" dy="15" font-weight="bold" dominant-baseline="middle" font-family="Roboto" fill="#334455">
Bar Chart
</text>
<text font-size="14" x="583" y="35" dy="10" dominant-baseline="middle" font-family="Roboto" fill="#464646">
demo
</text>
<g>
<line stroke-width="2" x1="10" y1="15" x2="35" y2="15" stroke="#5470C6"/>
<circle cx="22.5" cy="15" r="5.5" stroke-width="2" stroke="#5470C6" fill="#FFFFFF"/>
<text font-size="14" x="38" y="19" font-family="Roboto" fill="#464646">
Email
</text>
</g>
<g>
<line stroke-width="2" x1="79" y1="15" x2="104" y2="15" stroke="#91CC75"/>
<circle cx="91.5" cy="15" r="5.5" stroke-width="2" stroke="#91CC75" fill="#FFFFFF"/>
<text font-size="14" x="107" y="19" font-family="Roboto" fill="#464646">
Union Ads
</text>
</g>
<g>
<line stroke-width="2" x1="179" y1="15" x2="204" y2="15" stroke="#FAC858"/>
<circle cx="191.5" cy="15" r="5.5" stroke-width="2" stroke="#FAC858" fill="#FFFFFF"/>
<text font-size="14" x="207" y="19" font-family="Roboto" fill="#464646">
Direct
</text>
</g>
<g>
<line stroke-width="2" x1="252" y1="15" x2="277" y2="15" stroke="#EE6666"/>
<circle cx="264.5" cy="15" r="5.5" stroke-width="2" stroke="#EE6666" fill="#FFFFFF"/>
<text font-size="14" x="280" y="19" font-family="Roboto" fill="#464646">
Search Engine
</text>
</g>
<g stroke="#E0E6F2">
<line stroke-width="1" x1="43" y1="60" x2="620" y2="60"/><line stroke-width="1" x1="43" y1="113.3" x2="620" y2="113.3"/><line stroke-width="1" x1="43" y1="166.7" x2="620" y2="166.7"/><line stroke-width="1" x1="43" y1="220" x2="620" y2="220"/><line stroke-width="1" x1="43" y1="273.3" x2="620" y2="273.3"/><line stroke-width="1" x1="43" y1="326.7" x2="620" y2="326.7"/>
</g>
<g>

<text font-size="14" x="7" y="65" font-family="Roboto" fill="#6E7079">
1.8k
</text>
<text font-size="14" x="7" y="118.3" font-family="Roboto" fill="#6E7079">
1.5k
</text>
<text font-size="14" x="7" y="171.7" font-family="Roboto" fill="#6E7079">
1.2k
</text>
<text font-size="14" x="11" y="225" font-family="Roboto" fill="#6E7079">
900
</text>
<text font-size="14" x="11" y="278.3" font-family="Roboto" fill="#6E7079">
600
</text>
<text font-size="14" x="11" y="331.7" font-family="Roboto" fill="#6E7079">
300
</text>
<text font-size="14" x="27" y="385" font-family="Roboto" fill="#6E7079">
0
</text>
</g>
<g>
<g stroke="#6E7079">
<line stroke-width="1" x1="43" y1="380" x2="620" y2="380"/>
<line stroke-width="1" x1="43" y1="380" x2="43" y2="385"/>
<line stroke-width="1" x1="125.4" y1="380" x2="125.4" y2="385"/>
<line stroke-width="1" x1="207.9" y1="380" x2="207.9" y2="385"/>
<line stroke-width="1" x1="290.3" y1="380" x2="290.3" y2="385"/>
<line stroke-width="1" x1="372.7" y1="380" x2="372.7" y2="385"/>
<line stroke-width="1" x1="455.1" y1="380" x2="455.1" y2="385"/>
<line stroke-width="1" x1="537.6" y1="380" x2="537.6" y2="385"/>
<line stroke-width="1" x1="620" y1="380" x2="620" y2="385"/>
</g>
<text font-size="14" x="70.2" y="399" font-family="Roboto" fill="#6E7079">
Mon
</text>
<text font-size="14" x="154.6" y="399" font-family="Roboto" fill="#6E7079">
Tue
</text>
<text font-size="14" x="235.1" y="399" font-family="Roboto" fill="#6E7079">
Wed
</text>
<text font-size="14" x="319.5" y="399" font-family="Roboto" fill="#6E7079">
Thu
</text>
<text font-size="14" x="405.9" y="399" font-family="Roboto" fill="#6E7079">
Fri
</text>
<text font-size="14" x="485.4" y="399" font-family="Roboto" fill="#6E7079">
Sat
</text>
<text font-size="14" x="566.8" y="399" font-family="Roboto" fill="#6E7079">
Sun
</text>
</g>
<rect x="48" y="358.7" width="22.1" height="21.3" fill="#5470C6"/>
<rect x="130.4" y="356.5" width="22.1" height="23.5" fill="#5470C6"/>
<rect x="212.9" y="362" width="22.1" height="18" fill="#5470C6"/>
<rect x="295.3" y="356.2" width="22.1" height="23.8" fill="#5470C6"/>
<rect x="377.7" y="364" width="22.1" height="16" fill="#5470C6"/>
<rect x="460.1" y="339.1" width="22.1" height="40.9" fill="#5470C6"/>
<rect x="542.6" y="342.7" width="22.1" height="37.3" fill="#5470C6"/>
<rect x="73.1" y="340.9" width="22.1" height="39.1" fill="#91CC75"/>
<rect x="155.6" y="347.6" width="22.1" height="32.4" fill="#91CC75"/>
<rect x="238" y="346" width="22.1" height="34" fill="#91CC75"/>
<rect x="320.4" y="338.4" width="22.1" height="41.6" fill="#91CC75"/>
<rect x="402.9" y="328.4" width="22.1" height="51.6" fill="#91CC75"/>
<rect x="485.3" y="321.3" width="22.1" height="58.7" fill="#91CC75"/>
<rect x="567.7" y="324.9" width="22.1" height="55.1" fill="#91CC75"/>
<rect x="98.3" y="323.1" width="22.1" height="56.9" fill="#FAC858"/>
<rect x="180.7" y="321" width="22.1" height="59" fill="#FAC858"/>
<rect x="263.1" y="326.5" width="22.1" height="53.5" fill="#FAC858"/>
<rect x="345.6" y="320.6" width="22.1" height="59.4" fill="#FAC858"/>
<rect x="428" y="310.7" width="22.1" height="69.3" fill="#FAC858"/>
<rect x="510.4" y="321.3" width="22.1" height="58.7" fill="#FAC858"/>
<rect x="592.9" y="323.1" width="22.1" height="56.9" fill="#FAC858"/>
<g>
<path d="M 84.2 234.2 L 166.6 214.3 L 249.1 219.8 L 331.5 214 L 413.9 150.7 L 496.4 143.6 L 578.8 145.3" stroke-width="2" fill="none" stroke="#EE6666"/>
<circle cx="84.2" cy="234.2" r="2" stroke-width="2" stroke="#EE6666" fill="#FFFFFF"/>
<circle cx="166.6" cy="214.3" r="2" stroke-width="2" stroke="#EE6666" fill="#FFFFFF"/>
<circle cx="249.1" cy="219.8" r="2" stroke-width="2" stroke="#EE6666" fill="#FFFFFF"/>
<circle cx="331.5" cy="214" r="2" stroke-width="2" stroke="#EE6666" fill="#FFFFFF"/>
<circle cx="413.9" cy="150.7" r="2" stroke-width="2" stroke="#EE6666" fill="#FFFFFF"/>
<circle cx="496.4" cy="143.6" r="2" stroke-width="2" stroke="#EE6666" fill="#FFFFFF"/>
<circle cx="578.8" cy="145.3" r="2" stroke-width="2" stroke="#EE6666" fill="#FFFFFF"/>
</g>
<text font-size="14" x="59.1" y="358.7" dx="-12" dy="-8" font-family="Roboto" fill="#464646">
120
</text>
<text font-size="14" x="141.5" y="356.5" dx="-12" dy="-8" font-family="Roboto" fill="#464646">
132
</text>
<text font-size="14" x="223.9" y="362" dx="-10.5" dy="-8" font-family="Roboto" fill="#464646">
101
</text>
<text font-size="14" x="306.4" y="356.2" dx="-12" dy="-8" font-family="Roboto" fill="#464646">
134
</text>
<text font-size="14" x="388.8" y="364" dx="-8" dy="-8" font-family="Roboto" fill="#464646">
90
</text>
<text font-size="14" x="471.2" y="339.1" dx="-12" dy="-8" font-family="Roboto" fill="#464646">
230
</text>
<text font-size="14" x="553.6" y="342.7" dx="-12" dy="-8" font-family="Roboto" fill="#464646">
210
</text>
</svg>