<svg width="600" height="400" viewBox="0 0 600 400" xmlns="http://www.w3.org/2000/svg">
<rect x="0" y="0" width="600" height="400" fill="#FFFFFF"/>
<text font-size="18" x="259" y="5" dy="15" font-weight="bold" dominant-baseline="middle" font-family="Arial" fill="#464646">
Bar Chart
</text>
<g>
<rect x="112" y="45" width="25" height="10" stroke="#5470C6" fill="#5470C6"/>
<text font-size="14" x="140" y="54" font-family="Arial" fill="#464646">
Email
</text>
</g>
<g>
<rect x="182" y="45" width="25" height="10" stroke="#91CC75" fill="#91CC75"/>
<text font-size="14" x="210" y="54" font-family="Arial" fill="#464646">
Union Ads
</text>
</g>
<g>
<rect x="283" y="45" width="25" height="10" stroke="#FAC858" fill="#FAC858"/>
<text font-size="14" x="311" y="54" font-family="Arial" fill="#464646">
Direct
</text>
</g>
<g>
<rect x="355" y="45" width="25" height="10" stroke="#EE6666" fill="#EE6666"/>
<text font-size="14" x="383" y="54" font-family="Arial" fill="#464646">
Search Engine
</text>
</g>
<g stroke="#E0E6F2">
<line stroke-width="1" x1="60" y1="72" x2="595" y2="72"/><line stroke-width="1" x1="60" y1="120.8" x2="595" y2="120.8"/><line stroke-width="1" x1="60" y1="169.7" x2="595" y2="169.7"/><line stroke-width="1" x1="60" y1="218.5" x2="595" y2="218.5"/><line stroke-width="1" x1="60" y1="267.3" x2="595" y2="267.3"/><line stroke-width="1" x1="60" y1="316.2" x2="595" y2="316.2"/>
</g>
<g>

<text font-size="14" x="6" y="77" font-family="Arial" fill="#6E7079">
1.8k ml
</text>
<text font-size="14" x="6" y="125.8" font-family="Arial" fill="#6E7079">
1.5k ml
</text>
<text font-size="14" x="6" y="174.7" font-family="Arial" fill="#6E7079">
1.2k ml
</text>
<text font-size="14" x="9" y="223.5" font-family="Arial" fill="#6E7079">
900 ml
</text>
<text font-size="14" x="9" y="272.3" font-family="Arial" fill="#6E7079">
600 ml
</text>
<text font-size="14" x="9" y="321.2" font-family="Arial" fill="#6E7079">
300 ml
</text>
<text font-size="14" x="25" y="370" font-family="Arial" fill="#6E7079">
0 ml
</text>
</g>
<g>
<g stroke="#6E7079">
<line stroke-width="1" x1="60" y1="365" x2="595" y2="365"/>
<line stroke-width="1" x1="60" y1="365" x2="60" y2="370"/>
<line stroke-width="1" x1="136.4" y1="365" x2="136.4" y2="370"/>
<line stroke-width="1" x1="212.9" y1="365" x2="212.9" y2="370"/>
<line stroke-width="1" x1="289.3" y1="365" x2="289.3" y2="370"/>
<line stroke-width="1" x1="365.7" y1="365" x2="365.7" y2="370"/>
<line stroke-width="1" x1="442.1" y1="365" x2="442.1" y2="370"/>
<line stroke-width="1" x1="518.6" y1="365" x2="518.6" y2="370"/>
<line stroke-width="1" x1="595" y1="365" x2="595" y2="370"/>
</g>
<text font-size="14" x="84.7" y="384" font-family="Arial" fill="#6E7079">
Mon
</text>
<text font-size="14" x="162.1" y="384" font-family="Arial" fill="#6E7079">
Tue
</text>
<text font-size="14" x="236.6" y="384" font-family="Arial" fill="#6E7079">
Wed
</text>
<text font-size="14" x="315.5" y="384" font-family="Arial" fill="#6E7079">
Thu
</text>
<text font-size="14" x="395.4" y="384" font-family="Arial" fill="#6E7079">
Fri
</text>
<text font-size="14" x="469.4" y="384" font-family="Arial" fill="#6E7079">
Sat
</text>
<text font-size="14" x="544.3" y="384" font-family="Arial" fill="#6E7079">
Sun
</text>
</g>
<rect x="65" y="329.2" width="20.1" height="35.8" fill="#91CC75"/>
<rect x="141.4" y="335.4" width="20.1" height="29.6" fill="#91CC75"/>
<rect x="217.9" y="333.9" width="20.1" height="31.1" fill="#91CC75"/>
<rect x="294.3" y="326.9" width="20.1" height="38.1" fill="#91CC75"/>
<rect x="370.7" y="317.8" width="20.1" height="47.2" fill="#91CC75"/>
<rect x="447.1" y="311.3" width="20.1" height="53.7" fill="#91CC75"/>
<rect x="523.6" y="314.5" width="20.1" height="50.5" fill="#91CC75"/>
<rect x="88.1" y="312.9" width="20.1" height="52.1" fill="#FAC858"/>
<rect x="164.6" y="311" width="20.1" height="54" fill="#FAC858"/>
<rect x="241" y="316" width="20.1" height="49" fill="#FAC858"/>
<rect x="317.4" y="310.6" width="20.1" height="54.4" fill="#FAC858"/>
<rect x="393.9" y="301.5" width="20.1" height="63.5" fill="#FAC858"/>
<rect x="470.3" y="311.3" width="20.1" height="53.7" fill="#FAC858"/>
<rect x="546.7" y="312.9" width="20.1" height="52.1" fill="#FAC858"/>
<rect x="111.3" y="231.5" width="20.1" height="133.5" fill="#EE6666"/>
<rect x="187.7" y="213.3" width="20.1" height="151.7" fill="#EE6666"/>
<rect x="264.1" y="218.3" width="20.1" height="146.7" fill="#EE6666"/>
<rect x="340.6" y="213" width="20.1" height="152" fill="#EE6666"/>
<rect x="417" y="155" width="20.1" height="210" fill="#EE6666"/>
<rect x="493.4" y="148.5" width="20.1" height="216.5" fill="#EE6666"/>
<rect x="569.9" y="150.1" width="20.1" height="214.9" fill="#EE6666"/>
<g>
<path d="M 98.2 345.5 L 174.6 343.5 L 251.1 348.6 L 327.5 343.2 L 403.9 350.4 L 480.4 327.6 L 556.8 330.8" stroke-width="2" fill="none" stroke="#5470C6"/>
<circle cx="98.2" cy="345.5" r="2" stroke-width="2" stroke="#5470C6" fill="#FFFFFF"/>
<circle cx="174.6" cy="343.5" r="2" stroke-width="2" stroke="#5470C6" fill="#FFFFFF"/>
<circle cx="251.1" cy="348.6" r="2" stroke-width="2" stroke="#5470C6" fill="#FFFFFF"/>
<circle cx="327.5" cy="343.2" r="2" stroke-width="2" stroke="#5470C6" fill="#FFFFFF"/>
<circle cx="403.9" cy="350.4" r="2" stroke-width="2" stroke="#5470C6" fill="#FFFFFF"/>
<circle cx="480.4" cy="327.6" r="2" stroke-width="2" stroke="#5470C6" fill="#FFFFFF"/>
<circle cx="556.8" cy="330.8" r="2" stroke-width="2" stroke="#5470C6" fill="#FFFFFF"/>
</g>
<text font-size="14" x="121.4" y="231.5" dx="-12" dy="-8" font-family="Arial" fill="#464646">
820
</text>
<text font-size="14" x="197.8" y="213.3" dx="-12" dy="-8" font-family="Arial" fill="#464646">
932
</text>
<text font-size="14" x="274.2" y="218.3" dx="-11" dy="-8" font-family="Arial" fill="#464646">
901
</text>
<text font-size="14" x="350.6" y="213" dx="-12" dy="-8" font-family="Arial" fill="#464646">
934
</text>
<text font-size="14" x="427.1" y="155" dx="-16" dy="-8" font-family="Arial" fill="#464646">
1290
</text>
<text font-size="14" x="503.5" y="148.5" dx="-16" dy="-8" font-family="Arial" fill="#464646">
1330
</text>
<text font-size="14" x="579.9" y="150.1" dx="-16" dy="-8" font-family="Arial" fill="#464646">
1320
</text>
<text font-size="14" x="98.2" y="345.5" dx="-12" dy="-8" font-family="Arial" fill="#464646">
120
</text>
<text font-size="14" x="174.6" y="343.5" dx="-12" dy="-8" font-family="Arial" fill="#464646">
132
</text>
<text font-size="14" x="251.1" y="348.6" dx="-11" dy="-8" font-family="Arial" fill="#464646">
101
</text>
<text font-size="14" x="327.5" y="343.2" dx="-12" dy="-8" font-family="Arial" fill="#464646">
134
</text>
<text font-size="14" x="403.9" y="350.4" dx="-8" dy="-8" font-family="Arial" fill="#464646">
90
</text>
<text font-size="14" x="480.4" y="327.6" dx="-12" dy="-8" font-family="Arial" fill="#464646">
230
</text>
<text font-size="14" x="556.8" y="330.8" dx="-12" dy="-8" font-family="Arial" fill="#464646">
210
</text>
</svg>