<svg width="630" height="410" viewBox="0 0 630 410" xmlns="http://www.w3.org/2000/svg">
<rect x="0" y="0" width="630" height="410" fill="#FFFFFF"/>
<text font-size="18" x="541" y="5" dy="15" font-weight="bold" dominant-baseline="middle" font-family="Roboto" fill="#334455">
Bar Chart
</text>
<text font-size="14" x="583" y="35" dy="10" font-weight="bold" dominant-baseline="middle" font-family="Roboto" fill="#464646">
demo
</text>
<g>
<line stroke-width="2" x1="10" y1="15" x2="35" y2="15" stroke="#5470C6"/>
<circle cx="22.5" cy="15" r="5.5" stroke-width="2" stroke="#5470C6" fill="#FFFFFF"/>
<text font-size="14" x="38" y="19" font-weight="bold" font-family="Roboto" fill="#464646">
Email
</text>
</g>
<g>
<line stroke-width="2" x1="79" y1="15" x2="104" y2="15" stroke="#91CC75"/>
<circle cx="91.5" cy="15" r="5.5" stroke-width="2" stroke="#91CC75" fill="#FFFFFF"/>
<text font-size="14" x="107" y="19" font-weight="bold" font-family="Roboto" fill="#464646">
Union Ads
</text>
</g>
<g>
<line stroke-width="2" x1="179" y1="15" x2="204" y2="15" stroke="#FAC858"/>
<circle cx="191.5" cy="15" r="5.5" stroke-width="2" stroke="#FAC858" fill="#FFFFFF"/>
<text font-size="14" x="207" y="19" font-weight="bold" font-family="Roboto" fill="#464646">
Direct
</text>
</g>
<g>
<line stroke-width="2" x1="252" y1="15" x2="277" y2="15" stroke="#EE6666"/>
<circle cx="264.5" cy="15" r="5.5" stroke-width="2" stroke="#EE6666" fill="#FFFFFF"/>
<text font-size="14" x="280" y="19" font-weight="bold" font-family="Roboto" fill="#464646">
Search Engine
</text>
</g>
<g stroke="#E0E6F2">
<line stroke-width="1" x1="43" y1="60" x2="620" y2="60"/><line stroke-width="1" x1="43" y1="113.3" x2="620" y2="113.3"/><line stroke-width="1" x1="43" y1="166.7" x2="620" y2="166.7"/><line stroke-width="1" x1="43" y1="220" x2="620" y2="220"/><line stroke-width="1" x1="43" y1="273.3" x2="620" y2="273.3"/><line stroke-width="1" x1="43" y1="326.7" x2="620" y2="326.7"/>
</g>
<g>

<text font-size="14" x="7" y="65" font-weight="bold" font-family="Roboto" fill="#6E7079">
1.4k
</text>
<text font-size="14" x="7" y="118.3" font-weight="bold" font-family="Roboto" fill="#6E7079">
1.1k
</text>
<text font-size="14" x="11" y="171.7" font-weight="bold" font-family="Roboto" fill="#6E7079">
920
</text>
<text font-size="14" x="11" y="225" font-weight="bold" font-family="Roboto" fill="#6E7079">
690
</text>
<text font-size="14" x="11" y="278.3" font-weight="bold" font-family="Roboto" fill="#6E7079">
460
</text>
<text font-size="14" x="11" y="331.7" font-weight="bold" font-family="Roboto" fill="#6E7079">
230
</text>
<text font-size="14" x="27" y="385" font-weight="bold" font-family="Roboto" fill="#6E7079">
0
</text>
</g>
<g>
<g stroke="#6E7079">
<line stroke-width="1" x1="44" y1="380" x2="621" y2="380"/>
<line stroke-width="1" x1="44" y1="380" x2="44" y2="385"/>
<line stroke-width="1" x1="126.4" y1="380" x2="126.4" y2="385"/>
<line stroke-width="1" x1="208.9" y1="380" x2="208.9" y2="385"/>
<line stroke-width="1" x1="291.3" y1="380" x2="291.3" y2="385"/>
<line stroke-width="1" x1="373.7" y1="380" x2="373.7" y2="385"/>
<line stroke-width="1" x1="456.1" y1="380" x2="456.1" y2="385"/>
<line stroke-width="1" x1="538.6" y1="380" x2="538.6" y2="385"/>
<line stroke-width="1" x1="621" y1="380" x2="621" y2="385"/>
</g>
<text font-size="14" x="71.2" y="399" font-weight="bold" font-family="Roboto" fill="#6E7079">
Mon
</text>
<text font-size="14" x="155.6" y="399" font-weight="bold" font-family="Roboto" fill="#6E7079">
Tue
</text>
<text font-size="14" x="236.1" y="399" font-weight="bold" font-family="Roboto" fill="#6E7079">
Wed
</text>
<text font-size="14" x="320.5" y="399" font-weight="bold" font-family="Roboto" fill="#6E7079">
Thu
</text>
<text font-size="14" x="406.9" y="399" font-weight="bold" font-family="Roboto" fill="#6E7079">
Fri
</text>
<text font-size="14" x="486.4" y="399" font-weight="bold" font-family="Roboto" fill="#6E7079">
Sat
</text>
<text font-size="14" x="567.8" y="399" font-weight="bold" font-family="Roboto" fill="#6E7079">
Sun
</text>
</g>
<rect x="48" y="352.2" width="15.9" height="27.8" fill="#5470C6"/>
<rect x="212.9" y="356.6" width="15.9" height="23.4" fill="#5470C6"/>
<rect x="295.3" y="348.9" width="15.9" height="31.1" fill="#5470C6"/>
<rect x="377.7" y="359.1" width="15.9" height="20.9" fill="#5470C6"/>
<rect x="460.1" y="326.7" width="15.9" height="53.3" fill="#5470C6"/>
<rect x="542.6" y="331.3" width="15.9" height="48.7" fill="#5470C6"/>
<rect x="66.9" y="329" width="15.9" height="51" fill="#91CC75"/>
<rect x="149.3" y="337.8" width="15.9" height="42.2" fill="#91CC75"/>
<rect x="231.7" y="335.7" width="15.9" height="44.3" fill="#91CC75"/>
<rect x="396.6" y="312.8" width="15.9" height="67.2" fill="#91CC75"/>
<rect x="479" y="303.5" width="15.9" height="76.5" fill="#91CC75"/>
<rect x="561.4" y="308.1" width="15.9" height="71.9" fill="#91CC75"/>
<rect x="85.7" y="305.8" width="15.9" height="74.2" fill="#FAC858"/>
<rect x="250.6" y="310.2" width="15.9" height="69.8" fill="#FAC858"/>
<rect x="333" y="302.6" width="15.9" height="77.4" fill="#FAC858"/>
<rect x="415.4" y="289.6" width="15.9" height="90.4" fill="#FAC858"/>
<rect x="497.9" y="303.5" width="15.9" height="76.5" fill="#FAC858"/>
<rect x="580.3" y="305.8" width="15.9" height="74.2" fill="#FAC858"/>
<rect x="104.6" y="189.9" width="15.9" height="190.1" fill="#EE6666"/>
<rect x="187" y="163.9" width="15.9" height="216.1" fill="#EE6666"/>
<rect x="269.4" y="171.1" width="15.9" height="208.9" fill="#EE6666"/>
<rect x="351.9" y="163.4" width="15.9" height="216.6" fill="#EE6666"/>
<rect x="434.3" y="80.9" width="15.9" height="299.1" fill="#EE6666"/>
<rect x="599.1" y="73.9" width="15.9" height="306.1" fill="#EE6666"/>
<text font-size="14" x="55.9" y="352.2" dx="-12" dy="-8" font-weight="bold" font-family="Roboto" fill="#464646">
120
</text>
<text font-size="14" x="220.8" y="356.6" dx="-10.5" dy="-8" font-weight="bold" font-family="Roboto" fill="#464646">
101
</text>
<text font-size="14" x="303.2" y="348.9" dx="-12" dy="-8" font-weight="bold" font-family="Roboto" fill="#464646">
134
</text>
<text font-size="14" x="385.6" y="359.1" dx="-8" dy="-8" font-weight="bold" font-family="Roboto" fill="#464646">
90
</text>
<text font-size="14" x="468.1" y="326.7" dx="-12" dy="-8" font-weight="bold" font-family="Roboto" fill="#464646">
230
</text>
<text font-size="14" x="550.5" y="331.3" dx="-12" dy="-8" font-weight="bold" font-family="Roboto" fill="#464646">
210
</text>
</svg>