<svg width="600" height="400" viewBox="0 0 600 400" xmlns="http://www.w3.org/2000/svg">
<rect x="0" y="0" width="600" height="400" fill="#FFFFFF"/>
<text font-size="18" x="259" y="23" font-weight="bold" font-family="Arial" fill="#464646">
Bar Chart
</text>
<g>
<rect x="129.5" y="40" width="25" height="10" stroke="#5470C6" fill="#5470C6"/>
<text font-size="14" x="157.5" y="49" font-family="Arial" fill="#464646">
Evaporation
</text>
</g>
<g>
<rect x="239.5" y="40" width="25" height="10" stroke="#91CC75" fill="#91CC75"/>
<text font-size="14" x="267.5" y="49" font-family="Arial" fill="#464646">
Precipitation
</text>
</g>
<g>
<rect x="353.5" y="40" width="25" height="10" stroke="#FAC858" fill="#FAC858"/>
<text font-size="14" x="381.5" y="49" font-family="Arial" fill="#464646">
Temperature
</text>
</g>
<g stroke="#E0E6F2">
<line stroke-width="1" x1="60" y1="67" x2="540" y2="67"/><line stroke-width="1" x1="60" y1="116.7" x2="540" y2="116.7"/><line stroke-width="1" x1="60" y1="166.3" x2="540" y2="166.3"/><line stroke-width="1" x1="60" y1="216" x2="540" y2="216"/><line stroke-width="1" x1="60" y1="265.7" x2="540" y2="265.7"/><line stroke-width="1" x1="60" y1="315.3" x2="540" y2="315.3"/>
</g>
<g>

<text font-size="14" x="9" y="72" font-family="Arial" fill="#6E7079">
240 ml
</text>
<text font-size="14" x="9" y="121.7" font-family="Arial" fill="#6E7079">
200 ml
</text>
<text font-size="14" x="9" y="171.3" font-family="Arial" fill="#6E7079">
160 ml
</text>
<text font-size="14" x="9" y="221" font-family="Arial" fill="#6E7079">
120 ml
</text>
<text font-size="14" x="17" y="270.7" font-family="Arial" fill="#6E7079">
80 ml
</text>
<text font-size="14" x="17" y="320.3" font-family="Arial" fill="#6E7079">
40 ml
</text>
<text font-size="14" x="25" y="370" font-family="Arial" fill="#6E7079">
0 ml
</text>
</g>
<g>

<text font-size="14" x="548" y="74" font-family="Arial" fill="#6E7079">
24 °C
</text>
<text font-size="14" x="548" y="123.7" font-family="Arial" fill="#6E7079">
20 °C
</text>
<text font-size="14" x="548" y="173.3" font-family="Arial" fill="#6E7079">
16 °C
</text>
<text font-size="14" x="548" y="223" font-family="Arial" fill="#6E7079">
12 °C
</text>
<text font-size="14" x="548" y="272.7" font-family="Arial" fill="#6E7079">
8 °C
</text>
<text font-size="14" x="548" y="322.3" font-family="Arial" fill="#6E7079">
4 °C
</text>
<text font-size="14" x="548" y="372" font-family="Arial" fill="#6E7079">
0 °C
</text>
</g>
<g>
<g stroke="#6E7079">
<line stroke-width="1" x1="60" y1="365" x2="540" y2="365"/>
<line stroke-width="1" x1="60" y1="365" x2="60" y2="370"/>
<line stroke-width="1" x1="128.6" y1="365" x2="128.6" y2="370"/>
<line stroke-width="1" x1="197.1" y1="365" x2="197.1" y2="370"/>
<line stroke-width="1" x1="265.7" y1="365" x2="265.7" y2="370"/>
<line stroke-width="1" x1="334.3" y1="365" x2="334.3" y2="370"/>
<line stroke-width="1" x1="402.9" y1="365" x2="402.9" y2="370"/>
<line stroke-width="1" x1="471.4" y1="365" x2="471.4" y2="370"/>
<line stroke-width="1" x1="540" y1="365" x2="540" y2="370"/>
</g>
<text font-size="14" x="80.8" y="384" font-family="Arial" fill="#6E7079">
Mon
</text>
<text font-size="14" x="150.4" y="384" font-family="Arial" fill="#6E7079">
Tue
</text>
<text font-size="14" x="216.9" y="384" font-family="Arial" fill="#6E7079">
Wed
</text>
<text font-size="14" x="288" y="384" font-family="Arial" fill="#6E7079">
Thu
</text>
<text font-size="14" x="360.1" y="384" font-family="Arial" fill="#6E7079">
Fri
</text>
<text font-size="14" x="426.1" y="384" font-family="Arial" fill="#6E7079">
Sat
</text>
<text font-size="14" x="493.2" y="384" font-family="Arial" fill="#6E7079">
Sun
</text>
</g>
<rect x="65" y="362.5" width="13.5" height="2.5" fill="#5470C6"/>
<rect x="105" y="358.9" width="13.5" height="6.1" fill="#5470C6"/>
<rect x="145" y="356.3" width="13.5" height="8.7" fill="#5470C6"/>
<rect x="185" y="336.2" width="13.5" height="28.8" fill="#5470C6"/>
<rect x="225" y="333.2" width="13.5" height="31.8" fill="#5470C6"/>
<rect x="265" y="269.8" width="13.5" height="95.2" fill="#5470C6"/>
<rect x="305" y="196.6" width="13.5" height="168.4" fill="#5470C6"/>
<rect x="345" y="163.6" width="13.5" height="201.4" fill="#5470C6"/>
<rect x="385" y="324.5" width="13.5" height="40.5" fill="#5470C6"/>
<rect x="425" y="340.2" width="13.5" height="24.8" fill="#5470C6"/>
<rect x="465" y="357.1" width="13.5" height="7.9" fill="#5470C6"/>
<rect x="505" y="360.9" width="13.5" height="4.1" fill="#5470C6"/>
<rect x="81.5" y="361.8" width="13.5" height="3.2" fill="#91CC75"/>
<rect x="121.5" y="357.7" width="13.5" height="7.3" fill="#91CC75"/>
<rect x="161.5" y="353.8" width="13.5" height="11.2" fill="#91CC75"/>
<rect x="201.5" y="332.2" width="13.5" height="32.8" fill="#91CC75"/>
<rect x="241.5" y="329.4" width="13.5" height="35.6" fill="#91CC75"/>
<rect x="281.5" y="277.2" width="13.5" height="87.8" fill="#91CC75"/>
<rect x="321.5" y="147" width="13.5" height="218" fill="#91CC75"/>
<rect x="361.5" y="138.8" width="13.5" height="226.2" fill="#91CC75"/>
<rect x="401.5" y="304.5" width="13.5" height="60.5" fill="#91CC75"/>
<rect x="441.5" y="341.7" width="13.5" height="23.3" fill="#91CC75"/>
<rect x="481.5" y="357.5" width="13.5" height="7.5" fill="#91CC75"/>
<rect x="521.5" y="362.1" width="13.5" height="2.9" fill="#91CC75"/>
<g>
<path fill="none" d="M 80 340.2 L 120 337.7 L 160 324 L 200 309.1 L 240 286.8 L 280 238.4 L 320 112.9 L 360 74.5 L 400 79.4 L 440 160.1 L 480 216 L 520 288" stroke-width="2" stroke="#FAC858"/>
<circle cx="80" cy="340.2" r="2" stroke-width="2" stroke="#FAC858" fill="#FFFFFF"/>
<circle cx="120" cy="337.7" r="2" stroke-width="2" stroke="#FAC858" fill="#FFFFFF"/>
<circle cx="160" cy="324" r="2" stroke-width="2" stroke="#FAC858" fill="#FFFFFF"/>
<circle cx="200" cy="309.1" r="2" stroke-width="2" stroke="#FAC858" fill="#FFFFFF"/>
<circle cx="240" cy="286.8" r="2" stroke-width="2" stroke="#FAC858" fill="#FFFFFF"/>
<circle cx="280" cy="238.4" r="2" stroke-width="2" stroke="#FAC858" fill="#FFFFFF"/>
<circle cx="320" cy="112.9" r="2" stroke-width="2" stroke="#FAC858" fill="#FFFFFF"/>
<circle cx="360" cy="74.5" r="2" stroke-width="2" stroke="#FAC858" fill="#FFFFFF"/>
<circle cx="400" cy="79.4" r="2" stroke-width="2" stroke="#FAC858" fill="#FFFFFF"/>
<circle cx="440" cy="160.1" r="2" stroke-width="2" stroke="#FAC858" fill="#FFFFFF"/>
<circle cx="480" cy="216" r="2" stroke-width="2" stroke="#FAC858" fill="#FFFFFF"/>
<circle cx="520" cy="288" r="2" stroke-width="2" stroke="#FAC858" fill="#FFFFFF"/>
</g>
</svg>