<svg width="600" height="400" viewBox="0 0 600 400" xmlns="http://www.w3.org/2000/svg">
<rect x="0" y="0" width="600" height="400" fill="#FFFFFF"/>
<text font-size="18" x="259" y="5" dy="24" font-weight="bold" font-family="Arial" fill="#464646">
Bar Chart
</text>
<g>
<rect x="129.5" y="45" width="25" height="10" stroke="#5470C6" fill="#5470C6"/>
<text font-size="14" x="157.5" y="54" font-family="Arial" fill="#464646">
Evaporation
</text>
</g>
<g>
<rect x="239.5" y="45" width="25" height="10" stroke="#91CC75" fill="#91CC75"/>
<text font-size="14" x="267.5" y="54" font-family="Arial" fill="#464646">
Precipitation
</text>
</g>
<g>
<rect x="353.5" y="45" width="25" height="10" stroke="#FAC858" fill="#FAC858"/>
<text font-size="14" x="381.5" y="54" font-family="Arial" fill="#464646">
Temperature
</text>
</g>
<g stroke="#E0E6F2">
<line stroke-width="1" x1="60" y1="72" x2="540" y2="72"/><line stroke-width="1" x1="60" y1="120.8" x2="540" y2="120.8"/><line stroke-width="1" x1="60" y1="169.7" x2="540" y2="169.7"/><line stroke-width="1" x1="60" y1="218.5" x2="540" y2="218.5"/><line stroke-width="1" x1="60" y1="267.3" x2="540" y2="267.3"/><line stroke-width="1" x1="60" y1="316.2" x2="540" y2="316.2"/>
</g>
<g>

<text font-size="14" x="9" y="77" font-family="Arial" fill="#6E7079">
240 ml
</text>
<text font-size="14" x="9" y="125.8" font-family="Arial" fill="#6E7079">
200 ml
</text>
<text font-size="14" x="9" y="174.7" font-family="Arial" fill="#6E7079">
160 ml
</text>
<text font-size="14" x="9" y="223.5" font-family="Arial" fill="#6E7079">
120 ml
</text>
<text font-size="14" x="17" y="272.3" font-family="Arial" fill="#6E7079">
80 ml
</text>
<text font-size="14" x="17" y="321.2" font-family="Arial" fill="#6E7079">
40 ml
</text>
<text font-size="14" x="25" y="370" font-family="Arial" fill="#6E7079">
0 ml
</text>
</g>
<g>

<text font-size="14" x="548" y="79" font-family="Arial" fill="#6E7079">
24 °C
</text>
<text font-size="14" x="548" y="127.8" font-family="Arial" fill="#6E7079">
20 °C
</text>
<text font-size="14" x="548" y="176.7" font-family="Arial" fill="#6E7079">
16 °C
</text>
<text font-size="14" x="548" y="225.5" font-family="Arial" fill="#6E7079">
12 °C
</text>
<text font-size="14" x="548" y="274.3" font-family="Arial" fill="#6E7079">
8 °C
</text>
<text font-size="14" x="548" y="323.2" font-family="Arial" fill="#6E7079">
4 °C
</text>
<text font-size="14" x="548" y="372" font-family="Arial" fill="#6E7079">
0 °C
</text>
</g>
<g>
<g stroke="#6E7079">
<line stroke-width="1" x1="60" y1="365" x2="540" y2="365"/>
<line stroke-width="1" x1="60" y1="365" x2="60" y2="370"/>
<line stroke-width="1" x1="128.6" y1="365" x2="128.6" y2="370"/>
<line stroke-width="1" x1="197.1" y1="365" x2="197.1" y2="370"/>
<line stroke-width="1" x1="265.7" y1="365" x2="265.7" y2="370"/>
<line stroke-width="1" x1="334.3" y1="365" x2="334.3" y2="370"/>
<line stroke-width="1" x1="402.9" y1="365" x2="402.9" y2="370"/>
<line stroke-width="1" x1="471.4" y1="365" x2="471.4" y2="370"/>
<line stroke-width="1" x1="540" y1="365" x2="540" y2="370"/>
</g>
<text font-size="14" x="80.8" y="384" font-family="Arial" fill="#6E7079">
Mon
</text>
<text font-size="14" x="150.4" y="384" font-family="Arial" fill="#6E7079">
Tue
</text>
<text font-size="14" x="216.9" y="384" font-family="Arial" fill="#6E7079">
Wed
</text>
<text font-size="14" x="288" y="384" font-family="Arial" fill="#6E7079">
Thu
</text>
<text font-size="14" x="360.1" y="384" font-family="Arial" fill="#6E7079">
Fri
</text>
<text font-size="14" x="426.1" y="384" font-family="Arial" fill="#6E7079">
Sat
</text>
<text font-size="14" x="493.2" y="384" font-family="Arial" fill="#6E7079">
Sun
</text>
</g>
<rect x="65" y="362.6" width="13.5" height="2.4" fill="#5470C6"/>
<rect x="105" y="359" width="13.5" height="6" fill="#5470C6"/>
<rect x="145" y="356.5" width="13.5" height="8.5" fill="#5470C6"/>
<rect x="185" y="336.7" width="13.5" height="28.3" fill="#5470C6"/>
<rect x="225" y="333.7" width="13.5" height="31.3" fill="#5470C6"/>
<rect x="265" y="271.4" width="13.5" height="93.6" fill="#5470C6"/>
<rect x="305" y="199.5" width="13.5" height="165.5" fill="#5470C6"/>
<rect x="345" y="167" width="13.5" height="198" fill="#5470C6"/>
<rect x="385" y="325.2" width="13.5" height="39.8" fill="#5470C6"/>
<rect x="425" y="340.6" width="13.5" height="24.4" fill="#5470C6"/>
<rect x="465" y="357.2" width="13.5" height="7.8" fill="#5470C6"/>
<rect x="505" y="361" width="13.5" height="4" fill="#5470C6"/>
<rect x="81.5" y="361.8" width="13.5" height="3.2" fill="#91CC75"/>
<rect x="121.5" y="357.8" width="13.5" height="7.2" fill="#91CC75"/>
<rect x="161.5" y="354" width="13.5" height="11" fill="#91CC75"/>
<rect x="201.5" y="332.8" width="13.5" height="32.2" fill="#91CC75"/>
<rect x="241.5" y="330" width="13.5" height="35" fill="#91CC75"/>
<rect x="281.5" y="278.7" width="13.5" height="86.3" fill="#91CC75"/>
<rect x="321.5" y="150.6" width="13.5" height="214.4" fill="#91CC75"/>
<rect x="361.5" y="142.6" width="13.5" height="222.4" fill="#91CC75"/>
<rect x="401.5" y="305.5" width="13.5" height="59.5" fill="#91CC75"/>
<rect x="441.5" y="342" width="13.5" height="23" fill="#91CC75"/>
<rect x="481.5" y="357.7" width="13.5" height="7.3" fill="#91CC75"/>
<rect x="521.5" y="362.2" width="13.5" height="2.8" fill="#91CC75"/>
<g>
<path d="M 80 340.6 L 120 338.1 L 160 324.7 L 200 310.1 L 240 288.1 L 280 240.5 L 320 117.2 L 360 79.3 L 400 84.2 L 440 163.6 L 480 218.5 L 520 289.3" stroke-width="2" fill="none" stroke="#FAC858"/>
<circle cx="80" cy="340.6" r="2" stroke-width="2" stroke="#FAC858" fill="#FFFFFF"/>
<circle cx="120" cy="338.1" r="2" stroke-width="2" stroke="#FAC858" fill="#FFFFFF"/>
<circle cx="160" cy="324.7" r="2" stroke-width="2" stroke="#FAC858" fill="#FFFFFF"/>
<circle cx="200" cy="310.1" r="2" stroke-width="2" stroke="#FAC858" fill="#FFFFFF"/>
<circle cx="240" cy="288.1" r="2" stroke-width="2" stroke="#FAC858" fill="#FFFFFF"/>
<circle cx="280" cy="240.5" r="2" stroke-width="2" stroke="#FAC858" fill="#FFFFFF"/>
<circle cx="320" cy="117.2" r="2" stroke-width="2" stroke="#FAC858" fill="#FFFFFF"/>
<circle cx="360" cy="79.3" r="2" stroke-width="2" stroke="#FAC858" fill="#FFFFFF"/>
<circle cx="400" cy="84.2" r="2" stroke-width="2" stroke="#FAC858" fill="#FFFFFF"/>
<circle cx="440" cy="163.6" r="2" stroke-width="2" stroke="#FAC858" fill="#FFFFFF"/>
<circle cx="480" cy="218.5" r="2" stroke-width="2" stroke="#FAC858" fill="#FFFFFF"/>
<circle cx="520" cy="289.3" r="2" stroke-width="2" stroke="#FAC858" fill="#FFFFFF"/>
</g>
</svg>