<svg width="600" height="400" viewBox="0 0 600 400" xmlns="http://www.w3.org/2000/svg">
<rect x="0" y="0" width="600" height="400" fill="#FFFFFF"/>
<polygon points="21,223.4 37.3,223.4 52.2,223.5 66,223.7 78.7,224 90.5,224.3 101.5,224.6 111.7,225 121.4,225.4 130.6,225.9 139.4,226.4 148,226.9 156.5,227.4 165,227.9 173.6,228.4 182.4,228.8 191.6,229.3 201.3,229.7 211.5,230.1 222.5,230.5 234.3,230.8 247,231 260.8,231.2 275.7,231.3 292,231.4 292,348.2 275.7,348.2 260.8,348.1 247,347.9 234.3,347.7 222.5,347.4 211.5,347 201.3,346.6 191.6,346.2 182.4,345.7 173.6,345.2 165,344.7 156.5,344.2 148,343.8 139.4,343.3 130.6,342.8 121.4,342.3 111.7,341.9 101.5,341.5 90.5,341.1 78.7,340.8 66,340.6 52.2,340.4 37.3,340.3 21,340.2" fill="#5470C6" fill-opacity="0.5"/>
<polygon points="21,176.6 37.3,176.3 52.2,175.2 66,173.6 78.7,171.4 90.5,168.8 101.5,165.7 111.7,162.2 121.4,158.4 130.6,154.4 139.4,150.2 148,145.9 156.5,141.6 165,137.2 173.6,132.9 182.4,128.7 191.6,124.7 201.3,120.9 211.5,117.5 222.5,114.4 234.3,111.7 247,109.5 260.8,107.9 275.7,106.9 292,106.5 292,153.2 275.7,153.6 260.8,154.6 247,156.3 234.3,158.4 222.5,161.1 211.5,164.2 201.3,167.7 191.6,171.4 182.4,175.4 173.6,179.6 165,183.9 156.5,188.3 148,192.7 139.4,197 130.6,201.2 121.4,205.2 111.7,209 101.5,212.4 90.5,215.5 78.7,218.2 66,220.4 52.2,222 37.3,223 21,223.4" fill="#5470C6" fill-opacity="0.5"/>
<polygon points="21,98.5 37.3,98.8 52.2,99.7 66,101.2 78.7,103.1 90.5,105.5 101.5,108.3 111.7,111.4 121.4,114.8 130.6,118.4 139.4,122.1 148,126 156.5,129.9 165,133.8 173.6,137.6 182.4,141.4 191.6,145 201.3,148.3 211.5,151.4 222.5,154.2 234.3,156.6 247,158.6 260.8,160 275.7,160.9 292,161.2 292,231.4 275.7,231.1 260.8,230.1 247,228.7 234.3,226.7 222.5,224.3 211.5,221.6 201.3,218.5 191.6,215.1 182.4,211.5 173.6,207.8 165,203.9 156.5,200 148,196.1 139.4,192.2 130.6,188.5 121.4,184.9 111.7,181.5 101.5,178.4 90.5,175.7 78.7,173.3 66,171.3 52.2,169.9 37.3,168.9 21,168.6" fill="#EE6666" fill-opacity="0.5"/>
<polygon points="21,5 37.3,5 52.2,5.2 66,5.3 78.7,5.6 90.5,5.9 101.5,6.2 111.7,6.6 121.4,7.1 130.6,7.5 139.4,8 148,8.5 156.5,9 165,9.5 173.6,10 182.4,10.5 191.6,10.9 201.3,11.4 211.5,11.7 222.5,12.1 234.3,12.4 247,12.7 260.8,12.8 275.7,13 292,13 292,106.5 275.7,106.5 260.8,106.3 247,106.2 234.3,105.9 222.5,105.6 211.5,105.2 201.3,104.9 191.6,104.4 182.4,104 173.6,103.5 165,103 156.5,102.5 148,102 139.4,101.5 130.6,101 121.4,100.6 111.7,100.1 101.5,99.8 90.5,99.4 78.7,99.1 66,98.8 52.2,98.7 37.3,98.5 21,98.5" fill="#EE6666" fill-opacity="0.5"/>
<polygon points="21,348.2 37.3,348.2 52.2,348.3 66,348.2 78.7,348.2 90.5,348.2 101.5,348.2 111.7,348.2 121.4,348.2 130.6,348.2 139.4,348.2 148,348.2 156.5,348.2 165,348.2 173.6,348.2 182.4,348.2 191.6,348.2 201.3,348.2 211.5,348.2 222.5,348.2 234.3,348.2 247,348.2 260.8,348.2 275.7,348.2 292,348.2 292,395 275.7,395 260.8,395 247,395 234.3,395 222.5,395 211.5,395 201.3,395 191.6,395 182.4,395 173.6,395 165,395 156.5,395 148,395 139.4,395 130.6,395 121.4,395 111.7,395 101.5,395 90.5,395 78.7,395 66,395 52.2,395 37.3,395 21,395" fill="#73C0DE" fill-opacity="0.5"/>
<polygon points="308,264.1 324.3,264.1 339.2,263.9 353,263.8 365.7,263.5 377.5,263.2 388.5,262.8 398.7,262.5 408.4,262 417.6,261.6 426.4,261.1 435,260.6 443.5,260.1 452,259.6 460.6,259.1 469.4,258.6 478.6,258.2 488.3,257.7 498.5,257.4 509.5,257 521.3,256.7 534,256.4 547.8,256.3 562.7,256.1 579,256.1 579,340.2 562.7,340.3 547.8,340.4 534,340.6 521.3,340.8 509.5,341.1 498.5,341.5 488.3,341.9 478.6,342.3 469.4,342.8 460.6,343.3 452,343.8 443.5,344.2 435,344.7 426.4,345.2 417.6,345.7 408.4,346.2 398.7,346.6 388.5,347 377.5,347.4 365.7,347.7 353,347.9 339.2,348.1 324.3,348.2 308,348.2" fill="#91CC75" fill-opacity="0.5"/>
<polygon points="308,161.2 324.3,160.9 339.2,159.8 353,158.2 365.7,155.9 377.5,153.2 388.5,150 398.7,146.4 408.4,142.6 417.6,138.4 426.4,134.1 435,129.7 443.5,125.2 452,120.7 460.6,116.3 469.4,112 478.6,107.8 488.3,104 498.5,100.4 509.5,97.2 521.3,94.5 534,92.2 547.8,90.6 562.7,89.5 579,89.2 579,192 562.7,192.4 547.8,193.4 534,195.1 521.3,197.3 509.5,200.1 498.5,203.3 488.3,206.8 478.6,210.7 469.4,214.8 460.6,219.1 452,223.6 443.5,228 435,232.5 426.4,237 417.6,241.3 408.4,245.4 398.7,249.3 388.5,252.8 377.5,256 365.7,258.8 353,261 339.2,262.7 324.3,263.7 308,264.1" fill="#91CC75" fill-opacity="0.5"/>
<polygon points="308,348.2 324.3,348.2 339.2,348.2 353,348.2 365.7,348.2 377.5,348.2 388.5,348.2 398.7,348.2 408.4,348.2 417.6,348.2 426.4,348.2 435,348.2 443.5,348.2 452,348.2 460.6,348.2 469.4,348.2 478.6,348.2 488.3,348.2 498.5,348.2 509.5,348.2 521.3,348.2 534,348.2 547.8,348.2 562.7,348.2 579,348.2 579,395 562.7,395 547.8,395 534,395 521.3,395 509.5,395 498.5,395 488.3,395 478.6,395 469.4,395 460.6,395 452,395 443.5,395 435,395 426.4,395 417.6,395 408.4,395 398.7,395 388.5,395 377.5,395 365.7,395 353,395 339.2,395 324.3,395 308,395" fill="#91CC75" fill-opacity="0.5"/>
<polygon points="308,97.1 324.3,97.7 339.2,99.2 353,101.6 365.7,104.8 377.5,108.7 388.5,113.2 398.7,118.3 408.4,123.8 417.6,129.7 426.4,135.8 435,142.2 443.5,148.6 452,155 460.6,161.3 469.4,167.5 478.6,173.3 488.3,178.9 498.5,183.9 509.5,188.5 521.3,192.4 534,195.6 547.8,198 562.7,199.5 579,200 579,256.1 562.7,255.6 547.8,254.1 534,251.7 521.3,248.5 509.5,244.6 498.5,240 488.3,235 478.6,229.4 469.4,223.6 460.6,217.4 452,211.1 443.5,204.7 435,198.3 426.4,191.9 417.6,185.8 408.4,179.9 398.7,174.4 388.5,169.3 377.5,164.8 365.7,160.9 353,157.7 339.2,155.3 324.3,153.8 308,153.2" fill="#FAC858" fill-opacity="0.5"/>
<polygon points="308,13 324.3,13 339.2,12.8 353,12.7 365.7,12.4 377.5,12.1 388.5,11.7 398.7,11.4 408.4,10.9 417.6,10.5 426.4,10 435,9.5 443.5,9 452,8.5 460.6,8 469.4,7.5 478.6,7.1 488.3,6.6 498.5,6.2 509.5,5.9 521.3,5.6 534,5.3 547.8,5.2 562.7,5 579,5 579,89.2 562.7,89.2 547.8,89.3 534,89.5 521.3,89.7 509.5,90 498.5,90.4 488.3,90.8 478.6,91.2 469.4,91.7 460.6,92.2 452,92.7 443.5,93.1 435,93.6 426.4,94.1 417.6,94.6 408.4,95.1 398.7,95.5 388.5,95.9 377.5,96.3 365.7,96.6 353,96.8 339.2,97 324.3,97.1 308,97.1" fill="#FAC858" fill-opacity="0.5"/>
<rect x="5" y="176.6" width="16" height="163.6" fill="#5470C6"/>
<rect x="292" y="161.2" width="16" height="233.8" fill="#91CC75"/>
<rect x="292" y="13" width="16" height="140.2" fill="#FAC858"/>
<rect x="5" y="5" width="16" height="163.6" fill="#EE6666"/>
<rect x="5" y="348.2" width="16" height="46.8" fill="#73C0DE"/>
<rect x="579" y="200" width="16" height="140.2" fill="#3BA272"/>
<rect x="579" y="5" width="16" height="187" fill="#FC8452"/>
<rect x="579" y="348.2" width="16" height="46.8" fill="#9A60B4"/>
<text font-size="14" x="26" y="258.4" dominant-baseline="central" text-anchor="start" font-family="Roboto" fill="#464646">
Coal
</text>
<text font-size="14" x="287" y="278.1" dominant-baseline="central" text-anchor="end" font-family="Roboto" fill="#464646">
Electricity
</text>
<text font-size="14" x="287" y="83.1" dominant-baseline="central" text-anchor="end" font-family="Roboto" fill="#464646">
Heat
</text>
<text font-size="14" x="26" y="86.8" dominant-baseline="central" text-anchor="start" font-family="Roboto" fill="#464646">
Gas
</text>
<text font-size="14" x="26" y="371.6" dominant-baseline="central" text-anchor="start" font-family="Roboto" fill="#464646">
Solar
</text>
<text font-size="14" x="574" y="270.1" dominant-baseline="central" text-anchor="end" font-family="Roboto" fill="#464646">
Residential
</text>
<text font-size="14" x="574" y="98.5" dominant-baseline="central" text-anchor="end" font-family="Roboto" fill="#464646">
Industrial
</text>
<text font-size="14" x="574" y="371.6" dominant-baseline="central" text-anchor="end" font-family="Roboto" fill="#464646">
Commercial
</text>
</svg>