<svg width="600" height="400" viewBox="0 0 600 400" xmlns="http://www.w3.org/2000/svg">
<rect x="0" y="0" width="600" height="400" fill="#FFFFFF"/>
<text font-size="18" x="248.5" y="5" dy="15" font-weight="bold" dominant-baseline="middle" font-family="Roboto" fill="#464646">
Energy Flow
</text>
<polygon points="21,238.7 37.3,238.7 52.2,238.8 66,239 78.7,239.3 90.5,239.6 101.5,239.9 111.7,240.3 121.4,240.8 130.6,241.2 139.4,241.7 148,242.2 156.5,242.7 165,243.2 173.6,243.7 182.4,244.2 191.6,244.6 201.3,245 211.5,245.4 222.5,245.8 234.3,246.1 247,246.3 260.8,246.5 275.7,246.6 292,246.7 292,352.6 275.7,352.6 260.8,352.5 247,352.3 234.3,352 222.5,351.7 211.5,351.4 201.3,351 191.6,350.6 182.4,350.1 173.6,349.6 165,349.1 156.5,348.6 148,348.1 139.4,347.6 130.6,347.2 121.4,346.7 111.7,346.3 101.5,345.9 90.5,345.5 78.7,345.2 66,345 52.2,344.8 37.3,344.7 21,344.6" fill="#5470C6" fill-opacity="0.5"/>
<polygon points="21,196.3 37.3,196 52.2,195.1 66,193.6 78.7,191.6 90.5,189.2 101.5,186.4 111.7,183.2 121.4,179.8 130.6,176.2 139.4,172.4 148,168.5 156.5,164.5 165,160.6 173.6,156.7 182.4,152.9 191.6,149.2 201.3,145.8 211.5,142.7 222.5,139.9 234.3,137.5 247,135.5 260.8,134 275.7,133.1 292,132.7 292,175.1 275.7,175.4 260.8,176.4 247,177.9 234.3,179.8 222.5,182.3 211.5,185.1 201.3,188.2 191.6,191.6 182.4,195.2 173.6,199 165,202.9 156.5,206.9 148,210.9 139.4,214.8 130.6,218.6 121.4,222.2 111.7,225.6 101.5,228.8 90.5,231.6 78.7,234 66,236 52.2,237.4 37.3,238.4 21,238.7" fill="#5470C6" fill-opacity="0.5"/>
<polygon points="21,124.8 37.3,125 52.2,125.9 66,127.3 78.7,129.1 90.5,131.3 101.5,133.9 111.7,136.8 121.4,139.9 130.6,143.2 139.4,146.7 148,150.3 156.5,153.9 165,157.6 173.6,161.2 182.4,164.7 191.6,168 201.3,171.1 211.5,174 222.5,176.6 234.3,178.8 247,180.6 260.8,182 275.7,182.8 292,183.1 292,246.7 275.7,246.4 260.8,245.5 247,244.2 234.3,242.4 222.5,240.1 211.5,237.6 201.3,234.7 191.6,231.6 182.4,228.2 173.6,224.7 165,221.1 156.5,217.5 148,213.9 139.4,210.3 130.6,206.8 121.4,203.4 111.7,200.3 101.5,197.4 90.5,194.9 78.7,192.6 66,190.8 52.2,189.5 37.3,188.6 21,188.3" fill="#91CC75" fill-opacity="0.5"/>
<polygon points="21,40 37.3,40 52.2,40.2 66,40.3 78.7,40.6 90.5,40.9 101.5,41.2 111.7,41.6 121.4,42.1 130.6,42.5 139.4,43 148,43.5 156.5,44 165,44.5 173.6,45 182.4,45.5 191.6,45.9 201.3,46.4 211.5,46.7 222.5,47.1 234.3,47.4 247,47.7 260.8,47.8 275.7,48 292,48 292,132.7 275.7,132.7 260.8,132.6 247,132.4 234.3,132.2 222.5,131.9 211.5,131.5 201.3,131.1 191.6,130.7 182.4,130.2 173.6,129.7 165,129.2 156.5,128.7 148,128.3 139.4,127.8 130.6,127.3 121.4,126.8 111.7,126.4 101.5,126 90.5,125.6 78.7,125.3 66,125.1 52.2,124.9 37.3,124.8 21,124.8" fill="#91CC75" fill-opacity="0.5"/>
<polygon points="21,352.6 37.3,352.6 52.2,352.6 66,352.6 78.7,352.6 90.5,352.6 101.5,352.6 111.7,352.6 121.4,352.6 130.6,352.6 139.4,352.6 148,352.6 156.5,352.6 165,352.6 173.6,352.6 182.4,352.6 191.6,352.6 201.3,352.6 211.5,352.6 222.5,352.6 234.3,352.6 247,352.6 260.8,352.6 275.7,352.6 292,352.6 292,395 275.7,395 260.8,395 247,395 234.3,395 222.5,395 211.5,395 201.3,395 191.6,395 182.4,395 173.6,395 165,395 156.5,395 148,395 139.4,395 130.6,395 121.4,395 111.7,395 101.5,395 90.5,395 78.7,395 66,395 52.2,395 37.3,395 21,395" fill="#FAC858" fill-opacity="0.5"/>
<polygon points="308,276.3 324.3,276.3 339.2,276.2 353,276 365.7,275.8 377.5,275.5 388.5,275.1 398.7,274.7 408.4,274.3 417.6,273.8 426.4,273.3 435,272.8 443.5,272.3 452,271.9 460.6,271.4 469.4,270.9 478.6,270.4 488.3,270 498.5,269.6 509.5,269.2 521.3,268.9 534,268.7 547.8,268.5 562.7,268.4 579,268.3 579,344.6 562.7,344.7 547.8,344.8 534,345 521.3,345.2 509.5,345.5 498.5,345.9 488.3,346.3 478.6,346.7 469.4,347.2 460.6,347.6 452,348.1 443.5,348.6 435,349.1 426.4,349.6 417.6,350.1 408.4,350.6 398.7,351 388.5,351.4 377.5,351.7 365.7,352 353,352.3 339.2,352.5 324.3,352.6 308,352.6" fill="#EE6666" fill-opacity="0.5"/>
<polygon points="308,183.1 324.3,182.8 339.2,181.8 353,180.3 365.7,178.2 377.5,175.6 388.5,172.7 398.7,169.4 408.4,165.8 417.6,162 426.4,158 435,153.9 443.5,149.7 452,145.5 460.6,141.4 469.4,137.4 478.6,133.6 488.3,130 498.5,126.7 509.5,123.8 521.3,121.2 534,119.1 547.8,117.6 562.7,116.6 579,116.3 579,209.5 562.7,209.8 547.8,210.8 534,212.4 521.3,214.5 509.5,217 498.5,219.9 488.3,223.2 478.6,226.8 469.4,230.7 460.6,234.6 452,238.8 443.5,242.9 435,247.1 426.4,251.2 417.6,255.2 408.4,259 398.7,262.6 388.5,265.9 377.5,268.9 365.7,271.4 353,273.5 339.2,275 324.3,276 308,276.3" fill="#EE6666" fill-opacity="0.5"/>
<polygon points="308,352.6 324.3,352.6 339.2,352.6 353,352.6 365.7,352.6 377.5,352.6 388.5,352.6 398.7,352.6 408.4,352.6 417.6,352.6 426.4,352.6 435,352.6 443.5,352.6 452,352.6 460.6,352.6 469.4,352.6 478.6,352.6 488.3,352.6 498.5,352.6 509.5,352.6 521.3,352.6 534,352.6 547.8,352.6 562.7,352.6 579,352.6 579,395 562.7,395 547.8,395 534,395 521.3,395 509.5,395 498.5,395 488.3,395 478.6,395 469.4,395 460.6,395 452,395 443.5,395 435,395 426.4,395 417.6,395 408.4,395 398.7,395 388.5,395 377.5,395 365.7,395 353,395 339.2,395 324.3,395 308,395" fill="#EE6666" fill-opacity="0.5"/>
<polygon points="308,124.3 324.3,124.7 339.2,126.1 353,128.3 365.7,131.2 377.5,134.7 388.5,138.8 398.7,143.4 408.4,148.4 417.6,153.8 426.4,159.3 435,165.1 443.5,170.9 452,176.7 460.6,182.4 469.4,188 478.6,193.3 488.3,198.3 498.5,202.9 509.5,207 521.3,210.6 534,213.5 547.8,215.7 562.7,217 579,217.5 579,268.3 562.7,267.9 547.8,266.5 534,264.3 521.3,261.4 509.5,257.9 498.5,253.8 488.3,249.2 478.6,244.2 469.4,238.9 460.6,233.3 452,227.6 443.5,221.7 435,215.9 426.4,210.2 417.6,204.6 408.4,199.3 398.7,194.3 388.5,189.7 377.5,185.6 365.7,182 353,179.1 339.2,177 324.3,175.6 308,175.1" fill="#73C0DE" fill-opacity="0.5"/>
<polygon points="308,48 324.3,48 339.2,47.8 353,47.7 365.7,47.4 377.5,47.1 388.5,46.7 398.7,46.4 408.4,45.9 417.6,45.5 426.4,45 435,44.5 443.5,44 452,43.5 460.6,43 469.4,42.5 478.6,42.1 488.3,41.6 498.5,41.2 509.5,40.9 521.3,40.6 534,40.3 547.8,40.2 562.7,40 579,40 579,116.3 562.7,116.3 547.8,116.4 534,116.6 521.3,116.9 509.5,117.2 498.5,117.5 488.3,117.9 478.6,118.3 469.4,118.8 460.6,119.3 452,119.8 443.5,120.3 435,120.8 426.4,121.3 417.6,121.7 408.4,122.2 398.7,122.6 388.5,123 377.5,123.4 365.7,123.7 353,123.9 339.2,124.1 324.3,124.2 308,124.3" fill="#73C0DE" fill-opacity="0.5"/>
<rect x="5" y="196.3" width="16" height="148.3" fill="#5470C6"/>
<rect x="5" y="40" width="16" height="148.3" fill="#91CC75"/>
<rect x="5" y="352.6" width="16" height="42.4" fill="#FAC858"/>
<rect x="292" y="183.1" width="16" height="211.9" fill="#EE6666"/>
<rect x="292" y="48" width="16" height="127.1" fill="#73C0DE"/>
<rect x="579" y="217.5" width="16" height="127.1" fill="#3BA272"/>
<rect x="579" y="40" width="16" height="169.5" fill="#FC8452"/>
<rect x="579" y="352.6" width="16" height="42.4" fill="#9A60B4"/>
<text font-size="14" x="26" y="270.5" dominant-baseline="central" text-anchor="start" font-family="Roboto" fill="#464646">
Coal
</text>
<text font-size="14" x="26" y="114.2" dominant-baseline="central" text-anchor="start" font-family="Roboto" fill="#464646">
Gas
</text>
<text font-size="14" x="26" y="373.8" dominant-baseline="central" text-anchor="start" font-family="Roboto" fill="#464646">
Solar
</text>
<text font-size="14" x="287" y="289.1" dominant-baseline="central" text-anchor="end" font-family="Roboto" fill="#464646">
Electricity
</text>
<text font-size="14" x="287" y="111.6" dominant-baseline="central" text-anchor="end" font-family="Roboto" fill="#464646">
Heat
</text>
<text font-size="14" x="574" y="281.1" dominant-baseline="central" text-anchor="end" font-family="Roboto" fill="#464646">
Residential
</text>
<text font-size="14" x="574" y="124.7" dominant-baseline="central" text-anchor="end" font-family="Roboto" fill="#464646">
Industrial
</text>
<text font-size="14" x="574" y="373.8" dominant-baseline="central" text-anchor="end" font-family="Roboto" fill="#464646">
Commercial
</text>
</svg>