<svg width="600" height="400" viewBox="0 0 600 400" xmlns="http://www.w3.org/2000/svg">
<rect x="0" y="0" width="600" height="400" fill="#FFFFFF"/>
<text font-size="18" x="5" y="5" dy="15" font-weight="bold" dominant-baseline="middle" font-family="Roboto" fill="#464646">
Male and female height and weight distribution
</text>
<text font-size="14" x="5" y="35" dy="10" dominant-baseline="middle" font-family="Roboto" fill="#464646">
Data from: Heinz 2003
</text>
<g>
<line stroke-width="2" x1="436" y1="15" x2="461" y2="15" stroke="#5470C6"/>
<circle cx="448.5" cy="15" r="5.5" stroke-width="2" stroke="#5470C6" fill="#FFFFFF"/>
<text font-size="14" x="464" y="19" font-family="Roboto" fill="#464646">
Female
</text>
</g>
<g>
<line stroke-width="2" x1="517" y1="15" x2="542" y2="15" stroke="#91CC75"/>
<circle cx="529.5" cy="15" r="5.5" stroke-width="2" stroke="#91CC75" fill="#FFFFFF"/>
<text font-size="14" x="545" y="19" font-family="Roboto" fill="#464646">
Male
</text>
</g>
<g stroke="#E0E6F2">
<line stroke-width="1" x1="53" y1="60" x2="580" y2="60"/><line stroke-width="1" x1="53" y1="110.8" x2="580" y2="110.8"/><line stroke-width="1" x1="53" y1="161.7" x2="580" y2="161.7"/><line stroke-width="1" x1="53" y1="212.5" x2="580" y2="212.5"/><line stroke-width="1" x1="53" y1="263.3" x2="580" y2="263.3"/><line stroke-width="1" x1="53" y1="314.2" x2="580" y2="314.2"/>
</g>
<g stroke="#E0E6F2">
<line stroke-width="1" x1="140.8" y1="60" x2="140.8" y2="365"/><line stroke-width="1" x1="228.7" y1="60" x2="228.7" y2="365"/><line stroke-width="1" x1="316.5" y1="60" x2="316.5" y2="365"/><line stroke-width="1" x1="404.3" y1="60" x2="404.3" y2="365"/><line stroke-width="1" x1="492.2" y1="60" x2="492.2" y2="365"/><line stroke-width="1" x1="580" y1="60" x2="580" y2="365"/>
</g>
<g>
<g stroke="#6E7079">
<line stroke-width="1" x1="53" y1="60" x2="53" y2="365"/>
<line stroke-width="1" x1="53" y1="60" x2="48" y2="60"/>
<line stroke-width="1" x1="53" y1="110.8" x2="48" y2="110.8"/>
<line stroke-width="1" x1="53" y1="161.7" x2="48" y2="161.7"/>
<line stroke-width="1" x1="53" y1="212.5" x2="48" y2="212.5"/>
<line stroke-width="1" x1="53" y1="263.3" x2="48" y2="263.3"/>
<line stroke-width="1" x1="53" y1="314.2" x2="48" y2="314.2"/>
<line stroke-width="1" x1="53" y1="365" x2="48" y2="365"/>
</g>
<text font-size="14" x="2" y="65" font-family="Roboto" fill="#6E7079">
130 kg
</text>
<text font-size="14" x="2" y="115.8" font-family="Roboto" fill="#6E7079">
115 kg
</text>
<text font-size="14" x="2" y="166.7" font-family="Roboto" fill="#6E7079">
100 kg
</text>
<text font-size="14" x="10" y="217.5" font-family="Roboto" fill="#6E7079">
85 kg
</text>
<text font-size="14" x="10" y="268.3" font-family="Roboto" fill="#6E7079">
70 kg
</text>
<text font-size="14" x="10" y="319.2" font-family="Roboto" fill="#6E7079">
55 kg
</text>
<text font-size="14" x="10" y="370" font-family="Roboto" fill="#6E7079">
40 kg
</text>
</g>
<g>
<g stroke="#6E7079">
<line stroke-width="1" x1="53" y1="365" x2="580" y2="365"/>
<line stroke-width="1" x1="53" y1="365" x2="53" y2="370"/>
<line stroke-width="1" x1="140.8" y1="365" x2="140.8" y2="370"/>
<line stroke-width="1" x1="228.7" y1="365" x2="228.7" y2="370"/>
<line stroke-width="1" x1="316.5" y1="365" x2="316.5" y2="370"/>
<line stroke-width="1" x1="404.3" y1="365" x2="404.3" y2="370"/>
<line stroke-width="1" x1="492.2" y1="365" x2="492.2" y2="370"/>
<line stroke-width="1" x1="580" y1="365" x2="580" y2="370"/>
</g>
<text font-size="14" x="29" y="384" font-family="Roboto" fill="#6E7079">
140 cm
</text>
<text font-size="14" x="116.8" y="384" font-family="Roboto" fill="#6E7079">
155 cm
</text>
<text font-size="14" x="204.7" y="384" font-family="Roboto" fill="#6E7079">
170 cm
</text>
<text font-size="14" x="292.5" y="384" font-family="Roboto" fill="#6E7079">
185 cm
</text>
<text font-size="14" x="380.3" y="384" font-family="Roboto" fill="#6E7079">
200 cm
</text>
<text font-size="14" x="468.2" y="384" font-family="Roboto" fill="#6E7079">
215 cm
</text>
<text font-size="14" x="556" y="384" font-family="Roboto" fill="#6E7079">
230 cm
</text>
</g>
<circle cx="177.1" cy="325.7" r="6" stroke-width="1" fill-opacity="0.8" fill="#5470C6"/>
<circle cx="214" cy="300.6" r="6" stroke-width="1" fill-opacity="0.8" fill="#5470C6"/>
<circle cx="167.2" cy="333.8" r="6" stroke-width="1" fill-opacity="0.8" fill="#5470C6"/>
<circle cx="152.5" cy="287.1" r="6" stroke-width="1" fill-opacity="0.8" fill="#5470C6"/>
<circle cx="145.5" cy="318.9" r="6" stroke-width="1" fill-opacity="0.8" fill="#5470C6"/>
<circle cx="228.7" cy="300.6" r="6" stroke-width="1" fill-opacity="0.8" fill="#5470C6"/>
<circle cx="164.8" cy="339.2" r="6" stroke-width="1" fill-opacity="0.8" fill="#5470C6"/>
<circle cx="205.2" cy="264" r="6" stroke-width="1" fill-opacity="0.8" fill="#5470C6"/>
<circle cx="265" cy="274.2" r="6" stroke-width="1" fill-opacity="0.8" fill="#5470C6"/>
<circle cx="171.3" cy="245.7" r="6" stroke-width="1" fill-opacity="0.8" fill="#5470C6"/>
<circle cx="243.3" cy="313.5" r="6" stroke-width="1" fill-opacity="0.8" fill="#5470C6"/>
<circle cx="233.9" cy="316.9" r="6" stroke-width="1" fill-opacity="0.8" fill="#5470C6"/>
<circle cx="245.6" cy="288.8" r="6" stroke-width="1" fill-opacity="0.8" fill="#5470C6"/>
<circle cx="131.5" cy="358.2" r="6" stroke-width="1" fill-opacity="0.8" fill="#5470C6"/>
<circle cx="170.1" cy="331.1" r="6" stroke-width="1" fill-opacity="0.8" fill="#5470C6"/>
<circle cx="95.2" cy="331.8" r="6" stroke-width="1" fill-opacity="0.8" fill="#5470C6"/>
<circle cx="218.1" cy="333.8" r="6" stroke-width="1" fill-opacity="0.8" fill="#5470C6"/>
<circle cx="257.9" cy="252.5" r="6" stroke-width="1" fill-opacity="0.8" fill="#5470C6"/>
<circle cx="152.5" cy="338.6" r="6" stroke-width="1" fill-opacity="0.8" fill="#5470C6"/>
<circle cx="214.6" cy="267.4" r="6" stroke-width="1" fill-opacity="0.8" fill="#5470C6"/>
<circle cx="167.2" cy="329.1" r="6" stroke-width="1" fill-opacity="0.8" fill="#5470C6"/>
<circle cx="257.9" cy="221" r="6" stroke-width="1" fill-opacity="0.8" fill="#5470C6"/>
<circle cx="209.9" cy="306.7" r="6" stroke-width="1" fill-opacity="0.8" fill="#5470C6"/>
<circle cx="266.7" cy="203" r="6" stroke-width="1" fill-opacity="0.8" fill="#5470C6"/>
<circle cx="229.8" cy="253.8" r="6" stroke-width="1" fill-opacity="0.8" fill="#5470C6"/>
<polygon points="252.1,272.2 257.3,281.2 246.9,281.2" fill="#91CC75" fill-opacity="0.8"/>
<polygon points="259.7,251.2 264.9,260.2 254.5,260.2" fill="#91CC75" fill-opacity="0.8"/>
<polygon points="366.3,221.1 371.5,230.1 361.1,230.1" fill="#91CC75" fill-opacity="0.8"/>
<polygon points="325.3,248.5 330.5,257.5 320.1,257.5" fill="#91CC75" fill-opacity="0.8"/>
<polygon points="329.4,227.5 334.6,236.5 324.2,236.5" fill="#91CC75" fill-opacity="0.8"/>
<polygon points="296,241.1 301.2,250.1 290.8,250.1" fill="#91CC75" fill-opacity="0.8"/>
<polygon points="310.6,201.8 315.8,210.8 305.4,210.8" fill="#91CC75" fill-opacity="0.8"/>
<polygon points="313.6,228.9 318.8,237.9 308.4,237.9" fill="#91CC75" fill-opacity="0.8"/>
<polygon points="257.9,284.4 263.1,293.4 252.7,293.4" fill="#91CC75" fill-opacity="0.8"/>
<polygon points="310.6,218 315.8,227 305.4,227" fill="#91CC75" fill-opacity="0.8"/>
<polygon points="287.2,235 292.4,244 282,244" fill="#91CC75" fill-opacity="0.8"/>
<polygon points="274.3,211.2 279.5,220.2 269.1,220.2" fill="#91CC75" fill-opacity="0.8"/>
<polygon points="357.5,189.6 362.7,198.6 352.3,198.6" fill="#91CC75" fill-opacity="0.8"/>
<polygon points="263.8,241.7 269,250.7 258.6,250.7" fill="#91CC75" fill-opacity="0.8"/>
<polygon points="252.1,253.9 257.3,262.9 246.9,262.9" fill="#91CC75" fill-opacity="0.8"/>
<polygon points="310.6,224.8 315.8,233.8 305.4,233.8" fill="#91CC75" fill-opacity="0.8"/>
<polygon points="361.6,176.7 366.8,185.7 356.4,185.7" fill="#91CC75" fill-opacity="0.8"/>
<polygon points="237.5,257.3 242.6,266.3 232.3,266.3" fill="#91CC75" fill-opacity="0.8"/>
<polygon points="246.2,249.2 251.4,258.2 241,258.2" fill="#91CC75" fill-opacity="0.8"/>
<polygon points="263.8,203.4 269,212.4 258.6,212.4" fill="#91CC75" fill-opacity="0.8"/>
<polygon points="263.8,227.5 269,236.5 258.6,236.5" fill="#91CC75" fill-opacity="0.8"/>
<polygon points="290.1,230.9 295.3,239.9 285,239.9" fill="#91CC75" fill-opacity="0.8"/>
<polygon points="244.5,270.2 249.7,279.2 239.3,279.2" fill="#91CC75" fill-opacity="0.8"/>
<polygon points="263.8,201.8 269,210.8 258.6,210.8" fill="#91CC75" fill-opacity="0.8"/>
<polygon points="249.2,217.3 254.4,226.3 244,226.3" fill="#91CC75" fill-opacity="0.8"/>
</svg>