<svg width="630" height="410" viewBox="0 0 630 410" xmlns="http://www.w3.org/2000/svg">
<rect x="0" y="0" width="630" height="410" fill="#FFFFFF"/>
<text font-size="18" x="10" y="5" dy="15" font-weight="bold" dominant-baseline="middle" font-family="Roboto" fill="#464646">
Male and female height and weight distribution
</text>
<text font-size="14" x="10" y="35" dy="10" dominant-baseline="middle" font-family="Roboto" fill="#464646">
Data from: Heinz 2003
</text>
<g>
<line stroke-width="2" x1="466" y1="15" x2="491" y2="15" stroke="#5470C6"/>
<circle cx="478.5" cy="15" r="5.5" stroke-width="2" stroke="#5470C6" fill="#FFFFFF"/>
<text font-size="14" x="494" y="19" font-family="Roboto" fill="#464646">
Female
</text>
</g>
<g>
<line stroke-width="2" x1="547" y1="15" x2="572" y2="15" stroke="#91CC75"/>
<circle cx="559.5" cy="15" r="5.5" stroke-width="2" stroke="#91CC75" fill="#FFFFFF"/>
<text font-size="14" x="575" y="19" font-family="Roboto" fill="#464646">
Male
</text>
</g>
<g stroke="#E0E6F2">
<line stroke-width="1" x1="58" y1="60" x2="610" y2="60"/><line stroke-width="1" x1="58" y1="113.3" x2="610" y2="113.3"/><line stroke-width="1" x1="58" y1="166.7" x2="610" y2="166.7"/><line stroke-width="1" x1="58" y1="220" x2="610" y2="220"/><line stroke-width="1" x1="58" y1="273.3" x2="610" y2="273.3"/><line stroke-width="1" x1="58" y1="326.7" x2="610" y2="326.7"/>
</g>
<g stroke="#E0E6F2">
<line stroke-width="1" x1="150" y1="60" x2="150" y2="380"/><line stroke-width="1" x1="242" y1="60" x2="242" y2="380"/><line stroke-width="1" x1="334" y1="60" x2="334" y2="380"/><line stroke-width="1" x1="426" y1="60" x2="426" y2="380"/><line stroke-width="1" x1="518" y1="60" x2="518" y2="380"/><line stroke-width="1" x1="610" y1="60" x2="610" y2="380"/>
</g>
<g>
<g stroke="#6E7079">
<line stroke-width="1" x1="58" y1="60" x2="58" y2="380"/>
<line stroke-width="1" x1="58" y1="60" x2="53" y2="60"/>
<line stroke-width="1" x1="58" y1="113.3" x2="53" y2="113.3"/>
<line stroke-width="1" x1="58" y1="166.7" x2="53" y2="166.7"/>
<line stroke-width="1" x1="58" y1="220" x2="53" y2="220"/>
<line stroke-width="1" x1="58" y1="273.3" x2="53" y2="273.3"/>
<line stroke-width="1" x1="58" y1="326.7" x2="53" y2="326.7"/>
<line stroke-width="1" x1="58" y1="380" x2="53" y2="380"/>
</g>
<text font-size="14" x="7" y="65" font-family="Roboto" fill="#6E7079">
130 kg
</text>
<text font-size="14" x="7" y="118.3" font-family="Roboto" fill="#6E7079">
115 kg
</text>
<text font-size="14" x="7" y="171.7" font-family="Roboto" fill="#6E7079">
100 kg
</text>
<text font-size="14" x="15" y="225" font-family="Roboto" fill="#6E7079">
85 kg
</text>
<text font-size="14" x="15" y="278.3" font-family="Roboto" fill="#6E7079">
70 kg
</text>
<text font-size="14" x="15" y="331.7" font-family="Roboto" fill="#6E7079">
55 kg
</text>
<text font-size="14" x="15" y="385" font-family="Roboto" fill="#6E7079">
40 kg
</text>
</g>
<g>
<g stroke="#6E7079">
<line stroke-width="1" x1="58" y1="380" x2="610" y2="380"/>
<line stroke-width="1" x1="58" y1="380" x2="58" y2="385"/>
<line stroke-width="1" x1="150" y1="380" x2="150" y2="385"/>
<line stroke-width="1" x1="242" y1="380" x2="242" y2="385"/>
<line stroke-width="1" x1="334" y1="380" x2="334" y2="385"/>
<line stroke-width="1" x1="426" y1="380" x2="426" y2="385"/>
<line stroke-width="1" x1="518" y1="380" x2="518" y2="385"/>
<line stroke-width="1" x1="610" y1="380" x2="610" y2="385"/>
</g>
<text font-size="14" x="34" y="399" font-family="Roboto" fill="#6E7079">
140 cm
</text>
<text font-size="14" x="126" y="399" font-family="Roboto" fill="#6E7079">
155 cm
</text>
<text font-size="14" x="218" y="399" font-family="Roboto" fill="#6E7079">
170 cm
</text>
<text font-size="14" x="310" y="399" font-family="Roboto" fill="#6E7079">
185 cm
</text>
<text font-size="14" x="402" y="399" font-family="Roboto" fill="#6E7079">
200 cm
</text>
<text font-size="14" x="494" y="399" font-family="Roboto" fill="#6E7079">
215 cm
</text>
<text font-size="14" x="586" y="399" font-family="Roboto" fill="#6E7079">
230 cm
</text>
</g>
<circle cx="188" cy="338.8" r="6" stroke-width="1" fill-opacity="0.8" fill="#5470C6"/>
<circle cx="226.7" cy="312.4" r="6" stroke-width="1" fill-opacity="0.8" fill="#5470C6"/>
<circle cx="177.6" cy="347.3" r="6" stroke-width="1" fill-opacity="0.8" fill="#5470C6"/>
<circle cx="162.3" cy="298.2" r="6" stroke-width="1" fill-opacity="0.8" fill="#5470C6"/>
<circle cx="154.9" cy="331.6" r="6" stroke-width="1" fill-opacity="0.8" fill="#5470C6"/>
<circle cx="242" cy="312.4" r="6" stroke-width="1" fill-opacity="0.8" fill="#5470C6"/>
<circle cx="175.1" cy="353" r="6" stroke-width="1" fill-opacity="0.8" fill="#5470C6"/>
<circle cx="217.5" cy="274" r="6" stroke-width="1" fill-opacity="0.8" fill="#5470C6"/>
<circle cx="280" cy="284.7" r="6" stroke-width="1" fill-opacity="0.8" fill="#5470C6"/>
<circle cx="181.9" cy="254.8" r="6" stroke-width="1" fill-opacity="0.8" fill="#5470C6"/>
<circle cx="257.3" cy="326" r="6" stroke-width="1" fill-opacity="0.8" fill="#5470C6"/>
<circle cx="247.5" cy="329.5" r="6" stroke-width="1" fill-opacity="0.8" fill="#5470C6"/>
<circle cx="259.8" cy="300" r="6" stroke-width="1" fill-opacity="0.8" fill="#5470C6"/>
<circle cx="140.2" cy="372.9" r="6" stroke-width="1" fill-opacity="0.8" fill="#5470C6"/>
<circle cx="180.7" cy="344.4" r="6" stroke-width="1" fill-opacity="0.8" fill="#5470C6"/>
<circle cx="102.2" cy="345.2" r="6" stroke-width="1" fill-opacity="0.8" fill="#5470C6"/>
<circle cx="231" cy="347.3" r="6" stroke-width="1" fill-opacity="0.8" fill="#5470C6"/>
<circle cx="272.7" cy="262" r="6" stroke-width="1" fill-opacity="0.8" fill="#5470C6"/>
<circle cx="162.3" cy="352.3" r="6" stroke-width="1" fill-opacity="0.8" fill="#5470C6"/>
<circle cx="227.3" cy="277.6" r="6" stroke-width="1" fill-opacity="0.8" fill="#5470C6"/>
<circle cx="177.6" cy="342.3" r="6" stroke-width="1" fill-opacity="0.8" fill="#5470C6"/>
<circle cx="272.7" cy="228.9" r="6" stroke-width="1" fill-opacity="0.8" fill="#5470C6"/>
<circle cx="222.4" cy="318.8" r="6" stroke-width="1" fill-opacity="0.8" fill="#5470C6"/>
<circle cx="281.9" cy="210" r="6" stroke-width="1" fill-opacity="0.8" fill="#5470C6"/>
<circle cx="243.2" cy="263.4" r="6" stroke-width="1" fill-opacity="0.8" fill="#5470C6"/>
<polygon points="266.5,283 271.7,292 261.3,292" fill="#91CC75" fill-opacity="0.8"/>
<polygon points="274.5,260.9 279.7,269.9 269.3,269.9" fill="#91CC75" fill-opacity="0.8"/>
<polygon points="386.1,229.3 391.3,238.3 380.9,238.3" fill="#91CC75" fill-opacity="0.8"/>
<polygon points="343.2,258.1 348.4,267.1 338,267.1" fill="#91CC75" fill-opacity="0.8"/>
<polygon points="347.5,236 352.7,245 342.3,245" fill="#91CC75" fill-opacity="0.8"/>
<polygon points="312.5,250.3 317.7,259.3 307.3,259.3" fill="#91CC75" fill-opacity="0.8"/>
<polygon points="327.9,209 333.1,218 322.7,218" fill="#91CC75" fill-opacity="0.8"/>
<polygon points="330.9,237.5 336.1,246.5 325.7,246.5" fill="#91CC75" fill-opacity="0.8"/>
<polygon points="272.7,295.8 277.9,304.8 267.5,304.8" fill="#91CC75" fill-opacity="0.8"/>
<polygon points="327.9,226.1 333.1,235.1 322.7,235.1" fill="#91CC75" fill-opacity="0.8"/>
<polygon points="303.3,243.9 308.5,252.9 298.1,252.9" fill="#91CC75" fill-opacity="0.8"/>
<polygon points="289.8,219 295,228 284.6,228" fill="#91CC75" fill-opacity="0.8"/>
<polygon points="376.9,196.2 382.1,205.2 371.7,205.2" fill="#91CC75" fill-opacity="0.8"/>
<polygon points="278.8,251 284,260 273.6,260" fill="#91CC75" fill-opacity="0.8"/>
<polygon points="266.5,263.8 271.7,272.8 261.3,272.8" fill="#91CC75" fill-opacity="0.8"/>
<polygon points="327.9,233.2 333.1,242.2 322.7,242.2" fill="#91CC75" fill-opacity="0.8"/>
<polygon points="381.2,182.7 386.4,191.7 376,191.7" fill="#91CC75" fill-opacity="0.8"/>
<polygon points="251.2,267.3 256.4,276.3 246,276.3" fill="#91CC75" fill-opacity="0.8"/>
<polygon points="260.4,258.8 265.6,267.8 255.2,267.8" fill="#91CC75" fill-opacity="0.8"/>
<polygon points="278.8,210.8 284,219.8 273.6,219.8" fill="#91CC75" fill-opacity="0.8"/>
<polygon points="278.8,236 284,245 273.6,245" fill="#91CC75" fill-opacity="0.8"/>
<polygon points="306.4,239.6 311.6,248.6 301.2,248.6" fill="#91CC75" fill-opacity="0.8"/>
<polygon points="258.6,280.8 263.8,289.8 253.4,289.8" fill="#91CC75" fill-opacity="0.8"/>
<polygon points="278.8,209 284,218 273.6,218" fill="#91CC75" fill-opacity="0.8"/>
<polygon points="263.5,225.4 268.7,234.4 258.3,234.4" fill="#91CC75" fill-opacity="0.8"/>
</svg>