<svg width="600" height="400" viewBox="0 0 600 400" xmlns="http://www.w3.org/2000/svg">
<rect x="0" y="0" width="600" height="400" fill="#FFFFFF"/>
<text font-size="18" x="5" y="5" dy="15" font-weight="bold" dominant-baseline="middle" font-family="Roboto" fill="#464646">
Countries
</text>
<g>
<line stroke-width="2" x1="458" y1="15" x2="483" y2="15" stroke="#5470C6"/>
<circle cx="470.5" cy="15" r="5.5" stroke-width="2" stroke="#5470C6" fill="#FFFFFF"/>
<text font-size="14" x="486" y="19" font-family="Roboto" fill="#464646">
Asia
</text>
</g>
<g>
<line stroke-width="2" x1="520" y1="15" x2="545" y2="15" stroke="#91CC75"/>
<circle cx="532.5" cy="15" r="5.5" stroke-width="2" stroke="#91CC75" fill="#FFFFFF"/>
<text font-size="14" x="548" y="19" font-family="Roboto" fill="#464646">
Europe
</text>
</g>
<text font-size="14" x="320.5" y="391.5" text-anchor="middle" font-family="Roboto" fill="#6E7079">
GDP per capita (k$)
</text>
<text font-size="14" transform="translate(16.9,192.5) rotate(-90)" text-anchor="middle" font-family="Roboto" fill="#6E7079">
Life expectancy
</text>
<g stroke="#E0E6F2" stroke-width="1">
<line x1="46" y1="40" x2="595" y2="40"/><line x1="46" y1="90.8" x2="595" y2="90.8"/><line x1="46" y1="141.7" x2="595" y2="141.7"/><line x1="46" y1="192.5" x2="595" y2="192.5"/><line x1="46" y1="243.3" x2="595" y2="243.3"/><line x1="46" y1="294.2" x2="595" y2="294.2"/>
</g>
<g stroke="#E0E6F2" stroke-width="1">
<line x1="137.5" y1="40" x2="137.5" y2="345"/><line x1="229" y1="40" x2="229" y2="345"/><line x1="320.5" y1="40" x2="320.5" y2="345"/><line x1="412" y1="40" x2="412" y2="345"/><line x1="503.5" y1="40" x2="503.5" y2="345"/><line x1="595" y1="40" x2="595" y2="345"/>
</g>
<g>
<g stroke="#6E7079" stroke-width="1">
<line x1="46" y1="40" x2="46" y2="345"/>
<line x1="46" y1="40" x2="41" y2="40"/>
<line x1="46" y1="90.8" x2="41" y2="90.8"/>
<line x1="46" y1="141.7" x2="41" y2="141.7"/>
<line x1="46" y1="192.5" x2="41" y2="192.5"/>
<line x1="46" y1="243.3" x2="41" y2="243.3"/>
<line x1="46" y1="294.2" x2="41" y2="294.2"/>
<line x1="46" y1="345" x2="41" y2="345"/>
</g>
<text font-size="14" x="22" y="45" font-family="Roboto" fill="#6E7079">
90
</text>
<text font-size="14" x="22" y="95.8" font-family="Roboto" fill="#6E7079">
75
</text>
<text font-size="14" x="22" y="146.7" font-family="Roboto" fill="#6E7079">
60
</text>
<text font-size="14" x="22" y="197.5" font-family="Roboto" fill="#6E7079">
45
</text>
<text font-size="14" x="22" y="248.3" font-family="Roboto" fill="#6E7079">
30
</text>
<text font-size="14" x="22" y="299.2" font-family="Roboto" fill="#6E7079">
15
</text>
<text font-size="14" x="30" y="350" font-family="Roboto" fill="#6E7079">
0
</text>
</g>
<g>
<g stroke="#6E7079" stroke-width="1">
<line x1="46" y1="345" x2="595" y2="345"/>
<line x1="46" y1="345" x2="46" y2="350"/>
<line x1="137.5" y1="345" x2="137.5" y2="350"/>
<line x1="229" y1="345" x2="229" y2="350"/>
<line x1="320.5" y1="345" x2="320.5" y2="350"/>
<line x1="412" y1="345" x2="412" y2="350"/>
<line x1="503.5" y1="345" x2="503.5" y2="350"/>
<line x1="595" y1="345" x2="595" y2="350"/>
</g>
<text font-size="14" x="42" y="364" font-family="Roboto" fill="#6E7079">
0
</text>
<text font-size="14" x="129.5" y="364" font-family="Roboto" fill="#6E7079">
10
</text>
<text font-size="14" x="221" y="364" font-family="Roboto" fill="#6E7079">
20
</text>
<text font-size="14" x="312.5" y="364" font-family="Roboto" fill="#6E7079">
30
</text>
<text font-size="14" x="404" y="364" font-family="Roboto" fill="#6E7079">
40
</text>
<text font-size="14" x="495.5" y="364" font-family="Roboto" fill="#6E7079">
50
</text>
<text font-size="14" x="587" y="364" font-family="Roboto" fill="#6E7079">
60
</text>
</g>
<circle cx="155.8" cy="84.1" r="30" fill-opacity="0.82" fill="#5470C6" data-series="Asia" data-x="12" data-y="77" data-size="1400"/>
<circle cx="68" cy="107.8" r="29.8" fill-opacity="0.82" fill="#5470C6" data-series="Asia" data-x="2.4" data-y="70" data-size="1380"/>
<circle cx="412" cy="60.3" r="10.6" fill-opacity="0.82" fill="#5470C6" data-series="Asia" data-x="40" data-y="84" data-size="125"/>
<circle cx="348" cy="63.7" r="6.6" fill-opacity="0.82" fill="#5470C6" data-series="Asia" data-x="33" data-y="83" data-size="52"/>
<circle cx="485.2" cy="70.5" r="8.7" fill-opacity="0.82" fill="#91CC75" data-series="Europe" data-x="48" data-y="81" data-size="83"/>
<circle cx="439.4" cy="67.1" r="7.8" fill-opacity="0.82" fill="#91CC75" data-series="Europe" data-x="43" data-y="82" data-size="67"/>
<circle cx="366.2" cy="63.7" r="7.3" fill-opacity="0.82" fill="#91CC75" data-series="Europe" data-x="35" data-y="83" data-size="60"/>
<circle cx="183.2" cy="87.4" r="4" fill-opacity="0.82" fill="#91CC75" data-series="Europe" data-x="15" data-y="76" data-size="38"/>
</svg>