<svg width="600" height="400" viewBox="0 0 600 400" xmlns="http://www.w3.org/2000/svg">
<rect x="0" y="0" width="600" height="400" fill="#FFFFFF"/>
<text font-size="18" x="5" y="5" dy="15" font-weight="bold" dominant-baseline="middle" font-family="Roboto" fill="#464646">
Male and female height and weight distribution
</text>
<text font-size="14" x="5" y="35" dy="10" dominant-baseline="middle" font-family="Roboto" fill="#464646">
Data from: Heinz 2003
</text>
<g>
<line stroke-width="2" x1="436" y1="15" x2="461" y2="15" stroke="#5470C6"/>
<circle cx="448.5" cy="15" r="5.5" stroke-width="2" stroke="#5470C6" fill="#FFFFFF"/>
<text font-size="14" x="464" y="19" font-family="Roboto" fill="#464646">
Female
</text>
</g>
<g>
<line stroke-width="2" x1="517" y1="15" x2="542" y2="15" stroke="#91CC75"/>
<circle cx="529.5" cy="15" r="5.5" stroke-width="2" stroke="#91CC75" fill="#FFFFFF"/>
<text font-size="14" x="545" y="19" font-family="Roboto" fill="#464646">
Male
</text>
</g>
<g stroke="#E0E6F2">
<line stroke-width="1" x1="5" y1="60" x2="580" y2="60"/><line stroke-width="1" x1="5" y1="115.8" x2="580" y2="115.8"/><line stroke-width="1" x1="5" y1="171.7" x2="580" y2="171.7"/><line stroke-width="1" x1="5" y1="227.5" x2="580" y2="227.5"/><line stroke-width="1" x1="5" y1="283.3" x2="580" y2="283.3"/><line stroke-width="1" x1="5" y1="339.2" x2="580" y2="339.2"/>
</g>
<g stroke="#E0E6F2">
<line stroke-width="1" x1="100.8" y1="60" x2="100.8" y2="395"/><line stroke-width="1" x1="196.7" y1="60" x2="196.7" y2="395"/><line stroke-width="1" x1="292.5" y1="60" x2="292.5" y2="395"/><line stroke-width="1" x1="388.3" y1="60" x2="388.3" y2="395"/><line stroke-width="1" x1="484.2" y1="60" x2="484.2" y2="395"/><line stroke-width="1" x1="580" y1="60" x2="580" y2="395"/>
</g>
<circle cx="140.4" cy="351.8" r="6" stroke-width="1" fill-opacity="0.8" fill="#5470C6"/>
<circle cx="180.7" cy="324.3" r="6" stroke-width="1" fill-opacity="0.8" fill="#5470C6"/>
<circle cx="129.6" cy="360.8" r="6" stroke-width="1" fill-opacity="0.8" fill="#5470C6"/>
<circle cx="113.6" cy="309.4" r="6" stroke-width="1" fill-opacity="0.8" fill="#5470C6"/>
<circle cx="105.9" cy="344.4" r="6" stroke-width="1" fill-opacity="0.8" fill="#5470C6"/>
<circle cx="196.7" cy="324.3" r="6" stroke-width="1" fill-opacity="0.8" fill="#5470C6"/>
<circle cx="127" cy="366.7" r="6" stroke-width="1" fill-opacity="0.8" fill="#5470C6"/>
<circle cx="171.1" cy="284.1" r="6" stroke-width="1" fill-opacity="0.8" fill="#5470C6"/>
<circle cx="236.3" cy="295.2" r="6" stroke-width="1" fill-opacity="0.8" fill="#5470C6"/>
<circle cx="134.1" cy="264" r="6" stroke-width="1" fill-opacity="0.8" fill="#5470C6"/>
<circle cx="212.6" cy="338.4" r="6" stroke-width="1" fill-opacity="0.8" fill="#5470C6"/>
<circle cx="202.4" cy="342.1" r="6" stroke-width="1" fill-opacity="0.8" fill="#5470C6"/>
<circle cx="215.2" cy="311.2" r="6" stroke-width="1" fill-opacity="0.8" fill="#5470C6"/>
<circle cx="90.6" cy="387.6" r="6" stroke-width="1" fill-opacity="0.8" fill="#5470C6"/>
<circle cx="132.8" cy="357.8" r="6" stroke-width="1" fill-opacity="0.8" fill="#5470C6"/>
<circle cx="51" cy="358.5" r="6" stroke-width="1" fill-opacity="0.8" fill="#5470C6"/>
<circle cx="185.2" cy="360.8" r="6" stroke-width="1" fill-opacity="0.8" fill="#5470C6"/>
<circle cx="228.6" cy="271.4" r="6" stroke-width="1" fill-opacity="0.8" fill="#5470C6"/>
<circle cx="113.6" cy="366" r="6" stroke-width="1" fill-opacity="0.8" fill="#5470C6"/>
<circle cx="181.3" cy="287.8" r="6" stroke-width="1" fill-opacity="0.8" fill="#5470C6"/>
<circle cx="129.6" cy="355.5" r="6" stroke-width="1" fill-opacity="0.8" fill="#5470C6"/>
<circle cx="228.6" cy="236.8" r="6" stroke-width="1" fill-opacity="0.8" fill="#5470C6"/>
<circle cx="176.2" cy="331" r="6" stroke-width="1" fill-opacity="0.8" fill="#5470C6"/>
<circle cx="238.2" cy="217.1" r="6" stroke-width="1" fill-opacity="0.8" fill="#5470C6"/>
<circle cx="197.9" cy="272.9" r="6" stroke-width="1" fill-opacity="0.8" fill="#5470C6"/>
<polygon points="222.2,293.7 227.4,302.7 217,302.7" fill="#91CC75" fill-opacity="0.8"/>
<polygon points="230.5,270.6 235.7,279.6 225.3,279.6" fill="#91CC75" fill-opacity="0.8"/>
<polygon points="346.8,237.5 352,246.5 341.6,246.5" fill="#91CC75" fill-opacity="0.8"/>
<polygon points="302.1,267.7 307.3,276.7 296.9,276.7" fill="#91CC75" fill-opacity="0.8"/>
<polygon points="306.6,244.6 311.8,253.6 301.4,253.6" fill="#91CC75" fill-opacity="0.8"/>
<polygon points="270.1,259.5 275.3,268.5 264.9,268.5" fill="#91CC75" fill-opacity="0.8"/>
<polygon points="286.1,216.3 291.3,225.3 280.9,225.3" fill="#91CC75" fill-opacity="0.8"/>
<polygon points="289.3,246.1 294.5,255.1 284.1,255.1" fill="#91CC75" fill-opacity="0.8"/>
<polygon points="228.6,307.1 233.8,316.1 223.4,316.1" fill="#91CC75" fill-opacity="0.8"/>
<polygon points="286.1,234.2 291.3,243.2 280.9,243.2" fill="#91CC75" fill-opacity="0.8"/>
<polygon points="260.6,252.8 265.8,261.8 255.4,261.8" fill="#91CC75" fill-opacity="0.8"/>
<polygon points="246.5,226.7 251.7,235.7 241.3,235.7" fill="#91CC75" fill-opacity="0.8"/>
<polygon points="337.2,202.9 342.4,211.9 332,211.9" fill="#91CC75" fill-opacity="0.8"/>
<polygon points="235,260.2 240.2,269.2 229.8,269.2" fill="#91CC75" fill-opacity="0.8"/>
<polygon points="222.2,273.6 227.4,282.6 217,282.6" fill="#91CC75" fill-opacity="0.8"/>
<polygon points="286.1,241.6 291.3,250.6 280.9,250.6" fill="#91CC75" fill-opacity="0.8"/>
<polygon points="341.7,188.7 346.9,197.7 336.5,197.7" fill="#91CC75" fill-opacity="0.8"/>
<polygon points="206.2,277.3 211.4,286.3 201.1,286.3" fill="#91CC75" fill-opacity="0.8"/>
<polygon points="215.8,268.4 221,277.4 210.6,277.4" fill="#91CC75" fill-opacity="0.8"/>
<polygon points="235,218.2 240.2,227.2 229.8,227.2" fill="#91CC75" fill-opacity="0.8"/>
<polygon points="235,244.6 240.2,253.6 229.8,253.6" fill="#91CC75" fill-opacity="0.8"/>
<polygon points="263.8,248.3 268.9,257.3 258.6,257.3" fill="#91CC75" fill-opacity="0.8"/>
<polygon points="213.9,291.5 219.1,300.5 208.7,300.5" fill="#91CC75" fill-opacity="0.8"/>
<polygon points="235,216.3 240.2,225.3 229.8,225.3" fill="#91CC75" fill-opacity="0.8"/>
<polygon points="219,233.4 224.2,242.4 213.8,242.4" fill="#91CC75" fill-opacity="0.8"/>
</svg>